<svg width="640" height="351" viewBox="0 0 640 351" fill="none" xmlns="http://www.w3.org/2000/svg">
<g clip-path="url(#clip0_1307_9401)">
<path d="M688.054 193.418C667.465 211.487 680.87 211.487 680.87 211.487C680.87 211.487 644.95 221.405 630.582 234.174C616.214 246.943 630.582 249.633 630.582 249.633L599.964 263.004C599.964 263.004 603.8 252.303 585.121 250.295C566.443 248.288 479.746 263.687 465.378 274.046C451.01 284.406 465.378 287.779 465.378 287.779C465.378 287.779 447.418 293.802 445.751 296.251C444.084 298.7 449.573 300.146 449.573 300.146L414.615 301.832C414.615 301.832 418.926 298.138 418.207 293.621C417.489 289.104 387.431 283.924 361.568 292.617C361.568 292.617 363.494 289.104 359.183 288.602C354.873 288.1 322.775 302.997 322.775 302.997L289.972 301.652C289.972 301.652 289.728 290.449 284.469 288.441C279.211 286.433 245.79 289.284 245.79 289.284L131.679 285.269C131.679 285.269 76.6064 273.885 46.0742 279.567C20.0249 284.426 15.0678 295.488 14.9241 299.865C-0.219831 298.58 -28.4242 293.842 -42.9216 296.191C-40.0314 295.564 -37.1955 294.521 -34.459 293.079C-32.6629 291.975 -31.2405 290.609 -31.0393 288.943C-31.0393 288.943 -26.8726 288.782 -20.9817 288.341C-8.36652 287.377 12.0649 285.008 15.1109 279.748C19.5363 272.038 4.924 267.2 4.924 267.2L39.8959 265.012L42.1661 256.981L-246.345 259.25V331.024H88.4313C88.4313 331.024 38.5022 334.035 32.755 336.545C27.0077 339.055 47.123 341.564 47.123 341.564L-201.445 346.081L-246.345 350.097V355.618H-141.099H-141.228C-142.033 355.799 -146.314 356.903 -146.314 357.625C-146.314 358.348 40.5424 352.646 93.6325 351L97.0953 350.9H99.1498H100.127H101.808H102.728H105.271H105.558H107.182H107.555C107.555 350.9 102.57 352.907 101.808 354.373C101.769 354.469 101.735 354.57 101.707 354.674C101.521 356.16 406.67 356.582 409.788 354.253C412.906 351.924 401.397 350.559 401.397 350.559H404.486H407.446H409.199C448.15 349.695 620.05 345.921 622.909 345.037C624.981 344.125 627.003 343.005 628.958 341.685L759.406 341.022V181.954C759.406 181.954 708.658 175.429 688.054 193.418ZM49.3214 297.415C48.1719 297.415 42.2666 297.837 35.9878 298.379C34.9659 297.279 33.7761 296.523 32.5108 296.171L49.5226 297.395L49.3214 297.415ZM222.529 337.107H140.401C140.401 337.107 157.872 335.882 161.953 330.522C161.953 330.522 190.445 333.875 196.436 330.522C201.652 327.591 189.554 326.507 186.379 326.225L263.636 330.502C259.225 330.401 228.966 329.9 222.529 337.107ZM511.974 340.56H511.6L479.99 342.568L447.116 342.327L447.806 342.146C449.128 341.805 451.829 341.002 452.116 340.139C452.49 338.874 391.052 338.633 383.523 339.637C375.994 340.641 386.928 342.407 386.928 342.407L349.384 343.652H349.643H349.916H350.218C354.629 342.789 375.261 338.713 382.934 336.364L383.494 336.184C384.244 335.998 384.977 335.695 385.678 335.28C388.178 333.272 381.368 332.771 381.368 332.771L403.265 330.763C403.265 330.763 397.517 333.011 397.704 334.537C398.558 334.883 399.446 335.032 400.334 334.979C413.265 335.923 469.545 335.541 469.545 335.541L525.91 339.436H526.011L529.876 339.717L511.974 340.56Z" fill="url(#paint0_linear_1307_9401)"/>
<path d="M620.05 265.28C587.003 274.314 615.739 276.824 615.739 276.824C615.739 276.824 477.447 290.878 469.185 296.178C460.923 301.478 541.773 300.414 541.773 300.414L414.673 321.976C415.722 321.655 432.618 316.315 434.012 311.456C435.406 306.598 389.112 300.414 356.065 303.425C323.019 306.437 328.766 313.966 328.766 313.966L229.626 308.947C229.626 308.947 247.931 301.197 248.305 296.178C248.678 291.159 163.964 303.425 163.964 303.425C163.964 303.425 91.8076 292.383 49.5511 297.402H49.3499C44.2349 298.005 39.8813 298.607 36.1887 299.169C31.0464 299.863 25.9338 300.936 20.8723 302.382C13.1279 304.811 16.9786 306.397 16.9786 306.397L-86.4715 302.883C-86.4715 302.883 -53.698 297.663 -34.4592 292.966C-27.3901 291.219 -22.16 289.552 -21.0249 288.227C-16.7145 283.309 -63.4826 262.63 -121.314 269.215C-179.146 275.8 -166.574 282.546 -166.574 282.546H-246.316V330.991H88.4598C88.4598 330.991 38.5307 334.002 32.7835 336.512C27.0363 339.022 47.1516 341.531 47.1516 341.531L-201.416 346.048L-246.316 350.064V355.585H-141.07H-141.2L-146.286 357.592L93.661 350.967L97.1238 350.867H99.1783H100.155H101.837H102.756H105.299C104.564 350.993 103.862 351.37 103.255 351.965C102.649 352.561 102.157 353.356 101.822 354.28C101.783 354.376 101.749 354.477 101.722 354.581C100.285 359.339 409.572 358.496 413.15 354.32C416.727 350.144 401.411 350.465 401.411 350.465H404.5H407.46H409.213L630.826 346.45L759.42 340.929V243.195C759.42 243.195 653.096 256.245 620.05 265.28ZM161.953 330.529C161.953 330.529 190.444 333.882 196.436 330.529C201.652 327.598 189.554 326.514 186.378 326.233L263.635 330.509C259.21 330.409 228.951 329.907 222.514 337.114H140.386C140.386 337.114 157.872 335.89 161.953 330.529ZM383.523 339.564C375.965 340.567 386.928 342.334 386.928 342.334L349.384 343.579H349.643H349.916H350.218C354.528 342.796 374.643 339.042 382.933 336.291L383.494 336.11C384.244 335.925 384.976 335.622 385.678 335.207C391.238 332.195 381.367 332.697 381.367 332.697L403.264 330.69C403.264 330.69 397.517 332.938 397.704 334.464C398.557 334.81 399.446 334.959 400.333 334.906C399.672 336.05 399.284 337.034 399.744 337.215C400.621 337.576 482.734 338.781 525.91 339.363H526.011L529.876 339.644L511.973 340.768H511.6C493.18 341.23 470.464 341.792 447.877 342.314C449.199 341.973 451.9 341.17 452.188 340.306C452.489 338.801 391.051 338.56 383.523 339.564V339.564Z" fill="url(#paint1_linear_1307_9401)"/>
<path d="M576.946 98.6446C576.946 98.6446 564.374 85.5746 539.229 87.1005C514.085 88.6263 515.35 106.334 515.35 106.334L525.58 115.71L576.946 98.6446Z" fill="url(#paint2_linear_1307_9401)"/>
<path d="M659.017 56.2271C659.017 56.2271 641.243 47.9554 617.895 56.2271C594.547 64.4987 610.711 76.5648 610.711 76.5648C610.711 76.5648 604.202 89.193 606.918 92.3652C609.633 95.5373 634.404 87.1051 634.404 87.1051H652.407C652.407 87.1051 631.214 95.6377 621.157 103.668C611.099 111.699 622.594 112.04 622.594 112.04C622.594 112.04 598.527 114.209 581.644 126.757C564.762 139.305 566.73 160.124 566.73 160.124L634.591 127.419L689.563 87.1051L703.414 56.99L669.29 80.7407L645.223 76.5648L641.272 67.0283L659.017 56.2271Z" fill="url(#paint3_linear_1307_9401)"/>
<path d="M384.054 169.672C384.054 169.672 378.307 155.859 385.678 135.782C393.049 115.706 427.992 123.736 427.992 123.736C427.992 123.736 431.828 119.42 443.797 118.898C455.765 118.376 470.694 131.727 470.694 131.727L437.547 186.576L400.391 214.322L387.459 207.055C387.459 207.055 388.724 200.69 395.419 192.66C402.115 184.629 412.187 180.814 412.187 180.814L384.054 169.672Z" fill="url(#paint4_linear_1307_9401)"/>
<path d="M274.24 190.217C274.24 190.217 267.056 173.233 249.354 166.808C249.354 166.808 251.725 149.181 239.526 135.789C227.328 122.398 215.101 124.406 215.101 124.406C215.101 124.406 167.442 100.695 134.395 118.905L204.31 180.822L256.524 199.372L274.24 190.217Z" fill="url(#paint5_linear_1307_9401)"/>
<path d="M759.42 11.3094C759.42 11.3094 726.015 15.3248 714.52 21.8497C703.026 28.3747 704.462 36.9072 704.462 36.9072C704.462 36.9072 693.859 37.1482 680.037 46.1827C666.215 55.2172 667.637 67.5242 668.355 69.5319C669.074 71.5396 675.726 71.7805 675.726 71.7805L657.766 76.5588C657.766 76.5588 660.281 73.2863 660.281 70.7767C660.281 68.2671 652.91 69.03 652.91 69.03C652.91 69.03 659.016 59.7345 659.016 56.2211C659.016 52.7076 621.487 61.5012 613.398 72.0415C605.308 82.5818 616.63 79.5703 616.63 79.5703C616.63 79.5703 606.4 86.3361 606.932 92.3592C607.464 98.3822 625.438 98.1413 629.921 96.1336C634.404 94.1259 632.263 90.8534 632.263 90.8534L644.476 91.6163C644.476 91.6163 626.329 106.674 634.231 111.191C634.231 111.191 610.711 114.945 589.877 128.256C569.043 141.567 565.624 156.364 566.701 160.118C567.779 163.872 577.118 165.398 577.118 165.398L539.948 173.931C539.948 173.931 551.974 158.371 545.868 144.318C539.761 130.264 518.037 135.022 518.037 135.022C518.037 135.022 521.629 131.268 520.364 125.747C520.364 125.747 549.819 132.774 562.391 122.976C562.391 122.976 567.42 118.218 567.966 113.199C567.966 113.199 578.023 104.907 576.946 98.6432C575.868 92.3792 534.732 89.8496 521.629 97.8802C508.525 105.911 522.16 104.405 522.16 104.405C522.16 104.405 512.649 104.666 511.212 111.934C509.775 119.202 519.287 122.735 519.287 122.735C519.287 122.735 502.591 121.229 494.502 130.264C486.413 139.299 499.171 139.8 499.171 139.8C499.171 139.8 446.196 118.901 409.558 133.777C373.752 148.313 384.054 169.675 384.054 169.675C384.054 169.675 375.793 174.935 375.433 177.183C375.074 179.432 426.799 187.222 426.799 187.222C426.799 187.222 411.713 189.49 411.713 201.797C411.713 201.797 391.957 202.279 387.46 207.057C382.962 211.836 400.391 214.325 400.391 214.325C400.391 214.325 378.307 218.602 369.859 236.169L311.611 240.847C311.611 240.847 317.602 229.142 271.983 220.107C271.983 220.107 287.099 189.269 260.489 176.22C233.879 163.17 223.132 171.923 223.132 171.923C223.132 171.923 233.549 161.383 234.267 152.348C234.986 143.314 193.95 96.8764 134.409 118.901C119.596 124.382 129.739 137.793 129.739 137.793L101.722 126.088C102.901 125.607 103.915 124.544 104.576 123.096C105.237 121.649 105.499 119.915 105.314 118.218C104.954 111.693 47.4822 86.0952 47.4822 86.0952C47.4822 86.0952 48.2006 64.0108 -11.4269 64.0108C-11.4269 64.0108 -4.24291 65.0147 -1.7285 60.9993C0.785913 56.984 -28.6686 43.9341 -28.6686 43.9341C-28.6686 43.9341 -5.6797 46.9456 -2.08768 41.9264C1.50434 36.9073 -13.2229 20.344 -26.1542 25.8651C-26.1542 25.8651 -36.9303 21.8497 -40.1631 25.8651C-43.3959 29.8804 -33.6974 41.4245 -33.6974 41.4245C-33.6974 41.4245 -57.649 14.3209 -78.2385 21.6891C-93.1094 26.9894 -78.2385 49.9571 -78.2385 49.9571L-110.207 29.8804C-110.207 29.8804 -75.3649 -30.3498 -130.682 -67.572C-185.999 -104.794 -246.345 -122 -246.345 -122V99.1451C-246.345 99.1451 -175.941 139.62 -164.088 132.432C-164.088 132.432 -129.604 140.122 -122.42 132.432C-115.236 124.743 -117.722 117.716 -117.722 117.716L-68.8705 132.432C-68.8705 132.432 -77.8505 139.8 -69.2297 147.831C-60.6088 155.862 23.8036 177.444 86.6639 182.965C84.98 185.415 83.9633 188.612 83.7903 192C83.7903 197.019 102.11 200.031 102.11 200.031C102.11 200.031 66.1894 190.494 43.2005 201.034C20.2116 211.575 32.4245 215.088 32.4245 215.088C32.4245 215.088 20.5708 217.096 15.9012 223.119C11.2316 229.142 20.2116 234.161 20.2116 234.161L1.17389 232.655C1.17389 232.655 8.35794 230.648 8.35794 224.625C8.35794 218.602 -5.65092 216.594 -5.65092 216.594C-5.65092 216.594 13.3868 217.096 15.9012 212.077C18.4156 207.057 -13.9126 194.51 -13.9126 194.51C-13.9126 194.51 -4.57333 196.517 -2.41812 187.483C-0.26291 178.448 -35.1055 165.9 -46.9592 173.931C-58.8128 181.962 -45.5223 184.471 -45.5223 184.471C-53.6882 181.252 -62.0809 179.286 -70.5516 178.609C-70.5516 178.609 -76.0546 168.57 -88.5117 166.563C-100.969 164.555 -104.561 172.586 -104.561 172.586L-111.501 170.919C-111.501 170.919 -104.791 170.257 -104.072 161.885C-103.354 153.513 -123.713 141.146 -154.605 139.8C-154.605 139.8 -214.232 113.038 -246.316 111.693V259.257C-246.316 259.257 -91.8595 263.272 -64.8044 259.257L-75.5804 256.245L35.0537 261.044C35.0537 261.044 29.0623 265.621 31.7061 267.95C34.3498 270.279 112.397 278.992 124.38 275.318L120.07 271.644L148.317 278.33C148.317 278.33 143.777 275.981 138.978 285.698C138.978 285.698 166.048 291.721 206.278 292.383C246.509 293.046 261.926 290.035 265.834 288.027C269.742 286.019 265.834 283.69 265.834 283.69L273.32 286.702C273.32 286.702 269.009 288.228 260.877 292.484C252.745 296.74 287.213 296.74 296.553 295.395C305.892 294.05 289.613 290.035 289.613 290.035C289.613 290.035 299.671 288.368 301.826 285.357C303.981 282.345 285.303 276.663 285.303 276.663L374.859 278.33C374.859 278.33 363.839 278.992 362.402 282.345C360.965 285.698 418.207 285.698 424.429 283.008C430.65 280.317 422.273 278.671 422.273 278.671L465.378 273.973C465.378 273.973 533.87 262.268 558.77 256.908C583.67 251.547 573.138 244.541 573.138 244.541C573.138 244.541 635.639 235.165 657.436 226.793L759.449 205.712L759.42 11.3094Z" fill="url(#paint6_linear_1307_9401)"/>
<path d="M177.183 95.4117C176.908 97.3359 177.115 99.3336 177.769 101.07C178.423 102.806 179.484 104.176 180.775 104.948C185.445 107.96 198.189 112.477 198.189 112.477C198.189 112.477 192.557 114.244 196.364 117.255C200.172 120.267 209.511 119.504 208.793 117.255C208.348 115.875 207.667 114.668 206.81 113.742C206.81 113.742 215.072 115.749 215.618 113.983C216.164 112.216 214.353 110.469 214.353 110.469C214.353 110.469 218.333 107.96 215.79 105.45C213.247 102.94 205.991 101.194 205.991 101.194C205.25 98.3656 204.041 95.822 202.463 93.7704C200.885 91.7189 198.983 90.2176 196.91 89.3887C189.827 86.6382 185.33 95.9136 185.33 95.9136C182.69 94.7726 179.885 94.5998 177.183 95.4117V95.4117Z" fill="url(#paint7_linear_1307_9401)"/>
<path d="M759.42 64.0091C759.42 64.0091 726.015 65.5148 710.21 76.557C694.405 87.5992 710.21 88.1011 710.21 88.1011L677.522 110.687C667.683 109.729 657.804 111.433 648.427 115.707C634.059 122.733 652.019 121.228 652.019 121.228C652.019 121.228 616.458 130.262 597.061 153.351C577.664 176.439 602.808 175.435 602.808 175.435L525.968 204.044C525.968 204.044 529.23 201.816 529.574 191.898C529.919 181.98 507.289 191.898 507.289 191.898C507.289 191.898 542.218 176.138 542.175 170.596C542.046 152.708 457.001 162.084 440.837 180.795C424.673 199.507 471.01 199.025 471.01 199.025C471.01 199.025 445.148 202.037 442.992 209.565C440.837 217.094 460.234 216.09 460.234 216.09C460.234 216.09 405.635 214.083 389.112 230.646C372.589 247.209 423.337 245.703 423.337 245.703C423.337 245.703 396.497 249.719 385.807 254.738C375.117 259.757 391.555 260.761 391.555 260.761L292.415 265.78C292.415 265.78 298.88 256.244 292.415 248.715C285.949 241.186 251.825 239.179 251.825 239.179C251.825 239.179 269.785 232.654 271.581 229.642C273.377 226.631 219.856 221.109 219.856 221.109C219.856 221.109 263.535 219.102 265.834 214.585C268.133 210.067 219.856 190.994 219.856 190.994C219.856 190.994 228.836 189.689 225.962 180.795C223.089 171.901 173.16 149.837 137.24 151.584C137.24 151.584 139.036 147.829 138.849 145.32C138.662 142.81 100.601 125.484 91.6209 126.749C82.6409 128.014 89.2789 136.787 89.2789 136.787C89.2789 136.787 60.5428 103.4 20.4989 92.8593C-19.5449 82.319 -14.1713 93.8632 -14.1713 93.8632C-14.1713 93.8632 -57.0887 61.7404 -70.9252 58.7289C-84.7616 55.7174 -70.9252 65.5148 -70.9252 65.5148C-70.9252 65.5148 -94.8048 39.4151 -116.903 39.917L-129.116 30.3806C-129.116 30.3806 -122.65 27.3691 -127.133 19.3384C-131.616 11.3077 -171.142 -18.0646 -179.045 -19.5703C-186.947 -21.0761 -182.637 -11.0377 -182.637 -11.0377L-246.345 -57.957V99.1433C-246.345 99.1433 -203.485 124.299 -174.418 132.431C-145.352 140.562 -122.42 138.012 -118.469 134.438C-114.518 130.865 -117.391 114.362 -117.391 114.362L-68.8992 132.431C-68.8992 132.431 -73.9424 134.237 -71.6004 145.059C-69.2584 155.88 -8.02167 169.673 17.6685 174.431C43.3586 179.189 86.6352 182.964 86.6352 182.964L103.159 186.738C103.159 186.738 88.1295 184.73 85.1984 190.753C82.2673 196.776 100.271 199.587 100.271 199.587C100.271 199.587 71.1895 198.523 62.2095 202.799C53.2294 207.076 70.1119 210.83 70.1119 210.83C70.1119 210.83 49.8098 207.297 35.4418 214.324C21.0737 221.35 28.9761 228.638 28.9761 228.638C28.9761 228.638 22.3381 231.389 22.3381 234.159C22.3381 236.93 48.919 237.673 48.919 237.673C48.919 237.673 9.4068 234.922 -16.2833 239.179C-16.2833 239.179 -5.09058 237.171 1.14516 232.654C7.38091 228.136 -10.5361 227.895 -10.5361 227.895C-10.5361 227.895 -5.86646 221.872 -6.39808 218.339C-6.9297 214.805 -43.2235 203.803 -43.2235 203.803C-43.2235 203.803 -15.3781 202.037 -14.6597 198.262C-13.9413 194.488 -35.4934 184.73 -45.5511 184.469C-55.6087 184.208 -46.9879 192.5 -46.9879 192.5C-46.9879 192.5 -92.0749 176.7 -118.828 176.941C-118.828 176.941 -113.799 173.688 -113.268 168.669C-112.736 163.65 -192.105 140.04 -192.105 140.04C-192.105 140.04 -182.766 140.542 -182.048 137.289C-181.329 134.037 -246.345 126.247 -246.345 126.247V259.255C-246.345 259.255 -106.745 263.271 -64.8329 259.255L-75.609 256.244L35.0252 261.042L49.6374 263.772C49.6374 263.772 32.9274 264.857 31.6773 267.948C30.4273 271.04 101.722 280.336 124.351 275.317C124.351 275.317 124.883 271.703 106.751 269.294L148.289 278.368L169.841 280.376C169.841 280.376 146.133 281.621 141.105 285.154C136.076 288.688 192.154 293.827 228.032 292.402C263.909 290.976 265.733 288.527 267.4 286.78C269.067 285.034 265.863 283.729 265.863 283.729L273.348 286.74C273.348 286.74 265.978 289.692 265.863 292.643C265.748 295.594 292.86 295.815 292.86 295.815L287.3 289.651C287.3 289.651 290.36 284.632 289.283 281.621C288.205 278.609 282.271 275.598 282.271 275.598L373.149 278.529C373.149 278.529 363.939 277.605 362.431 282.384C360.922 287.162 385.951 287.262 399.788 288.166C413.624 289.069 426.282 285.054 427.604 283.889C428.926 282.725 423.523 279.372 423.523 279.372C423.523 279.372 492.979 274.253 531.773 269.334C570.567 264.415 578.282 256.505 578.153 250.181C578.023 243.856 573.196 244.619 573.196 244.619L650.97 215.588L672.522 209.565C672.522 209.565 651.531 223.499 653.039 228.317C654.548 233.135 759.449 205.711 759.449 205.711L759.42 64.0091Z" fill="url(#paint8_linear_1307_9401)"/>
<path d="M385.678 335.043C384.977 335.458 384.244 335.761 383.494 335.946C384.234 335.705 384.963 335.403 385.678 335.043V335.043Z" fill="url(#paint9_linear_1307_9401)"/>
<g style="mix-blend-mode:screen" filter="url(#filter0_f_1307_9401)">
<path d="M307.937 176.603C321.012 106.059 280.622 30.4201 217.723 7.65767C154.825 -15.1048 93.2357 23.6292 80.1606 94.1725C67.0855 164.716 107.476 240.355 170.374 263.117C233.273 285.88 294.862 247.146 307.937 176.603Z" fill="url(#paint10_radial_1307_9401)" fill-opacity="0.25" style="mix-blend-mode:screen"/>
</g>
<g style="mix-blend-mode:screen" filter="url(#filter1_f_1307_9401)">
<path d="M426.69 218.214C470.698 206.292 500.932 157.411 494.219 109.034C487.507 60.657 446.391 31.1046 402.383 43.0266C358.375 54.9486 328.141 103.83 334.854 152.207C341.566 200.584 382.683 230.136 426.69 218.214Z" fill="url(#paint11_radial_1307_9401)" fill-opacity="0.25" style="mix-blend-mode:screen"/>
</g>
</g>
<defs>
<filter id="filter0_f_1307_9401" x="-42.2974" y="-118.863" width="472.693" height="508.5" filterUnits="userSpaceOnUse" color-interpolation-filters="sRGB">
<feFlood flood-opacity="0" result="BackgroundImageFix"/>
<feBlend mode="normal" in="SourceGraphic" in2="BackgroundImageFix" result="shape"/>
<feGaussianBlur stdDeviation="60" result="effect1_foregroundBlur_1307_9401"/>
</filter>
<filter id="filter1_f_1307_9401" x="213.921" y="-79.6172" width="401.231" height="420.473" filterUnits="userSpaceOnUse" color-interpolation-filters="sRGB">
<feFlood flood-opacity="0" result="BackgroundImageFix"/>
<feBlend mode="normal" in="SourceGraphic" in2="BackgroundImageFix" result="shape"/>
<feGaussianBlur stdDeviation="60" result="effect1_foregroundBlur_1307_9401"/>
</filter>
<linearGradient id="paint0_linear_1307_9401" x1="256.538" y1="357.686" x2="256.538" y2="180.81" gradientUnits="userSpaceOnUse">
<stop offset="0.01" stop-color="#00619F"/>
<stop offset="1" stop-color="#00A2EF"/>
</linearGradient>
<linearGradient id="paint1_linear_1307_9401" x1="256.538" y1="357.633" x2="256.538" y2="243.195" gradientUnits="userSpaceOnUse">
<stop stop-color="#00438E"/>
<stop offset="0.99" stop-color="#007BD9"/>
</linearGradient>
<linearGradient id="paint2_linear_1307_9401" x1="546.14" y1="115.71" x2="546.14" y2="86.98" gradientUnits="userSpaceOnUse">
<stop offset="0.01" stop-color="#0089FE"/>
<stop offset="1" stop-color="#25FFFF"/>
</linearGradient>
<linearGradient id="paint3_linear_1307_9401" x1="635.008" y1="160.144" x2="635.008" y2="52.553" gradientUnits="userSpaceOnUse">
<stop offset="0.01" stop-color="#0089FE"/>
<stop offset="1" stop-color="#25FFFF"/>
</linearGradient>
<linearGradient id="paint4_linear_1307_9401" x1="426.311" y1="214.342" x2="426.311" y2="118.898" gradientUnits="userSpaceOnUse">
<stop offset="0.01" stop-color="#0089FE"/>
<stop offset="1" stop-color="#25FFFF"/>
</linearGradient>
<linearGradient id="paint5_linear_1307_9401" x1="204.325" y1="199.372" x2="204.325" y2="112.039" gradientUnits="userSpaceOnUse">
<stop offset="0.01" stop-color="#0089FE"/>
<stop offset="1" stop-color="#25FFFF"/>
</linearGradient>
<linearGradient id="paint6_linear_1307_9401" x1="256.538" y1="296.178" x2="256.538" y2="-122" gradientUnits="userSpaceOnUse">
<stop offset="0.01" stop-color="#007CDD"/>
<stop offset="1" stop-color="#0092FF"/>
</linearGradient>
<linearGradient id="paint7_linear_1307_9401" x1="196.839" y1="119.243" x2="196.839" y2="88.8868" gradientUnits="userSpaceOnUse">
<stop offset="0.01" stop-color="#0089FE"/>
<stop offset="1" stop-color="#25FFFF"/>
</linearGradient>
<linearGradient id="paint8_linear_1307_9401" x1="256.538" y1="295.775" x2="256.538" y2="-57.957" gradientUnits="userSpaceOnUse">
<stop stop-color="#013D96"/>
<stop offset="0.99" stop-color="#0088D1"/>
</linearGradient>
<linearGradient id="paint9_linear_1307_9401" x1="384.586" y1="335.946" x2="384.586" y2="335.043" gradientUnits="userSpaceOnUse">
<stop stop-color="#FFAE86"/>
<stop offset="0.99" stop-color="#CC7F9A"/>
</linearGradient>
<radialGradient id="paint10_radial_1307_9401" cx="0" cy="0" r="1" gradientUnits="userSpaceOnUse" gradientTransform="translate(193.8 138.042) rotate(100.501) scale(130.204 119.539)">
<stop stop-color="#005BFF"/>
<stop offset="0.13" stop-color="#004CD6"/>
<stop offset="0.37" stop-color="#00328B"/>
<stop offset="0.59" stop-color="#001C4F"/>
<stop offset="0.77" stop-color="#000D24"/>
<stop offset="0.92" stop-color="#00030A"/>
<stop offset="1"/>
</radialGradient>
<radialGradient id="paint11_radial_1307_9401" cx="0" cy="0" r="1" gradientUnits="userSpaceOnUse" gradientTransform="translate(415.203 132.872) rotate(82.1006) scale(88.5624 81.9311)">
<stop stop-color="#005BFF"/>
<stop offset="0.13" stop-color="#004CD6"/>
<stop offset="0.37" stop-color="#00328B"/>
<stop offset="0.59" stop-color="#001C4F"/>
<stop offset="0.77" stop-color="#000D24"/>
<stop offset="0.92" stop-color="#00030A"/>
<stop offset="1"/>
</radialGradient>
<clipPath id="clip0_1307_9401">
<rect width="640" height="351" fill="white"/>
</clipPath>
</defs>
</svg>
