<svg width="1600" height="591" viewBox="0 0 1600 591" fill="none" xmlns="http://www.w3.org/2000/svg">
<g clip-path="url(#clip0_1304_4117)">
<path d="M1473.94 365.69C1437.26 388.988 1461.14 388.988 1461.14 388.988C1461.14 388.988 1397.16 401.775 1371.56 418.239C1345.97 434.703 1371.56 438.171 1371.56 438.171L1317.02 455.412C1317.02 455.412 1323.86 441.614 1290.59 439.026C1257.31 436.437 1102.88 456.292 1077.29 469.649C1051.7 483.006 1077.29 487.355 1077.29 487.355C1077.29 487.355 1045.3 495.121 1042.33 498.279C1039.36 501.437 1049.14 503.301 1049.14 503.301L986.869 505.475C986.869 505.475 994.547 500.712 993.268 494.888C991.988 489.064 938.446 482.385 892.378 493.594C892.378 493.594 895.808 489.064 888.13 488.416C880.452 487.769 823.276 506.977 823.276 506.977L764.847 505.243C764.847 505.243 764.412 490.798 755.045 488.209C745.678 485.621 686.147 489.297 686.147 489.297L482.885 484.119C482.885 484.119 384.786 469.442 330.4 476.768C283.999 483.032 275.17 497.295 274.914 502.939C247.938 501.282 197.699 495.173 171.875 498.201C177.023 497.393 182.075 496.049 186.949 494.189C190.148 492.765 192.682 491.005 193.041 488.857C193.041 488.857 200.463 488.649 210.956 488.08C233.427 486.837 269.821 483.783 275.246 477.001C283.129 467.06 257.101 460.822 257.101 460.822L319.395 458L323.439 447.646L-190.476 450.571V543.114H405.849C405.849 543.114 316.912 546.997 306.675 550.233C296.438 553.469 332.268 556.704 332.268 556.704L-110.496 562.529L-190.476 567.706V574.825H-3.00438H-3.23464C-4.66786 575.058 -12.2948 576.481 -12.2948 577.413C-12.2948 578.345 320.547 570.993 415.114 568.871L421.282 568.741H424.942H426.682H429.677H431.315H435.845H436.357H439.249H439.914C439.914 568.741 431.033 571.33 429.677 573.22C429.607 573.344 429.546 573.474 429.497 573.608C429.165 575.524 972.716 576.067 978.27 573.064C983.824 570.062 963.323 568.301 963.323 568.301H968.826H974.098H977.22C1046.6 567.188 1352.8 562.322 1357.9 561.183C1361.59 560.006 1365.19 558.562 1368.67 556.86L1601.03 556.005V350.909C1601.03 350.909 1510.64 342.496 1473.94 365.69ZM336.184 499.781C334.137 499.781 323.618 500.324 312.434 501.023C310.613 499.604 308.494 498.63 306.24 498.176L336.543 499.755L336.184 499.781ZM644.712 550.958H498.42C498.42 550.958 529.542 549.378 536.81 542.467C536.81 542.467 587.562 546.79 598.234 542.467C607.525 538.687 585.975 537.29 580.319 536.927L717.935 542.441C710.077 542.312 656.178 541.664 644.712 550.958ZM1160.29 555.41H1159.62L1103.32 557.999L1044.76 557.688L1045.99 557.455C1048.34 557.015 1053.16 555.979 1053.67 554.866C1054.33 553.236 944.896 552.925 931.485 554.219C918.074 555.514 937.551 557.792 937.551 557.792L870.675 559.396H871.136H871.622H872.16C880.017 558.283 916.769 553.028 930.436 550L931.434 549.767C932.77 549.527 934.075 549.137 935.324 548.602C939.777 546.013 927.646 545.366 927.646 545.366L966.65 542.778C966.65 542.778 956.413 545.677 956.746 547.644C958.266 548.09 959.848 548.282 961.43 548.214C984.464 549.43 1084.71 548.938 1084.71 548.938L1185.12 553.96H1185.29L1192.18 554.323L1160.29 555.41Z" fill="url(#paint0_linear_1304_4117)"/>
<path d="M1352.8 458.334C1293.94 469.983 1345.12 473.219 1345.12 473.219C1345.12 473.219 1098.79 491.339 1084.07 498.173C1069.36 505.007 1213.37 503.635 1213.37 503.635L986.971 531.437C988.84 531.023 1018.94 524.137 1021.42 517.872C1023.9 511.608 941.441 503.635 882.576 507.518C823.711 511.401 833.949 521.108 833.949 521.108L657.355 514.637C657.355 514.637 689.96 504.645 690.626 498.173C691.291 491.702 540.393 507.518 540.393 507.518C540.393 507.518 411.863 493.281 336.593 499.752H336.235C327.124 500.529 319.369 501.305 312.791 502.03C303.632 502.925 294.525 504.308 285.509 506.172C271.714 509.304 278.573 511.349 278.573 511.349L94.3011 506.819C94.3011 506.819 152.679 500.089 186.949 494.031C199.541 491.779 208.857 489.631 210.879 487.922C218.557 481.58 135.25 454.917 32.2372 463.408C-70.7759 471.899 -48.3818 480.596 -48.3818 480.596H-190.425V543.06H405.9C405.9 543.06 316.963 546.943 306.726 550.178C296.488 553.414 332.319 556.65 332.319 556.65L-110.446 562.474L-190.425 567.652V574.77H-2.9536H-3.18401L-12.244 577.359L415.165 568.816L421.333 568.687H424.993H426.733H429.728H431.365H435.895C434.585 568.85 433.335 569.336 432.254 570.104C431.174 570.871 430.297 571.896 429.702 573.088C429.632 573.212 429.572 573.342 429.523 573.476C426.963 579.611 977.885 578.524 984.258 573.139C990.631 567.755 963.349 568.169 963.349 568.169H968.851H974.123H977.246L1372 562.992L1601.06 555.873V429.859C1601.06 429.859 1411.67 446.685 1352.8 458.334ZM536.81 542.464C536.81 542.464 587.562 546.787 598.234 542.464C607.524 538.685 585.975 537.287 580.319 536.925L717.934 542.438C710.051 542.309 656.152 541.662 644.686 550.955H498.394C498.394 550.955 529.541 549.376 536.81 542.464ZM931.485 554.113C918.023 555.407 937.55 557.685 937.55 557.685L870.675 559.29H871.136H871.622H872.16C879.838 558.281 915.668 553.44 930.435 549.894L931.433 549.661C932.769 549.421 934.074 549.031 935.324 548.496C945.228 544.613 927.646 545.26 927.646 545.26L966.65 542.671C966.65 542.671 956.413 545.571 956.745 547.538C958.266 547.984 959.848 548.176 961.429 548.107C960.252 549.583 959.561 550.851 960.38 551.084C961.941 551.55 1108.21 553.104 1185.11 553.854H1185.29L1192.18 554.217L1160.29 555.666H1159.62C1126.81 556.262 1086.35 556.986 1046.12 557.659C1048.47 557.219 1053.28 556.184 1053.8 555.071C1054.33 553.129 944.896 552.819 931.485 554.113V554.113Z" fill="url(#paint1_linear_1304_4117)"/>
<path d="M1459.66 175.842C1459.66 175.842 1479.46 164.297 1496.77 156.117C1496.77 156.117 1478.21 156.764 1491.01 137.996C1503.8 119.229 1569.07 121.792 1601.06 144.442L1459.66 175.842Z" fill="url(#paint2_linear_1304_4117)"/>
<path d="M1276.02 243.486C1276.02 243.486 1253.63 226.634 1208.84 228.601C1164.05 230.569 1166.3 253.4 1166.3 253.4L1184.53 265.489L1276.02 243.486Z" fill="url(#paint3_linear_1304_4117)"/>
<path d="M1422.21 188.791C1422.21 188.791 1390.55 178.126 1348.96 188.791C1307.37 199.456 1336.17 215.014 1336.17 215.014C1336.17 215.014 1324.57 231.296 1329.41 235.386C1334.25 239.476 1378.37 228.604 1378.37 228.604H1410.44C1410.44 228.604 1372.69 239.605 1354.77 249.96C1336.86 260.314 1357.33 260.754 1357.33 260.754C1357.33 260.754 1314.46 263.55 1284.39 279.729C1254.32 295.908 1257.83 322.752 1257.83 322.752L1378.7 280.583L1476.62 228.604L1501.3 189.775L1440.51 220.398L1397.64 215.014L1390.6 202.718L1422.21 188.791Z" fill="url(#paint4_linear_1304_4117)"/>
<path d="M932.432 335.075C932.432 335.075 922.194 317.266 935.324 291.379C948.453 265.493 1010.7 275.848 1010.7 275.848C1010.7 275.848 1017.53 270.282 1038.85 269.609C1060.17 268.936 1086.76 286.15 1086.76 286.15L1027.72 356.871L961.531 392.646L938.497 383.275C938.497 383.275 940.75 375.069 952.676 364.715C964.603 354.361 982.544 349.442 982.544 349.442L932.432 335.075Z" fill="url(#paint5_linear_1304_4117)"/>
<path d="M736.823 361.55C736.823 361.55 724.026 339.65 692.495 331.367C692.495 331.367 696.718 308.639 674.989 291.372C653.26 274.106 631.481 276.695 631.481 276.695C631.481 276.695 546.587 246.123 487.723 269.602L612.26 349.435L705.266 373.354L736.823 361.55Z" fill="url(#paint6_linear_1304_4117)"/>
<path d="M1601.06 130.88C1601.06 130.88 1541.55 136.058 1521.08 144.471C1500.6 152.884 1503.16 163.885 1503.16 163.885C1503.16 163.885 1484.28 164.196 1459.65 175.845C1435.03 187.494 1437.57 203.362 1438.85 205.95C1440.13 208.539 1451.98 208.85 1451.98 208.85L1419.99 215.011C1419.99 215.011 1424.46 210.791 1424.46 207.555C1424.46 204.32 1411.33 205.303 1411.33 205.303C1411.33 205.303 1422.21 193.318 1422.21 188.788C1422.21 184.258 1355.36 195.596 1340.95 209.186C1326.54 222.776 1346.71 218.893 1346.71 218.893C1346.71 218.893 1328.49 227.617 1329.44 235.383C1330.38 243.149 1362.4 242.838 1370.39 240.25C1378.37 237.661 1374.56 233.442 1374.56 233.442L1396.31 234.425C1396.31 234.425 1363.99 253.84 1378.06 259.664C1378.06 259.664 1336.17 264.505 1299.06 281.667C1261.95 298.83 1255.85 317.908 1257.77 322.749C1259.69 327.59 1276.33 329.557 1276.33 329.557L1210.12 340.559C1210.12 340.559 1231.54 320.497 1220.66 302.376C1209.79 284.256 1171.09 290.391 1171.09 290.391C1171.09 290.391 1177.49 285.55 1175.24 278.432C1175.24 278.432 1227.7 287.492 1250.1 274.859C1250.1 274.859 1259.05 268.724 1260.03 262.253C1260.03 262.253 1277.94 251.562 1276.02 243.485C1274.1 235.409 1200.83 232.147 1177.49 242.502C1154.15 252.856 1178.44 250.915 1178.44 250.915C1178.44 250.915 1161.49 251.251 1158.93 260.622C1156.37 269.993 1173.32 274.549 1173.32 274.549C1173.32 274.549 1143.58 272.607 1129.17 284.256C1114.76 295.905 1137.49 296.552 1137.49 296.552C1137.49 296.552 1043.12 269.605 977.86 288.786C914.082 307.528 932.432 335.071 932.432 335.071C932.432 335.071 917.716 341.853 917.076 344.752C916.436 347.651 1008.57 357.695 1008.57 357.695C1008.57 357.695 981.699 360.62 981.699 376.489C981.699 376.489 946.508 377.11 938.498 383.271C930.487 389.432 961.532 392.642 961.532 392.642C961.532 392.642 922.195 398.155 907.146 420.806L803.391 426.837C803.391 426.837 814.063 411.746 732.804 400.097C732.804 400.097 759.728 360.336 712.329 343.51C664.93 326.684 645.787 337.97 645.787 337.97C645.787 337.97 664.342 324.38 665.621 312.731C666.901 301.082 593.807 241.207 487.748 269.605C461.361 276.671 479.43 293.963 479.43 293.963L429.523 278.872C431.624 278.251 433.43 276.88 434.607 275.014C435.784 273.148 436.251 270.913 435.921 268.724C435.281 260.311 332.908 227.306 332.908 227.306C332.908 227.306 334.188 198.832 227.975 198.832C227.975 198.832 240.772 200.126 245.251 194.949C249.73 189.772 197.263 172.945 197.263 172.945C197.263 172.945 238.213 176.828 244.611 170.357C251.009 163.885 224.776 142.529 201.742 149.648C201.742 149.648 182.547 144.471 176.789 149.648C171.03 154.825 188.306 169.71 188.306 169.71C188.306 169.71 145.642 134.763 108.966 144.264C82.4773 151.098 108.966 180.711 108.966 180.711L52.0213 154.825C52.0213 154.825 114.085 77.1666 15.5508 29.1736C-82.9836 -18.8194 -190.476 -41.0039 -190.476 -41.0039V244.132C-190.476 244.132 -65.0683 296.319 -43.9537 287.052C-43.9537 287.052 17.4703 296.966 30.2669 287.052C43.0636 277.137 38.636 268.077 38.636 268.077L125.653 287.052C125.653 287.052 109.657 296.552 125.013 306.907C140.369 317.261 290.73 345.089 402.701 352.207C399.702 355.366 397.891 359.488 397.582 363.856C397.582 370.328 430.214 374.211 430.214 374.211C430.214 374.211 366.231 361.915 325.281 375.505C284.332 389.095 306.086 393.625 306.086 393.625C306.086 393.625 284.972 396.214 276.654 403.98C268.336 411.746 284.332 418.217 284.332 418.217L250.421 416.276C250.421 416.276 263.218 413.687 263.218 405.921C263.218 398.155 238.264 395.567 238.264 395.567C238.264 395.567 272.175 396.214 276.654 389.742C281.133 383.271 223.548 367.092 223.548 367.092C223.548 367.092 240.184 369.681 244.023 358.032C247.862 346.383 185.798 330.204 164.683 340.559C143.569 350.913 167.243 354.149 167.243 354.149C152.697 349.998 137.747 347.464 122.659 346.59C122.659 346.59 112.857 333.647 90.6671 331.058C68.4777 328.47 62.0796 338.824 62.0796 338.824L49.718 336.676C49.718 336.676 61.67 335.821 62.9497 325.027C64.2293 314.232 27.9636 298.286 -27.062 296.552C-27.062 296.552 -133.274 262.046 -190.424 260.311V450.575C-190.424 450.575 84.7039 455.752 132.896 450.575L113.701 446.692L310.77 452.879C310.77 452.879 300.097 458.781 304.807 461.784C309.516 464.786 448.539 476.021 469.884 471.284L462.206 466.547L512.522 475.167C512.522 475.167 504.435 472.138 495.887 484.667C495.887 484.667 544.104 492.433 615.766 493.287C687.427 494.141 714.889 490.258 721.85 487.67C728.811 485.081 721.85 482.078 721.85 482.078L735.184 485.961C735.184 485.961 727.506 487.929 713.02 493.417C698.535 498.904 759.933 498.904 776.568 497.17C793.204 495.436 764.207 490.258 764.207 490.258C764.207 490.258 782.122 488.11 785.961 484.227C789.8 480.344 756.529 473.018 756.529 473.018L916.052 475.167C916.052 475.167 896.422 476.021 893.863 480.344C891.304 484.667 993.267 484.667 1004.35 481.198C1015.43 477.729 1000.51 475.607 1000.51 475.607L1077.29 469.549C1077.29 469.549 1199.29 454.458 1243.65 447.546C1288 440.635 1269.24 431.6 1269.24 431.6C1269.24 431.6 1380.57 419.511 1419.4 408.717L1601.11 381.536L1601.06 130.88Z" fill="url(#paint7_linear_1304_4117)"/>
<path d="M563.94 239.318C563.45 241.799 563.818 244.374 564.983 246.613C566.148 248.852 568.039 250.617 570.338 251.614C578.656 255.497 601.357 261.321 601.357 261.321C601.357 261.321 591.324 263.599 598.107 267.482C604.889 271.365 621.525 270.381 620.245 267.482C619.453 265.702 618.24 264.146 616.713 262.952C616.713 262.952 631.429 265.54 632.402 263.262C633.374 260.984 630.15 258.732 630.15 258.732C630.15 258.732 637.239 255.497 632.709 252.261C628.179 249.025 615.254 246.773 615.254 246.773C613.935 243.126 611.781 239.847 608.97 237.202C606.159 234.556 602.77 232.621 599.079 231.552C586.462 228.005 578.451 239.965 578.451 239.965C573.749 238.494 568.752 238.271 563.94 239.318V239.318Z" fill="url(#paint8_linear_1304_4117)"/>
<path d="M1601.06 198.829C1601.06 198.829 1541.55 200.77 1513.4 215.008C1485.25 229.245 1513.4 229.892 1513.4 229.892L1455.18 259.014C1437.65 257.778 1420.05 259.976 1403.35 265.486C1377.76 274.546 1409.75 272.605 1409.75 272.605C1409.75 272.605 1346.4 284.253 1311.85 314.023C1277.3 343.792 1322.09 342.497 1322.09 342.497L1185.22 379.385C1185.22 379.385 1191.03 376.512 1191.64 363.724C1192.26 350.936 1151.95 363.724 1151.95 363.724C1151.95 363.724 1214.16 343.403 1214.09 336.259C1213.86 313.194 1062.37 325.283 1033.58 349.409C1004.78 373.535 1087.32 372.914 1087.32 372.914C1087.32 372.914 1041.25 376.797 1037.42 386.504C1033.58 396.211 1068.13 394.917 1068.13 394.917C1068.13 394.917 970.873 392.328 941.441 413.684C912.009 435.041 1002.4 433.099 1002.4 433.099C1002.4 433.099 954.596 438.276 935.554 444.748C916.513 451.219 945.792 452.514 945.792 452.514L769.198 458.985C769.198 458.985 780.715 446.689 769.198 436.982C757.681 427.275 696.896 424.686 696.896 424.686C696.896 424.686 728.888 416.273 732.087 412.39C735.286 408.507 639.951 401.388 639.951 401.388C639.951 401.388 717.755 398.8 721.85 392.975C725.945 387.151 639.951 362.559 639.951 362.559C639.951 362.559 655.947 360.877 650.828 349.409C645.71 337.941 556.773 309.492 492.79 311.745C492.79 311.745 495.989 306.904 495.656 303.668C495.323 300.432 427.527 278.092 411.531 279.723C395.535 281.354 407.359 292.666 407.359 292.666C407.359 292.666 356.172 249.618 284.844 236.027C213.515 222.437 223.087 237.322 223.087 237.322C223.087 237.322 146.64 195.904 121.993 192.021C97.347 188.138 121.993 200.77 121.993 200.77C121.993 200.77 79.4574 167.118 40.0948 167.766L18.3405 155.47C18.3405 155.47 29.8575 151.587 21.8724 141.232C13.8873 130.878 -56.52 93.0062 -70.5963 91.0647C-84.6727 89.1233 -76.9947 102.066 -76.9947 102.066L-190.476 41.5703V244.13C-190.476 244.13 -114.131 276.565 -62.3554 287.049C-10.58 297.533 30.2669 294.245 37.3051 289.638C44.3433 285.03 39.2246 263.752 39.2246 263.752L125.602 287.049C125.602 287.049 116.619 289.379 120.791 303.332C124.962 317.284 234.041 335.068 279.802 341.203C325.563 347.338 402.65 352.205 402.65 352.205L432.082 357.071C432.082 357.071 405.312 354.483 400.091 362.249C394.87 370.014 426.938 373.638 426.938 373.638C426.938 373.638 375.137 372.266 359.141 377.78C343.145 383.294 373.218 388.135 373.218 388.135C373.218 388.135 337.054 383.579 311.461 392.639C285.868 401.699 299.944 411.096 299.944 411.096C299.944 411.096 288.12 414.642 288.12 418.214C288.12 421.787 335.467 422.745 335.467 422.745C335.467 422.745 265.086 419.198 219.325 424.686C219.325 424.686 239.262 422.097 250.37 416.273C261.477 410.449 229.562 410.138 229.562 410.138C229.562 410.138 237.88 402.372 236.933 397.816C235.986 393.26 171.337 379.075 171.337 379.075C171.337 379.075 220.937 376.797 222.217 371.93C223.497 367.063 185.107 354.483 167.191 354.146C149.276 353.81 164.632 364.501 164.632 364.501C164.632 364.501 84.3201 344.128 36.6653 344.439C36.6653 344.439 45.6229 340.245 46.5699 333.774C47.5168 327.302 -93.8607 296.86 -93.8607 296.86C-93.8607 296.86 -77.2251 297.507 -75.9454 293.314C-74.6657 289.12 -190.476 279.076 -190.476 279.076V450.572C-190.476 450.572 58.1895 455.749 132.845 450.572L113.65 446.689L310.719 452.876L336.747 456.397C336.747 456.397 306.982 457.794 304.755 461.781C302.529 465.767 429.523 477.753 469.832 471.281C469.832 471.281 470.779 466.622 438.481 463.515L512.471 475.216L550.861 477.804C550.861 477.804 508.632 479.409 499.674 483.965C490.717 488.521 590.608 495.148 654.514 493.31C718.421 491.472 721.671 488.314 724.64 486.062C727.609 483.81 721.901 482.128 721.901 482.128L735.236 486.01C735.236 486.01 722.106 489.816 721.901 493.621C721.696 497.426 769.991 497.711 769.991 497.711L760.087 489.764C760.087 489.764 765.538 483.292 763.618 479.409C761.699 475.527 751.129 471.644 751.129 471.644L913.007 475.423C913.007 475.423 896.602 474.232 893.914 480.393C891.227 486.554 935.811 486.683 960.457 487.848C985.103 489.013 1007.65 483.836 1010.01 482.335C1012.36 480.833 1002.74 476.51 1002.74 476.51C1002.74 476.51 1126.46 469.909 1195.56 463.567C1264.66 457.225 1278.4 447.026 1278.17 438.872C1277.94 430.718 1269.34 431.701 1269.34 431.701L1407.88 394.27L1446.27 386.504C1446.27 386.504 1408.88 404.469 1411.56 410.682C1414.25 416.894 1601.11 381.534 1601.11 381.534L1601.06 198.829Z" fill="url(#paint9_linear_1304_4117)"/>
<path d="M935.324 548.293C934.074 548.828 932.769 549.219 931.434 549.458C932.752 549.146 934.05 548.757 935.324 548.293V548.293Z" fill="url(#paint10_linear_1304_4117)"/>
<g style="mix-blend-mode:screen" filter="url(#filter0_f_1304_4117)">
<path d="M796.847 344.002C820.137 253.046 748.192 155.52 636.152 126.171C524.113 96.8217 414.407 146.764 391.117 237.72C367.827 328.676 439.772 426.202 551.811 455.551C663.851 484.9 773.557 434.958 796.847 344.002Z" fill="url(#paint11_radial_1304_4117)" fill-opacity="0.25" style="mix-blend-mode:screen"/>
</g>
<g style="mix-blend-mode:screen" filter="url(#filter1_f_1304_4117)">
<path d="M1008.38 397.653C1086.77 382.281 1140.62 319.255 1128.66 256.88C1116.71 194.504 1043.47 156.401 965.08 171.772C886.691 187.144 832.836 250.171 844.792 312.546C856.749 374.921 929.988 413.025 1008.38 397.653Z" fill="url(#paint12_radial_1304_4117)" fill-opacity="0.25" style="mix-blend-mode:screen"/>
</g>
</g>
<defs>
<filter id="filter0_f_1304_4117" x="266.739" y="-2.23828" width="654.486" height="586.199" filterUnits="userSpaceOnUse" color-interpolation-filters="sRGB">
<feFlood flood-opacity="0" result="BackgroundImageFix"/>
<feBlend mode="normal" in="SourceGraphic" in2="BackgroundImageFix" result="shape"/>
<feGaussianBlur stdDeviation="60" result="effect1_foregroundBlur_1304_4117"/>
</filter>
<filter id="filter1_f_1304_4117" x="723.131" y="48.3672" width="527.195" height="472.691" filterUnits="userSpaceOnUse" color-interpolation-filters="sRGB">
<feFlood flood-opacity="0" result="BackgroundImageFix"/>
<feBlend mode="normal" in="SourceGraphic" in2="BackgroundImageFix" result="shape"/>
<feGaussianBlur stdDeviation="60" result="effect1_foregroundBlur_1304_4117"/>
</filter>
<linearGradient id="paint0_linear_1304_4117" x1="705.291" y1="577.491" x2="705.291" y2="349.434" gradientUnits="userSpaceOnUse">
<stop offset="0.01" stop-color="#00619F"/>
<stop offset="1" stop-color="#00A2EF"/>
</linearGradient>
<linearGradient id="paint1_linear_1304_4117" x1="705.291" y1="577.411" x2="705.291" y2="429.859" gradientUnits="userSpaceOnUse">
<stop stop-color="#00438E"/>
<stop offset="0.99" stop-color="#007BD9"/>
</linearGradient>
<linearGradient id="paint2_linear_1304_4117" x1="1530.34" y1="175.842" x2="1530.34" y2="125.493" gradientUnits="userSpaceOnUse">
<stop offset="0.01" stop-color="#0089FE"/>
<stop offset="1" stop-color="#25FFFF"/>
</linearGradient>
<linearGradient id="paint3_linear_1304_4117" x1="1221.15" y1="265.489" x2="1221.15" y2="228.446" gradientUnits="userSpaceOnUse">
<stop offset="0.01" stop-color="#0089FE"/>
<stop offset="1" stop-color="#25FFFF"/>
</linearGradient>
<linearGradient id="paint4_linear_1304_4117" x1="1379.45" y1="322.778" x2="1379.45" y2="184.054" gradientUnits="userSpaceOnUse">
<stop offset="0.01" stop-color="#0089FE"/>
<stop offset="1" stop-color="#25FFFF"/>
</linearGradient>
<linearGradient id="paint5_linear_1304_4117" x1="1007.7" y1="392.672" x2="1007.7" y2="269.609" gradientUnits="userSpaceOnUse">
<stop offset="0.01" stop-color="#0089FE"/>
<stop offset="1" stop-color="#25FFFF"/>
</linearGradient>
<linearGradient id="paint6_linear_1304_4117" x1="612.286" y1="373.354" x2="612.286" y2="260.749" gradientUnits="userSpaceOnUse">
<stop offset="0.01" stop-color="#0089FE"/>
<stop offset="1" stop-color="#25FFFF"/>
</linearGradient>
<linearGradient id="paint7_linear_1304_4117" x1="705.291" y1="498.18" x2="705.291" y2="-41.0039" gradientUnits="userSpaceOnUse">
<stop offset="0.01" stop-color="#007CDD"/>
<stop offset="1" stop-color="#0092FF"/>
</linearGradient>
<linearGradient id="paint8_linear_1304_4117" x1="598.951" y1="270.045" x2="598.951" y2="230.905" gradientUnits="userSpaceOnUse">
<stop offset="0.01" stop-color="#0089FE"/>
<stop offset="1" stop-color="#25FFFF"/>
</linearGradient>
<linearGradient id="paint9_linear_1304_4117" x1="705.291" y1="497.659" x2="705.291" y2="41.5703" gradientUnits="userSpaceOnUse">
<stop stop-color="#013D96"/>
<stop offset="0.99" stop-color="#0088D1"/>
</linearGradient>
<linearGradient id="paint10_linear_1304_4117" x1="933.379" y1="549.458" x2="933.379" y2="548.293" gradientUnits="userSpaceOnUse">
<stop stop-color="#FFAE86"/>
<stop offset="0.99" stop-color="#CC7F9A"/>
</linearGradient>
<radialGradient id="paint11_radial_1304_4117" cx="0" cy="0" r="1" gradientUnits="userSpaceOnUse" gradientTransform="translate(593.539 294.283) rotate(104.363) scale(170.394 209.789)">
<stop stop-color="#005BFF"/>
<stop offset="0.13" stop-color="#004CD6"/>
<stop offset="0.37" stop-color="#00328B"/>
<stop offset="0.59" stop-color="#001C4F"/>
<stop offset="0.77" stop-color="#000D24"/>
<stop offset="0.92" stop-color="#00030A"/>
<stop offset="1"/>
</radialGradient>
<radialGradient id="paint12_radial_1304_4117" cx="0" cy="0" r="1" gradientUnits="userSpaceOnUse" gradientTransform="translate(987.915 287.616) rotate(79.1489) scale(115.165 144.704)">
<stop stop-color="#005BFF"/>
<stop offset="0.13" stop-color="#004CD6"/>
<stop offset="0.37" stop-color="#00328B"/>
<stop offset="0.59" stop-color="#001C4F"/>
<stop offset="0.77" stop-color="#000D24"/>
<stop offset="0.92" stop-color="#00030A"/>
<stop offset="1"/>
</radialGradient>
<clipPath id="clip0_1304_4117">
<rect width="1600" height="591" fill="white"/>
</clipPath>
</defs>
</svg>
