<svg width="1024" height="479" viewBox="0 0 1024 479" fill="none" xmlns="http://www.w3.org/2000/svg">
<g clip-path="url(#clip0_1304_7285)">
<path d="M943.319 298.391C919.847 317.126 935.129 317.126 935.129 317.126C935.129 317.126 894.18 327.41 877.8 340.649C861.421 353.889 877.8 356.678 877.8 356.678L842.895 370.542C842.895 370.542 847.268 359.447 825.975 357.365C804.681 355.284 705.846 371.25 689.466 381.992C673.086 392.733 689.466 396.23 689.466 396.23C689.466 396.23 668.991 402.475 667.091 405.015C665.191 407.555 671.448 409.054 671.448 409.054L631.596 410.802C631.596 410.802 636.51 406.972 635.691 402.288C634.872 397.604 600.606 392.234 571.122 401.247C571.122 401.247 573.317 397.604 568.403 397.084C563.49 396.563 526.897 412.01 526.897 412.01L489.502 410.615C489.502 410.615 489.224 398.999 483.229 396.917C477.234 394.836 439.135 397.792 439.135 397.792L309.047 393.628C309.047 393.628 246.263 381.825 211.456 387.716C181.76 392.754 176.109 404.224 175.945 408.762C158.681 407.43 126.527 402.517 110 404.953C113.295 404.303 116.528 403.222 119.648 401.726C121.695 400.581 123.317 399.166 123.546 397.438C123.546 397.438 128.296 397.271 135.012 396.813C149.393 395.814 172.685 393.358 176.158 387.904C181.203 379.91 164.545 374.893 164.545 374.893L204.413 372.624L207.001 364.297L-121.904 366.65V441.07H259.744C259.744 441.07 202.824 444.193 196.272 446.795C189.72 449.397 212.652 451.999 212.652 451.999L-70.7176 456.683L-121.904 460.846V466.571H-1.9227H-2.07006C-2.98732 466.758 -7.86855 467.903 -7.86855 468.652C-7.86855 469.402 205.15 463.49 265.673 461.783L269.621 461.679H271.963H273.077H274.993H276.042H278.941H279.268H281.119H281.545C281.545 461.679 275.861 463.76 274.993 465.28C274.948 465.38 274.91 465.484 274.878 465.592C274.666 467.133 622.538 467.57 626.093 465.155C629.647 462.74 616.527 461.325 616.527 461.325H620.049H623.423H625.421C669.827 460.43 865.794 456.516 869.053 455.6C871.415 454.654 873.72 453.492 875.949 452.124L1024.66 451.437V286.505C1024.66 286.505 966.808 279.739 943.319 298.391ZM215.158 406.223C213.848 406.223 207.116 406.66 199.958 407.222C198.793 406.081 197.436 405.297 195.994 404.932L215.387 406.202L215.158 406.223ZM412.616 447.378H318.989C318.989 447.378 338.907 446.108 343.559 440.55C343.559 440.55 376.04 444.026 382.87 440.55C388.816 437.51 375.024 436.386 371.404 436.095L459.478 440.529C454.45 440.425 419.954 439.904 412.616 447.378ZM742.586 450.958H742.16L706.124 453.04L668.647 452.79L669.434 452.603C670.94 452.249 674.02 451.416 674.347 450.521C674.773 449.209 604.734 448.96 596.151 450.001C587.568 451.041 600.033 452.873 600.033 452.873L557.232 454.164H557.527H557.838H558.183C563.211 453.269 586.732 449.043 595.479 446.607L596.118 446.42C596.973 446.228 597.808 445.913 598.608 445.483C601.458 443.402 593.694 442.881 593.694 442.881L618.656 440.799C618.656 440.799 612.104 443.131 612.317 444.713C613.29 445.071 614.303 445.226 615.315 445.171C630.057 446.149 694.216 445.754 694.216 445.754L758.474 449.792H758.589L762.995 450.084L742.586 450.958Z" fill="url(#paint0_linear_1304_7285)"/>
<path d="M865.794 372.895C828.12 382.262 860.88 384.864 860.88 384.864C860.88 384.864 703.225 399.436 693.806 404.932C684.388 410.428 776.557 409.324 776.557 409.324L631.662 431.682C632.857 431.349 652.12 425.811 653.709 420.774C655.298 415.736 602.522 409.324 564.849 412.447C527.175 415.569 533.727 423.376 533.727 423.376L420.707 418.171C420.707 418.171 441.575 410.136 442.001 404.932C442.427 399.728 345.852 412.447 345.852 412.447C345.852 412.447 263.593 400.998 215.42 406.202H215.191C209.359 406.826 204.396 407.451 200.187 408.034C194.324 408.753 188.496 409.865 182.726 411.364C173.897 413.883 178.287 415.528 178.287 415.528L60.3529 411.885C60.3529 411.885 97.7149 406.472 119.647 401.601C127.706 399.79 133.669 398.062 134.963 396.688C139.877 391.588 86.5604 370.147 20.632 376.975C-45.2964 383.803 -30.9642 390.797 -30.9642 390.797H-121.872V441.028H259.776C259.776 441.028 202.857 444.151 196.305 446.753C189.753 449.355 212.684 451.957 212.684 451.957L-70.685 456.641L-121.872 460.804V466.529H-1.89014H-2.0376L-7.83599 468.611L265.706 461.741L269.653 461.637H271.995H273.109H275.026H276.074H278.973C278.135 461.768 277.334 462.159 276.643 462.776C275.952 463.394 275.391 464.218 275.009 465.176C274.964 465.276 274.926 465.38 274.895 465.488C273.257 470.422 625.847 469.548 629.925 465.218C634.004 460.888 616.543 461.221 616.543 461.221H620.065H623.439H625.437L878.078 457.057L1024.68 451.333V349.996C1024.68 349.996 903.467 363.527 865.794 372.895ZM343.559 440.55C343.559 440.55 376.04 444.026 382.87 440.55C388.816 437.51 375.024 436.386 371.404 436.095L459.478 440.529C454.433 440.425 419.937 439.904 412.599 447.378H318.973C318.973 447.378 338.907 446.108 343.559 440.55ZM596.15 449.917C587.535 450.958 600.032 452.79 600.032 452.79L557.232 454.081H557.527H557.838H558.182C563.096 453.269 586.028 449.376 595.479 446.524L596.118 446.337C596.973 446.144 597.808 445.83 598.607 445.4C604.946 442.277 593.693 442.798 593.693 442.798L618.656 440.716C618.656 440.716 612.104 443.048 612.317 444.63C613.29 444.988 614.303 445.143 615.315 445.088C614.561 446.274 614.119 447.294 614.643 447.482C615.642 447.856 709.252 449.105 758.473 449.709H758.588L762.994 450.001L742.585 451.166H742.159C721.161 451.645 695.264 452.228 669.515 452.769C671.022 452.415 674.102 451.583 674.429 450.687C674.773 449.126 604.733 448.876 596.15 449.917V449.917Z" fill="url(#paint1_linear_1304_7285)"/>
<path d="M934.179 145.719C934.179 145.719 946.857 136.434 957.93 129.856C957.93 129.856 946.055 130.377 954.244 115.284C962.434 100.192 1004.2 102.253 1024.68 120.468L934.179 145.719Z" fill="url(#paint2_linear_1304_7285)"/>
<path d="M816.654 200.118C816.654 200.118 802.322 186.566 773.657 188.148C744.993 189.73 746.434 208.091 746.434 208.091L758.097 217.812L816.654 200.118Z" fill="url(#paint3_linear_1304_7285)"/>
<path d="M910.216 156.136C910.216 156.136 889.954 147.559 863.337 156.136C836.72 164.713 855.147 177.224 855.147 177.224C855.147 177.224 847.727 190.317 850.823 193.606C853.919 196.896 882.157 188.152 882.157 188.152H902.681C902.681 188.152 878.521 197 867.055 205.326C855.589 213.653 868.693 214.007 868.693 214.007C868.693 214.007 841.257 216.255 822.011 229.266C802.765 242.276 805.009 263.864 805.009 263.864L882.37 229.953L945.039 188.152L960.829 156.927L921.927 181.553L894.491 177.224L889.987 167.336L910.216 156.136Z" fill="url(#paint4_linear_1304_7285)"/>
<path d="M596.756 273.771C596.756 273.771 590.205 259.449 598.607 238.632C607.01 217.815 646.846 226.142 646.846 226.142C646.846 226.142 651.219 221.666 664.863 221.125C678.508 220.584 695.526 234.427 695.526 234.427L657.738 291.299L615.38 320.068L600.638 312.532C600.638 312.532 602.08 305.933 609.713 297.606C617.346 289.279 628.828 285.324 628.828 285.324L596.756 273.771Z" fill="url(#paint5_linear_1304_7285)"/>
<path d="M471.567 295.061C471.567 295.061 463.377 277.45 443.197 270.789C443.197 270.789 445.9 252.511 431.993 238.626C418.087 224.742 404.148 226.823 404.148 226.823C404.148 226.823 349.816 202.239 312.143 221.119L391.846 285.319L451.37 304.554L471.567 295.061Z" fill="url(#paint6_linear_1304_7285)"/>
<path d="M1024.68 109.564C1024.68 109.564 986.594 113.727 973.49 120.493C960.387 127.258 962.025 136.106 962.025 136.106C962.025 136.106 949.936 136.355 934.179 145.723C918.422 155.091 920.043 167.851 920.862 169.933C921.681 172.015 929.265 172.265 929.265 172.265L908.79 177.219C908.79 177.219 911.657 173.826 911.657 171.224C911.657 168.622 903.254 169.413 903.254 169.413C903.254 169.413 910.215 159.774 910.215 156.131C910.215 152.489 867.432 161.606 858.21 172.535C848.988 183.464 861.895 180.342 861.895 180.342C861.895 180.342 850.233 187.357 850.839 193.602C851.445 199.847 871.936 199.597 877.047 197.516C882.157 195.434 879.716 192.041 879.716 192.041L893.639 192.832C893.639 192.832 872.952 208.444 881.96 213.128C881.96 213.128 855.147 217.021 831.396 230.823C807.646 244.624 803.747 259.966 804.976 263.859C806.204 267.752 816.851 269.334 816.851 269.334L774.477 278.181C774.477 278.181 788.186 262.048 781.225 247.476C774.264 232.904 749.498 237.838 749.498 237.838C749.498 237.838 753.593 233.945 752.151 228.22C752.151 228.22 785.729 235.506 800.062 225.348C800.062 225.348 805.795 220.414 806.417 215.21C806.417 215.21 817.883 206.612 816.654 200.118C815.426 193.623 768.531 191 753.592 199.327C738.654 207.653 754.199 206.092 754.199 206.092C754.199 206.092 743.355 206.363 741.717 213.898C740.079 221.434 750.923 225.098 750.923 225.098C750.923 225.098 731.889 223.537 722.668 232.904C713.446 242.272 727.991 242.792 727.991 242.792C727.991 242.792 667.599 221.122 625.831 236.547C585.012 251.619 596.757 273.768 596.757 273.768C596.757 273.768 587.338 279.222 586.929 281.553C586.519 283.885 645.486 291.962 645.486 291.962C645.486 291.962 628.288 294.314 628.288 307.075C628.288 307.075 605.765 307.574 600.639 312.529C595.512 317.483 615.38 320.065 615.38 320.065C615.38 320.065 590.205 324.499 580.573 342.713L514.17 347.564C514.17 347.564 521 335.427 468.995 326.06C468.995 326.06 486.226 294.085 455.891 280.554C425.556 267.023 413.304 276.099 413.304 276.099C413.304 276.099 425.179 265.17 425.998 255.803C426.817 246.435 380.036 198.286 312.159 221.122C295.271 226.805 306.835 240.711 306.835 240.711L274.895 228.574C276.239 228.075 277.396 226.973 278.149 225.472C278.902 223.971 279.201 222.174 278.99 220.414C278.58 213.649 213.061 187.107 213.061 187.107C213.061 187.107 213.88 164.208 145.904 164.208C145.904 164.208 154.094 165.249 156.961 161.086C159.827 156.923 126.249 143.392 126.249 143.392C126.249 143.392 152.456 146.514 156.551 141.31C160.646 136.106 143.857 118.932 129.115 124.656C129.115 124.656 116.83 120.493 113.145 124.656C109.459 128.82 120.516 140.789 120.516 140.789C120.516 140.789 93.2108 112.687 69.7386 120.326C52.7856 125.822 69.7386 149.637 69.7386 149.637L33.2937 128.82C33.2937 128.82 73.0146 66.369 9.95259 27.7745C-53.1094 -10.8201 -121.904 -28.6602 -121.904 -28.6602V200.638C-121.904 200.638 -41.6436 242.605 -28.1303 235.152C-28.1303 235.152 11.1811 243.125 19.3709 235.152C27.5608 227.18 24.7271 219.894 24.7271 219.894L80.4182 235.152C80.4182 235.152 70.1809 242.792 80.0087 251.119C89.8366 259.446 186.068 281.824 257.729 287.549C255.809 290.089 254.65 293.403 254.453 296.916C254.453 302.12 275.337 305.243 275.337 305.243C275.337 305.243 234.388 295.355 208.18 306.284C181.973 317.213 195.895 320.856 195.895 320.856C195.895 320.856 182.382 322.937 177.059 329.182C171.735 335.427 181.973 340.632 181.973 340.632L160.269 339.07C160.269 339.07 168.459 336.989 168.459 330.744C168.459 324.499 152.489 322.417 152.489 322.417C152.489 322.417 174.192 322.937 177.059 317.733C179.925 312.529 143.071 299.518 143.071 299.518C143.071 299.518 153.718 301.6 156.175 292.232C158.631 282.865 118.911 269.854 105.397 278.181C91.884 286.508 107.035 289.11 107.035 289.11C97.7262 285.772 88.1584 283.734 78.5017 283.031C78.5017 283.031 72.2283 272.623 58.0271 270.541C43.8258 268.46 39.731 276.786 39.731 276.786L31.8196 275.058C31.8196 275.058 39.4689 274.371 40.2879 265.691C41.1069 257.01 17.8968 244.187 -17.3196 242.792C-17.3196 242.792 -85.2955 215.043 -121.871 213.649V366.653C-121.871 366.653 54.2106 370.816 85.0536 366.653L72.7688 363.53L198.893 368.506C198.893 368.506 192.062 373.252 195.076 375.667C198.09 378.081 287.065 387.116 300.726 383.306L295.812 379.497L328.014 386.429C328.014 386.429 322.838 383.993 317.368 394.069C317.368 394.069 348.227 400.314 394.09 401.001C439.953 401.688 457.529 398.565 461.984 396.483C466.439 394.402 461.984 391.987 461.984 391.987L470.518 395.11C470.518 395.11 465.604 396.692 456.333 401.105C447.062 405.518 486.357 405.518 497.004 404.123C507.651 402.728 489.093 398.565 489.093 398.565C489.093 398.565 500.558 396.837 503.015 393.715C505.472 390.592 484.179 384.701 484.179 384.701L586.273 386.429C586.273 386.429 573.71 387.116 572.072 390.592C570.434 394.069 635.691 394.069 642.784 391.279C649.876 388.49 640.327 386.783 640.327 386.783L689.466 381.912C689.466 381.912 767.548 369.775 795.934 364.217C824.32 358.659 812.314 351.394 812.314 351.394C812.314 351.394 883.566 341.673 908.414 332.992L1024.71 311.134L1024.68 109.564Z" fill="url(#paint7_linear_1304_7285)"/>
<path d="M360.921 196.762C360.608 198.757 360.844 200.828 361.589 202.629C362.335 204.429 363.545 205.849 365.016 206.65C370.34 209.773 384.869 214.456 384.869 214.456C384.869 214.456 378.448 216.288 382.788 219.411C387.129 222.533 397.776 221.742 396.957 219.411C396.45 217.979 395.674 216.728 394.697 215.768C394.697 215.768 404.115 217.849 404.737 216.018C405.36 214.186 403.296 212.375 403.296 212.375C403.296 212.375 407.833 209.773 404.934 207.17C402.035 204.568 393.763 202.757 393.763 202.757C392.918 199.825 391.54 197.187 389.741 195.06C387.942 192.933 385.773 191.376 383.411 190.517C375.336 187.665 370.209 197.282 370.209 197.282C367.199 196.099 364.001 195.92 360.921 196.762V196.762Z" fill="url(#paint8_linear_1304_7285)"/>
<path d="M1024.68 164.209C1024.68 164.209 986.594 165.77 968.577 177.219C950.559 188.669 968.577 189.189 968.577 189.189L931.313 212.608C920.096 211.614 908.834 213.381 898.144 217.812C881.764 225.098 902.239 223.537 902.239 223.537C902.239 223.537 861.699 232.905 839.586 256.844C817.474 280.783 846.138 279.743 846.138 279.743L758.539 309.407C758.539 309.407 762.258 307.096 762.651 296.812C763.044 286.529 737.246 296.812 737.246 296.812C737.246 296.812 777.065 280.471 777.016 274.726C776.868 256.178 679.917 265.899 661.489 285.301C643.062 304.702 695.887 304.202 695.887 304.202C695.887 304.202 666.403 307.325 663.946 315.131C661.489 322.938 683.602 321.897 683.602 321.897C683.602 321.897 621.359 319.815 602.522 336.989C583.686 354.163 641.539 352.602 641.539 352.602C641.539 352.602 610.941 356.765 598.755 361.969C586.568 367.174 605.307 368.214 605.307 368.214L492.287 373.419C492.287 373.419 499.658 363.531 492.287 355.724C484.916 347.918 446.014 345.836 446.014 345.836C446.014 345.836 466.489 339.071 468.536 335.948C470.583 332.826 409.569 327.101 409.569 327.101C409.569 327.101 459.363 325.019 461.984 320.336C464.605 315.652 409.569 295.876 409.569 295.876C409.569 295.876 419.806 294.523 416.53 285.301C413.254 276.079 356.335 253.201 315.385 255.012C315.385 255.012 317.433 251.119 317.22 248.517C317.007 245.915 273.617 227.95 263.38 229.262C253.142 230.573 260.71 239.67 260.71 239.67C260.71 239.67 227.95 205.052 182.3 194.123C136.65 183.194 142.776 195.164 142.776 195.164C142.776 195.164 93.8496 161.856 78.0759 158.734C62.3022 155.611 78.0759 165.77 78.0759 165.77C78.0759 165.77 50.8528 138.708 25.6608 139.229L11.738 129.34C11.738 129.34 19.1089 126.218 13.9985 117.891C8.88797 109.564 -36.1727 79.1093 -45.1815 77.548C-54.1904 75.9868 -49.2765 86.3952 -49.2765 86.3952L-121.904 37.7461V200.638C-121.904 200.638 -73.0435 226.722 -39.9073 235.153C-6.77111 243.584 19.371 240.94 23.8754 237.235C28.3798 233.529 25.1039 216.418 25.1039 216.418L80.3855 235.153C80.3855 235.153 74.6362 237.026 77.3061 248.247C79.976 259.467 149.786 273.768 179.073 278.702C208.36 283.635 257.696 287.549 257.696 287.549L276.533 291.463C276.533 291.463 259.4 289.381 256.058 295.626C252.717 301.871 273.24 304.785 273.24 304.785C273.24 304.785 240.088 303.682 229.851 308.116C219.613 312.55 238.859 316.443 238.859 316.443C238.859 316.443 215.715 312.779 199.335 320.065C182.955 327.351 191.964 334.907 191.964 334.907C191.964 334.907 184.397 337.759 184.397 340.632C184.397 343.505 214.699 344.275 214.699 344.275C214.699 344.275 169.655 341.423 140.368 345.836C140.368 345.836 153.128 343.755 160.237 339.071C167.345 334.387 146.92 334.137 146.92 334.137C146.92 334.137 152.243 327.892 151.637 324.228C151.031 320.565 109.656 309.157 109.656 309.157C109.656 309.157 141.4 307.325 142.219 303.411C143.038 299.498 118.468 289.381 107.003 289.11C95.5367 288.84 105.365 297.437 105.365 297.437C105.365 297.437 53.965 281.054 23.4659 281.304C23.4659 281.304 29.1988 277.932 29.8048 272.727C30.4109 267.523 -60.0708 243.042 -60.0708 243.042C-60.0708 243.042 -49.4239 243.563 -48.605 240.19C-47.786 236.818 -121.904 228.741 -121.904 228.741V366.653C-121.904 366.653 37.2414 370.817 85.0211 366.653L72.7363 363.531L198.86 368.506L215.518 371.337C215.518 371.337 196.469 372.461 195.044 375.667C193.619 378.873 274.895 388.511 300.693 383.307C300.693 383.307 301.299 379.56 280.628 377.062L327.982 386.471L352.551 388.553C352.551 388.553 325.525 389.843 319.792 393.507C314.059 397.171 377.989 402.5 418.889 401.022C459.789 399.544 461.87 397.004 463.77 395.193C465.67 393.382 462.017 392.029 462.017 392.029L470.551 395.152C470.551 395.152 462.148 398.212 462.017 401.272C461.886 404.332 492.794 404.561 492.794 404.561L486.456 398.17C486.456 398.17 489.944 392.966 488.716 389.843C487.487 386.721 480.723 383.598 480.723 383.598L584.324 386.637C584.324 386.637 573.825 385.68 572.105 390.634C570.385 395.589 598.919 395.693 614.693 396.63C630.466 397.566 644.897 393.403 646.404 392.196C647.911 390.988 641.752 387.512 641.752 387.512C641.752 387.512 720.931 382.203 765.157 377.103C809.382 372.003 818.178 363.801 818.03 357.244C817.883 350.687 812.379 351.478 812.379 351.478L901.043 321.376L925.613 315.131C925.613 315.131 901.682 329.578 903.402 334.574C905.121 339.57 1024.71 311.135 1024.71 311.135L1024.68 164.209Z" fill="url(#paint9_linear_1304_7285)"/>
<path d="M598.607 445.234C597.808 445.664 596.973 445.979 596.118 446.171C596.961 445.92 597.792 445.608 598.607 445.234V445.234Z" fill="url(#paint10_linear_1304_7285)"/>
<g style="mix-blend-mode:screen" filter="url(#filter0_f_1304_7285)">
<path d="M509.982 280.948C524.888 207.804 478.843 129.376 407.138 105.775C335.433 82.1729 265.221 122.335 250.315 195.479C235.409 268.623 281.454 347.051 353.16 370.653C424.865 394.254 495.077 354.092 509.982 280.948Z" fill="url(#paint11_radial_1304_7285)" fill-opacity="0.25" style="mix-blend-mode:screen"/>
</g>
<g style="mix-blend-mode:screen" filter="url(#filter1_f_1304_7285)">
<path d="M645.362 324.092C695.531 311.731 729.998 261.047 722.346 210.886C714.694 160.726 667.82 130.084 617.651 142.446C567.482 154.807 533.015 205.491 540.667 255.651C548.319 305.812 595.193 336.454 645.362 324.092Z" fill="url(#paint12_radial_1304_7285)" fill-opacity="0.25" style="mix-blend-mode:screen"/>
</g>
</g>
<defs>
<filter id="filter0_f_1304_7285" x="127.513" y="-20.9883" width="505.271" height="518.402" filterUnits="userSpaceOnUse" color-interpolation-filters="sRGB">
<feFlood flood-opacity="0" result="BackgroundImageFix"/>
<feBlend mode="normal" in="SourceGraphic" in2="BackgroundImageFix" result="shape"/>
<feGaussianBlur stdDeviation="60" result="effect1_foregroundBlur_1304_7285"/>
</filter>
<filter id="filter1_f_1304_7285" x="419.604" y="19.707" width="423.805" height="427.125" filterUnits="userSpaceOnUse" color-interpolation-filters="sRGB">
<feFlood flood-opacity="0" result="BackgroundImageFix"/>
<feBlend mode="normal" in="SourceGraphic" in2="BackgroundImageFix" result="shape"/>
<feGaussianBlur stdDeviation="60" result="effect1_foregroundBlur_1304_7285"/>
</filter>
<linearGradient id="paint0_linear_1304_7285" x1="451.387" y1="468.715" x2="451.387" y2="285.318" gradientUnits="userSpaceOnUse">
<stop offset="0.01" stop-color="#00619F"/>
<stop offset="1" stop-color="#00A2EF"/>
</linearGradient>
<linearGradient id="paint1_linear_1304_7285" x1="451.386" y1="468.652" x2="451.386" y2="349.996" gradientUnits="userSpaceOnUse">
<stop stop-color="#00438E"/>
<stop offset="0.99" stop-color="#007BD9"/>
</linearGradient>
<linearGradient id="paint2_linear_1304_7285" x1="979.42" y1="145.719" x2="979.42" y2="105.23" gradientUnits="userSpaceOnUse">
<stop offset="0.01" stop-color="#0089FE"/>
<stop offset="1" stop-color="#25FFFF"/>
</linearGradient>
<linearGradient id="paint3_linear_1304_7285" x1="781.536" y1="217.812" x2="781.536" y2="188.023" gradientUnits="userSpaceOnUse">
<stop offset="0.01" stop-color="#0089FE"/>
<stop offset="1" stop-color="#25FFFF"/>
</linearGradient>
<linearGradient id="paint4_linear_1304_7285" x1="882.845" y1="263.884" x2="882.845" y2="152.327" gradientUnits="userSpaceOnUse">
<stop offset="0.01" stop-color="#0089FE"/>
<stop offset="1" stop-color="#25FFFF"/>
</linearGradient>
<linearGradient id="paint5_linear_1304_7285" x1="644.929" y1="320.088" x2="644.929" y2="221.125" gradientUnits="userSpaceOnUse">
<stop offset="0.01" stop-color="#0089FE"/>
<stop offset="1" stop-color="#25FFFF"/>
</linearGradient>
<linearGradient id="paint6_linear_1304_7285" x1="391.863" y1="304.554" x2="391.863" y2="214" gradientUnits="userSpaceOnUse">
<stop offset="0.01" stop-color="#0089FE"/>
<stop offset="1" stop-color="#25FFFF"/>
</linearGradient>
<linearGradient id="paint7_linear_1304_7285" x1="451.386" y1="404.935" x2="451.386" y2="-28.6602" gradientUnits="userSpaceOnUse">
<stop offset="0.01" stop-color="#007CDD"/>
<stop offset="1" stop-color="#0092FF"/>
</linearGradient>
<linearGradient id="paint8_linear_1304_7285" x1="383.329" y1="221.472" x2="383.329" y2="189.996" gradientUnits="userSpaceOnUse">
<stop offset="0.01" stop-color="#0089FE"/>
<stop offset="1" stop-color="#25FFFF"/>
</linearGradient>
<linearGradient id="paint9_linear_1304_7285" x1="451.386" y1="404.519" x2="451.386" y2="37.7461" gradientUnits="userSpaceOnUse">
<stop stop-color="#013D96"/>
<stop offset="0.99" stop-color="#0088D1"/>
</linearGradient>
<linearGradient id="paint10_linear_1304_7285" x1="597.363" y1="446.171" x2="597.363" y2="445.234" gradientUnits="userSpaceOnUse">
<stop stop-color="#FFAE86"/>
<stop offset="0.99" stop-color="#CC7F9A"/>
</linearGradient>
<radialGradient id="paint11_radial_1304_7285" cx="0" cy="0" r="1" gradientUnits="userSpaceOnUse" gradientTransform="translate(379.865 240.965) rotate(101.518) scale(135.471 135.805)">
<stop stop-color="#005BFF"/>
<stop offset="0.13" stop-color="#004CD6"/>
<stop offset="0.37" stop-color="#00328B"/>
<stop offset="0.59" stop-color="#001C4F"/>
<stop offset="0.77" stop-color="#000D24"/>
<stop offset="0.92" stop-color="#00030A"/>
<stop offset="1"/>
</radialGradient>
<radialGradient id="paint12_radial_1304_7285" cx="0" cy="0" r="1" gradientUnits="userSpaceOnUse" gradientTransform="translate(632.266 235.604) rotate(81.3263) scale(92.0084 93.2185)">
<stop stop-color="#005BFF"/>
<stop offset="0.13" stop-color="#004CD6"/>
<stop offset="0.37" stop-color="#00328B"/>
<stop offset="0.59" stop-color="#001C4F"/>
<stop offset="0.77" stop-color="#000D24"/>
<stop offset="0.92" stop-color="#00030A"/>
<stop offset="1"/>
</radialGradient>
<clipPath id="clip0_1304_7285">
<rect width="1024" height="494" fill="white" transform="translate(0 -15)"/>
</clipPath>
</defs>
</svg>
