<svg width="1280" height="480" viewBox="0 0 1280 480" fill="none" xmlns="http://www.w3.org/2000/svg">
<g clip-path="url(#clip0_1304_6227)">
<path d="M1179.15 310.525C1149.81 329.156 1168.91 329.156 1168.91 329.156C1168.91 329.156 1117.72 339.382 1097.25 352.548C1076.78 365.714 1097.25 368.488 1097.25 368.488L1053.62 382.275C1053.62 382.275 1059.09 371.241 1032.47 369.171C1005.85 367.101 882.307 382.979 861.832 393.66C841.358 404.342 861.832 407.82 861.832 407.82C861.832 407.82 836.239 414.03 833.864 416.556C831.489 419.081 839.31 420.572 839.31 420.572L789.495 422.311C789.495 422.311 795.638 418.502 794.614 413.844C793.59 409.186 750.757 403.845 713.903 412.809C713.903 412.809 716.647 409.186 710.504 408.669C704.362 408.151 658.621 423.511 658.621 423.511L611.878 422.124C611.878 422.124 611.53 410.573 604.036 408.503C596.542 406.433 548.918 409.373 548.918 409.373L386.308 405.232C386.308 405.232 307.829 393.495 264.32 399.353C227.2 404.363 220.136 415.769 219.931 420.282C198.351 418.957 158.159 414.072 137.5 416.494C141.619 415.848 145.66 414.772 149.56 413.285C152.119 412.146 154.146 410.739 154.433 409.021C154.433 409.021 160.37 408.855 168.765 408.4C186.742 407.406 215.857 404.963 220.197 399.54C226.503 391.59 205.681 386.601 205.681 386.601L255.516 384.345L258.751 376.065L-152.38 378.404V452.41H324.679C324.679 452.41 253.53 455.515 245.34 458.103C237.15 460.69 265.815 463.278 265.815 463.278L-88.397 467.936L-152.38 472.076V477.769H-2.40341H-2.58762C-3.7342 477.955 -9.83573 479.094 -9.83573 479.839C-9.83573 480.584 256.437 474.705 332.091 473.008L337.026 472.904H339.953H341.346H343.741H345.052H348.676H349.085H351.399H351.931C351.931 472.904 344.827 474.974 343.741 476.485C343.685 476.585 343.637 476.688 343.598 476.796C343.332 478.328 778.173 478.762 782.616 476.361C787.059 473.96 770.659 472.552 770.659 472.552H775.061H779.279H781.776C837.283 471.662 1082.24 467.77 1086.32 466.859C1089.27 465.919 1092.15 464.763 1094.94 463.402L1280.83 462.719V298.705C1280.83 298.705 1208.51 291.977 1179.15 310.525ZM268.947 417.756C267.309 417.756 258.894 418.191 249.947 418.75C248.491 417.615 246.795 416.836 244.992 416.473L269.234 417.736L268.947 417.756ZM515.77 458.682H398.736C398.736 458.682 423.634 457.42 429.448 451.892C429.448 451.892 470.05 455.35 478.588 451.892C486.02 448.87 468.78 447.752 464.255 447.462L574.348 451.872C568.062 451.768 524.942 451.251 515.77 458.682ZM928.232 462.243H927.699L882.655 464.313L835.809 464.065L836.792 463.878C838.676 463.526 842.525 462.698 842.934 461.808C843.467 460.504 755.917 460.256 745.188 461.291C734.459 462.326 750.041 464.147 750.041 464.147L696.54 465.431H696.909H697.298H697.728C704.014 464.541 733.415 460.338 744.349 457.916L745.147 457.73C746.216 457.539 747.26 457.226 748.259 456.799C751.822 454.728 742.117 454.211 742.117 454.211L773.32 452.141C773.32 452.141 765.131 454.459 765.397 456.033C766.613 456.389 767.879 456.543 769.144 456.488C787.571 457.461 867.77 457.068 867.77 457.068L948.092 461.084H948.236L953.743 461.373L928.232 462.243Z" fill="url(#paint0_linear_1304_6227)"/>
<path d="M1082.24 384.611C1035.15 393.926 1076.1 396.514 1076.1 396.514C1076.1 396.514 879.031 411.005 867.258 416.47C855.485 421.935 970.696 420.838 970.696 420.838L789.577 443.071C791.072 442.739 815.15 437.233 817.136 432.223C819.122 427.214 753.153 420.838 706.061 423.943C658.969 427.048 667.159 434.811 667.159 434.811L525.884 429.636C525.884 429.636 551.969 421.645 552.501 416.47C553.033 411.295 432.315 423.943 432.315 423.943C432.315 423.943 329.491 412.557 269.275 417.733H268.988C261.699 418.354 255.495 418.975 250.233 419.554C242.906 420.27 235.62 421.376 228.407 422.866C217.371 425.371 222.859 427.007 222.859 427.007L75.4411 423.384C75.4411 423.384 122.144 418.002 149.559 413.158C159.633 411.357 167.086 409.638 168.703 408.272C174.846 403.2 108.201 381.878 25.79 388.668C-56.6205 395.458 -38.7052 402.414 -38.7052 402.414H-152.34V452.365H324.72C324.72 452.365 253.571 455.471 245.381 458.058C237.191 460.646 265.856 463.233 265.856 463.233L-88.3563 467.891L-152.34 472.031V477.724H-2.36264H-2.54697L-9.79496 479.794L332.132 472.963L337.066 472.859H339.994H341.387H343.782H345.092H348.716C347.668 472.989 346.668 473.378 345.804 473.992C344.94 474.606 344.238 475.426 343.762 476.379C343.706 476.478 343.657 476.582 343.618 476.689C341.571 481.595 782.309 480.726 787.407 476.42C792.505 472.114 770.679 472.445 770.679 472.445H775.081H779.299H781.797L1097.6 468.305L1280.85 462.612V361.84C1280.85 361.84 1129.33 375.296 1082.24 384.611ZM429.448 451.889C429.448 451.889 470.049 455.346 478.587 451.889C486.02 448.867 468.78 447.749 464.255 447.459L574.347 451.869C568.041 451.765 524.922 451.248 515.749 458.679H398.716C398.716 458.679 423.633 457.416 429.448 451.889ZM745.188 461.205C734.418 462.24 750.04 464.061 750.04 464.061L696.54 465.345H696.909H697.298H697.728C703.87 464.538 732.535 460.666 744.348 457.83L745.147 457.644C746.216 457.453 747.26 457.14 748.259 456.713C756.183 453.607 742.117 454.125 742.117 454.125L773.32 452.055C773.32 452.055 765.13 454.373 765.396 455.947C766.613 456.303 767.878 456.457 769.144 456.402C768.202 457.582 767.649 458.596 768.304 458.783C769.553 459.155 886.566 460.397 948.092 460.998H948.235L953.743 461.288L928.232 462.447H927.699C901.451 462.923 869.08 463.503 836.894 464.041C838.778 463.689 842.627 462.861 843.037 461.971C843.466 460.418 755.917 460.17 745.188 461.205V461.205Z" fill="url(#paint1_linear_1304_6227)"/>
<path d="M1167.72 158.704C1167.72 158.704 1183.57 149.472 1197.41 142.93C1197.41 142.93 1182.57 143.448 1192.81 128.439C1203.04 113.431 1255.25 115.48 1280.85 133.594L1167.72 158.704Z" fill="url(#paint2_linear_1304_6227)"/>
<path d="M1020.82 212.796C1020.82 212.796 1002.9 199.32 967.072 200.893C931.241 202.467 933.043 220.725 933.043 220.725L947.621 230.392L1020.82 212.796Z" fill="url(#paint3_linear_1304_6227)"/>
<path d="M1137.77 169.056C1137.77 169.056 1112.44 160.527 1079.17 169.056C1045.9 177.585 1068.93 190.026 1068.93 190.026C1068.93 190.026 1059.66 203.047 1063.53 206.318C1067.4 209.589 1102.7 200.894 1102.7 200.894H1128.35C1128.35 200.894 1098.15 209.692 1083.82 217.973C1069.49 226.253 1085.87 226.605 1085.87 226.605C1085.87 226.605 1051.57 228.841 1027.51 241.779C1003.46 254.717 1006.26 276.184 1006.26 276.184L1102.96 242.462L1181.3 200.894L1201.04 169.843L1152.41 194.332L1118.11 190.026L1112.48 180.193L1137.77 169.056Z" fill="url(#paint4_linear_1304_6227)"/>
<path d="M745.945 286.04C745.945 286.04 737.756 271.798 748.259 251.097C758.763 230.396 808.557 238.676 808.557 238.676C808.557 238.676 814.024 234.225 831.079 233.687C848.135 233.149 869.408 246.915 869.408 246.915L822.173 303.47L769.225 332.079L750.798 324.585C750.798 324.585 752.6 318.023 762.141 309.743C771.682 301.462 786.035 297.529 786.035 297.529L745.945 286.04Z" fill="url(#paint5_linear_1304_6227)"/>
<path d="M589.458 307.215C589.458 307.215 579.221 289.702 553.996 283.078C553.996 283.078 557.374 264.902 539.991 251.095C522.608 237.287 505.185 239.357 505.185 239.357C505.185 239.357 437.27 214.909 390.178 233.685L489.808 297.527L564.213 316.655L589.458 307.215Z" fill="url(#paint6_linear_1304_6227)"/>
<path d="M1280.85 122.748C1280.85 122.748 1233.24 126.888 1216.86 133.616C1200.48 140.344 1202.53 149.142 1202.53 149.142C1202.53 149.142 1187.42 149.39 1167.72 158.705C1148.03 168.021 1150.05 180.711 1151.08 182.781C1152.1 184.851 1161.58 185.099 1161.58 185.099L1135.99 190.026C1135.99 190.026 1139.57 186.652 1139.57 184.064C1139.57 181.477 1129.07 182.263 1129.07 182.263C1129.07 182.263 1137.77 172.679 1137.77 169.056C1137.77 165.433 1084.29 174.5 1072.76 185.368C1061.24 196.236 1077.37 193.131 1077.37 193.131C1077.37 193.131 1062.79 200.107 1063.55 206.318C1064.31 212.528 1089.92 212.28 1096.31 210.21C1102.7 208.139 1099.65 204.765 1099.65 204.765L1117.05 205.552C1117.05 205.552 1091.19 221.078 1102.45 225.735C1102.45 225.735 1068.93 229.606 1039.25 243.331C1009.56 257.056 1004.68 272.313 1006.22 276.184C1007.76 280.055 1021.06 281.628 1021.06 281.628L968.096 290.426C968.096 290.426 985.233 274.383 976.531 259.892C967.83 245.401 936.872 250.307 936.872 250.307C936.872 250.307 941.991 246.436 940.189 240.744C940.189 240.744 982.162 247.989 1000.08 237.887C1000.08 237.887 1007.24 232.981 1008.02 227.805C1008.02 227.805 1022.35 219.256 1020.82 212.797C1019.28 206.338 960.664 203.73 941.991 212.01C923.318 220.291 942.748 218.738 942.748 218.738C942.748 218.738 929.194 219.007 927.146 226.501C925.099 233.995 938.653 237.638 938.653 237.638C938.653 237.638 914.862 236.086 903.334 245.401C891.807 254.717 909.989 255.234 909.989 255.234C909.989 255.234 834.499 233.684 782.288 249.024C731.265 264.011 745.946 286.037 745.946 286.037C745.946 286.037 734.173 291.461 733.661 293.78C733.149 296.098 806.858 304.13 806.858 304.13C806.858 304.13 785.359 306.469 785.359 319.159C785.359 319.159 757.207 319.656 750.798 324.583C744.39 329.509 769.225 332.076 769.225 332.076C769.225 332.076 737.756 336.486 725.717 354.599L642.713 359.422C642.713 359.422 651.25 347.354 586.243 338.038C586.243 338.038 607.783 306.242 569.864 292.786C531.944 279.33 516.629 288.356 516.629 288.356C516.629 288.356 531.474 277.488 532.497 268.172C533.521 258.857 475.045 210.975 390.198 233.684C369.089 239.336 383.544 253.164 383.544 253.164L343.618 241.095C345.299 240.599 346.744 239.503 347.686 238.01C348.627 236.518 349.001 234.731 348.737 232.981C348.225 226.253 266.327 199.859 266.327 199.859C266.327 199.859 267.35 177.088 182.38 177.088C182.38 177.088 192.618 178.123 196.201 173.983C199.784 169.843 157.811 156.387 157.811 156.387C157.811 156.387 190.57 159.492 195.689 154.317C200.808 149.142 179.821 132.063 161.394 137.756C161.394 137.756 146.038 133.616 141.431 137.756C136.824 141.896 150.645 153.799 150.645 153.799C150.645 153.799 116.513 125.853 87.1732 133.45C65.982 138.915 87.1732 162.597 87.1732 162.597L41.6171 141.896C41.6171 141.896 91.2682 79.7931 12.4407 41.4134C-66.3868 3.03374 -152.38 -14.707 -152.38 -14.707V213.315C-152.38 213.315 -52.0545 255.048 -35.1629 247.637C-35.1629 247.637 13.9763 255.565 24.2136 247.637C34.451 239.708 30.9089 232.463 30.9089 232.463L100.523 247.637C100.523 247.637 87.7261 255.234 100.011 263.515C112.296 271.795 232.584 294.049 322.161 299.741C319.761 302.267 318.313 305.563 318.066 309.057C318.066 314.232 344.171 317.337 344.171 317.337C344.171 317.337 292.985 307.504 260.225 318.372C227.466 329.24 244.869 332.863 244.869 332.863C244.869 332.863 227.978 334.933 221.323 341.143C214.669 347.354 227.466 352.529 227.466 352.529L200.337 350.976C200.337 350.976 210.574 348.906 210.574 342.696C210.574 336.486 190.611 334.416 190.611 334.416C190.611 334.416 217.74 334.933 221.323 329.758C224.906 324.583 178.838 311.644 178.838 311.644C178.838 311.644 192.147 313.715 195.218 304.399C198.289 295.084 148.638 282.146 131.747 290.426C114.855 298.706 133.794 301.294 133.794 301.294C122.158 297.975 110.198 295.948 98.1272 295.249C98.1272 295.249 90.2853 284.899 72.5338 282.829C54.7823 280.759 49.6638 289.039 49.6638 289.039L39.7745 287.321C39.7745 287.321 49.3361 286.638 50.3598 278.005C51.3836 269.373 22.371 256.621 -21.6495 255.234C-21.6495 255.234 -106.619 227.64 -152.339 226.253V378.405C-152.339 378.405 67.7632 382.545 106.317 378.405L90.961 375.3L248.616 380.248C248.616 380.248 240.078 384.968 243.845 387.369C247.613 389.77 358.831 398.754 375.907 394.966L369.765 391.178L410.018 398.071C410.018 398.071 403.548 395.649 396.709 405.669C396.709 405.669 435.284 411.879 492.613 412.562C549.942 413.245 571.911 410.14 577.48 408.07C583.049 406 577.48 403.598 577.48 403.598L588.148 406.704C588.148 406.704 582.005 408.277 570.416 412.665C558.828 417.054 607.946 417.054 621.255 415.667C634.563 414.28 611.366 410.14 611.366 410.14C611.366 410.14 625.698 408.422 628.769 405.317C631.84 402.211 605.223 396.353 605.223 396.353L732.842 398.071C732.842 398.071 717.138 398.754 715.09 402.211C713.043 405.669 794.614 405.668 803.479 402.895C812.345 400.121 800.408 398.423 800.408 398.423L861.832 393.579C861.832 393.579 959.435 381.51 994.918 375.983C1030.4 370.456 1015.39 363.231 1015.39 363.231C1015.39 363.231 1104.46 353.564 1135.52 344.932L1280.89 323.196L1280.85 122.748Z" fill="url(#paint7_linear_1304_6227)"/>
<path d="M451.152 209.463C450.76 211.446 451.055 213.506 451.987 215.297C452.919 217.087 454.431 218.499 456.27 219.296C462.925 222.401 481.086 227.058 481.086 227.058C481.086 227.058 473.06 228.88 478.485 231.985C483.911 235.09 497.22 234.304 496.196 231.985C495.562 230.562 494.592 229.318 493.371 228.363C493.371 228.363 505.144 230.433 505.922 228.611C506.7 226.789 504.12 224.988 504.12 224.988C504.12 224.988 509.791 222.401 506.167 219.813C502.543 217.225 492.204 215.424 492.204 215.424C491.148 212.508 489.425 209.886 487.176 207.77C484.928 205.655 482.216 204.107 479.263 203.252C469.169 200.416 462.761 209.98 462.761 209.98C458.999 208.804 455.001 208.625 451.152 209.463V209.463Z" fill="url(#paint8_linear_1304_6227)"/>
<path d="M1280.85 177.087C1280.85 177.087 1233.24 178.639 1210.72 190.025C1188.2 201.411 1210.72 201.928 1210.72 201.928L1164.14 225.217C1150.12 224.228 1136.04 225.986 1122.68 230.392C1102.21 237.637 1127.8 236.085 1127.8 236.085C1127.8 236.085 1077.12 245.4 1049.48 269.206C1021.84 293.013 1057.67 291.978 1057.67 291.978L948.174 321.476C948.174 321.476 952.822 319.179 953.313 308.952C953.805 298.726 921.557 308.952 921.557 308.952C921.557 308.952 971.331 292.702 971.27 286.989C971.085 268.544 849.896 278.211 826.862 297.505C803.828 316.798 869.859 316.301 869.859 316.301C869.859 316.301 833.004 319.406 829.933 327.169C826.862 334.932 854.503 333.897 854.503 333.897C854.503 333.897 776.699 331.827 753.153 348.905C729.607 365.984 801.923 364.431 801.923 364.431C801.923 364.431 763.677 368.571 748.444 373.747C733.21 378.922 756.633 379.957 756.633 379.957L615.358 385.132C615.358 385.132 624.572 375.299 615.358 367.536C606.145 359.773 557.517 357.703 557.517 357.703C557.517 357.703 583.111 350.975 585.67 347.87C588.229 344.765 511.961 339.072 511.961 339.072C511.961 339.072 574.204 337.002 577.48 332.345C580.756 327.687 511.961 308.021 511.961 308.021C511.961 308.021 524.758 306.675 520.663 297.505C516.568 288.334 445.419 265.584 394.232 267.385C394.232 267.385 396.791 263.514 396.525 260.926C396.259 258.338 342.021 240.473 329.225 241.778C316.428 243.082 325.887 252.128 325.887 252.128C325.887 252.128 284.938 217.702 227.875 206.834C170.812 195.966 178.47 207.869 178.47 207.869C178.47 207.869 117.312 174.748 97.5948 171.642C77.8777 168.537 97.5948 178.639 97.5948 178.639C97.5948 178.639 63.566 151.728 32.076 152.246L14.6725 142.413C14.6725 142.413 23.8861 139.307 17.498 131.027C11.1099 122.747 -45.2159 92.4611 -56.477 90.9085C-67.738 89.3559 -61.5956 99.7064 -61.5956 99.7064L-152.38 51.3281V213.314C-152.38 213.314 -91.3044 239.252 -49.8842 247.636C-8.46392 256.02 24.2137 253.391 29.8442 249.706C35.4747 246.021 31.3798 229.005 31.3798 229.005L100.482 247.636C100.482 247.636 93.2952 249.499 96.6326 260.657C99.9699 271.815 187.233 286.036 223.842 290.942C260.45 295.849 322.12 299.74 322.12 299.74L345.666 303.632C345.666 303.632 324.249 301.562 320.073 307.772C315.896 313.983 341.551 316.881 341.551 316.881C341.551 316.881 300.11 315.784 287.313 320.193C274.516 324.602 298.574 328.473 298.574 328.473C298.574 328.473 269.644 324.83 249.169 332.075C228.694 339.321 239.955 346.835 239.955 346.835C239.955 346.835 230.496 349.671 230.496 352.528C230.496 355.385 268.374 356.151 268.374 356.151C268.374 356.151 212.069 353.315 175.46 357.703C175.46 357.703 191.41 355.633 200.296 350.975C209.182 346.318 183.65 346.069 183.65 346.069C183.65 346.069 190.304 339.859 189.547 336.216C188.789 332.572 137.07 321.228 137.07 321.228C137.07 321.228 176.75 319.406 177.774 315.515C178.797 311.623 148.085 301.562 133.753 301.293C119.421 301.024 131.706 309.573 131.706 309.573C131.706 309.573 67.4562 293.282 29.3323 293.53C29.3323 293.53 36.4984 290.177 37.256 285.001C38.0136 279.826 -75.0885 255.482 -75.0885 255.482C-75.0885 255.482 -61.78 255.999 -60.7562 252.646C-59.7325 249.292 -152.38 241.26 -152.38 241.26V378.404C-152.38 378.404 46.5517 382.544 106.276 378.404L90.9203 375.299L248.575 380.247L269.398 383.062C269.398 383.062 245.586 384.18 243.804 387.368C242.023 390.556 343.619 400.14 375.866 394.965C375.866 394.965 376.624 391.239 350.785 388.755L409.977 398.112L440.689 400.182C440.689 400.182 406.906 401.465 399.74 405.109C392.574 408.752 472.486 414.051 523.611 412.582C574.737 411.112 577.337 408.586 579.712 406.785C582.087 404.984 577.521 403.639 577.521 403.639L588.189 406.744C588.189 406.744 577.685 409.787 577.521 412.83C577.357 415.873 615.993 416.101 615.993 416.101L608.069 409.746C608.069 409.746 612.431 404.57 610.895 401.465C609.359 398.36 600.903 395.255 600.903 395.255L730.406 398.277C730.406 398.277 717.281 397.325 715.132 402.252C712.982 407.179 748.649 407.282 768.366 408.214C788.083 409.145 806.121 405.005 808.005 403.804C809.888 402.604 802.19 399.147 802.19 399.147C802.19 399.147 901.164 393.868 956.446 388.796C1011.73 383.724 1022.72 375.568 1022.54 369.047C1022.35 362.527 1015.47 363.313 1015.47 363.313L1126.3 333.38L1157.02 327.169C1157.02 327.169 1127.1 341.536 1129.25 346.504C1131.4 351.472 1280.89 323.195 1280.89 323.195L1280.85 177.087Z" fill="url(#paint9_linear_1304_6227)"/>
<path d="M748.259 456.551C747.26 456.978 746.216 457.291 745.147 457.482C746.201 457.233 747.24 456.922 748.259 456.551V456.551Z" fill="url(#paint10_linear_1304_6227)"/>
<g style="mix-blend-mode:screen" filter="url(#filter0_f_1304_6227)">
<path d="M637.478 293.182C656.11 220.445 598.554 142.454 508.922 118.984C419.291 95.5136 331.526 135.452 312.894 208.189C294.262 280.926 351.818 358.917 441.449 382.387C531.081 405.858 618.846 365.919 637.478 293.182Z" fill="url(#paint11_radial_1304_6227)" fill-opacity="0.25" style="mix-blend-mode:screen"/>
</g>
<g style="mix-blend-mode:screen" filter="url(#filter1_f_1304_6227)">
<path d="M806.702 336.084C869.414 323.792 912.497 273.39 902.932 223.509C893.367 173.628 834.775 143.156 772.064 155.449C709.353 167.742 666.269 218.144 675.834 268.025C685.399 317.906 743.991 348.377 806.702 336.084Z" fill="url(#paint12_radial_1304_6227)" fill-opacity="0.25" style="mix-blend-mode:screen"/>
</g>
</g>
<defs>
<filter id="filter0_f_1304_6227" x="189.391" y="-7.73828" width="571.589" height="516.848" filterUnits="userSpaceOnUse" color-interpolation-filters="sRGB">
<feFlood flood-opacity="0" result="BackgroundImageFix"/>
<feBlend mode="normal" in="SourceGraphic" in2="BackgroundImageFix" result="shape"/>
<feGaussianBlur stdDeviation="60" result="effect1_foregroundBlur_1304_6227"/>
</filter>
<filter id="filter1_f_1304_6227" x="554.505" y="32.7266" width="469.756" height="426.082" filterUnits="userSpaceOnUse" color-interpolation-filters="sRGB">
<feFlood flood-opacity="0" result="BackgroundImageFix"/>
<feBlend mode="normal" in="SourceGraphic" in2="BackgroundImageFix" result="shape"/>
<feGaussianBlur stdDeviation="60" result="effect1_foregroundBlur_1304_6227"/>
</filter>
<linearGradient id="paint0_linear_1304_6227" x1="564.233" y1="479.901" x2="564.233" y2="297.525" gradientUnits="userSpaceOnUse">
<stop offset="0.01" stop-color="#00619F"/>
<stop offset="1" stop-color="#00A2EF"/>
</linearGradient>
<linearGradient id="paint1_linear_1304_6227" x1="564.233" y1="479.836" x2="564.233" y2="361.84" gradientUnits="userSpaceOnUse">
<stop stop-color="#00438E"/>
<stop offset="0.99" stop-color="#007BD9"/>
</linearGradient>
<linearGradient id="paint2_linear_1304_6227" x1="1224.28" y1="158.704" x2="1224.28" y2="118.441" gradientUnits="userSpaceOnUse">
<stop offset="0.01" stop-color="#0089FE"/>
<stop offset="1" stop-color="#25FFFF"/>
</linearGradient>
<linearGradient id="paint3_linear_1304_6227" x1="976.92" y1="230.392" x2="976.92" y2="200.769" gradientUnits="userSpaceOnUse">
<stop offset="0.01" stop-color="#0089FE"/>
<stop offset="1" stop-color="#25FFFF"/>
</linearGradient>
<linearGradient id="paint4_linear_1304_6227" x1="1103.56" y1="276.205" x2="1103.56" y2="165.268" gradientUnits="userSpaceOnUse">
<stop offset="0.01" stop-color="#0089FE"/>
<stop offset="1" stop-color="#25FFFF"/>
</linearGradient>
<linearGradient id="paint5_linear_1304_6227" x1="806.161" y1="332.1" x2="806.161" y2="233.687" gradientUnits="userSpaceOnUse">
<stop offset="0.01" stop-color="#0089FE"/>
<stop offset="1" stop-color="#25FFFF"/>
</linearGradient>
<linearGradient id="paint6_linear_1304_6227" x1="489.829" y1="316.655" x2="489.829" y2="226.605" gradientUnits="userSpaceOnUse">
<stop offset="0.01" stop-color="#0089FE"/>
<stop offset="1" stop-color="#25FFFF"/>
</linearGradient>
<linearGradient id="paint7_linear_1304_6227" x1="564.233" y1="416.474" x2="564.233" y2="-14.707" gradientUnits="userSpaceOnUse">
<stop offset="0.01" stop-color="#007CDD"/>
<stop offset="1" stop-color="#0092FF"/>
</linearGradient>
<linearGradient id="paint8_linear_1304_6227" x1="479.161" y1="234.035" x2="479.161" y2="202.735" gradientUnits="userSpaceOnUse">
<stop offset="0.01" stop-color="#0089FE"/>
<stop offset="1" stop-color="#25FFFF"/>
</linearGradient>
<linearGradient id="paint9_linear_1304_6227" x1="564.233" y1="416.059" x2="564.233" y2="51.3281" gradientUnits="userSpaceOnUse">
<stop stop-color="#013D96"/>
<stop offset="0.99" stop-color="#0088D1"/>
</linearGradient>
<linearGradient id="paint10_linear_1304_6227" x1="746.703" y1="457.482" x2="746.703" y2="456.551" gradientUnits="userSpaceOnUse">
<stop stop-color="#FFAE86"/>
<stop offset="0.99" stop-color="#CC7F9A"/>
</linearGradient>
<radialGradient id="paint11_radial_1304_6227" cx="0" cy="0" r="1" gradientUnits="userSpaceOnUse" gradientTransform="translate(474.832 253.422) rotate(104.368) scale(136.266 167.827)">
<stop stop-color="#005BFF"/>
<stop offset="0.13" stop-color="#004CD6"/>
<stop offset="0.37" stop-color="#00328B"/>
<stop offset="0.59" stop-color="#001C4F"/>
<stop offset="0.77" stop-color="#000D24"/>
<stop offset="0.92" stop-color="#00030A"/>
<stop offset="1"/>
</radialGradient>
<radialGradient id="paint12_radial_1304_6227" cx="0" cy="0" r="1" gradientUnits="userSpaceOnUse" gradientTransform="translate(790.332 248.089) rotate(79.1449) scale(92.0977 115.762)">
<stop stop-color="#005BFF"/>
<stop offset="0.13" stop-color="#004CD6"/>
<stop offset="0.37" stop-color="#00328B"/>
<stop offset="0.59" stop-color="#001C4F"/>
<stop offset="0.77" stop-color="#000D24"/>
<stop offset="0.92" stop-color="#00030A"/>
<stop offset="1"/>
</radialGradient>
<clipPath id="clip0_1304_6227">
<rect width="1280" height="480" fill="white"/>
</clipPath>
</defs>
</svg>
