<svg width="1512" height="548" viewBox="0 0 1512 548" fill="none" xmlns="http://www.w3.org/2000/svg">
<g clip-path="url(#clip0_1265_3240)">
<path d="M1392.87 346.274C1358.21 368.282 1380.78 368.282 1380.78 368.282C1380.78 368.282 1320.31 380.361 1296.13 395.914C1271.94 411.466 1296.13 414.742 1296.13 414.742L1244.59 431.028C1244.59 431.028 1251.04 417.995 1219.6 415.549C1188.16 413.104 1042.23 431.86 1018.04 444.477C993.854 457.095 1018.04 461.203 1018.04 461.203C1018.04 461.203 987.808 468.539 985.002 471.522C982.197 474.506 991.435 476.266 991.435 476.266L932.592 478.32C932.592 478.32 939.847 473.821 938.638 468.319C937.429 462.817 886.832 456.508 843.298 467.096C843.298 467.096 846.539 462.817 839.283 462.206C832.028 461.594 777.996 479.739 777.996 479.739L722.781 478.1C722.781 478.1 722.37 464.456 713.518 462.01C704.666 459.565 648.41 463.037 648.41 463.037L456.327 458.147C456.327 458.147 363.623 444.282 312.228 451.202C268.38 457.12 260.035 470.593 259.794 475.924C234.302 474.359 186.826 468.588 162.422 471.449C167.287 470.686 172.061 469.416 176.667 467.659C179.69 466.314 182.085 464.651 182.423 462.622C182.423 462.622 189.437 462.426 199.353 461.888C220.589 460.714 254.981 457.829 260.108 451.422C267.557 442.032 242.96 436.139 242.96 436.139L301.828 433.473L305.65 423.692L-179.999 426.455V513.875H383.528C383.528 513.875 299.482 517.543 289.808 520.6C280.134 523.656 313.994 526.713 313.994 526.713L-104.419 532.215L-179.999 537.106V543.83H-2.83897H-3.05656C-4.41096 544.05 -11.6184 545.395 -11.6184 546.276C-11.6184 547.156 302.917 540.211 392.283 538.206L398.112 538.084H401.57H403.215H406.045H407.593H411.873H412.357H415.09H415.719C415.719 538.084 407.327 540.529 406.045 542.314C405.978 542.431 405.922 542.554 405.875 542.681C405.561 544.49 919.217 545.004 924.465 542.167C929.714 539.331 910.341 537.668 910.341 537.668H915.541H920.523H923.474C989.041 536.617 1278.4 532.019 1283.21 530.943C1286.7 529.832 1290.1 528.467 1293.39 526.86L1512.98 526.053V332.311C1512.98 332.311 1427.55 324.364 1392.87 346.274ZM317.694 472.941C315.759 472.941 305.819 473.454 295.25 474.114C293.53 472.774 291.527 471.854 289.397 471.425L318.033 472.916L317.694 472.941ZM609.253 521.284H471.007C471.007 521.284 500.417 519.793 507.286 513.264C507.286 513.264 555.246 517.348 565.332 513.264C574.111 509.694 553.747 508.373 548.402 508.031L678.448 513.239C671.023 513.117 620.088 512.506 609.253 521.284ZM1096.47 525.49H1095.85L1042.64 527.936L987.3 527.642L988.46 527.422C990.686 527.007 995.233 526.028 995.716 524.977C996.345 523.436 892.927 523.143 880.254 524.366C867.58 525.588 885.986 527.74 885.986 527.74L822.788 529.256H823.224H823.683H824.191C831.616 528.205 866.347 523.241 879.262 520.38L880.205 520.16C881.468 519.934 882.701 519.564 883.882 519.059C888.09 516.614 876.626 516.003 876.626 516.003L913.485 513.557C913.485 513.557 903.811 516.296 904.125 518.154C905.562 518.575 907.057 518.757 908.551 518.692C930.318 519.842 1025.05 519.377 1025.05 519.377L1119.93 524.121H1120.1L1126.61 524.463L1096.47 525.49Z" fill="url(#paint0_linear_1265_3240)"/>
<path d="M1278.4 433.789C1222.77 444.793 1271.14 447.85 1271.14 447.85C1271.14 447.85 1038.36 464.967 1024.45 471.422C1010.54 477.878 1146.63 476.582 1146.63 476.582L932.688 502.844C934.454 502.453 962.896 495.949 965.242 490.031C967.588 484.113 889.662 476.582 834.035 480.25C778.407 483.918 788.082 493.088 788.082 493.088L621.2 486.974C621.2 486.974 652.013 477.536 652.642 471.422C653.271 465.309 510.672 480.25 510.672 480.25C510.672 480.25 389.211 466.801 318.081 472.914H317.742C309.132 473.648 301.804 474.381 295.588 475.066C286.932 475.911 278.326 477.217 269.806 478.978C256.77 481.937 263.252 483.869 263.252 483.869L89.1148 479.59C89.1148 479.59 144.282 473.232 176.667 467.51C188.566 465.382 197.37 463.353 199.281 461.739C206.537 455.748 127.812 430.561 30.4645 438.582C-66.883 446.602 -45.7205 454.819 -45.7205 454.819H-179.951V513.824H383.576C383.576 513.824 299.53 517.492 289.856 520.549C280.182 523.605 314.042 526.662 314.042 526.662L-104.371 532.164L-179.951 537.054V543.779H-2.79088H-3.00862L-11.5703 546.224L392.331 538.155L398.16 538.032H401.618H403.263H406.093H407.64H411.921C410.683 538.186 409.501 538.646 408.481 539.371C407.46 540.096 406.631 541.064 406.069 542.189C406.002 542.307 405.945 542.43 405.899 542.556C403.481 548.352 924.102 547.325 930.124 542.238C936.146 537.152 910.365 537.543 910.365 537.543H915.564H920.547H923.497L1296.54 532.653L1513 525.928V406.891C1513 406.891 1334.03 422.785 1278.4 433.789ZM507.286 513.262C507.286 513.262 555.246 517.345 565.331 513.262C574.111 509.691 553.746 508.371 548.401 508.029L678.448 513.237C670.999 513.115 620.064 512.503 609.229 521.282H470.983C470.983 521.282 500.417 519.79 507.286 513.262ZM880.253 524.265C867.532 525.488 885.985 527.64 885.985 527.64L822.788 529.156H823.224H823.683H824.191C831.447 528.202 865.307 523.63 879.262 520.28L880.205 520.059C881.467 519.833 882.701 519.464 883.881 518.959C893.241 515.291 876.625 515.902 876.625 515.902L913.484 513.457C913.484 513.457 903.81 516.196 904.125 518.054C905.561 518.475 907.056 518.657 908.551 518.592C907.438 519.986 906.785 521.184 907.559 521.404C909.034 521.845 1047.26 523.312 1119.93 524.021H1120.1L1126.61 524.363L1096.47 525.733H1095.84C1064.84 526.295 1026.6 526.98 988.581 527.615C990.806 527.2 995.353 526.222 995.837 525.17C996.345 523.336 892.927 523.043 880.253 524.265Z" fill="url(#paint1_linear_1265_3240)"/>
<path d="M1379.37 166.934C1379.37 166.934 1398.09 156.028 1414.44 148.301C1414.44 148.301 1396.91 148.912 1409 131.184C1421.09 113.455 1482.77 115.876 1513 137.272L1379.37 166.934Z" fill="url(#paint2_linear_1265_3240)"/>
<path d="M1205.84 230.833C1205.84 230.833 1184.68 214.914 1142.35 216.772C1100.03 218.63 1102.16 240.198 1102.16 240.198L1119.38 251.618L1205.84 230.833Z" fill="url(#paint3_linear_1265_3240)"/>
<path d="M1343.99 179.165C1343.99 179.165 1314.07 169.09 1274.77 179.165C1235.47 189.24 1262.68 203.936 1262.68 203.936C1262.68 203.936 1251.72 219.317 1256.29 223.181C1260.86 227.044 1302.56 216.774 1302.56 216.774H1332.87C1332.87 216.774 1297.19 227.167 1280.26 236.948C1263.33 246.729 1282.68 247.145 1282.68 247.145C1282.68 247.145 1242.17 249.786 1213.75 265.069C1185.33 280.352 1188.65 305.71 1188.65 305.71L1302.87 265.876L1395.41 216.774L1418.72 180.094L1361.28 209.022L1320.77 203.936L1314.12 192.321L1343.99 179.165Z" fill="url(#paint4_linear_1265_3240)"/>
<path d="M881.148 317.352C881.148 317.352 871.474 300.528 883.881 276.075C896.288 251.622 955.108 261.404 955.108 261.404C955.108 261.404 961.566 256.146 981.712 255.51C1001.86 254.875 1026.99 271.136 1026.99 271.136L971.191 337.942L908.647 371.736L886.88 362.884C886.88 362.884 889.009 355.132 900.279 345.351C911.55 335.57 928.504 330.924 928.504 330.924L881.148 317.352Z" fill="url(#paint5_linear_1265_3240)"/>
<path d="M696.298 342.363C696.298 342.363 684.205 321.676 654.408 313.851C654.408 313.851 658.399 292.381 637.865 276.071C617.331 259.761 596.749 262.206 596.749 262.206C596.749 262.206 516.525 233.327 460.898 255.506L578.586 330.919L666.477 353.514L696.298 342.363Z" fill="url(#paint6_linear_1265_3240)"/>
<path d="M1513 124.462C1513 124.462 1456.77 129.353 1437.42 137.3C1418.07 145.247 1420.49 155.64 1420.49 155.64C1420.49 155.64 1402.64 155.933 1379.37 166.937C1356.11 177.941 1358.5 192.931 1359.71 195.376C1360.92 197.821 1372.12 198.115 1372.12 198.115L1341.89 203.935C1341.89 203.935 1346.12 199.949 1346.12 196.892C1346.12 193.836 1333.71 194.765 1333.71 194.765C1333.71 194.765 1343.99 183.443 1343.99 179.164C1343.99 174.884 1280.82 185.595 1267.2 198.433C1253.58 211.271 1272.64 207.603 1272.64 207.603C1272.64 207.603 1255.42 215.843 1256.32 223.179C1257.21 230.515 1287.47 230.222 1295.01 227.776C1302.56 225.331 1298.96 221.345 1298.96 221.345L1319.51 222.275C1319.51 222.275 1288.97 240.614 1302.27 246.116C1302.27 246.116 1262.68 250.689 1227.61 266.901C1192.54 283.114 1186.78 301.136 1188.6 305.708C1190.41 310.281 1206.13 312.14 1206.13 312.14L1143.56 322.532C1143.56 322.532 1163.81 303.581 1153.53 286.464C1143.25 269.347 1106.68 275.142 1106.68 275.142C1106.68 275.142 1112.73 270.569 1110.6 263.845C1110.6 263.845 1160.18 272.403 1181.34 260.47C1181.34 260.47 1189.81 254.675 1190.73 248.562C1190.73 248.562 1207.66 238.462 1205.84 230.833C1204.03 223.204 1134.78 220.123 1112.73 229.904C1090.67 239.685 1113.62 237.851 1113.62 237.851C1113.62 237.851 1097.61 238.169 1095.19 247.021C1092.77 255.873 1108.78 260.177 1108.78 260.177C1108.78 260.177 1080.68 258.343 1067.06 269.347C1053.45 280.351 1074.92 280.962 1074.92 280.962C1074.92 280.962 985.752 255.506 924.078 273.626C863.807 291.33 881.148 317.348 881.148 317.348C881.148 317.348 867.242 323.755 866.637 326.493C866.032 329.232 953.101 338.72 953.101 338.72C953.101 338.72 927.706 341.483 927.706 356.473C927.706 356.473 894.451 357.06 886.88 362.88C879.31 368.699 908.648 371.732 908.648 371.732C908.648 371.732 871.474 376.94 857.253 398.337L759.204 404.034C759.204 404.034 769.29 389.778 692.5 378.774C692.5 378.774 717.943 341.214 673.151 325.32C628.359 309.425 610.269 320.087 610.269 320.087C610.269 320.087 627.803 307.249 629.013 296.245C630.222 285.241 561.147 228.681 460.922 255.506C435.986 262.182 453.061 278.517 453.061 278.517L405.899 264.26C407.885 263.674 409.592 262.379 410.704 260.616C411.816 258.853 412.257 256.742 411.946 254.675C411.341 246.728 314.598 215.55 314.598 215.55C314.598 215.55 315.808 188.652 215.437 188.652C215.437 188.652 227.53 189.874 231.762 184.984C235.995 180.093 186.414 164.198 186.414 164.198C186.414 164.198 225.111 167.866 231.158 161.753C237.204 155.64 212.414 135.466 190.647 142.191C190.647 142.191 172.507 137.3 167.066 142.191C161.624 147.081 177.949 161.142 177.949 161.142C177.949 161.142 137.632 128.13 102.973 137.104C77.9413 143.56 102.973 171.534 102.973 171.534L49.1603 147.081C49.1603 147.081 107.811 73.722 14.6956 28.386C-78.4193 -16.95 -179.999 -37.9062 -179.999 -37.9062V231.444C-179.999 231.444 -61.4893 280.742 -41.5361 271.988C-41.5361 271.988 16.5096 281.353 28.6024 271.988C40.6953 262.622 36.5112 254.063 36.5112 254.063L118.743 271.988C118.743 271.988 103.626 280.962 118.138 290.743C132.649 300.524 274.74 326.811 380.553 333.536C377.718 336.52 376.007 340.413 375.716 344.54C375.716 350.653 406.552 354.321 406.552 354.321C406.552 354.321 346.088 342.706 307.391 355.544C268.694 368.382 289.252 372.661 289.252 372.661C289.252 372.661 269.299 375.106 261.438 382.442C253.578 389.778 268.694 395.891 268.694 395.891L236.648 394.057C236.648 394.057 248.741 391.612 248.741 384.276C248.741 376.94 225.16 374.495 225.16 374.495C225.16 374.495 257.206 375.106 261.438 368.993C265.671 362.88 211.253 347.596 211.253 347.596C211.253 347.596 226.974 350.042 230.601 339.038C234.229 328.034 175.579 312.751 155.626 322.532C135.673 332.313 158.044 335.37 158.044 335.37C144.299 331.449 130.171 329.055 115.913 328.23C115.913 328.23 106.65 316.003 85.6806 313.558C64.7116 311.113 58.6654 320.894 58.6654 320.894L46.9836 318.864C46.9836 318.864 58.2783 318.057 59.4876 307.86C60.6969 297.663 26.4258 282.6 -25.5735 280.962C-25.5735 280.962 -125.944 248.366 -179.951 246.728V426.458C-179.951 426.458 80.0453 431.348 125.587 426.458L107.448 422.79L293.678 428.634C293.678 428.634 283.592 434.209 288.042 437.046C292.493 439.882 423.869 450.495 444.04 446.02L436.785 441.545L484.334 449.688C484.334 449.688 476.691 446.827 468.613 458.662C468.613 458.662 514.179 465.998 581.899 466.805C649.619 467.612 675.57 463.944 682.148 461.499C688.727 459.054 682.148 456.217 682.148 456.217L694.749 459.885C694.749 459.885 687.494 461.743 673.804 466.927C660.115 472.112 718.137 472.112 733.857 470.473C749.578 468.835 722.176 463.944 722.176 463.944C722.176 463.944 739.106 461.915 742.734 458.247C746.362 454.579 714.92 447.659 714.92 447.659L865.67 449.688C865.67 449.688 847.119 450.495 844.701 454.579C842.282 458.662 938.638 458.662 949.11 455.386C959.583 452.109 945.482 450.104 945.482 450.104L1018.04 444.382C1018.04 444.382 1133.33 430.126 1175.25 423.597C1217.16 417.068 1199.43 408.534 1199.43 408.534C1199.43 408.534 1304.64 397.114 1341.33 386.917L1513.05 361.241L1513 124.462Z" fill="url(#paint7_linear_1265_3240)"/>
<path d="M532.923 226.894C532.46 229.238 532.808 231.671 533.909 233.786C535.01 235.901 536.797 237.568 538.97 238.51C546.83 242.178 568.283 247.679 568.283 247.679C568.283 247.679 558.802 249.831 565.211 253.499C571.62 257.167 587.341 256.238 586.132 253.499C585.383 251.818 584.237 250.348 582.794 249.22C582.794 249.22 596.701 251.665 597.62 249.513C598.539 247.362 595.492 245.234 595.492 245.234C595.492 245.234 602.191 242.178 597.91 239.121C593.629 236.064 581.416 233.937 581.416 233.937C580.168 230.492 578.134 227.394 575.477 224.895C572.821 222.397 569.618 220.568 566.13 219.558C554.207 216.208 546.637 227.506 546.637 227.506C542.193 226.116 537.47 225.905 532.923 226.894Z" fill="url(#paint8_linear_1265_3240)"/>
<path d="M1513 188.65C1513 188.65 1456.77 190.484 1430.16 203.933C1403.56 217.382 1430.16 217.994 1430.16 217.994L1375.14 245.504C1358.58 244.336 1341.95 246.412 1326.17 251.617C1301.98 260.175 1332.21 258.341 1332.21 258.341C1332.21 258.341 1272.35 269.345 1239.7 297.466C1207.05 325.587 1249.38 324.365 1249.38 324.365L1120.03 359.21C1120.03 359.21 1125.52 356.496 1126.1 344.416C1126.68 332.336 1088.59 344.416 1088.59 344.416C1088.59 344.416 1147.38 325.221 1147.31 318.471C1147.09 296.684 1003.94 308.103 976.73 330.894C949.521 353.684 1027.52 353.097 1027.52 353.097C1027.52 353.097 983.986 356.765 980.358 365.935C976.73 375.105 1009.38 373.882 1009.38 373.882C1009.38 373.882 917.475 371.437 889.662 391.611C861.848 411.784 947.272 409.951 947.272 409.951C947.272 409.951 902.093 414.841 884.099 420.954C866.105 427.068 893.773 428.29 893.773 428.29L726.892 434.404C726.892 434.404 737.776 422.788 726.892 413.618C716.008 404.449 658.567 402.003 658.567 402.003C658.567 402.003 688.799 394.056 691.823 390.388C694.846 386.72 604.754 379.995 604.754 379.995C604.754 379.995 678.279 377.55 682.148 372.048C686.018 366.546 604.754 343.316 604.754 343.316C604.754 343.316 619.87 341.726 615.033 330.894C610.196 320.061 526.151 293.187 465.686 295.314C465.686 295.314 468.71 290.742 468.395 287.685C468.081 284.628 404.013 263.525 388.897 265.066C373.781 266.607 384.954 277.293 384.954 277.293C384.954 277.293 336.583 236.627 269.178 223.789C201.772 210.951 210.817 225.012 210.817 225.012C210.817 225.012 138.575 185.887 115.284 182.219C91.9931 178.551 115.284 190.484 115.284 190.484C115.284 190.484 75.0874 158.695 37.8898 159.306L17.3319 147.691C17.3319 147.691 28.2155 144.023 20.6696 134.242C13.1236 124.461 -53.4112 88.6859 -66.7134 86.852C-80.0155 85.018 -72.7598 97.2445 -72.7598 97.2445L-179.999 40.0977V231.443C-179.999 231.443 -107.853 262.083 -58.9256 271.986C-9.99797 281.89 28.6024 278.784 35.2535 274.432C41.9046 270.079 37.0674 249.978 37.0674 249.978L118.694 271.986C118.694 271.986 110.205 274.187 114.147 287.367C118.09 300.547 221.169 317.347 264.413 323.142C307.657 328.937 380.504 333.535 380.504 333.535L408.318 338.132C408.318 338.132 383.02 335.686 378.086 343.022C373.152 350.358 403.457 353.782 403.457 353.782C403.457 353.782 354.505 352.486 339.389 357.694C324.273 362.903 352.691 367.475 352.691 367.475C352.691 367.475 318.516 363.172 294.331 371.73C270.145 380.289 283.447 389.165 283.447 389.165C283.447 389.165 272.273 392.515 272.273 395.89C272.273 399.264 317.017 400.169 317.017 400.169C317.017 400.169 250.506 396.819 207.262 402.003C207.262 402.003 226.103 399.558 236.599 394.056C247.096 388.554 216.936 388.261 216.936 388.261C216.936 388.261 224.797 380.925 223.902 376.621C223.007 372.317 161.914 358.917 161.914 358.917C161.914 358.917 208.786 356.765 209.995 352.168C211.204 347.571 174.926 335.686 157.996 335.369C141.066 335.051 155.577 345.15 155.577 345.15C155.577 345.15 79.6826 325.905 34.6488 326.199C34.6488 326.199 43.1138 322.237 44.0087 316.124C44.9036 310.011 -88.6982 281.254 -88.6982 281.254C-88.6982 281.254 -72.9775 281.865 -71.7682 277.904C-70.559 273.942 -179.999 264.455 -179.999 264.455V426.456C-179.999 426.456 54.9892 431.347 125.539 426.456L107.4 422.788L293.63 428.633L318.226 431.958C318.226 431.958 290.098 433.279 287.994 437.044C285.89 440.81 405.899 452.132 443.992 446.019C443.992 446.019 444.887 441.617 414.364 438.683L484.285 449.736L520.564 452.181C520.564 452.181 480.657 453.697 472.193 458.001C463.727 462.305 558.124 468.565 618.516 466.828C678.908 465.092 681.979 462.109 684.785 459.981C687.59 457.854 682.197 456.265 682.197 456.265L694.798 459.933C694.798 459.933 682.39 463.527 682.197 467.122C682.003 470.716 727.642 470.985 727.642 470.985L718.282 463.478C718.282 463.478 723.434 457.365 721.62 453.697C719.806 450.029 709.817 446.361 709.817 446.361L862.792 449.931C862.792 449.931 847.289 448.806 844.749 454.626C842.21 460.446 884.341 460.568 907.632 461.669C930.923 462.769 952.23 457.879 954.455 456.46C956.681 455.042 947.587 450.958 947.587 450.958C947.587 450.958 1064.5 444.723 1129.8 438.732C1195.1 432.741 1208.09 423.106 1207.87 415.404C1207.66 407.701 1199.53 408.63 1199.53 408.63L1330.45 373.271L1366.72 365.935C1366.72 365.935 1331.39 382.905 1333.93 388.774C1336.47 394.643 1513.05 361.24 1513.05 361.24L1513 188.65Z" fill="url(#paint9_linear_1265_3240)"/>
<path d="M883.881 518.766C882.701 519.271 881.467 519.64 880.205 519.866C881.451 519.571 882.678 519.204 883.881 518.766Z" fill="url(#paint10_linear_1265_3240)"/>
<g style="mix-blend-mode:screen" filter="url(#filter0_f_1265_3240)">
<path d="M753.021 325.787C775.03 239.866 707.042 147.739 601.164 120.015C495.287 92.2906 391.615 139.468 369.606 225.388C347.597 311.309 415.585 403.436 521.462 431.16C627.339 458.884 731.011 411.707 753.021 325.787Z" fill="url(#paint11_radial_1265_3240)" fill-opacity="0.25" style="mix-blend-mode:screen"/>
</g>
<g style="mix-blend-mode:screen" filter="url(#filter1_f_1265_3240)">
<path d="M952.917 376.466C1026.99 361.945 1077.89 302.408 1066.59 243.486C1055.29 184.564 986.079 148.57 912.001 163.091C837.923 177.611 787.031 237.149 798.329 296.071C809.628 354.993 878.84 390.987 952.917 376.466Z" fill="url(#paint12_radial_1265_3240)" fill-opacity="0.25" style="mix-blend-mode:screen"/>
</g>
</g>
<defs>
<filter id="filter0_f_1265_3240" x="245.468" y="-7.92578" width="631.69" height="567.027" filterUnits="userSpaceOnUse" color-interpolation-filters="sRGB">
<feFlood flood-opacity="0" result="BackgroundImageFix"/>
<feBlend mode="normal" in="SourceGraphic" in2="BackgroundImageFix" result="shape"/>
<feGaussianBlur stdDeviation="60" result="effect1_foregroundBlur_1265_3240"/>
</filter>
<filter id="filter1_f_1265_3240" x="676.759" y="39.8711" width="511.399" height="459.812" filterUnits="userSpaceOnUse" color-interpolation-filters="sRGB">
<feFlood flood-opacity="0" result="BackgroundImageFix"/>
<feBlend mode="normal" in="SourceGraphic" in2="BackgroundImageFix" result="shape"/>
<feGaussianBlur stdDeviation="60" result="effect1_foregroundBlur_1265_3240"/>
</filter>
<linearGradient id="paint0_linear_1265_3240" x1="666.5" y1="546.349" x2="666.5" y2="330.917" gradientUnits="userSpaceOnUse">
<stop offset="0.01" stop-color="#00619F"/>
<stop offset="1" stop-color="#00A2EF"/>
</linearGradient>
<linearGradient id="paint1_linear_1265_3240" x1="666.5" y1="546.273" x2="666.5" y2="406.891" gradientUnits="userSpaceOnUse">
<stop stop-color="#00438E"/>
<stop offset="0.99" stop-color="#007BD9"/>
</linearGradient>
<linearGradient id="paint2_linear_1265_3240" x1="1446.17" y1="166.934" x2="1446.17" y2="119.373" gradientUnits="userSpaceOnUse">
<stop offset="0.01" stop-color="#0089FE"/>
<stop offset="1" stop-color="#25FFFF"/>
</linearGradient>
<linearGradient id="paint3_linear_1265_3240" x1="1153.99" y1="251.618" x2="1153.99" y2="216.625" gradientUnits="userSpaceOnUse">
<stop offset="0.01" stop-color="#0089FE"/>
<stop offset="1" stop-color="#25FFFF"/>
</linearGradient>
<linearGradient id="paint4_linear_1265_3240" x1="1303.58" y1="305.734" x2="1303.58" y2="174.69" gradientUnits="userSpaceOnUse">
<stop offset="0.01" stop-color="#0089FE"/>
<stop offset="1" stop-color="#25FFFF"/>
</linearGradient>
<linearGradient id="paint5_linear_1265_3240" x1="952.278" y1="371.76" x2="952.278" y2="255.51" gradientUnits="userSpaceOnUse">
<stop offset="0.01" stop-color="#0089FE"/>
<stop offset="1" stop-color="#25FFFF"/>
</linearGradient>
<linearGradient id="paint6_linear_1265_3240" x1="578.61" y1="353.514" x2="578.61" y2="247.143" gradientUnits="userSpaceOnUse">
<stop offset="0.01" stop-color="#0089FE"/>
<stop offset="1" stop-color="#25FFFF"/>
</linearGradient>
<linearGradient id="paint7_linear_1265_3240" x1="666.5" y1="471.427" x2="666.5" y2="-37.9062" gradientUnits="userSpaceOnUse">
<stop offset="0.01" stop-color="#007CDD"/>
<stop offset="1" stop-color="#0092FF"/>
</linearGradient>
<linearGradient id="paint8_linear_1265_3240" x1="566.009" y1="255.92" x2="566.009" y2="218.947" gradientUnits="userSpaceOnUse">
<stop offset="0.01" stop-color="#0089FE"/>
<stop offset="1" stop-color="#25FFFF"/>
</linearGradient>
<linearGradient id="paint9_linear_1265_3240" x1="666.5" y1="470.936" x2="666.5" y2="40.0977" gradientUnits="userSpaceOnUse">
<stop stop-color="#013D96"/>
<stop offset="0.99" stop-color="#0088D1"/>
</linearGradient>
<linearGradient id="paint10_linear_1265_3240" x1="882.043" y1="519.866" x2="882.043" y2="518.766" gradientUnits="userSpaceOnUse">
<stop stop-color="#FFAE86"/>
<stop offset="0.99" stop-color="#CC7F9A"/>
</linearGradient>
<radialGradient id="paint11_radial_1265_3240" cx="0" cy="0" r="1" gradientUnits="userSpaceOnUse" gradientTransform="translate(560.895 278.82) rotate(104.368) scale(160.964 198.246)">
<stop stop-color="#005BFF"/>
<stop offset="0.13" stop-color="#004CD6"/>
<stop offset="0.37" stop-color="#00328B"/>
<stop offset="0.59" stop-color="#001C4F"/>
<stop offset="0.77" stop-color="#000D24"/>
<stop offset="0.92" stop-color="#00030A"/>
<stop offset="1"/>
</radialGradient>
<radialGradient id="paint12_radial_1265_3240" cx="0" cy="0" r="1" gradientUnits="userSpaceOnUse" gradientTransform="translate(933.58 272.521) rotate(79.1449) scale(108.79 136.744)">
<stop stop-color="#005BFF"/>
<stop offset="0.13" stop-color="#004CD6"/>
<stop offset="0.37" stop-color="#00328B"/>
<stop offset="0.59" stop-color="#001C4F"/>
<stop offset="0.77" stop-color="#000D24"/>
<stop offset="0.92" stop-color="#00030A"/>
<stop offset="1"/>
</radialGradient>
<clipPath id="clip0_1265_3240">
<rect width="1512" height="548" fill="white"/>
</clipPath>
</defs>
</svg>
