<svg width="475" height="427" viewBox="0 0 475 427" fill="none" xmlns="http://www.w3.org/2000/svg">
<g clip-path="url(#clip0_1307_10459)">
<path d="M604.054 228.551C583.465 250.122 596.87 250.122 596.87 250.122C596.87 250.122 560.95 261.963 546.582 277.206C532.214 292.45 546.582 295.662 546.582 295.662L515.964 311.624C515.964 311.624 519.8 298.849 501.121 296.453C482.443 294.056 395.746 312.439 381.378 324.807C367.01 337.174 381.378 341.201 381.378 341.201C381.378 341.201 363.418 348.392 361.751 351.316C360.084 354.24 365.573 355.965 365.573 355.965L330.615 357.979C330.615 357.979 334.926 353.569 334.207 348.176C333.489 342.783 303.431 336.599 277.568 346.977C277.568 346.977 279.494 342.783 275.183 342.184C270.873 341.585 238.775 359.369 238.775 359.369L205.972 357.763C205.972 357.763 205.728 344.389 200.469 341.992C195.211 339.595 161.79 342.999 161.79 342.999L47.6791 338.205C47.6791 338.205 -7.39364 324.615 -37.9258 331.398C-63.9751 337.198 -68.9322 350.405 -69.0759 355.63C-84.2198 354.096 -112.424 348.439 -126.922 351.244C-124.031 350.496 -121.196 349.251 -118.459 347.529C-116.663 346.21 -115.24 344.581 -115.039 342.591C-115.039 342.591 -110.873 342.4 -104.982 341.872C-92.3665 340.722 -71.9351 337.894 -68.8891 331.614C-64.4637 322.41 -79.076 316.634 -79.076 316.634L-44.1041 314.021L-41.8339 304.434L-330.345 307.142V392.828H4.43126C4.43126 392.828 -45.4978 396.424 -51.245 399.42C-56.9923 402.416 -36.877 405.412 -36.877 405.412L-285.445 410.805L-330.345 415.598V422.189H-225.099H-225.228C-226.033 422.405 -230.314 423.723 -230.314 424.586C-230.314 425.449 -43.4576 418.642 9.6325 416.677L13.0953 416.557H15.1498H16.1269H17.808H18.7276H21.2706H21.5581H23.1817H23.5553C23.5553 416.557 18.5695 418.954 17.808 420.703C17.7686 420.818 17.7349 420.939 17.7074 421.063C17.5206 422.837 322.67 423.34 325.788 420.56C328.906 417.779 317.397 416.149 317.397 416.149H320.486H323.446H325.199C364.15 415.119 536.05 410.613 538.909 409.558C540.981 408.469 543.003 407.131 544.958 405.556L675.406 404.765V214.865C675.406 214.865 624.658 207.076 604.054 228.551ZM-34.6786 352.706C-35.8281 352.706 -41.7334 353.209 -48.0122 353.856C-49.0341 352.543 -50.2239 351.64 -51.4892 351.22L-34.4774 352.682L-34.6786 352.706ZM138.529 400.091H56.4007C56.4007 400.091 73.8723 398.629 77.9528 392.229C77.9528 392.229 106.445 396.232 112.436 392.229C117.652 388.73 105.554 387.436 102.379 387.1L179.636 392.205C175.225 392.085 144.966 391.486 138.529 400.091ZM427.974 404.213H427.6L395.99 406.61L363.116 406.323L363.806 406.107C365.128 405.699 367.829 404.741 368.116 403.71C368.49 402.2 307.052 401.912 299.523 403.111C291.994 404.309 302.928 406.418 302.928 406.418L265.384 407.904H265.643H265.916H266.218C270.629 406.874 291.261 402.008 298.934 399.204L299.494 398.988C300.244 398.767 300.977 398.405 301.678 397.91C304.178 395.513 297.368 394.914 297.368 394.914L319.265 392.517C319.265 392.517 313.517 395.201 313.704 397.023C314.558 397.435 315.446 397.614 316.334 397.55C329.265 398.677 385.545 398.221 385.545 398.221L441.91 402.871H442.011L445.876 403.207L427.974 404.213Z" fill="url(#paint0_linear_1307_10459)"/>
<path d="M536.05 314.341C503.003 325.127 531.739 328.123 531.739 328.123C531.739 328.123 393.447 344.901 385.185 351.228C376.923 357.556 457.773 356.286 457.773 356.286L330.673 382.027C331.722 381.644 348.618 375.268 350.012 369.468C351.406 363.668 305.112 356.286 272.065 359.881C239.019 363.476 244.766 372.464 244.766 372.464L145.626 366.472C145.626 366.472 163.931 357.22 164.305 351.228C164.678 345.236 79.9641 359.881 79.9641 359.881C79.9641 359.881 7.80762 346.698 -34.4489 352.69H-34.6501C-39.7651 353.41 -44.1187 354.129 -47.8113 354.8C-52.9536 355.628 -58.0662 356.908 -63.1277 358.635C-70.8721 361.535 -67.0214 363.428 -67.0214 363.428L-170.472 359.234C-170.472 359.234 -137.698 353.002 -118.459 347.394C-111.39 345.308 -106.16 343.319 -105.025 341.737C-100.714 335.865 -147.483 311.178 -205.314 319.039C-263.146 326.901 -250.574 334.954 -250.574 334.954H-330.316V392.789H4.4598C4.4598 392.789 -45.4693 396.384 -51.2165 399.38C-56.9637 402.376 -36.8484 405.372 -36.8484 405.372L-285.416 410.765L-330.316 415.559V422.15H-225.07H-225.2L-230.286 424.547L9.66104 416.637L13.1238 416.518H15.1783H16.1554H17.8366H18.756H21.2991C20.5635 416.668 19.8616 417.119 19.2551 417.829C18.6487 418.54 18.1565 419.489 17.8222 420.592C17.7828 420.707 17.749 420.827 17.7215 420.952C16.2847 426.632 325.572 425.625 329.15 420.64C332.727 415.655 317.411 416.038 317.411 416.038H320.5H323.46H325.213L546.826 411.245L675.42 404.653V287.977C675.42 287.977 569.096 303.556 536.05 314.341ZM77.9526 392.238C77.9526 392.238 106.444 396.241 112.436 392.238C117.652 388.739 105.554 387.444 102.378 387.109L179.635 392.214C175.21 392.094 144.951 391.495 138.514 400.099H56.3861C56.3861 400.099 73.872 398.637 77.9526 392.238ZM299.523 403.024C291.965 404.222 302.928 406.331 302.928 406.331L265.384 407.817H265.643H265.916H266.218C270.528 406.882 290.643 402.4 298.933 399.117L299.494 398.901C300.244 398.679 300.976 398.318 301.678 397.822C307.238 394.227 297.367 394.826 297.367 394.826L319.264 392.43C319.264 392.43 313.517 395.114 313.704 396.936C314.557 397.348 315.446 397.526 316.333 397.463C315.672 398.829 315.284 400.003 315.744 400.219C316.621 400.651 398.734 402.089 441.91 402.784H442.011L445.876 403.119L427.973 404.462H427.6C409.18 405.013 386.464 405.684 363.877 406.307C365.199 405.9 367.9 404.941 368.188 403.91C368.489 402.113 307.051 401.825 299.523 403.024V403.024Z" fill="url(#paint1_linear_1307_10459)"/>
<path d="M492.946 115.41C492.946 115.41 480.374 99.8068 455.229 101.628C430.085 103.45 431.35 124.59 431.35 124.59L441.58 135.783L492.946 115.41Z" fill="url(#paint2_linear_1307_10459)"/>
<path d="M300.054 200.207C300.054 200.207 294.307 183.717 301.678 159.749C309.049 135.781 343.992 145.368 343.992 145.368C343.992 145.368 347.828 140.215 359.797 139.592C371.765 138.969 386.694 154.908 386.694 154.908L353.547 220.389L316.391 253.512L303.459 244.836C303.459 244.836 304.724 237.238 311.419 227.651C318.115 218.064 328.187 213.51 328.187 213.51L300.054 200.207Z" fill="url(#paint3_linear_1307_10459)"/>
<path d="M190.24 224.732C190.24 224.732 183.056 204.455 165.354 196.785C165.354 196.785 167.725 175.741 155.526 159.755C143.328 143.768 131.101 146.165 131.101 146.165C131.101 146.165 83.4416 117.858 50.395 139.597L120.31 213.515L172.524 235.662L190.24 224.732Z" fill="url(#paint4_linear_1307_10459)"/>
<path d="M675.42 11.1483C675.42 11.1483 642.015 15.9419 630.52 23.7315C619.026 31.5212 620.462 41.7076 620.462 41.7076C620.462 41.7076 609.859 41.9952 596.037 52.7809C582.215 63.5665 583.637 78.2589 584.355 80.6558C585.074 83.0526 591.726 83.3402 591.726 83.3402L573.766 89.0446C573.766 89.0446 576.281 85.1378 576.281 82.1418C576.281 79.1458 568.91 80.0566 568.91 80.0566C568.91 80.0566 575.016 68.9593 575.016 64.7649C575.016 60.5705 537.487 71.0685 529.398 83.6518C521.308 96.235 532.63 92.6398 532.63 92.6398C532.63 92.6398 522.4 100.717 522.932 107.908C523.464 115.098 541.438 114.81 545.921 112.414C550.404 110.017 548.263 106.11 548.263 106.11L560.476 107.021C560.476 107.021 542.329 124.997 550.231 130.39C550.231 130.39 526.711 134.872 505.877 150.763C485.043 166.653 481.624 184.318 482.701 188.8C483.779 193.282 493.118 195.103 493.118 195.103L455.948 205.29C455.948 205.29 467.974 186.715 461.868 169.937C455.761 153.159 434.037 158.84 434.037 158.84C434.037 158.84 437.629 154.358 436.364 147.766C436.364 147.766 465.819 156.155 478.391 144.459C478.391 144.459 483.42 138.778 483.966 132.786C483.966 132.786 494.023 122.888 492.946 115.41C491.868 107.931 450.732 104.911 437.629 114.499C424.525 124.086 438.16 122.288 438.16 122.288C438.16 122.288 428.649 122.6 427.212 131.276C425.775 139.953 435.287 144.171 435.287 144.171C435.287 144.171 418.591 142.374 410.502 153.159C402.413 163.945 415.171 164.544 415.171 164.544C415.171 164.544 362.196 139.593 325.558 157.354C289.752 174.707 300.054 200.209 300.054 200.209C300.054 200.209 291.793 206.488 291.433 209.173C291.074 211.857 342.799 221.157 342.799 221.157C342.799 221.157 327.713 223.865 327.713 238.558C327.713 238.558 307.957 239.133 303.46 244.837C298.962 250.542 316.391 253.514 316.391 253.514C316.391 253.514 294.307 258.619 285.859 279.591L227.611 285.176C227.611 285.176 233.602 271.202 187.983 260.417C187.983 260.417 203.099 223.602 176.489 208.022C149.879 192.443 139.132 202.893 139.132 202.893C139.132 202.893 149.549 190.31 150.267 179.524C150.986 168.739 109.95 113.3 50.409 139.593C35.5955 146.137 45.7394 162.147 45.7394 162.147L17.7216 148.174C18.901 147.599 19.9153 146.33 20.576 144.602C21.2366 142.874 21.4987 140.805 21.3137 138.778C20.9545 130.989 -36.5178 100.429 -36.5178 100.429C-36.5178 100.429 -35.7994 74.0645 -95.4269 74.0645C-95.4269 74.0645 -88.2429 75.263 -85.7285 70.4693C-83.2141 65.6757 -112.669 50.0964 -112.669 50.0964C-112.669 50.0964 -89.6797 53.6917 -86.0877 47.6996C-82.4957 41.7076 -97.2229 21.9339 -110.154 28.5251C-110.154 28.5251 -120.93 23.7315 -124.163 28.5251C-127.396 33.3188 -117.697 47.1004 -117.697 47.1004C-117.697 47.1004 -141.649 14.7435 -162.238 23.5398C-177.109 29.8673 -162.238 57.2869 -162.238 57.2869L-194.207 33.3188C-194.207 33.3188 -159.365 -38.5856 -214.682 -83.0224C-269.999 -127.459 -330.345 -148 -330.345 -148V116.009C-330.345 116.009 -259.941 164.328 -248.088 155.748C-248.088 155.748 -213.604 164.928 -206.42 155.748C-199.236 146.568 -201.722 138.179 -201.722 138.179L-152.87 155.748C-152.87 155.748 -161.851 164.544 -153.23 174.131C-144.609 183.719 -60.1964 209.484 2.66394 216.076C0.980023 219 -0.0367083 222.816 -0.209686 226.861C-0.209686 232.853 18.1096 236.448 18.1096 236.448C18.1096 236.448 -17.8106 225.064 -40.7995 237.647C-63.7884 250.23 -51.5755 254.425 -51.5755 254.425C-51.5755 254.425 -63.4292 256.821 -68.0988 264.012C-72.7684 271.202 -63.7884 277.194 -63.7884 277.194L-82.8261 275.397C-82.8261 275.397 -75.6421 273 -75.6421 265.809C-75.6421 258.619 -89.6509 256.222 -89.6509 256.222C-89.6509 256.222 -70.6132 256.821 -68.0988 250.829C-65.5844 244.837 -97.9126 229.857 -97.9126 229.857C-97.9126 229.857 -88.5733 232.254 -86.4181 221.468C-84.2629 210.683 -119.105 195.703 -130.959 205.29C-142.813 214.877 -129.522 217.873 -129.522 217.873C-137.688 214.03 -146.081 211.683 -154.552 210.875C-154.552 210.875 -160.055 198.891 -172.512 196.494C-184.969 194.097 -188.561 203.684 -188.561 203.684L-195.501 201.695C-195.501 201.695 -188.791 200.904 -188.072 190.909C-187.354 180.914 -207.713 166.15 -238.605 164.544C-238.605 164.544 -298.232 132.595 -330.316 130.989V307.154C-330.316 307.154 -175.859 311.948 -148.804 307.154L-159.58 303.559L-48.9463 309.288C-48.9463 309.288 -54.9377 314.752 -52.2939 317.533C-49.6502 320.313 28.3972 330.715 40.3801 326.329L36.0697 321.943L64.3174 329.924C64.3174 329.924 59.7771 327.12 54.9781 338.72C54.9781 338.72 82.0476 345.911 122.278 346.702C162.509 347.493 177.926 343.897 181.834 341.501C185.742 339.104 181.834 336.324 181.834 336.324L189.32 339.919C189.32 339.919 185.009 341.74 176.877 346.822C168.745 351.903 203.213 351.903 212.553 350.297C221.892 348.691 205.613 343.897 205.613 343.897C205.613 343.897 215.671 341.908 217.826 338.313C219.981 334.718 201.303 327.935 201.303 327.935L290.859 329.924C290.859 329.924 279.839 330.715 278.402 334.718C276.965 338.72 334.207 338.72 340.429 335.509C346.65 332.297 338.273 330.332 338.273 330.332L381.378 324.723C381.378 324.723 449.87 310.75 474.77 304.35C499.67 297.951 489.138 289.586 489.138 289.586C489.138 289.586 551.639 278.393 573.436 268.398L675.449 243.231L675.42 11.1483Z" fill="url(#paint5_linear_1307_10459)"/>
<path d="M93.183 111.553C92.908 113.85 93.1148 116.235 93.7688 118.308C94.4228 120.381 95.4842 122.015 96.775 122.938C101.445 126.533 114.189 131.926 114.189 131.926C114.189 131.926 108.557 134.035 112.364 137.63C116.172 141.225 125.511 140.315 124.793 137.63C124.348 135.982 123.667 134.542 122.81 133.436C122.81 133.436 131.072 135.833 131.618 133.723C132.164 131.614 130.353 129.529 130.353 129.529C130.353 129.529 134.333 126.533 131.79 123.537C129.247 120.541 121.991 118.456 121.991 118.456C121.25 115.079 120.041 112.043 118.463 109.594C116.885 107.144 114.983 105.352 112.91 104.363C105.827 101.079 101.33 112.152 101.33 112.152C98.6899 110.79 95.8844 110.584 93.183 111.553V111.553Z" fill="url(#paint6_linear_1307_10459)"/>
<path d="M675.42 74.0633C675.42 74.0633 642.015 75.8609 626.21 89.0434C610.405 102.226 626.21 102.825 626.21 102.825L593.522 129.789C583.683 128.645 573.804 130.679 564.427 135.781C550.059 144.17 568.019 142.372 568.019 142.372C568.019 142.372 532.458 153.158 513.061 180.721C493.664 208.285 518.808 207.086 518.808 207.086L441.968 241.241C441.968 241.241 445.23 238.58 445.574 226.74C445.919 214.9 423.289 226.74 423.289 226.74C423.289 226.74 458.218 207.925 458.175 201.31C458.046 179.954 373.001 191.148 356.837 213.486C340.673 235.824 387.01 235.249 387.01 235.249C387.01 235.249 361.148 238.844 358.992 247.832C356.837 256.82 376.234 255.622 376.234 255.622C376.234 255.622 321.635 253.225 305.112 272.999C288.589 292.772 339.337 290.975 339.337 290.975C339.337 290.975 312.497 295.768 301.807 301.76C291.117 307.752 307.555 308.951 307.555 308.951L208.415 314.943C208.415 314.943 214.88 303.558 208.415 294.57C201.949 285.582 167.825 283.185 167.825 283.185C167.825 283.185 185.785 275.395 187.581 271.8C189.377 268.205 135.856 261.614 135.856 261.614C135.856 261.614 179.535 259.217 181.834 253.824C184.133 248.431 135.856 225.662 135.856 225.662C135.856 225.662 144.836 224.104 141.962 213.486C139.089 202.868 89.1597 176.527 53.2396 178.612C53.2396 178.612 55.0356 174.13 54.8488 171.134C54.662 168.138 16.601 147.454 7.62091 148.964C-1.35914 150.474 5.2789 160.948 5.2789 160.948C5.2789 160.948 -23.4572 121.089 -63.5011 108.505C-103.545 95.9222 -98.1713 109.704 -98.1713 109.704C-98.1713 109.704 -141.089 71.3549 -154.925 67.7597C-168.762 64.1645 -154.925 75.8609 -154.925 75.8609C-154.925 75.8609 -178.805 44.7024 -200.903 45.3016L-213.116 33.9167C-213.116 33.9167 -206.65 30.3215 -211.133 20.7343C-215.616 11.147 -255.142 -23.9183 -263.045 -25.7159C-270.947 -27.5135 -266.637 -15.5295 -266.637 -15.5295L-330.345 -71.543V116.008C-330.345 116.008 -287.485 146.04 -258.418 155.747C-229.352 165.454 -206.42 162.41 -202.469 158.143C-198.518 153.877 -201.391 134.175 -201.391 134.175L-152.899 155.747C-152.899 155.747 -157.942 157.904 -155.6 170.823C-153.258 183.741 -92.0217 200.208 -66.3315 205.888C-40.6414 211.568 2.63523 216.074 2.63523 216.074L19.1585 220.58C19.1585 220.58 4.12951 218.184 1.19842 225.374C-1.73267 232.564 16.2705 235.92 16.2705 235.92C16.2705 235.92 -12.8105 234.65 -21.7905 239.755C-30.7706 244.86 -13.8881 249.342 -13.8881 249.342C-13.8881 249.342 -34.1902 245.124 -48.5582 253.513C-62.9263 261.901 -55.0239 270.602 -55.0239 270.602C-55.0239 270.602 -61.6619 273.886 -61.6619 277.193C-61.6619 280.501 -35.081 281.388 -35.081 281.388C-35.081 281.388 -74.5932 278.104 -100.283 283.185C-100.283 283.185 -89.0906 280.788 -82.8548 275.395C-76.6191 270.003 -94.5361 269.715 -94.5361 269.715C-94.5361 269.715 -89.8665 262.525 -90.3981 258.306C-90.9297 254.088 -127.223 240.953 -127.223 240.953C-127.223 240.953 -99.3781 238.844 -98.6597 234.338C-97.9413 229.832 -119.493 218.184 -129.551 217.872C-139.609 217.56 -130.988 227.459 -130.988 227.459C-130.988 227.459 -176.075 208.596 -202.828 208.884C-202.828 208.884 -197.799 205.001 -197.268 199.009C-196.736 193.017 -276.105 164.831 -276.105 164.831C-276.105 164.831 -266.766 165.43 -266.048 161.547C-265.329 157.664 -330.345 148.364 -330.345 148.364V307.153C-330.345 307.153 -190.745 311.947 -148.833 307.153L-159.609 303.558L-48.9748 309.286L-34.3626 312.546C-34.3626 312.546 -51.0726 313.84 -52.3227 317.531C-53.5727 321.223 17.7217 332.32 40.3514 326.328C40.3514 326.328 40.883 322.013 22.7505 319.137L64.2887 329.971L85.8408 332.368C85.8408 332.368 62.1335 333.854 57.1047 338.072C52.0758 342.29 108.154 348.426 144.032 346.725C179.909 345.023 181.733 342.099 183.4 340.014C185.067 337.928 181.863 336.37 181.863 336.37L189.348 339.966C189.348 339.966 181.978 343.489 181.863 347.012C181.748 350.536 208.86 350.799 208.86 350.799L203.3 343.441C203.3 343.441 206.36 337.449 205.283 333.854C204.205 330.259 198.271 326.663 198.271 326.663L289.149 330.163C289.149 330.163 279.939 329.06 278.431 334.764C276.922 340.469 301.951 340.589 315.788 341.667C329.624 342.746 342.282 337.952 343.604 336.562C344.926 335.172 339.523 331.169 339.523 331.169C339.523 331.169 408.979 325.057 447.773 319.185C486.567 313.313 494.282 303.87 494.153 296.32C494.023 288.77 489.196 289.681 489.196 289.681L566.97 255.023L588.522 247.832C588.522 247.832 567.531 264.466 569.039 270.218C570.548 275.971 675.449 243.23 675.449 243.23L675.42 74.0633Z" fill="url(#paint7_linear_1307_10459)"/>
<path d="M301.678 397.629C300.977 398.124 300.244 398.486 299.494 398.708C300.234 398.419 300.963 398.059 301.678 397.629V397.629Z" fill="url(#paint8_linear_1307_10459)"/>
<g style="mix-blend-mode:screen" filter="url(#filter0_f_1307_10459)">
<path d="M223.937 208.479C237.012 124.262 196.622 33.9622 133.723 6.78774C70.8247 -20.3867 9.23571 25.8549 -3.83938 110.071C-16.9145 194.288 23.4756 284.588 86.3743 311.762C149.273 338.937 210.862 292.695 223.937 208.479Z" fill="url(#paint9_radial_1307_10459)" fill-opacity="0.25" style="mix-blend-mode:screen"/>
</g>
<g style="mix-blend-mode:screen" filter="url(#filter1_f_1307_10459)">
<path d="M342.69 258.158C386.698 243.925 416.932 185.569 410.22 127.816C403.507 70.0621 362.391 34.7816 318.383 49.0144C274.376 63.2472 244.142 121.604 250.854 179.357C257.566 237.111 298.683 272.391 342.69 258.158Z" fill="url(#paint10_radial_1307_10459)" fill-opacity="0.25" style="mix-blend-mode:screen"/>
</g>
</g>
<defs>
<filter id="filter0_f_1307_10459" x="-126.297" y="-120.996" width="472.692" height="560.543" filterUnits="userSpaceOnUse" color-interpolation-filters="sRGB">
<feFlood flood-opacity="0" result="BackgroundImageFix"/>
<feBlend mode="normal" in="SourceGraphic" in2="BackgroundImageFix" result="shape"/>
<feGaussianBlur stdDeviation="60" result="effect1_foregroundBlur_1307_10459"/>
</filter>
<filter id="filter1_f_1307_10459" x="129.921" y="-74.1406" width="401.231" height="455.453" filterUnits="userSpaceOnUse" color-interpolation-filters="sRGB">
<feFlood flood-opacity="0" result="BackgroundImageFix"/>
<feBlend mode="normal" in="SourceGraphic" in2="BackgroundImageFix" result="shape"/>
<feGaussianBlur stdDeviation="60" result="effect1_foregroundBlur_1307_10459"/>
</filter>
<linearGradient id="paint0_linear_1307_10459" x1="172.538" y1="424.658" x2="172.538" y2="213.499" gradientUnits="userSpaceOnUse">
<stop offset="0.01" stop-color="#00619F"/>
<stop offset="1" stop-color="#00A2EF"/>
</linearGradient>
<linearGradient id="paint1_linear_1307_10459" x1="172.538" y1="424.595" x2="172.538" y2="287.977" gradientUnits="userSpaceOnUse">
<stop stop-color="#00438E"/>
<stop offset="0.99" stop-color="#007BD9"/>
</linearGradient>
<linearGradient id="paint2_linear_1307_10459" x1="462.14" y1="135.783" x2="462.14" y2="101.485" gradientUnits="userSpaceOnUse">
<stop offset="0.01" stop-color="#0089FE"/>
<stop offset="1" stop-color="#25FFFF"/>
</linearGradient>
<linearGradient id="paint3_linear_1307_10459" x1="342.311" y1="253.536" x2="342.311" y2="139.592" gradientUnits="userSpaceOnUse">
<stop offset="0.01" stop-color="#0089FE"/>
<stop offset="1" stop-color="#25FFFF"/>
</linearGradient>
<linearGradient id="paint4_linear_1307_10459" x1="120.325" y1="235.662" x2="120.325" y2="131.4" gradientUnits="userSpaceOnUse">
<stop offset="0.01" stop-color="#0089FE"/>
<stop offset="1" stop-color="#25FFFF"/>
</linearGradient>
<linearGradient id="paint5_linear_1307_10459" x1="172.538" y1="351.232" x2="172.538" y2="-148" gradientUnits="userSpaceOnUse">
<stop offset="0.01" stop-color="#007CDD"/>
<stop offset="1" stop-color="#0092FF"/>
</linearGradient>
<linearGradient id="paint6_linear_1307_10459" x1="112.838" y1="140.003" x2="112.838" y2="103.763" gradientUnits="userSpaceOnUse">
<stop offset="0.01" stop-color="#0089FE"/>
<stop offset="1" stop-color="#25FFFF"/>
</linearGradient>
<linearGradient id="paint7_linear_1307_10459" x1="172.538" y1="350.751" x2="172.538" y2="-71.543" gradientUnits="userSpaceOnUse">
<stop stop-color="#013D96"/>
<stop offset="0.99" stop-color="#0088D1"/>
</linearGradient>
<linearGradient id="paint8_linear_1307_10459" x1="300.586" y1="398.708" x2="300.586" y2="397.629" gradientUnits="userSpaceOnUse">
<stop stop-color="#FFAE86"/>
<stop offset="0.99" stop-color="#CC7F9A"/>
</linearGradient>
<radialGradient id="paint9_radial_1307_10459" cx="0" cy="0" r="1" gradientUnits="userSpaceOnUse" gradientTransform="translate(109.8 162.443) rotate(98.825) scale(154.668 120.136)">
<stop stop-color="#005BFF"/>
<stop offset="0.13" stop-color="#004CD6"/>
<stop offset="0.37" stop-color="#00328B"/>
<stop offset="0.59" stop-color="#001C4F"/>
<stop offset="0.77" stop-color="#000D24"/>
<stop offset="0.92" stop-color="#00030A"/>
<stop offset="1"/>
</radialGradient>
<radialGradient id="paint10_radial_1307_10459" cx="0" cy="0" r="1" gradientUnits="userSpaceOnUse" gradientTransform="translate(331.203 156.275) rotate(83.3707) scale(105.43 82.1629)">
<stop stop-color="#005BFF"/>
<stop offset="0.13" stop-color="#004CD6"/>
<stop offset="0.37" stop-color="#00328B"/>
<stop offset="0.59" stop-color="#001C4F"/>
<stop offset="0.77" stop-color="#000D24"/>
<stop offset="0.92" stop-color="#00030A"/>
<stop offset="1"/>
</radialGradient>
<clipPath id="clip0_1307_10459">
<rect width="475" height="427" fill="white"/>
</clipPath>
</defs>
</svg>
