<svg width="768" height="393" viewBox="0 0 768 393" fill="none" xmlns="http://www.w3.org/2000/svg">
<g clip-path="url(#clip0_1304_8343)">
<path d="M764.054 226.508C743.465 245.556 756.87 245.556 756.87 245.556C756.87 245.556 720.95 256.011 706.582 269.472C692.214 282.933 706.582 285.769 706.582 285.769L675.964 299.865C675.964 299.865 679.8 288.584 661.121 286.467C642.443 284.351 555.746 300.584 541.378 311.505C527.01 322.426 541.378 325.982 541.378 325.982C541.378 325.982 523.418 332.331 521.751 334.913C520.084 337.495 525.573 339.019 525.573 339.019L490.615 340.797C490.615 340.797 494.926 336.903 494.207 332.141C493.489 327.379 463.431 321.918 437.568 331.082C437.568 331.082 439.494 327.379 435.183 326.849C430.873 326.32 398.775 342.025 398.775 342.025L365.972 340.606C365.972 340.606 365.728 328.797 360.469 326.68C355.211 324.564 321.79 327.569 321.79 327.569L207.679 323.336C207.679 323.336 152.606 311.336 122.074 317.325C96.0249 322.447 91.0678 334.109 90.9241 338.723C75.7802 337.368 47.5758 332.373 33.0784 334.85C35.9686 334.189 38.8045 333.09 41.541 331.569C43.3371 330.405 44.7595 328.966 44.9607 327.209C44.9607 327.209 49.1274 327.04 55.0183 326.574C67.6335 325.558 88.0649 323.061 91.1109 317.516C95.5363 309.389 80.924 304.288 80.924 304.288L115.896 301.981L118.166 293.515L-170.345 295.907V371.57H164.431C164.431 371.57 114.502 374.745 108.755 377.391C103.008 380.036 123.123 382.682 123.123 382.682L-125.445 387.444L-170.345 391.677V397.497H-65.0988H-65.2281C-66.0327 397.687 -70.3144 398.852 -70.3144 399.613C-70.3144 400.375 116.542 394.365 169.633 392.629L173.095 392.523H175.15H176.127H177.808H178.728H181.271H181.558H183.182H183.555C183.555 392.523 178.57 394.64 177.808 396.185C177.769 396.286 177.735 396.393 177.707 396.502C177.521 398.068 482.67 398.513 485.788 396.058C488.906 393.603 477.397 392.164 477.397 392.164H480.486H483.446H485.199C524.15 391.253 696.05 387.275 698.909 386.343C700.981 385.382 703.003 384.2 704.958 382.809L835.406 382.11V214.423C835.406 214.423 784.658 207.544 764.054 226.508ZM125.321 336.141C124.172 336.141 118.267 336.585 111.988 337.157C110.966 335.997 109.776 335.2 108.511 334.829L125.523 336.12L125.321 336.141ZM298.529 377.983H216.401C216.401 377.983 233.872 376.692 237.953 371.041C237.953 371.041 266.445 374.576 272.436 371.041C277.652 367.951 265.554 366.808 262.379 366.512L339.636 371.02C335.225 370.914 304.966 370.385 298.529 377.983ZM587.974 381.624H587.6L555.99 383.74L523.116 383.486L523.806 383.296C525.128 382.936 527.829 382.089 528.116 381.179C528.49 379.846 467.052 379.592 459.523 380.65C451.994 381.708 462.928 383.571 462.928 383.571L425.384 384.883H425.643H425.916H426.218C430.629 383.973 451.261 379.676 458.934 377.2L459.494 377.01C460.244 376.814 460.977 376.494 461.678 376.057C464.178 373.941 457.368 373.412 457.368 373.412L479.265 371.295C479.265 371.295 473.517 373.666 473.704 375.274C474.558 375.638 475.446 375.796 476.334 375.74C489.265 376.735 545.545 376.332 545.545 376.332L601.91 380.438H602.011L605.876 380.735L587.974 381.624Z" fill="url(#paint0_linear_1304_8343)"/>
<path d="M696.05 302.265C663.003 311.79 691.739 314.435 691.739 314.435C691.739 314.435 553.447 329.25 545.185 334.838C536.923 340.425 617.773 339.304 617.773 339.304L490.673 362.034C491.722 361.696 508.618 356.066 510.012 350.944C511.406 345.822 465.112 339.304 432.065 342.478C399.019 345.653 404.766 353.59 404.766 353.59L305.626 348.299C305.626 348.299 323.931 340.129 324.305 334.838C324.678 329.547 239.964 342.478 239.964 342.478C239.964 342.478 167.808 330.838 125.551 336.129H125.35C120.235 336.764 115.881 337.399 112.189 337.991C107.046 338.723 101.934 339.854 96.8723 341.378C89.1279 343.939 92.9786 345.611 92.9786 345.611L-10.4715 341.907C-10.4715 341.907 22.302 336.404 41.5408 331.452C48.6099 329.61 53.84 327.853 54.9751 326.457C59.2855 321.271 12.5174 299.472 -45.3141 306.414C-103.146 313.356 -90.5736 320.467 -90.5736 320.467H-170.316V371.537H164.46C164.46 371.537 114.531 374.712 108.783 377.358C103.036 380.003 123.152 382.649 123.152 382.649L-125.416 387.411L-170.316 391.644V397.464H-65.0702H-65.1996L-70.2859 399.58L169.661 392.596L173.124 392.49H175.178H176.155H177.837H178.756H181.299C180.564 392.623 179.862 393.021 179.255 393.649C178.649 394.276 178.157 395.114 177.822 396.088C177.783 396.19 177.749 396.296 177.722 396.406C176.285 401.422 485.572 400.533 489.15 396.131C492.727 391.728 477.411 392.067 477.411 392.067H480.5H483.46H485.213L706.826 387.834L835.42 382.014V278.984C835.42 278.984 729.096 292.741 696.05 302.265ZM237.953 371.051C237.953 371.051 266.444 374.585 272.436 371.051C277.652 367.96 265.554 366.818 262.378 366.521L339.635 371.029C335.21 370.924 304.951 370.394 298.514 377.993H216.386C216.386 377.993 233.872 376.701 237.953 371.051ZM459.523 380.575C451.965 381.633 462.928 383.495 462.928 383.495L425.384 384.808H425.643H425.916H426.218C430.528 383.982 450.643 380.024 458.933 377.125L459.494 376.934C460.244 376.739 460.976 376.419 461.678 375.982C467.238 372.807 457.367 373.336 457.367 373.336L479.264 371.22C479.264 371.22 473.517 373.59 473.704 375.199C474.557 375.563 475.446 375.72 476.333 375.664C475.672 376.871 475.284 377.908 475.744 378.098C476.621 378.479 558.734 379.749 601.91 380.363H602.011L605.876 380.659L587.973 381.845H587.6C569.18 382.331 546.464 382.924 523.877 383.474C525.199 383.114 527.9 382.268 528.188 381.358C528.489 379.77 467.051 379.516 459.523 380.575V380.575Z" fill="url(#paint1_linear_1304_8343)"/>
<path d="M756.037 71.2971C756.037 71.2971 767.158 61.8577 776.871 55.1697C776.871 55.1697 766.454 55.6988 773.638 40.3544C780.822 25.0101 817.461 27.1054 835.421 45.6244L756.037 71.2971Z" fill="url(#paint2_linear_1304_8343)"/>
<path d="M652.946 126.601C652.946 126.601 640.373 112.823 615.229 114.431C590.085 116.04 591.35 134.707 591.35 134.707L601.58 144.591L652.946 126.601Z" fill="url(#paint3_linear_1304_8343)"/>
<path d="M735.017 81.8833C735.017 81.8833 717.243 73.1635 693.895 81.8833C670.547 90.6031 686.711 103.323 686.711 103.323C686.711 103.323 680.202 116.636 682.918 119.98C685.633 123.324 710.404 114.435 710.404 114.435H728.407C728.407 114.435 707.214 123.429 697.157 131.895C687.099 140.361 698.594 140.721 698.594 140.721C698.594 140.721 674.527 143.007 657.644 156.235C640.762 169.463 642.73 191.41 642.73 191.41L710.591 156.933L765.563 114.435L779.414 82.6876L745.29 107.725L721.223 103.323L717.272 93.2699L735.017 81.8833Z" fill="url(#paint4_linear_1304_8343)"/>
<path d="M460.054 201.479C460.054 201.479 454.307 186.917 461.678 165.753C469.049 144.588 503.992 153.054 503.992 153.054C503.992 153.054 507.828 148.504 519.797 147.953C531.765 147.403 546.694 161.477 546.694 161.477L513.547 219.299L476.391 248.549L463.459 240.887C463.459 240.887 464.724 234.178 471.419 225.712C478.115 217.246 488.187 213.225 488.187 213.225L460.054 201.479Z" fill="url(#paint5_linear_1304_8343)"/>
<path d="M350.24 223.134C350.24 223.134 343.056 205.229 325.354 198.456C325.354 198.456 327.725 179.874 315.526 165.757C303.328 151.64 291.101 153.756 291.101 153.756C291.101 153.756 243.442 128.761 210.395 147.957L280.31 213.229L332.524 232.785L350.24 223.134Z" fill="url(#paint6_linear_1304_8343)"/>
<path d="M835.42 34.5332C835.42 34.5332 802.015 38.7661 790.52 45.6446C779.026 52.5231 780.462 61.5181 780.462 61.5181C780.462 61.5181 769.859 61.772 756.037 71.2961C742.215 80.8202 743.637 93.7941 744.355 95.9106C745.074 98.027 751.726 98.281 751.726 98.281L733.766 103.318C733.766 103.318 736.281 99.8684 736.281 97.2228C736.281 94.5772 728.91 95.3815 728.91 95.3815C728.91 95.3815 735.016 85.5822 735.016 81.8784C735.016 78.1746 697.487 87.4447 689.398 98.5562C681.308 109.668 692.63 106.493 692.63 106.493C692.63 106.493 682.4 113.625 682.932 119.975C683.464 126.324 701.438 126.07 705.921 123.954C710.404 121.837 708.263 118.387 708.263 118.387L720.476 119.192C720.476 119.192 702.329 135.065 710.231 139.827C710.231 139.827 686.711 143.785 665.877 157.817C645.043 171.849 641.624 187.448 642.701 191.405C643.779 195.363 653.118 196.972 653.118 196.972L615.948 205.967C615.948 205.967 627.974 189.564 621.868 174.749C615.761 159.934 594.037 164.95 594.037 164.95C594.037 164.95 597.629 160.992 596.364 155.172C596.364 155.172 625.819 162.579 638.391 152.251C638.391 152.251 643.42 147.235 643.966 141.944C643.966 141.944 654.023 133.203 652.946 126.599C651.868 119.996 610.732 117.329 597.629 125.795C584.525 134.261 598.16 132.674 598.16 132.674C598.16 132.674 588.649 132.949 587.212 140.61C585.775 148.272 595.287 151.997 595.287 151.997C595.287 151.997 578.591 150.41 570.502 159.934C562.413 169.458 575.171 169.987 575.171 169.987C575.171 169.987 522.196 147.954 485.558 163.637C449.752 178.961 460.054 201.48 460.054 201.48C460.054 201.48 451.793 207.025 451.433 209.395C451.074 211.766 502.799 219.978 502.799 219.978C502.799 219.978 487.713 222.369 487.713 235.343C487.713 235.343 467.957 235.851 463.46 240.888C458.962 245.925 476.391 248.55 476.391 248.55C476.391 248.55 454.307 253.058 445.859 271.577L387.611 276.508C387.611 276.508 393.602 264.169 347.983 254.645C347.983 254.645 363.099 222.136 336.489 208.379C309.879 194.622 299.132 203.85 299.132 203.85C299.132 203.85 309.549 192.739 310.267 183.215C310.986 173.691 269.95 124.737 210.409 147.954C195.596 153.732 205.739 167.87 205.739 167.87L177.722 155.531C178.901 155.024 179.915 153.903 180.576 152.377C181.237 150.851 181.499 149.024 181.314 147.235C180.954 140.356 123.482 113.371 123.482 113.371C123.482 113.371 124.201 90.0903 64.5731 90.0903C64.5731 90.0903 71.7571 91.1486 74.2715 86.9156C76.7859 82.6827 47.3314 68.9257 47.3314 68.9257C47.3314 68.9257 70.3203 72.1004 73.9123 66.8092C77.5043 61.5181 62.7771 44.0572 49.8458 49.8775C49.8458 49.8775 39.0697 45.6446 35.8369 49.8775C32.6041 54.1104 42.3026 66.2801 42.3026 66.2801C42.3026 66.2801 18.351 37.7079 -2.23848 45.4753C-17.1094 51.0627 -2.23848 75.2751 -2.23848 75.2751L-34.2075 54.1105C-34.2075 54.1105 0.635132 -9.38345 -54.682 -48.6227C-109.999 -87.8619 -170.345 -106 -170.345 -106V127.128C-170.345 127.128 -99.9414 169.796 -88.0877 162.219C-88.0877 162.219 -53.6044 170.325 -46.4203 162.219C-39.2363 154.113 -41.7219 146.706 -41.7219 146.706L7.12953 162.219C7.12953 162.219 -1.85052 169.987 6.77032 178.453C15.3912 186.918 99.8036 209.67 162.664 215.491C160.98 218.073 159.963 221.443 159.79 225.015C159.79 230.306 178.11 233.481 178.11 233.481C178.11 233.481 142.189 223.427 119.201 234.539C96.2116 245.65 108.424 249.354 108.424 249.354C108.424 249.354 96.5708 251.471 91.9012 257.82C87.2316 264.169 96.2116 269.461 96.2116 269.461L77.1739 267.873C77.1739 267.873 84.3579 265.757 84.3579 259.407C84.3579 253.058 70.3491 250.942 70.3491 250.942C70.3491 250.942 89.3868 251.471 91.9012 246.179C94.4156 240.888 62.0874 227.66 62.0874 227.66C62.0874 227.66 71.4267 229.777 73.5819 220.253C75.7371 210.729 40.8945 197.501 29.0408 205.967C17.1872 214.433 30.4777 217.078 30.4777 217.078C22.3118 213.685 13.9191 211.612 5.44841 210.898C5.44841 210.898 -0.0545816 200.316 -12.5117 198.199C-24.9688 196.083 -28.5607 204.549 -28.5607 204.549L-35.5005 202.792C-35.5005 202.792 -28.7907 202.094 -28.0723 193.268C-27.3539 184.442 -47.7134 171.405 -78.6048 169.987C-78.6048 169.987 -138.232 141.774 -170.316 140.356V295.916C-170.316 295.916 -15.8595 300.149 11.1956 295.916L0.419586 292.742L111.054 297.8C111.054 297.8 105.062 302.626 107.706 305.081C110.35 307.536 188.397 316.721 200.38 312.848L196.07 308.975L224.317 316.023C224.317 316.023 219.777 313.547 214.978 323.79C214.978 323.79 242.048 330.14 282.278 330.838C322.509 331.536 337.926 328.362 341.834 326.245C345.742 324.129 341.834 321.674 341.834 321.674L349.32 324.848C349.32 324.848 345.009 326.457 336.877 330.944C328.745 335.431 363.213 335.431 372.553 334.013C381.892 332.595 365.613 328.362 365.613 328.362C365.613 328.362 375.671 326.605 377.826 323.43C379.981 320.256 361.303 314.266 361.303 314.266L450.859 316.023C450.859 316.023 439.839 316.721 438.402 320.256C436.965 323.79 494.207 323.79 500.429 320.954C506.65 318.118 498.273 316.383 498.273 316.383L541.378 311.43C541.378 311.43 609.87 299.091 634.77 293.44C659.67 287.789 649.138 280.403 649.138 280.403C649.138 280.403 711.639 270.519 733.436 261.693L835.449 239.47L835.42 34.5332Z" fill="url(#paint7_linear_1304_8343)"/>
<path d="M253.183 123.192C252.908 125.22 253.115 127.326 253.769 129.156C254.423 130.987 255.484 132.43 256.775 133.245C261.445 136.419 274.189 141.181 274.189 141.181C274.189 141.181 268.557 143.044 272.364 146.219C276.172 149.393 285.511 148.589 284.793 146.219C284.348 144.763 283.667 143.491 282.81 142.515C282.81 142.515 291.072 144.631 291.618 142.769C292.164 140.906 290.353 139.065 290.353 139.065C290.353 139.065 294.333 136.419 291.79 133.774C289.247 131.128 281.991 129.287 281.991 129.287C281.25 126.305 280.041 123.624 278.463 121.461C276.885 119.299 274.983 117.716 272.91 116.842C265.827 113.943 261.33 123.721 261.33 123.721C258.69 122.518 255.884 122.336 253.183 123.192V123.192Z" fill="url(#paint8_linear_1304_8343)"/>
<path d="M835.42 90.0908C835.42 90.0908 802.015 91.6781 786.21 103.319C770.405 114.959 786.21 115.488 786.21 115.488L753.522 139.299C743.683 138.288 733.804 140.085 724.427 144.59C710.059 151.997 728.019 150.41 728.019 150.41C728.019 150.41 692.458 159.934 673.061 184.273C653.664 208.613 678.808 207.555 678.808 207.555L601.968 237.714C601.968 237.714 605.23 235.365 605.574 224.91C605.919 214.454 583.289 224.91 583.289 224.91C583.289 224.91 618.218 208.295 618.175 202.454C618.046 183.596 533.001 193.48 516.837 213.205C500.673 232.931 547.01 232.423 547.01 232.423C547.01 232.423 521.148 235.598 518.992 243.534C516.837 251.471 536.234 250.413 536.234 250.413C536.234 250.413 481.635 248.296 465.112 265.757C448.589 283.218 499.337 281.631 499.337 281.631C499.337 281.631 472.497 285.864 461.807 291.155C451.117 296.446 467.555 297.504 467.555 297.504L368.415 302.795C368.415 302.795 374.88 292.742 368.415 284.805C361.949 276.869 327.825 274.752 327.825 274.752C327.825 274.752 345.785 267.874 347.581 264.699C349.377 261.524 295.856 255.704 295.856 255.704C295.856 255.704 339.535 253.588 341.834 248.826C344.133 244.064 295.856 223.957 295.856 223.957C295.856 223.957 304.836 222.581 301.962 213.205C299.089 203.83 249.16 180.57 213.24 182.411C213.24 182.411 215.036 178.453 214.849 175.808C214.662 173.162 176.601 154.897 167.621 156.23C158.641 157.564 165.279 166.813 165.279 166.813C165.279 166.813 136.543 131.616 96.4989 120.504C56.4551 109.393 61.8287 121.563 61.8287 121.563C61.8287 121.563 18.9113 87.6992 5.07484 84.5245C-8.76162 81.3498 5.07484 91.6781 5.07484 91.6781C5.07484 91.6781 -18.8048 64.1641 -40.9029 64.6932L-53.1158 54.64C-53.1158 54.64 -46.6501 51.4653 -51.133 42.9995C-55.6158 34.5336 -95.1424 3.56976 -103.045 1.98242C-110.947 0.395068 -106.637 10.9774 -106.637 10.9774L-170.345 -38.4844V127.129C-170.345 127.129 -127.485 153.648 -98.4184 162.22C-69.3518 170.792 -46.4203 168.104 -42.4691 164.336C-38.5179 160.569 -41.3915 143.172 -41.3915 143.172L7.10079 162.22C7.10079 162.22 2.05758 164.125 4.39958 175.532C6.74158 186.94 67.9783 201.48 93.6685 206.496C119.359 211.512 162.635 215.491 162.635 215.491L179.159 219.47C179.159 219.47 164.13 217.354 161.198 223.703C158.267 230.053 176.271 233.016 176.271 233.016C176.271 233.016 147.19 231.894 138.209 236.402C129.229 240.91 146.112 244.868 146.112 244.868C146.112 244.868 125.81 241.143 111.442 248.55C97.0737 255.958 104.976 263.641 104.976 263.641C104.976 263.641 98.3381 266.54 98.3381 269.461C98.3381 272.382 124.919 273.165 124.919 273.165C124.919 273.165 85.4068 270.265 59.7167 274.752C59.7167 274.752 70.9094 272.636 77.1452 267.874C83.3809 263.112 65.4639 262.858 65.4639 262.858C65.4639 262.858 70.1335 256.508 69.6019 252.783C69.0703 249.058 32.7765 237.46 32.7765 237.46C32.7765 237.46 60.6219 235.598 61.3403 231.619C62.0587 227.64 40.5066 217.354 30.4489 217.079C20.3913 216.803 29.0121 225.544 29.0121 225.544C29.0121 225.544 -16.0749 208.888 -42.8283 209.142C-42.8283 209.142 -37.7995 205.713 -37.2678 200.422C-36.7362 195.131 -116.105 170.241 -116.105 170.241C-116.105 170.241 -106.766 170.77 -106.048 167.342C-105.329 163.913 -170.345 155.701 -170.345 155.701V295.917C-170.345 295.917 -30.7446 300.15 11.1671 295.917L0.391007 292.742L111.025 297.801L125.637 300.679C125.637 300.679 108.927 301.822 107.677 305.081C106.427 308.341 177.722 318.14 200.351 312.849C200.351 312.849 200.883 309.039 182.751 306.499L224.289 316.066L245.841 318.182C245.841 318.182 222.133 319.494 217.105 323.219C212.076 326.944 268.154 332.362 304.032 330.86C339.909 329.357 341.733 326.775 343.4 324.934C345.067 323.092 341.863 321.717 341.863 321.717L349.348 324.891C349.348 324.891 341.978 328.002 341.863 331.114C341.748 334.225 368.86 334.458 368.86 334.458L363.3 327.96C363.3 327.96 366.36 322.669 365.283 319.494C364.205 316.32 358.271 313.145 358.271 313.145L449.149 316.235C449.149 316.235 439.939 315.261 438.431 320.299C436.922 325.336 461.951 325.442 475.788 326.394C489.624 327.346 502.282 323.113 503.604 321.886C504.926 320.658 499.523 317.124 499.523 317.124C499.523 317.124 568.979 311.727 607.773 306.542C646.567 301.356 654.282 293.017 654.153 286.35C654.023 279.684 649.196 280.488 649.196 280.488L726.97 249.884L748.522 243.534C748.522 243.534 727.531 258.223 729.039 263.302C730.548 268.382 835.449 239.471 835.449 239.471L835.42 90.0908Z" fill="url(#paint9_linear_1304_8343)"/>
<path d="M461.678 375.809C460.977 376.246 460.244 376.565 459.494 376.761C460.234 376.506 460.963 376.188 461.678 375.809V375.809Z" fill="url(#paint10_linear_1304_8343)"/>
<g style="mix-blend-mode:screen" filter="url(#filter0_f_1304_8343)">
<path d="M383.937 208.785C397.012 134.419 356.622 54.6808 293.723 30.6849C230.825 6.68902 169.236 47.5219 156.161 121.888C143.086 196.254 183.476 275.992 246.374 299.987C309.273 323.983 370.862 283.151 383.937 208.785Z" fill="url(#paint11_radial_1304_8343)" fill-opacity="0.25" style="mix-blend-mode:screen"/>
</g>
<g style="mix-blend-mode:screen" filter="url(#filter1_f_1304_8343)">
<path d="M502.69 252.651C546.698 240.083 576.932 188.552 570.219 137.554C563.507 86.5559 522.391 55.4021 478.383 67.9701C434.375 80.5381 404.141 132.069 410.854 183.067C417.566 234.065 458.683 265.219 502.69 252.651Z" fill="url(#paint12_radial_1304_8343)" fill-opacity="0.25" style="mix-blend-mode:screen"/>
</g>
</g>
<defs>
<filter id="filter0_f_1304_8343" x="33.7027" y="-96.1914" width="472.692" height="523.055" filterUnits="userSpaceOnUse" color-interpolation-filters="sRGB">
<feFlood flood-opacity="0" result="BackgroundImageFix"/>
<feBlend mode="normal" in="SourceGraphic" in2="BackgroundImageFix" result="shape"/>
<feGaussianBlur stdDeviation="60" result="effect1_foregroundBlur_1304_8343"/>
</filter>
<filter id="filter1_f_1304_8343" x="289.921" y="-54.8164" width="401.231" height="430.254" filterUnits="userSpaceOnUse" color-interpolation-filters="sRGB">
<feFlood flood-opacity="0" result="BackgroundImageFix"/>
<feBlend mode="normal" in="SourceGraphic" in2="BackgroundImageFix" result="shape"/>
<feGaussianBlur stdDeviation="60" result="effect1_foregroundBlur_1304_8343"/>
</filter>
<linearGradient id="paint0_linear_1304_8343" x1="332.538" y1="399.677" x2="332.538" y2="213.217" gradientUnits="userSpaceOnUse">
<stop offset="0.01" stop-color="#00619F"/>
<stop offset="1" stop-color="#00A2EF"/>
</linearGradient>
<linearGradient id="paint1_linear_1304_8343" x1="332.538" y1="399.623" x2="332.538" y2="278.984" gradientUnits="userSpaceOnUse">
<stop stop-color="#00438E"/>
<stop offset="0.99" stop-color="#007BD9"/>
</linearGradient>
<linearGradient id="paint2_linear_1304_8343" x1="795.722" y1="71.2971" x2="795.722" y2="30.1319" gradientUnits="userSpaceOnUse">
<stop offset="0.01" stop-color="#0089FE"/>
<stop offset="1" stop-color="#25FFFF"/>
</linearGradient>
<linearGradient id="paint3_linear_1304_8343" x1="622.14" y1="144.591" x2="622.14" y2="114.304" gradientUnits="userSpaceOnUse">
<stop offset="0.01" stop-color="#0089FE"/>
<stop offset="1" stop-color="#25FFFF"/>
</linearGradient>
<linearGradient id="paint4_linear_1304_8343" x1="711.008" y1="191.431" x2="711.008" y2="78.0102" gradientUnits="userSpaceOnUse">
<stop offset="0.01" stop-color="#0089FE"/>
<stop offset="1" stop-color="#25FFFF"/>
</linearGradient>
<linearGradient id="paint5_linear_1304_8343" x1="502.311" y1="248.57" x2="502.311" y2="147.953" gradientUnits="userSpaceOnUse">
<stop offset="0.01" stop-color="#0089FE"/>
<stop offset="1" stop-color="#25FFFF"/>
</linearGradient>
<linearGradient id="paint6_linear_1304_8343" x1="280.325" y1="232.785" x2="280.325" y2="140.719" gradientUnits="userSpaceOnUse">
<stop offset="0.01" stop-color="#0089FE"/>
<stop offset="1" stop-color="#25FFFF"/>
</linearGradient>
<linearGradient id="paint7_linear_1304_8343" x1="332.538" y1="334.838" x2="332.538" y2="-106" gradientUnits="userSpaceOnUse">
<stop offset="0.01" stop-color="#007CDD"/>
<stop offset="1" stop-color="#0092FF"/>
</linearGradient>
<linearGradient id="paint8_linear_1304_8343" x1="272.839" y1="148.314" x2="272.839" y2="116.313" gradientUnits="userSpaceOnUse">
<stop offset="0.01" stop-color="#0089FE"/>
<stop offset="1" stop-color="#25FFFF"/>
</linearGradient>
<linearGradient id="paint9_linear_1304_8343" x1="332.538" y1="334.415" x2="332.538" y2="-38.4844" gradientUnits="userSpaceOnUse">
<stop stop-color="#013D96"/>
<stop offset="0.99" stop-color="#0088D1"/>
</linearGradient>
<linearGradient id="paint10_linear_1304_8343" x1="460.586" y1="376.761" x2="460.586" y2="375.809" gradientUnits="userSpaceOnUse">
<stop stop-color="#FFAE86"/>
<stop offset="0.99" stop-color="#CC7F9A"/>
</linearGradient>
<radialGradient id="paint11_radial_1304_8343" cx="0" cy="0" r="1" gradientUnits="userSpaceOnUse" gradientTransform="translate(269.8 168.134) rotate(99.9719) scale(137.031 119.738)">
<stop stop-color="#005BFF"/>
<stop offset="0.13" stop-color="#004CD6"/>
<stop offset="0.37" stop-color="#00328B"/>
<stop offset="0.59" stop-color="#001C4F"/>
<stop offset="0.77" stop-color="#000D24"/>
<stop offset="0.92" stop-color="#00030A"/>
<stop offset="1"/>
</radialGradient>
<radialGradient id="paint12_radial_1304_8343" cx="0" cy="0" r="1" gradientUnits="userSpaceOnUse" gradientTransform="translate(491.203 162.685) rotate(82.5019) scale(93.273 82.0087)">
<stop stop-color="#005BFF"/>
<stop offset="0.13" stop-color="#004CD6"/>
<stop offset="0.37" stop-color="#00328B"/>
<stop offset="0.59" stop-color="#001C4F"/>
<stop offset="0.77" stop-color="#000D24"/>
<stop offset="0.92" stop-color="#00030A"/>
<stop offset="1"/>
</radialGradient>
<clipPath id="clip0_1304_8343">
<rect width="768" height="393" fill="white"/>
</clipPath>
</defs>
</svg>
