<svg width="2100" height="701" viewBox="0 0 2100 701" fill="none" xmlns="http://www.w3.org/2000/svg">
<g clip-path="url(#clip0_1304_5172)">
<path d="M1934.54 440.644C1886.41 468.636 1917.75 468.636 1917.75 468.636C1917.75 468.636 1833.77 484.001 1800.18 503.782C1766.59 523.563 1800.18 527.73 1800.18 527.73L1728.59 548.444C1728.59 548.444 1737.56 531.867 1693.89 528.757C1650.22 525.646 1447.54 549.502 1413.94 565.551C1380.35 581.6 1413.94 586.825 1413.94 586.825C1413.94 586.825 1371.95 596.155 1368.06 599.95C1364.16 603.744 1376.99 605.984 1376.99 605.984L1295.27 608.596C1295.27 608.596 1305.34 602.874 1303.66 595.876C1301.98 588.877 1231.71 580.853 1171.25 594.32C1171.25 594.32 1175.75 588.877 1165.67 588.1C1155.59 587.322 1080.55 610.4 1080.55 610.4L1003.86 608.316C1003.86 608.316 1003.29 590.961 990.997 587.851C978.702 584.741 900.569 589.157 900.569 589.157L633.787 582.937C633.787 582.937 505.032 565.302 433.65 574.104C372.749 581.631 361.16 598.768 360.824 605.548C325.419 603.558 259.48 596.218 225.586 599.857C232.343 598.886 238.973 597.27 245.371 595.036C249.57 593.325 252.896 591.21 253.366 588.629C253.366 588.629 263.107 588.38 276.88 587.696C306.373 586.203 354.14 582.533 361.261 574.384C371.607 562.441 337.445 554.945 337.445 554.945L419.206 551.555L424.514 539.114L-249.999 542.628V653.819H532.677C532.677 653.819 415.948 658.484 402.511 662.372C389.075 666.26 436.102 670.148 436.102 670.148L-145.026 677.146L-249.999 683.366V691.919H-3.94307H-4.24528C-6.12639 692.199 -16.1367 693.91 -16.1367 695.03C-16.1367 696.149 420.718 687.316 544.837 684.766L552.933 684.61H557.736H560.021H563.951H566.101H572.046H572.718H576.514H577.387C577.387 684.61 565.731 687.721 563.951 689.991C563.859 690.14 563.78 690.296 563.716 690.458C563.279 692.759 1276.69 693.412 1283.98 689.805C1291.27 686.197 1264.36 684.082 1264.36 684.082H1271.58H1278.5H1282.6C1373.67 682.744 1775.55 676.897 1782.24 675.529C1787.08 674.115 1791.81 672.379 1796.38 670.334L2101.36 669.308V422.884C2101.36 422.884 1982.71 412.776 1934.54 440.644ZM441.242 601.754C438.555 601.754 424.749 602.407 410.069 603.247C407.68 601.542 404.898 600.371 401.94 599.826L441.712 601.723L441.242 601.754ZM846.185 663.243H654.177C654.177 663.243 695.024 661.346 704.564 653.042C704.564 653.042 771.175 658.236 785.183 653.042C797.376 648.501 769.093 646.821 761.669 646.386L942.289 653.01C931.977 652.855 861.234 652.077 846.185 663.243ZM1522.88 668.593H1522.01L1448.11 671.703L1371.25 671.33L1372.86 671.05C1375.95 670.521 1382.27 669.277 1382.94 667.94C1383.81 665.98 1240.18 665.607 1222.57 667.162C1204.97 668.717 1230.54 671.454 1230.54 671.454L1142.76 673.383H1143.37H1144H1144.71C1155.02 672.045 1203.26 665.731 1221.2 662.092L1222.51 661.812C1224.26 661.525 1225.97 661.055 1227.61 660.413C1233.46 657.303 1217.54 656.525 1217.54 656.525L1268.73 653.415C1268.73 653.415 1255.29 656.898 1255.73 659.262C1257.72 659.797 1259.8 660.028 1261.88 659.946C1292.11 661.408 1423.69 660.817 1423.69 660.817L1555.46 666.851H1555.7L1564.73 667.286L1522.88 668.593Z" fill="url(#paint0_linear_1304_5172)"/>
<path d="M1775.55 551.959C1698.29 565.955 1765.48 569.842 1765.48 569.842C1765.48 569.842 1442.16 591.614 1422.85 599.825C1403.53 608.036 1592.55 606.388 1592.55 606.388L1295.4 639.792C1297.85 639.294 1337.36 631.021 1340.61 623.494C1343.87 615.967 1235.64 606.388 1158.38 611.053C1081.12 615.718 1094.56 627.382 1094.56 627.382L862.778 619.606C862.778 619.606 905.574 607.601 906.447 599.825C907.32 592.05 709.266 611.053 709.266 611.053C709.266 611.053 540.571 593.947 441.779 601.722H441.309C429.35 602.655 419.172 603.588 410.539 604.459C398.517 605.535 386.564 607.196 374.731 609.436C356.625 613.199 365.628 615.656 365.628 615.656L123.771 610.213C123.771 610.213 200.392 602.127 245.371 594.849C261.898 592.143 274.125 589.561 276.779 587.509C286.856 579.888 177.517 547.853 42.3118 558.055C-92.893 568.256 -63.5006 578.707 -63.5006 578.707H-249.932V653.757H532.744C532.744 653.757 416.015 658.422 402.578 662.31C389.142 666.197 436.169 670.085 436.169 670.085L-144.959 677.083L-249.932 683.304V691.857H-3.87616H-4.17857L-16.0698 694.967L544.904 684.703L553 684.548H557.803H560.088H564.018H566.167H572.113C570.393 684.743 568.752 685.328 567.334 686.25C565.917 687.172 564.766 688.403 563.984 689.835C563.892 689.984 563.813 690.14 563.749 690.302C560.39 697.673 1283.48 696.367 1291.84 689.897C1300.2 683.428 1264.4 683.926 1264.4 683.926H1271.62H1278.54H1282.64L1800.75 677.705L2101.39 669.152V517.746C2101.39 517.746 1852.81 537.963 1775.55 551.959ZM704.564 653.041C704.564 653.041 771.175 658.235 785.183 653.041C797.376 648.5 769.092 646.821 761.669 646.385L942.289 653.01C931.943 652.854 861.2 652.077 846.151 663.243H654.143C654.143 663.243 695.024 661.345 704.564 653.041ZM1222.57 667.037C1204.91 668.592 1230.54 671.329 1230.54 671.329L1142.76 673.258H1143.37H1144H1144.71C1154.79 672.045 1201.81 666.228 1221.2 661.967L1222.51 661.688C1224.26 661.4 1225.97 660.93 1227.61 660.288C1240.61 655.623 1217.54 656.4 1217.54 656.4L1268.73 653.29C1268.73 653.29 1255.29 656.773 1255.73 659.137C1257.72 659.673 1259.8 659.904 1261.88 659.821C1260.33 661.594 1259.42 663.118 1260.5 663.398C1262.55 663.958 1454.52 665.824 1555.46 666.726H1555.7L1564.73 667.162L1522.88 668.903H1522.01C1478.94 669.619 1425.84 670.49 1373.03 671.298C1376.12 670.769 1382.44 669.525 1383.11 668.188C1383.81 665.855 1240.18 665.482 1222.57 667.037V667.037Z" fill="url(#paint1_linear_1304_5172)"/>
<path d="M1915.8 212.54C1915.8 212.54 1941.8 198.668 1964.5 188.84C1964.5 188.84 1940.15 189.617 1956.95 167.068C1973.74 144.519 2059.4 147.598 2101.39 174.813L1915.8 212.54Z" fill="url(#paint2_linear_1304_5172)"/>
<path d="M1674.78 293.814C1674.78 293.814 1645.39 273.566 1586.6 275.93C1527.82 278.294 1530.77 305.726 1530.77 305.726L1554.69 320.251L1674.78 293.814Z" fill="url(#paint3_linear_1304_5172)"/>
<path d="M1866.65 228.098C1866.65 228.098 1825.1 215.283 1770.52 228.098C1715.93 240.912 1753.72 259.604 1753.72 259.604C1753.72 259.604 1738.5 279.168 1744.85 284.082C1751.2 288.996 1809.11 275.933 1809.11 275.933H1851.2C1851.2 275.933 1801.65 289.151 1778.14 301.592C1754.63 314.033 1781.5 314.562 1781.5 314.562C1781.5 314.562 1725.23 317.921 1685.76 337.36C1646.29 356.799 1650.9 389.052 1650.9 389.052L1809.55 338.386L1938.07 275.933L1970.45 229.279L1890.67 266.073L1834.41 259.604L1825.17 244.831L1866.65 228.098Z" fill="url(#paint4_linear_1304_5172)"/>
<path d="M1223.82 403.861C1223.82 403.861 1210.38 382.462 1227.61 351.36C1244.84 320.258 1326.54 332.698 1326.54 332.698C1326.54 332.698 1335.51 326.011 1363.49 325.203C1391.47 324.394 1426.37 345.077 1426.37 345.077L1348.88 430.049L1262.01 473.032L1231.78 461.773C1231.78 461.773 1234.73 451.914 1250.39 439.473C1266.04 427.032 1289.59 421.122 1289.59 421.122L1223.82 403.861Z" fill="url(#paint5_linear_1304_5172)"/>
<path d="M967.08 435.673C967.08 435.673 950.284 409.36 908.9 399.408C908.9 399.408 914.443 372.1 885.924 351.355C857.405 330.609 828.818 333.72 828.818 333.72C828.818 333.72 717.396 296.988 640.136 325.198L803.591 421.117L925.662 449.856L967.08 435.673Z" fill="url(#paint6_linear_1304_5172)"/>
<path d="M2101.39 158.519C2101.39 158.519 2023.29 164.74 1996.42 174.848C1969.54 184.956 1972.9 198.175 1972.9 198.175C1972.9 198.175 1948.11 198.548 1915.8 212.544C1883.48 226.54 1886.81 245.606 1888.49 248.716C1890.17 251.826 1905.72 252.199 1905.72 252.199L1863.73 259.602C1863.73 259.602 1869.61 254.532 1869.61 250.644C1869.61 246.757 1852.38 247.938 1852.38 247.938C1852.38 247.938 1866.65 233.538 1866.65 228.095C1866.65 222.652 1778.91 236.275 1760 252.604C1741.09 268.933 1767.56 264.267 1767.56 264.267C1767.56 264.267 1743.64 274.749 1744.88 284.079C1746.13 293.41 1788.15 293.037 1798.63 289.927C1809.11 286.816 1804.11 281.747 1804.11 281.747L1832.66 282.929C1832.66 282.929 1790.23 306.255 1808.71 313.253C1808.71 313.253 1753.72 319.069 1705.01 339.69C1656.3 360.311 1648.31 383.233 1650.83 389.05C1653.35 394.866 1675.18 397.229 1675.18 397.229L1588.28 410.448C1588.28 410.448 1616.4 386.344 1602.12 364.572C1587.85 342.8 1537.06 350.172 1537.06 350.172C1537.06 350.172 1545.45 344.356 1542.5 335.802C1542.5 335.802 1611.36 346.688 1640.75 331.51C1640.75 331.51 1652.51 324.139 1653.79 316.364C1653.79 316.364 1677.3 303.518 1674.78 293.814C1672.26 284.11 1576.09 280.192 1545.45 292.632C1514.82 305.073 1546.7 302.741 1546.7 302.741C1546.7 302.741 1524.46 303.145 1521.1 314.404C1517.74 325.663 1539.98 331.137 1539.98 331.137C1539.98 331.137 1500.94 328.804 1482.03 342.8C1463.12 356.797 1492.95 357.574 1492.95 357.574C1492.95 357.574 1369.1 325.197 1283.44 348.243C1199.73 370.761 1223.82 403.854 1223.82 403.854C1223.82 403.854 1204.5 412.003 1203.66 415.487C1202.82 418.97 1323.75 431.038 1323.75 431.038C1323.75 431.038 1288.48 434.552 1288.48 453.618C1288.48 453.618 1242.29 454.364 1231.78 461.767C1221.26 469.169 1262.01 473.026 1262.01 473.026C1262.01 473.026 1210.38 479.651 1190.63 506.865L1054.45 514.112C1054.45 514.112 1068.46 495.979 961.805 481.983C961.805 481.983 997.143 434.21 934.932 413.994C872.721 393.777 847.595 407.338 847.595 407.338C847.595 407.338 871.949 391.009 873.628 377.013C875.308 363.017 779.371 291.077 640.169 325.197C605.537 333.687 629.252 354.464 629.252 354.464L563.749 336.331C566.506 335.585 568.878 333.938 570.422 331.696C571.967 329.454 572.579 326.768 572.147 324.139C571.307 314.031 436.942 274.375 436.942 274.375C436.942 274.375 438.622 240.163 299.218 240.163C299.218 240.163 316.014 241.718 321.892 235.498C327.77 229.277 258.908 209.061 258.908 209.061C258.908 209.061 312.654 213.726 321.052 205.95C329.45 198.175 295.019 172.515 264.787 181.068C264.787 181.068 239.593 174.848 232.035 181.068C224.477 187.289 247.152 205.173 247.152 205.173C247.152 205.173 191.155 163.185 143.019 174.599C108.252 182.81 143.019 218.391 143.019 218.391L68.2781 187.289C68.2781 187.289 149.737 93.982 20.4106 36.3184C-108.916 -21.3453 -249.999 -48 -249.999 -48V294.592C-249.999 294.592 -85.4019 357.294 -57.6891 346.16C-57.6891 346.16 22.9299 358.072 39.7255 346.16C56.5211 334.247 50.7099 323.362 50.7099 323.362L164.92 346.16C164.92 346.16 143.926 357.574 164.08 370.015C184.235 382.456 381.584 415.891 528.545 424.444C524.609 428.239 522.232 433.191 521.827 438.44C521.827 446.216 564.656 450.881 564.656 450.881C564.656 450.881 480.678 436.107 426.932 452.436C373.186 468.765 401.739 474.208 401.739 474.208C401.739 474.208 374.026 477.318 363.109 486.649C352.191 495.979 373.186 503.755 373.186 503.755L328.678 501.422C328.678 501.422 345.473 498.312 345.473 488.981C345.473 479.651 312.722 476.54 312.722 476.54C312.722 476.54 357.23 477.318 363.109 469.542C368.987 461.767 293.407 442.328 293.407 442.328C293.407 442.328 315.241 445.438 320.28 431.442C325.318 417.446 243.86 398.007 216.147 410.448C188.434 422.889 219.506 426.777 219.506 426.777C200.415 421.79 180.794 418.745 160.99 417.695C160.99 417.695 148.124 402.144 119.001 399.033C89.8772 395.923 81.4796 408.364 81.4796 408.364L65.255 405.783C65.255 405.783 80.942 404.756 82.6216 391.787C84.3012 378.817 36.7024 359.658 -35.5188 357.574C-35.5188 357.574 -174.923 316.115 -249.932 314.031V542.633C-249.932 542.633 111.174 548.853 174.426 542.633L149.233 537.967L407.886 545.401C407.886 545.401 393.878 552.492 400.059 556.1C406.24 559.708 588.707 573.206 616.722 567.515L606.645 561.823L672.686 572.18C672.686 572.18 662.071 568.541 650.851 583.595C650.851 583.595 714.137 592.925 808.193 593.952C902.248 594.978 938.291 590.313 947.428 587.202C956.565 584.092 947.428 580.484 947.428 580.484L964.93 585.15C964.93 585.15 954.852 587.513 935.839 594.107C916.827 600.701 997.412 600.701 1019.25 598.617C1041.08 596.533 1003.02 590.313 1003.02 590.313C1003.02 590.313 1026.54 587.731 1031.57 583.066C1036.61 578.4 992.944 569.599 992.944 569.599L1202.32 572.18C1202.32 572.18 1176.55 573.206 1173.2 578.4C1169.84 583.595 1303.66 583.594 1318.21 579.427C1332.75 575.259 1313.17 572.709 1313.17 572.709L1413.94 565.431C1413.94 565.431 1574.07 547.298 1632.29 538.994C1690.5 530.69 1665.88 519.835 1665.88 519.835C1665.88 519.835 1812 505.31 1862.96 492.34L2101.46 459.683L2101.39 158.519Z" fill="url(#paint7_linear_1304_5172)"/>
<path d="M740.171 288.804C739.528 291.785 740.012 294.88 741.541 297.57C743.07 300.259 745.551 302.381 748.569 303.578C759.486 308.243 789.282 315.241 789.282 315.241C789.282 315.241 776.114 317.978 785.015 322.643C793.917 327.309 815.751 326.127 814.072 322.643C813.032 320.505 811.44 318.636 809.436 317.2C809.436 317.2 828.751 320.311 830.028 317.574C831.304 314.837 827.072 312.131 827.072 312.131C827.072 312.131 836.376 308.243 830.431 304.355C824.485 300.467 807.522 297.762 807.522 297.762C805.79 293.38 802.963 289.44 799.274 286.261C795.585 283.083 791.136 280.757 786.292 279.473C769.731 275.212 759.218 289.582 759.218 289.582C753.046 287.814 746.487 287.546 740.171 288.804V288.804Z" fill="url(#paint8_linear_1304_5172)"/>
<path d="M2101.39 240.161C2101.39 240.161 2023.29 242.494 1986.34 259.6C1949.39 276.707 1986.34 277.484 1986.34 277.484L1909.92 312.474C1886.92 310.989 1863.82 313.629 1841.9 320.25C1808.31 331.136 1850.29 328.803 1850.29 328.803C1850.29 328.803 1767.16 342.799 1721.81 378.567C1676.46 414.334 1735.24 412.779 1735.24 412.779L1555.6 457.1C1555.6 457.1 1563.22 453.648 1564.03 438.283C1564.84 422.919 1511.93 438.283 1511.93 438.283C1511.93 438.283 1593.59 413.868 1593.49 405.284C1593.19 377.571 1394.36 392.096 1356.57 421.083C1318.78 450.071 1427.11 449.324 1427.11 449.324C1427.11 449.324 1366.65 453.99 1361.61 465.653C1356.57 477.316 1401.92 475.761 1401.92 475.761C1401.92 475.761 1274.27 472.651 1235.64 498.311C1197.01 523.97 1315.66 521.637 1315.66 521.637C1315.66 521.637 1252.91 527.858 1227.92 535.633C1202.92 543.409 1241.35 544.964 1241.35 544.964L1009.57 552.74C1009.57 552.74 1024.69 537.966 1009.57 526.303C994.456 514.639 914.677 511.529 914.677 511.529C914.677 511.529 956.666 501.421 960.865 496.755C965.064 492.09 839.936 483.537 839.936 483.537C839.936 483.537 942.054 480.427 947.428 473.429C952.803 466.431 839.936 436.883 839.936 436.883C839.936 436.883 860.931 434.862 854.213 421.083C847.494 407.305 730.765 373.124 646.787 375.83C646.787 375.83 650.985 370.014 650.549 366.126C650.112 362.238 561.129 335.397 540.134 337.356C519.14 339.316 534.659 352.907 534.659 352.907C534.659 352.907 467.476 301.184 373.858 284.855C280.239 268.527 292.802 286.41 292.802 286.41C292.802 286.41 192.465 236.647 160.116 231.981C127.768 227.316 160.116 242.494 160.116 242.494C160.116 242.494 104.288 202.061 52.6247 202.839L24.0721 188.065C24.0721 188.065 39.1882 183.4 28.7077 170.959C18.2272 158.518 -74.1823 113.015 -92.6575 110.682C-111.133 108.35 -101.055 123.901 -101.055 123.901L-249.999 51.2148V294.59C-249.999 294.59 -149.796 333.562 -81.8412 346.158C-13.8861 358.754 39.7255 354.804 48.9631 349.268C58.2007 343.732 51.4825 318.166 51.4825 318.166L164.853 346.158C164.853 346.158 153.062 348.957 158.538 365.721C164.013 382.486 307.179 403.853 367.24 411.224C427.301 418.595 528.478 424.443 528.478 424.443L567.108 430.29C567.108 430.29 531.972 427.18 525.119 436.51C518.267 445.841 560.356 450.195 560.356 450.195C560.356 450.195 492.368 448.547 471.373 455.172C450.379 461.796 489.848 467.613 489.848 467.613C489.848 467.613 442.384 462.139 408.793 473.024C375.201 483.91 393.677 495.2 393.677 495.2C393.677 495.2 378.157 499.461 378.157 503.753C378.157 508.046 440.301 509.196 440.301 509.196C440.301 509.196 347.925 504.935 287.864 511.529C287.864 511.529 314.032 508.419 328.61 501.421C343.189 494.423 301.301 494.05 301.301 494.05C301.301 494.05 312.218 484.719 310.975 479.245C309.732 473.771 224.881 456.727 224.881 456.727C224.881 456.727 289.98 453.99 291.66 448.142C293.34 442.295 242.953 427.18 219.439 426.775C195.925 426.371 216.08 439.216 216.08 439.216C216.08 439.216 110.67 414.739 48.1234 415.112C48.1234 415.112 59.8803 410.073 61.1232 402.298C62.366 394.522 -123.192 357.946 -123.192 357.946C-123.192 357.946 -101.358 358.723 -99.6782 353.685C-97.9986 348.646 -249.999 336.579 -249.999 336.579V542.631C-249.999 542.631 76.3739 548.852 174.36 542.631L149.166 537.966L407.819 545.399L441.981 549.629C441.981 549.629 402.914 551.309 399.992 556.099C397.069 560.888 563.749 575.289 616.655 567.513C616.655 567.513 617.898 561.915 575.506 558.182L672.618 572.241L723.005 575.351C723.005 575.351 667.58 577.279 655.823 582.753C644.066 588.227 775.173 596.19 859.05 593.981C942.927 591.773 947.193 587.978 951.09 585.273C954.987 582.567 947.496 580.545 947.496 580.545L964.997 585.21C964.997 585.21 947.764 589.782 947.496 594.354C947.227 598.927 1010.61 599.269 1010.61 599.269L997.614 589.72C997.614 589.72 1004.77 581.945 1002.25 577.279C999.73 572.614 985.857 567.949 985.857 567.949L1198.32 572.49C1198.32 572.49 1176.79 571.059 1173.26 578.461C1169.74 585.864 1228.25 586.019 1260.6 587.419C1292.95 588.818 1322.54 582.598 1325.63 580.794C1328.72 578.99 1316.09 573.796 1316.09 573.796C1316.09 573.796 1478.47 565.865 1569.17 558.245C1659.87 550.625 1677.9 538.37 1677.6 528.573C1677.3 518.776 1666.01 519.958 1666.01 519.958L1847.84 474.984L1898.23 465.653C1898.23 465.653 1849.15 487.238 1852.68 494.703C1856.21 502.167 2101.46 459.681 2101.46 459.681L2101.39 240.161Z" fill="url(#paint9_linear_1304_5172)"/>
<path d="M1227.61 660.043C1225.97 660.686 1224.26 661.155 1222.51 661.443C1224.24 661.068 1225.94 660.601 1227.61 660.043V660.043Z" fill="url(#paint10_linear_1304_5172)"/>
<g style="mix-blend-mode:screen" filter="url(#filter0_f_1304_5172)">
<path d="M1045.86 414.589C1076.43 305.305 982.002 188.127 834.951 152.864C687.899 117.601 543.91 177.606 513.342 286.89C482.773 396.174 577.201 513.352 724.253 548.615C871.305 583.878 1015.29 523.872 1045.86 414.589Z" fill="url(#paint11_radial_1304_5172)" fill-opacity="0.25" style="mix-blend-mode:screen"/>
</g>
<g style="mix-blend-mode:screen" filter="url(#filter1_f_1304_5172)">
<path d="M1323.5 479.045C1426.38 460.575 1497.07 384.849 1481.37 309.905C1465.68 234.961 1369.55 189.179 1266.67 207.648C1163.78 226.118 1093.1 301.844 1108.79 376.788C1124.48 451.732 1220.61 497.514 1323.5 479.045Z" fill="url(#paint12_radial_1304_5172)" fill-opacity="0.25" style="mix-blend-mode:screen"/>
</g>
</g>
<defs>
<filter id="filter0_f_1304_5172" x="387.595" y="22.7617" width="784.014" height="655.957" filterUnits="userSpaceOnUse" color-interpolation-filters="sRGB">
<feFlood flood-opacity="0" result="BackgroundImageFix"/>
<feBlend mode="normal" in="SourceGraphic" in2="BackgroundImageFix" result="shape"/>
<feGaussianBlur stdDeviation="60" result="effect1_foregroundBlur_1304_5172"/>
</filter>
<filter id="filter1_f_1304_5172" x="986.61" y="83.5547" width="616.944" height="519.582" filterUnits="userSpaceOnUse" color-interpolation-filters="sRGB">
<feFlood flood-opacity="0" result="BackgroundImageFix"/>
<feBlend mode="normal" in="SourceGraphic" in2="BackgroundImageFix" result="shape"/>
<feGaussianBlur stdDeviation="60" result="effect1_foregroundBlur_1304_5172"/>
</filter>
<linearGradient id="paint0_linear_1304_5172" x1="925.695" y1="695.123" x2="925.695" y2="421.112" gradientUnits="userSpaceOnUse">
<stop offset="0.01" stop-color="#00619F"/>
<stop offset="1" stop-color="#00A2EF"/>
</linearGradient>
<linearGradient id="paint1_linear_1304_5172" x1="925.695" y1="695.029" x2="925.695" y2="517.746" gradientUnits="userSpaceOnUse">
<stop stop-color="#00438E"/>
<stop offset="0.99" stop-color="#007BD9"/>
</linearGradient>
<linearGradient id="paint2_linear_1304_5172" x1="2008.58" y1="212.54" x2="2008.58" y2="152.046" gradientUnits="userSpaceOnUse">
<stop offset="0.01" stop-color="#0089FE"/>
<stop offset="1" stop-color="#25FFFF"/>
</linearGradient>
<linearGradient id="paint3_linear_1304_5172" x1="1602.76" y1="320.251" x2="1602.76" y2="275.744" gradientUnits="userSpaceOnUse">
<stop offset="0.01" stop-color="#0089FE"/>
<stop offset="1" stop-color="#25FFFF"/>
</linearGradient>
<linearGradient id="paint4_linear_1304_5172" x1="1810.52" y1="389.083" x2="1810.52" y2="222.406" gradientUnits="userSpaceOnUse">
<stop offset="0.01" stop-color="#0089FE"/>
<stop offset="1" stop-color="#25FFFF"/>
</linearGradient>
<linearGradient id="paint5_linear_1304_5172" x1="1322.61" y1="473.063" x2="1322.61" y2="325.203" gradientUnits="userSpaceOnUse">
<stop offset="0.01" stop-color="#0089FE"/>
<stop offset="1" stop-color="#25FFFF"/>
</linearGradient>
<linearGradient id="paint6_linear_1304_5172" x1="803.625" y1="449.856" x2="803.625" y2="314.561" gradientUnits="userSpaceOnUse">
<stop offset="0.01" stop-color="#0089FE"/>
<stop offset="1" stop-color="#25FFFF"/>
</linearGradient>
<linearGradient id="paint7_linear_1304_5172" x1="925.695" y1="599.83" x2="925.695" y2="-48" gradientUnits="userSpaceOnUse">
<stop offset="0.01" stop-color="#007CDD"/>
<stop offset="1" stop-color="#0092FF"/>
</linearGradient>
<linearGradient id="paint8_linear_1304_5172" x1="786.124" y1="325.723" x2="786.124" y2="278.696" gradientUnits="userSpaceOnUse">
<stop offset="0.01" stop-color="#0089FE"/>
<stop offset="1" stop-color="#25FFFF"/>
</linearGradient>
<linearGradient id="paint9_linear_1304_5172" x1="925.695" y1="599.206" x2="925.695" y2="51.2148" gradientUnits="userSpaceOnUse">
<stop stop-color="#013D96"/>
<stop offset="0.99" stop-color="#0088D1"/>
</linearGradient>
<linearGradient id="paint10_linear_1304_5172" x1="1225.06" y1="661.443" x2="1225.06" y2="660.043" gradientUnits="userSpaceOnUse">
<stop stop-color="#FFAE86"/>
<stop offset="0.99" stop-color="#CC7F9A"/>
</linearGradient>
<radialGradient id="paint11_radial_1304_5172" cx="0" cy="0" r="1" gradientUnits="userSpaceOnUse" gradientTransform="translate(779.021 354.851) rotate(105.627) scale(205.943 273.724)">
<stop stop-color="#005BFF"/>
<stop offset="0.13" stop-color="#004CD6"/>
<stop offset="0.37" stop-color="#00328B"/>
<stop offset="0.59" stop-color="#001C4F"/>
<stop offset="0.77" stop-color="#000D24"/>
<stop offset="0.92" stop-color="#00030A"/>
<stop offset="1"/>
</radialGradient>
<radialGradient id="paint12_radial_1304_5172" cx="0" cy="0" r="1" gradientUnits="userSpaceOnUse" gradientTransform="translate(1296.64 346.835) rotate(78.1736) scale(138.844 189.277)">
<stop stop-color="#005BFF"/>
<stop offset="0.13" stop-color="#004CD6"/>
<stop offset="0.37" stop-color="#00328B"/>
<stop offset="0.59" stop-color="#001C4F"/>
<stop offset="0.77" stop-color="#000D24"/>
<stop offset="0.92" stop-color="#00030A"/>
<stop offset="1"/>
</radialGradient>
<clipPath id="clip0_1304_5172">
<rect width="2100" height="701" fill="white"/>
</clipPath>
</defs>
</svg>
