<svg width="463" height="463" viewBox="0 0 463 463" fill="none" xmlns="http://www.w3.org/2000/svg">
<g opacity="0.7">
<g opacity="0.2">
<path style="mix-blend-mode:screen" d="M231.63 365.101C305.056 365.101 364.58 305.472 364.58 231.916C364.58 158.36 305.056 98.7305 231.63 98.7305C158.203 98.7305 98.6792 158.36 98.6792 231.916C98.6792 305.472 158.203 365.101 231.63 365.101Z" fill="url(#paint0_radial_1265_3557)"/>
<g style="mix-blend-mode:color-dodge" filter="url(#filter0_f_1265_3557)">
<path d="M332.115 277.842C357.487 222.172 333.006 156.438 277.434 131.021C221.862 105.604 156.244 130.129 130.872 185.798C105.5 241.468 129.981 307.202 185.553 332.619C241.124 358.037 306.743 333.512 332.115 277.842Z" fill="url(#paint1_radial_1265_3557)" fill-opacity="0.6" style="mix-blend-mode:color-dodge"/>
</g>
</g>
<path d="M232.477 307.922C276.136 307.922 311.529 272.466 311.529 228.73C311.529 184.994 276.136 149.539 232.477 149.539C188.818 149.539 153.426 184.994 153.426 228.73C153.426 272.466 188.818 307.922 232.477 307.922Z" fill="url(#paint2_linear_1265_3557)"/>
<g style="mix-blend-mode:multiply" opacity="0.5">
<path d="M221.67 291.935C229.312 285.148 227.921 271.074 218.563 260.5C209.205 249.926 195.423 246.856 187.781 253.644C180.139 260.431 181.53 274.505 190.888 285.079C200.247 295.653 214.028 298.723 221.67 291.935Z" fill="#9CBDFF"/>
</g>
<g style="mix-blend-mode:multiply" opacity="0.5">
<path d="M280.796 281.328C286.078 276.036 287.259 268.64 283.434 264.807C279.609 260.975 272.225 262.158 266.943 267.45C261.661 272.742 260.48 280.138 264.305 283.97C268.131 287.802 275.514 286.619 280.796 281.328Z" fill="#9CBDFF"/>
</g>
<g style="mix-blend-mode:multiply" opacity="0.5">
<path d="M280.288 254.639C278.319 258.376 274.52 260.233 271.819 258.812C269.119 257.39 268.524 253.194 270.492 249.434C272.46 245.674 276.259 243.84 278.96 245.262C281.661 246.683 282.256 250.879 280.288 254.639Z" fill="#9CBDFF"/>
</g>
<g style="mix-blend-mode:multiply" opacity="0.5">
<path d="M303.105 199.45C306.035 206.443 305.394 213.367 301.595 214.949C297.795 216.531 292.44 212.151 289.51 205.182C286.581 198.212 287.222 191.265 291.021 189.683C294.82 188.101 300.199 192.48 303.105 199.45Z" fill="#9CBDFF"/>
</g>
<g style="mix-blend-mode:multiply" opacity="0.5">
<path d="M178.898 249.846C180.546 252.276 180.477 255.211 178.738 256.426C176.998 257.641 174.16 256.655 172.535 254.133C170.91 251.611 170.933 248.768 172.696 247.553C174.458 246.338 177.227 247.415 178.898 249.846Z" fill="#9CBDFF"/>
</g>
<g style="mix-blend-mode:multiply" opacity="0.5">
<path d="M183.27 191.106C182.927 193.536 181.256 195.302 179.516 195.072C177.777 194.843 176.61 192.78 176.93 190.258C177.251 187.736 178.921 186.085 180.684 186.314C182.446 186.543 183.59 188.699 183.27 191.106Z" fill="#9CBDFF"/>
</g>
</g>
<defs>
<filter id="filter0_f_1265_3557" x="0.853638" y="0.984375" width="461.28" height="461.672" filterUnits="userSpaceOnUse" color-interpolation-filters="sRGB">
<feFlood flood-opacity="0" result="BackgroundImageFix"/>
<feBlend mode="normal" in="SourceGraphic" in2="BackgroundImageFix" result="shape"/>
<feGaussianBlur stdDeviation="60" result="effect1_foregroundBlur_1265_3557"/>
</filter>
<radialGradient id="paint0_radial_1265_3557" cx="0" cy="0" r="1" gradientUnits="userSpaceOnUse" gradientTransform="translate(231.225 230.056) rotate(123.461) scale(132.937 132.845)">
<stop stop-color="#005BFF"/>
<stop offset="0.13" stop-color="#004CD6"/>
<stop offset="0.37" stop-color="#00328B"/>
<stop offset="0.59" stop-color="#001C4F"/>
<stop offset="0.77" stop-color="#000D24"/>
<stop offset="0.92" stop-color="#00030A"/>
<stop offset="1"/>
</radialGradient>
<radialGradient id="paint1_radial_1265_3557" cx="0" cy="0" r="1" gradientUnits="userSpaceOnUse" gradientTransform="translate(230.894 231) rotate(123.493) scale(110.645 110.569)">
<stop stop-color="#4A9FFC"/>
<stop offset="1"/>
</radialGradient>
<linearGradient id="paint2_linear_1265_3557" x1="232.477" y1="307.922" x2="232.477" y2="149.539" gradientUnits="userSpaceOnUse">
<stop stop-color="#8BA7FF"/>
<stop offset="1" stop-color="#9CFFFF"/>
</linearGradient>
</defs>
</svg>
