<svg width="494" height="493" viewBox="0 0 494 493" fill="none" xmlns="http://www.w3.org/2000/svg">
<g opacity="0.7">
<g opacity="0.2">
<path style="mix-blend-mode:screen" d="M247.345 398.522C331.106 398.522 399.008 330.621 399.008 246.861C399.008 163.1 331.106 95.1992 247.345 95.1992C163.584 95.1992 95.6826 163.1 95.6826 246.861C95.6826 330.621 163.584 398.522 247.345 398.522Z" fill="url(#paint0_radial_1265_3229)"/>
<g style="mix-blend-mode:color-dodge" filter="url(#filter0_f_1265_3229)">
<path d="M361.973 299.159C390.917 235.766 362.99 160.913 299.597 131.97C236.204 103.027 161.35 130.954 132.407 194.346C103.463 257.739 131.39 332.592 194.783 361.535C258.176 390.478 333.03 362.551 361.973 299.159Z" fill="url(#paint1_radial_1265_3229)" fill-opacity="0.8" style="mix-blend-mode:color-dodge"/>
</g>
</g>
<path d="M248.312 333.409C298.116 333.409 338.49 293.035 338.49 243.232C338.49 193.428 298.116 153.055 248.312 153.055C198.508 153.055 158.134 193.428 158.134 243.232C158.134 293.035 198.508 333.409 248.312 333.409Z" fill="url(#paint2_linear_1265_3229)"/>
<g style="mix-blend-mode:multiply" opacity="0.5">
<path d="M235.984 315.203C244.702 307.474 243.115 291.447 232.439 279.406C221.764 267.365 206.043 263.87 197.325 271.599C188.607 279.328 190.194 295.355 200.87 307.395C211.545 319.436 227.266 322.932 235.984 315.203Z" fill="#9CBDFF"/>
</g>
<g style="mix-blend-mode:multiply" opacity="0.5">
<path d="M303.432 303.127C309.457 297.101 310.805 288.679 306.441 284.315C302.077 279.951 293.655 281.298 287.629 287.324C281.603 293.35 280.256 301.772 284.62 306.136C288.984 310.5 297.406 309.152 303.432 303.127Z" fill="#9CBDFF"/>
</g>
<g style="mix-blend-mode:multiply" opacity="0.5">
<path d="M302.852 272.733C300.606 276.989 296.272 279.103 293.191 277.485C290.111 275.866 289.432 271.088 291.677 266.806C293.923 262.525 298.256 260.436 301.337 262.055C304.418 263.673 305.097 268.451 302.852 272.733Z" fill="#9CBDFF"/>
</g>
<g style="mix-blend-mode:multiply" opacity="0.5">
<path d="M328.881 209.888C332.222 217.851 331.491 225.736 327.157 227.538C322.823 229.339 316.714 224.352 313.372 216.415C310.031 208.479 310.761 200.568 315.095 198.767C319.429 196.965 325.565 201.952 328.881 209.888Z" fill="#9CBDFF"/>
</g>
<g style="mix-blend-mode:multiply" opacity="0.5">
<path d="M187.192 267.272C189.072 270.04 188.994 273.382 187.009 274.765C185.025 276.149 181.787 275.026 179.934 272.155C178.08 269.283 178.106 266.045 180.117 264.662C182.127 263.278 185.286 264.505 187.192 267.272Z" fill="#9CBDFF"/>
</g>
<g style="mix-blend-mode:multiply" opacity="0.5">
<path d="M192.179 200.387C191.788 203.154 189.882 205.165 187.897 204.904C185.913 204.643 184.582 202.293 184.947 199.421C185.313 196.549 187.219 194.669 189.229 194.93C191.239 195.191 192.545 197.646 192.179 200.387Z" fill="#9CBDFF"/>
</g>
</g>
<defs>
<filter id="filter0_f_1265_3229" x="0.978027" y="0.542969" width="492.424" height="492.422" filterUnits="userSpaceOnUse" color-interpolation-filters="sRGB">
<feFlood flood-opacity="0" result="BackgroundImageFix"/>
<feBlend mode="normal" in="SourceGraphic" in2="BackgroundImageFix" result="shape"/>
<feGaussianBlur stdDeviation="60" result="effect1_foregroundBlur_1265_3229"/>
</filter>
<radialGradient id="paint0_radial_1265_3229" cx="0" cy="0" r="1" gradientUnits="userSpaceOnUse" gradientTransform="translate(246.883 244.743) rotate(123.508) scale(151.46 151.461)">
<stop stop-color="#005BFF"/>
<stop offset="0.13" stop-color="#004CD6"/>
<stop offset="0.37" stop-color="#00328B" stop-opacity="0.2"/>
<stop offset="0.59" stop-color="#001C4F" stop-opacity="0.4"/>
<stop offset="0.77" stop-color="#000D24" stop-opacity="0.5"/>
<stop offset="0.92" stop-color="#00030A" stop-opacity="0"/>
<stop offset="1" stop-opacity="0"/>
</radialGradient>
<radialGradient id="paint1_radial_1265_3229" cx="0" cy="0" r="1" gradientUnits="userSpaceOnUse" gradientTransform="translate(246.506 245.818) rotate(123.54) scale(126.063 126.063)">
<stop stop-color="#4A9FFC"/>
<stop offset="1"/>
<stop offset="1" stop-opacity="0"/>
</radialGradient>
<linearGradient id="paint2_linear_1265_3229" x1="248.312" y1="333.409" x2="248.312" y2="153.055" gradientUnits="userSpaceOnUse">
<stop stop-color="#8BA7FF"/>
<stop offset="1" stop-color="#9CFFFF"/>
</linearGradient>
</defs>
</svg>
