<svg width="1512" height="375" viewBox="0 0 1512 375" fill="none" xmlns="http://www.w3.org/2000/svg">
<g clip-path="url(#clip0_1265_3257)">
<mask id="mask0_1265_3257" style="mask-type:alpha" maskUnits="userSpaceOnUse" x="0" y="-124" width="1512" height="490">
<rect y="-123.516" width="1512" height="489" fill="#D9D9D9"/>
</mask>
<g mask="url(#mask0_1265_3257)">
<path d="M1512 95.7695H-2.74634V365.078H1512V95.7695Z" fill="url(#paint0_linear_1265_3257)"/>
<path d="M704.143 95.25L757.722 100.659L661.254 103.905H791.089C791.089 103.905 691.982 106.782 690.207 107.518C688.433 108.253 826.535 107.864 829.131 107.518C831.728 107.172 795.049 104.272 795.049 104.272C795.049 104.272 837.029 102.52 838.133 101.589C839.237 100.659 768.671 99.0364 768.671 99.0364L796.153 96.3318L704.143 95.25Z" fill="#7CE0FF"/>
<path d="M662.53 121.041C661.145 121.041 775.314 125.801 775.314 125.801C775.314 125.801 691.678 128.332 690.704 129.155C689.73 129.977 778.278 132.66 778.278 132.66C778.278 132.66 719.744 133.655 716.996 134.455C714.248 135.256 752.657 137.312 752.657 137.312C752.657 137.312 667.464 143.586 663.936 144.408C660.409 145.23 829.433 145.101 831.078 144.3C832.723 143.5 782.693 139.367 782.693 139.367C782.693 139.367 803.878 137.939 805.868 137.203C807.859 136.468 770.575 135.429 770.575 135.429C770.575 135.429 806.842 134.758 807.664 134.499C808.487 134.239 774.708 130.561 774.708 130.561C774.708 130.561 837.007 125.303 837.007 124.611C836.964 121.928 719.506 120.76 662.53 121.041Z" fill="#7CE0FF"/>
<path d="M690.834 161.976C690.834 161.976 759.647 152.045 878.663 161.781C878.576 161.781 764.061 165.2 690.834 161.976Z" fill="#7CE0FF"/>
<path d="M310.394 96.6774C310.394 96.6774 1067.49 91.6732 1322.01 96.0005C1322.01 96.0005 383.708 99.9228 310.394 96.6774Z" fill="#7CE0FF"/>
<path d="M685.23 223.424C685.23 223.424 754.065 220.308 873.059 223.424C873.059 223.424 758.566 224.419 685.23 223.424Z" fill="#7CE0FF"/>
<path d="M735.931 198.13C735.931 198.13 746.058 195.491 763.543 198.13C754.345 198.605 745.129 198.605 735.931 198.13Z" fill="#7CE0FF"/>
<path d="M784.663 247.095C784.663 247.095 794.768 244.455 812.274 247.095C803.077 247.57 793.86 247.57 784.663 247.095Z" fill="#7CE0FF"/>
<path d="M627.409 144.71C627.409 144.71 637.515 142.092 655.021 144.71C645.823 145.193 636.607 145.193 627.409 144.71Z" fill="#7CE0FF"/>
<path d="M629.682 247.095C629.682 247.095 683.434 244.455 776.353 247.095C776.353 247.03 686.94 247.939 629.682 247.095Z" fill="#7CE0FF"/>
<path d="M720.48 236.146C720.48 236.146 752.42 227.859 807.665 235.995C807.687 235.995 754.519 238.851 720.48 236.146Z" fill="#7CE0FF"/>
<path d="M580.475 222.342C580.475 222.342 612.414 214.034 667.659 222.169C667.551 222.169 614.405 225.047 580.475 222.342Z" fill="#7CE0FF"/>
<path d="M922.136 162.28C922.136 162.28 939.448 157.758 969.526 162.172C969.526 162.172 940.638 163.73 922.136 162.28Z" fill="#7CE0FF"/>
<path d="M720.48 172.231C720.48 172.231 756.293 167.103 807.665 172.079C807.687 172.079 754.519 174.935 720.48 172.231Z" fill="#7CE0FF"/>
<path style="mix-blend-mode:multiply" opacity="0.97" d="M1512 234.329L611.873 252.958L902.12 259.125L45.5741 273.188L547.41 253.759L-2.74634 236.774L1512 206.851V196.379H-2.74634V296.988H1512V234.329Z" fill="url(#paint1_linear_1265_3257)"/>
<path style="mix-blend-mode:screen" opacity="0.45" d="M-2.74634 167.949L1195.33 196.38H-2.74634V167.949Z" fill="url(#paint2_linear_1265_3257)"/>
<path style="mix-blend-mode:screen" opacity="0.25" d="M-2.74634 269.23L1195.33 297.682H-2.74634V269.23Z" fill="url(#paint3_linear_1265_3257)"/>
<path style="mix-blend-mode:screen" opacity="0.45" d="M1017.89 192.16L1480.08 197.158C1480.08 197.158 1311.45 172.817 1017.89 192.16Z" fill="url(#paint4_linear_1265_3257)"/>
<path style="mix-blend-mode:soft-light" opacity="0.6" d="M225.55 95.8707L547.409 107.366L1166.29 108.059L1280.85 94.6875L225.55 95.8707Z" fill="url(#paint5_radial_1265_3257)"/>
<g opacity="0.5">
<path style="mix-blend-mode:multiply" opacity="0.3" d="M327.945 375.485L318.142 338.898L319.527 329.421L348.654 291.687L363.109 294.132L362.784 312.285L376.59 270.246L363 262.543L328.096 268.298L304.748 263.019L309.335 303.241L308.491 324.077L327.945 375.485Z" fill="url(#paint6_linear_1265_3257)" fill-opacity="0.6"/>
<path style="mix-blend-mode:multiply" opacity="0.5" d="M329.524 267.477L331.32 314.146H346.965L362.784 312.286L346.165 311.355L331.904 313.259L330.563 277.364L329.524 267.477Z" fill="url(#paint7_linear_1265_3257)" fill-opacity="0.6"/>
<path style="mix-blend-mode:multiply" opacity="0.5" d="M339.76 266.372L348.653 291.687L363.108 294.132L369.643 291.405L362.784 297.226L347.16 293.612L342.811 276.043L341.058 276.108L337.855 266.242L339.76 266.372Z" fill="url(#paint8_linear_1265_3257)" fill-opacity="0.6"/>
<g style="mix-blend-mode:overlay" opacity="0.3">
<path d="M356.184 295.69L350.212 303.047H348.719L347.312 303.674L336.211 312.675L331.905 313.259L347.161 293.613L356.184 295.69Z" fill="#E0AE79"/>
</g>
<path opacity="0.6" d="M363.108 294.131L364.969 286.277H363.108H354.993L348.653 291.686L363.108 294.131Z" fill="url(#paint9_linear_1265_3257)" fill-opacity="0.6"/>
</g>
<path d="M376.59 269.771L357.201 235.044L341.816 212.824L327.945 207.891L308.491 238.138L309.335 250.385L304.748 262.999L329.524 271.415L363 274.293L376.59 269.771Z" fill="url(#paint10_linear_1265_3257)"/>
<path style="mix-blend-mode:multiply" opacity="0.5" d="M327.945 207.891L318.142 229.419L319.527 234.979L348.654 257.178L363.109 255.729L362.784 245.062L376.59 269.771L363 274.293L328.096 270.918L304.748 262.999L309.335 250.385L308.491 238.138L327.945 207.891Z" fill="url(#paint11_linear_1265_3257)"/>
<g opacity="0.2">
<path d="M1076.42 272.755L1072.36 286.342L1062.62 298.243L1057.53 292.509L1047.41 270.569L1057.58 269.574L1070 271.673L1076.42 272.755Z" fill="url(#paint12_linear_1265_3257)"/>
<path style="mix-blend-mode:multiply" opacity="0.5" d="M1076.42 272.755L1061.13 273.339L1058.03 272.82L1058.33 287.381L1062.62 298.243L1057.53 292.509L1047.41 270.569L1057.58 269.574L1076.42 272.755Z" fill="url(#paint13_linear_1265_3257)"/>
<g style="mix-blend-mode:overlay" opacity="0.5">
<path d="M1062.62 298.244L1072.36 286.344L1058.33 287.382L1062.62 298.244Z" fill="#E0AE79"/>
</g>
</g>
<path d="M1076.42 273.146L1072.36 265.163L1062.62 258.152L1057.53 261.528L1047.41 270.312L1057.58 275.007L1070 273.774L1076.42 273.146Z" fill="url(#paint14_linear_1265_3257)"/>
<path style="mix-blend-mode:multiply" opacity="0.5" d="M1076.42 273.146L1061.13 272.8L1058.03 273.103L1058.33 264.535L1062.62 258.152L1057.53 261.528L1047.41 270.312L1057.58 275.007L1076.42 273.146Z" fill="url(#paint15_linear_1265_3257)"/>
<path d="M357.201 235.044L362.784 245.062L326.69 236.645L318.142 229.419L327.945 207.891L341.815 212.824L357.201 235.044Z" fill="#005F9B"/>
<g style="mix-blend-mode:overlay" opacity="0.5">
<path d="M1062.62 258.152L1072.36 265.163L1058.33 264.535L1062.62 258.152Z" fill="#E0AE79"/>
</g>
<path style="mix-blend-mode:multiply" opacity="0.5" d="M329.524 271.414L331.32 243.957H346.965L362.784 245.06L346.165 245.601L331.904 244.476L330.563 265.593L329.524 271.414Z" fill="url(#paint16_linear_1265_3257)"/>
<path style="mix-blend-mode:multiply" opacity="0.5" d="M339.759 272.063L348.653 257.177L363.108 255.728L369.643 257.329L362.783 253.91L347.16 256.052L342.81 266.373L341.057 266.329L337.855 272.128L339.759 272.063Z" fill="url(#paint17_linear_1265_3257)"/>
<path d="M356.184 254.819L350.211 250.491H348.718L347.312 250.124L336.211 244.823L331.905 244.477L347.16 256.052L356.184 254.819Z" fill="#005F9B"/>
<path d="M363.108 255.727L364.969 260.357H363.108H354.993L348.653 257.176L363.108 255.727Z" fill="url(#paint18_linear_1265_3257)"/>
<path d="M63.3395 266.633L27.5266 265.703L38.2164 213.689L58.2976 197.461L46.2445 169.139L55.3979 113.642L73.4667 86.6394L112.071 77.379L128.755 18.0951L135.831 12.3398L139.834 22.1412L177.811 59.464L188.176 123.335L198.065 129.22L209.664 89.8632L216.415 79.1965L223.167 67.4262L238.574 87.8078L242.426 123.335L255.301 156.395L258.309 233.421L261.425 267.498L161.041 267.477L63.3395 266.633Z" fill="url(#paint19_linear_1265_3257)"/>
<path d="M128.756 18.0951V92.4163L135.226 98.6043V121.063V135.776L153.208 169.788L158.639 184.263L162.253 216.328L170.628 230.868L178.894 204.125L176.037 195.557L174.414 179.741L183.373 189.196L188.09 211.979L191.877 249.735L196.248 255.901L191.574 173.921L191.877 142.548L188.675 127.727L188.177 123.335L177.812 59.464L166.17 47.9967L165.153 67.859L167.75 108.492L162.491 70.1524L155.848 57.7547L153.359 35.4259L139.835 22.1412L135.832 12.3398L128.756 18.0951Z" fill="#005F9B"/>
<path style="mix-blend-mode:multiply" opacity="0.5" d="M223.167 67.4258L209.664 89.8628L198.065 129.219L188.176 123.334L191.877 142.548L196.248 255.901L199.948 267.498H212.217L212.499 204.709L221.241 169.398L216.567 216.328L226.456 232.598L238.358 267.498V236.969L236.324 216.328V175.954L231.39 170.718L221.587 167.473L228.49 132.681L226.456 134.131L220.808 164.617L223.167 67.4258Z" fill="url(#paint20_linear_1265_3257)"/>
<path d="M223.168 67.4258L216.568 90.0575V118.445L221.242 169.398L223.168 159.121L226.457 134.131L228.491 132.681L231.672 155.335V172.471L236.324 175.954V216.328L238.358 236.969V255.944V267.498H261.426L258.31 233.421L255.302 156.395L251.147 148.649L242.708 139.93L241.842 152.197L239.007 150.099V132.53V119.613L240.825 129.631L243.011 130.929L242.427 123.334L238.575 87.8073L223.168 67.4258Z" fill="#005F9B"/>
<path d="M73.4665 86.6393L72.0383 101.98L92.2926 132.53L103.458 134.131L115.36 143.219L112.114 134.131L115.36 124.114L112.071 77.3789L73.4665 86.6393Z" fill="#005F9B"/>
<path style="mix-blend-mode:multiply" opacity="0.5" d="M72.0385 101.978L92.2928 132.529L97.1616 153.3L103.459 134.13L115.36 143.217V184.262L127.37 209.944L118.823 144.883L115.36 124.112L112.59 78.784L128.755 18.0938V92.4149L126.504 127.444L135.225 98.603V135.774L131.438 160.57L142.474 205.011L158.639 184.262L162.252 216.327L170.627 230.867L155.544 267.432L27.5266 265.701L38.2164 213.687L59.4012 223.013L79.7853 228.357L58.2976 197.46L46.2445 169.138L55.3979 113.64L73.4667 86.638L72.0385 101.978Z" fill="url(#paint21_linear_1265_3257)"/>
<path d="M135.832 12.3398L139.835 22.1412L143.838 43.2151L144.487 75.3019L154.074 92.4163L148.447 67.3397L144.942 48.6891L154.074 38.2603L155.848 57.7548L162.491 70.1524L169.134 117.277L170.065 139.93V156.504L157.86 152.198L148.447 134.131L137.584 98.6044V108.492L135.226 135.776V98.6044L128.756 92.4163V18.0951L135.832 12.3398Z" fill="#007BA8"/>
<path d="M216.568 90.0575V118.445L219.186 110.288V118.445L228.491 132.681L226.803 114.961L230.958 106.934L229.205 96.0075L238.575 87.8073L223.168 67.4258L216.568 90.0575Z" fill="#007BA8"/>
<path d="M174.09 161.586L186.857 188.718L190.146 202.089L187.874 178.138L174.09 161.586Z" fill="#007BA8"/>
<path d="M112.59 78.7853L84.7405 88.8029L81.473 92.4162L84.9569 106.891L85.1733 111.911L87.1425 118.445L81.473 112.343L74.0724 105.052L89.5228 124.33L92.2926 132.53L72.0383 101.98L73.4665 86.6393L112.071 77.3789L112.59 78.7853Z" fill="#007BA8"/>
<path d="M236.324 175.953L239.007 217.798L242.708 223.315L246.495 239.283L251.428 255.9H255.215H260.365L261.426 267.497H238.358L237.493 225.63L236.324 216.327V175.953Z" fill="#007BA8"/>
<path d="M242.708 139.93L241.842 152.198V159.402L236.324 173.921V175.954L247.079 188.157V193.978L252.013 216.328V188.374V178.14L256.059 175.954L255.302 156.395L251.147 148.649L242.708 139.93Z" fill="#007BA8"/>
<path d="M111.746 266.807C119.954 265.622 128.231 264.972 136.523 264.859C144.508 265.27 202.826 267.997 202.826 267.997C202.826 267.997 114.083 267.521 111.746 266.807Z" fill="#1395FF" fill-opacity="0.2"/>
<path d="M684.689 178.141C685.771 178.011 684.018 177.838 682.525 177.751C681.573 177.751 680.361 177.643 679.365 177.751C677.98 177.751 677.894 177.989 678.045 178.141L678.413 178.508C678.413 178.508 678.565 178.617 679.063 178.66H680.556C683.109 178.66 685.533 178.508 687.632 178.357L684.689 178.141Z" fill="#1395FF"/>
<path d="M664.153 184.978C675.103 184.048 660.258 183.139 648.811 183.724C636.736 184.351 654.632 185.801 664.153 184.978Z" fill="#1395FF"/>
<path d="M889.093 178.399C885.306 178.118 879.897 178.032 875.331 178.183C874.573 178.637 875.569 179.135 879.118 179.438C883.438 179.787 887.78 179.787 892.101 179.438C895.087 179.092 892.101 178.443 887.254 178.486L889.093 178.399Z" fill="#1395FF"/>
<path d="M974.438 142.722C969.857 142.405 965.263 142.333 960.675 142.505C959.918 142.938 960.913 143.436 964.462 143.76C968.783 144.088 973.124 144.088 977.445 143.76C980.453 143.393 977.445 142.744 972.598 142.787L974.438 142.722Z" fill="#1395FF"/>
<path d="M1419.51 286.366C1413.35 285.89 1405.8 285.543 1397.68 285.349C1396.38 285.349 1395.02 285.349 1393.66 285.349C1391.74 285.334 1389.83 285.465 1387.94 285.738C1385.3 286.214 1387.14 286.798 1391.79 287.166C1396.45 287.534 1403.5 287.664 1409.82 287.534C1413.3 287.534 1416.74 287.339 1418.65 287.101C1420.55 286.863 1420.4 286.517 1417.65 286.344C1416.55 286.344 1416.01 286.474 1416.81 286.539L1419.51 286.366Z" fill="#7084CD"/>
<path d="M684.733 197.29C680.968 197.052 675.536 196.987 670.97 197.117C670.213 197.484 671.208 197.917 674.757 198.177C679.08 198.461 683.418 198.461 687.741 198.177C690.749 197.874 687.741 197.311 682.894 197.355L684.733 197.29Z" fill="#1395FF"/>
<path d="M383.059 137.573C379.272 137.335 373.862 137.248 369.297 137.4C368.539 137.767 369.535 138.2 373.083 138.46C377.407 138.744 381.744 138.744 386.067 138.46C389.053 138.157 386.067 137.594 381.22 137.638L383.059 137.573Z" fill="#1395FF"/>
<path d="M1125.96 121.322C1122.19 121.062 1116.76 120.998 1112.19 121.127C1111.44 121.517 1112.43 121.928 1115.98 122.209C1120.3 122.493 1124.64 122.493 1128.96 122.209C1131.95 121.906 1128.96 121.344 1124.12 121.365L1125.96 121.322Z" fill="#1395FF"/>
<path d="M1435.9 285.263C1434.1 285.154 1431.57 285.111 1429.4 285.154C1429.71 285.28 1430.03 285.36 1430.36 285.393C1431.22 285.443 1432.09 285.443 1432.95 285.393C1433.68 285.404 1434.41 285.317 1435.12 285.133H1435.7L1435.9 285.263Z" fill="#536BC3"/>
<path d="M1359.27 280.09C1358.17 280.09 1357.11 280.09 1355.83 280.09C1354.84 280.071 1353.85 280.114 1352.87 280.22C1352.63 280.22 1352.65 280.22 1352.87 280.372C1354.3 280.541 1355.75 280.599 1357.19 280.545C1358.88 280.545 1359.83 280.307 1359.1 280.177L1359.27 280.09Z" fill="#536BC3"/>
<path d="M1394.39 285.803C1390.62 285.565 1385.22 285.479 1380.63 285.63C1379.87 285.998 1380.87 286.431 1384.41 286.69C1388.74 286.974 1393.07 286.974 1397.4 286.69C1400.41 286.387 1397.4 285.825 1392.55 285.868L1394.39 285.803Z" fill="#1395FF"/>
<path d="M880.005 247.03C876.24 246.792 870.83 246.705 866.242 246.857C865.485 247.224 866.48 247.657 870.029 247.917C874.352 248.201 878.69 248.201 883.013 247.917C886.021 247.614 883.012 247.051 878.165 247.095L880.005 247.03Z" fill="#1395FF"/>
<path d="M892.339 221.26C888.574 221 883.164 220.935 878.577 221.065C877.819 221.454 878.815 221.887 882.364 222.147C886.687 222.431 891.024 222.431 895.347 222.147C898.355 221.844 895.347 221.281 890.5 221.325L892.339 221.26Z" fill="#1395FF"/>
<path d="M1370.31 277.517C1369.38 277.517 1369.68 277.712 1370.13 277.799C1370.59 277.885 1371.06 277.993 1370.35 278.08H1369.51C1369.04 278.09 1368.59 278.032 1368.14 277.907L1366.84 277.777C1365.83 277.777 1365.72 277.539 1366.61 277.409C1367.49 277.279 1368.38 277.409 1369.09 277.409C1369.81 277.409 1370.15 277.409 1369.96 277.582L1370.31 277.517Z" fill="#536BC3"/>
<path d="M1125.96 212.434C1122.19 212.196 1116.76 212.131 1112.19 212.261C1111.44 212.629 1112.43 213.062 1115.98 213.321C1120.3 213.605 1124.64 213.605 1128.96 213.321C1131.95 213.018 1128.96 212.456 1124.12 212.499L1125.96 212.434Z" fill="#1395FF"/>
<path d="M1142.08 216.091C1143.74 215.991 1145.41 215.991 1147.08 216.091C1148.01 216.242 1146.64 216.415 1145.37 216.523C1144.71 216.56 1144.05 216.56 1143.4 216.523C1141.64 216.523 1143.12 216.156 1141.49 216.069C1141.85 216.024 1142.2 216.024 1142.55 216.069L1142.08 216.091Z" fill="#1395FF"/>
<path d="M468.578 168.296C469.298 168.358 470.022 168.358 470.742 168.296C471.564 168.296 472.148 168.296 472.906 168.166C473.663 168.036 474.745 168.166 475.654 168.166C476.028 168.136 476.404 168.136 476.779 168.166C476.779 168.166 476.779 168.166 476.563 168.166C475.532 168.347 474.492 168.463 473.447 168.512C471.954 168.512 469.855 168.512 468.318 168.512C467.258 168.512 466.63 168.339 466.717 168.252C467.42 168.054 468.151 167.973 468.881 168.014L468.578 168.296Z" fill="#1395FF"/>
<path d="M1375.24 277.017C1375.93 276.779 1375.43 276.541 1373.9 276.325C1373.62 276.325 1373.27 276.325 1372.77 276.325C1372.05 276.316 1371.32 276.374 1370.61 276.498C1369.64 276.628 1367.43 276.693 1366.45 276.823C1365.48 276.952 1365.91 277.061 1366.17 277.191C1367.4 277.543 1368.68 277.675 1369.96 277.58C1370.87 277.576 1371.78 277.526 1372.69 277.428C1373.77 277.323 1374.85 277.142 1375.91 276.888L1375.24 277.017Z" fill="#7084CD"/>
<path d="M1418.56 282.188C1415.01 282.793 1413.26 283.486 1413.5 284.156C1413.5 284.265 1413.65 284.373 1414.23 284.481C1416.39 284.704 1418.56 284.805 1420.73 284.784C1425.96 284.883 1431.19 284.638 1436.39 284.048C1439.18 283.572 1438.56 283.01 1435.18 282.555C1432.53 282.239 1429.87 282.066 1427.2 282.036C1424.23 281.931 1421.26 282.033 1418.3 282.339C1419.22 282.426 1420.15 282.426 1421.07 282.339L1418.56 282.188Z" fill="#7084CD"/>
<path d="M920.21 232.209C916.661 232.815 914.93 233.507 915.168 234.178C915.168 234.178 915.298 234.394 915.904 234.503C918.06 234.726 920.228 234.827 922.396 234.806C927.635 234.905 932.876 234.659 938.084 234.07C940.875 233.594 940.248 233.031 936.872 232.577C934.214 232.269 931.541 232.102 928.866 232.079C925.898 231.974 922.926 232.075 919.972 232.382C920.893 232.469 921.821 232.469 922.742 232.382L920.21 232.209Z" fill="#1395FF"/>
<path d="M941.85 178.377C938.301 179.005 936.57 179.675 936.808 180.346C936.808 180.454 936.938 180.562 937.544 180.671C939.7 180.894 941.868 180.995 944.036 180.974C949.276 181.073 954.516 180.827 959.724 180.238C962.516 179.762 961.888 179.199 958.512 178.745C955.862 178.43 953.196 178.257 950.527 178.226C947.552 178.115 944.572 178.223 941.612 178.55C942.541 178.626 943.475 178.626 944.404 178.55L941.85 178.377Z" fill="#1395FF"/>
<path d="M1257.98 227.125C1254.43 227.752 1252.68 228.423 1252.91 229.094C1252.91 229.202 1253.06 229.332 1253.65 229.418C1255.81 229.641 1257.97 229.742 1260.14 229.721C1265.38 229.843 1270.62 229.597 1275.83 228.986C1278.6 228.531 1277.99 227.947 1274.6 227.493C1271.95 227.176 1269.28 227.003 1266.61 226.973C1263.64 226.874 1260.67 226.982 1257.72 227.298C1258.64 227.363 1259.57 227.363 1260.49 227.298L1257.98 227.125Z" fill="#1395FF"/>
<path d="M698.689 150.293C695.162 150.899 693.409 151.591 693.647 152.262C693.647 152.37 693.777 152.478 694.383 152.587C696.54 152.809 698.707 152.91 700.875 152.889C706.108 152.989 711.341 152.743 716.542 152.154C719.333 151.678 718.705 151.115 715.33 150.661C712.679 150.345 710.014 150.172 707.345 150.142C704.377 150.037 701.405 150.138 698.451 150.444C699.372 150.531 700.3 150.531 701.221 150.444L698.689 150.293Z" fill="#1395FF"/>
<path d="M965.372 197.159C961.823 197.786 960.092 198.457 960.33 199.128C960.33 199.236 960.459 199.366 961.065 199.452C963.222 199.675 965.389 199.776 967.557 199.755C972.79 199.865 978.024 199.619 983.224 199.02C986.015 198.544 985.388 197.981 982.012 197.527C979.362 197.212 976.696 197.039 974.027 197.008C971.059 196.896 968.086 197.004 965.134 197.332C966.056 197.397 966.981 197.397 967.903 197.332L965.372 197.159Z" fill="#1395FF"/>
<path d="M535.919 227.125C532.392 227.752 530.639 228.423 530.877 229.094C530.877 229.202 531.007 229.332 531.613 229.418C533.77 229.641 535.937 229.742 538.105 229.721C543.338 229.843 548.573 229.597 553.772 228.986C556.563 228.531 555.936 227.947 552.56 227.493C549.909 227.177 547.244 227.004 544.575 226.974C541.607 226.873 538.635 226.982 535.681 227.298C536.604 227.363 537.529 227.363 538.451 227.298L535.919 227.125Z" fill="#1395FF"/>
<path d="M286.18 141.984C282.631 142.612 280.879 143.282 281.117 143.953C281.117 144.061 281.268 144.191 281.852 144.278C284.009 144.5 286.176 144.602 288.344 144.581C293.584 144.702 298.827 144.456 304.032 143.845C306.802 143.391 306.197 142.806 302.799 142.352C300.149 142.035 297.483 141.862 294.814 141.833C291.846 141.733 288.874 141.841 285.92 142.157C286.843 142.222 287.768 142.222 288.69 142.157L286.18 141.984Z" fill="#1395FF"/>
<path d="M1040.11 168.252C1036.56 168.858 1034.81 169.528 1035.05 170.221C1035.05 170.221 1035.2 170.437 1035.79 170.524C1037.94 170.756 1040.11 170.865 1042.28 170.848C1047.52 170.954 1052.76 170.701 1057.97 170.091C1060.74 169.637 1060.13 169.052 1056.73 168.62C1054.08 168.294 1051.42 168.113 1048.75 168.079C1045.78 167.979 1042.81 168.088 1039.85 168.403C1040.78 168.49 1041.7 168.49 1042.62 168.403L1040.11 168.252Z" fill="#1395FF"/>
<path d="M633.966 168.036C630.417 168.663 628.686 169.334 628.924 170.004C628.924 170.113 629.054 170.242 629.66 170.329C631.816 170.552 633.983 170.653 636.151 170.632C641.384 170.753 646.619 170.507 651.818 169.896C654.61 169.442 653.982 168.858 650.607 168.403C647.956 168.088 645.29 167.915 642.621 167.884C639.653 167.783 636.681 167.892 633.728 168.209C634.65 168.274 635.576 168.274 636.498 168.209L633.966 168.036Z" fill="#1395FF"/>
<path d="M1022.24 170.351C1022.93 170.069 1022.43 169.788 1020.9 169.55C1020.52 169.52 1020.15 169.52 1019.77 169.55C1019.04 169.529 1018.32 169.601 1017.61 169.766C1016.63 169.918 1014.43 169.983 1013.45 170.134C1012.48 170.286 1012.91 170.416 1013.17 170.567C1014.39 170.982 1015.68 171.137 1016.96 171.021C1017.87 171.018 1018.78 170.953 1019.69 170.827C1020.78 170.712 1021.86 170.502 1022.91 170.199L1022.24 170.351Z" fill="#1395FF"/>
<path d="M838.219 190.625C838.76 190.625 838.782 190.734 838.37 190.798C837.959 190.863 837.267 190.798 836.596 190.798H835.449C834.648 190.798 834.324 190.669 834.822 190.582C835.621 190.525 836.424 190.525 837.224 190.582C837.981 190.582 838.262 190.734 837.873 190.798L838.219 190.625Z" fill="#1395FF"/>
<path d="M851.571 193.651C850.337 193.391 848.693 193.153 846.68 192.915H845.793C845.418 192.893 845.043 192.893 844.668 192.915C842.863 193.245 841.043 193.483 839.215 193.629H837.57C836.856 193.629 837.57 193.802 838.241 193.867C842.446 194.164 846.67 194.062 850.857 193.564L851.268 193.694L851.571 193.651Z" fill="#1395FF"/>
<path d="M832.117 178.941C832.918 178.941 833.286 179.093 833.048 179.179C832.334 179.312 831.609 179.37 830.884 179.353C830.381 179.422 829.872 179.422 829.369 179.353H829.672L831.684 179.05H832.182L832.117 178.941Z" fill="#1395FF"/>
<path d="M828.265 180.713C827.334 180.713 827.637 180.929 828.07 181.037C828.503 181.146 833.631 181.319 832.917 181.405H827.464C827.002 181.424 826.54 181.358 826.101 181.21C825.798 181.21 818.505 181.059 818.073 180.994C817.056 180.886 823.677 180.756 824.564 180.626C825.393 180.583 826.224 180.583 827.053 180.626C827.767 180.626 828.113 180.756 827.918 180.843L828.265 180.713Z" fill="#1395FF"/>
<path d="M832.117 184.48C828.352 184.199 821.86 184.632 819.306 184.74C818.549 185.173 818.593 185.216 822.141 185.519C826.463 185.846 830.803 185.846 835.125 185.519C838.111 185.173 835.125 184.502 830.277 184.545L832.117 184.48Z" fill="#1395FF"/>
<path d="M844.105 184.48H841.682C841.682 184.48 841.682 184.61 841.898 184.675C842.804 184.72 843.711 184.662 844.603 184.502L844.105 184.48Z" fill="#1395FF"/>
<path d="M842.071 191.921C842.79 192.002 843.516 192.002 844.235 191.921L846.399 191.77C847.2 191.77 848.238 191.77 849.147 191.77C849.525 191.771 849.901 191.808 850.272 191.878C850.272 191.878 850.272 191.878 850.056 191.986C849.028 192.195 847.987 192.333 846.94 192.397C845.231 192.484 843.52 192.484 841.811 192.397C840.751 192.397 840.124 192.202 840.21 192.094C840.863 191.868 841.554 191.772 842.244 191.813L842.071 191.921Z" fill="#1395FF"/>
<path d="M844.711 192.744C843.639 192.622 842.558 192.622 841.486 192.744C840.837 192.874 841.313 193.004 841.811 193.133C843.077 193.17 844.342 193.046 845.576 192.765L844.711 192.744Z" fill="#1395FF"/>
<path d="M635.805 179.22C634.734 179.098 633.652 179.098 632.581 179.22C631.932 179.35 632.408 179.48 632.906 179.61C634.171 179.648 635.437 179.524 636.671 179.242L635.805 179.22Z" fill="#1395FF"/>
<path d="M846.117 197.221C843.087 197.221 839.971 197.221 836.877 197.221H835.816C835.513 197.221 835.427 197.221 835.448 197.329C835.47 197.438 839.777 197.892 838.37 198.152C838.11 198.152 837.677 198.26 837.764 198.303C838.556 198.376 839.352 198.376 840.144 198.303C845.035 198.173 847.567 197.567 844.862 197.156H846.203L846.117 197.221Z" fill="#1395FF"/>
<path d="M679.041 161.026C676.011 161.026 672.895 161.026 669.801 161.026H668.74C668.437 161.026 668.351 161.026 668.372 161.134C668.394 161.242 672.7 161.697 671.294 161.956C671.055 161.956 670.601 161.956 670.688 162.108C671.479 162.181 672.276 162.181 673.068 162.108C677.959 161.978 680.49 161.372 677.785 160.961H679.127L679.041 161.026Z" fill="#1395FF"/>
<path d="M854.665 188.438C865.615 187.335 850.77 186.274 839.323 186.967C827.313 187.702 845.144 189.39 854.665 188.438Z" fill="#1395FF"/>
<path d="M853.129 146.008C864.078 144.905 849.234 143.845 837.765 144.537C825.669 145.273 843.499 146.96 853.129 146.008Z" fill="#1395FF"/>
<path d="M814.718 196.076C825.668 195.146 810.823 194.237 799.354 194.821C787.345 195.449 805.197 196.898 814.718 196.076Z" fill="#1395FF"/>
<path d="M560.286 134.714C571.235 133.783 556.39 132.853 544.943 133.459C532.869 134.086 550.764 135.536 560.286 134.714Z" fill="#1395FF"/>
<path d="M902.228 162.171C913.177 161.24 898.333 160.31 886.864 160.916C874.767 161.543 892.706 162.993 902.228 162.171Z" fill="#1395FF"/>
<path d="M514.085 169.01C514.626 169.01 514.648 169.14 514.236 169.183C513.825 169.226 513.133 169.183 512.462 169.183H511.228C510.406 169.183 510.103 169.032 510.601 168.945C511.393 168.888 512.189 168.888 512.981 168.945C513.76 168.945 514.042 169.097 513.652 169.183L514.085 169.01Z" fill="#1395FF"/>
<path d="M527.436 172.059C525.821 171.726 524.188 171.48 522.546 171.324C522.243 171.298 521.939 171.298 521.637 171.324C521.27 171.302 520.901 171.302 520.533 171.324C518.723 171.665 516.896 171.903 515.059 172.038C514.496 172.038 513.847 172.038 513.414 172.038C512.981 172.038 513.414 172.211 514.106 172.254C518.305 172.551 522.521 172.449 526.701 171.951L527.133 172.081L527.436 172.059Z" fill="#1395FF"/>
<path d="M517.916 170.308C518.634 170.398 519.361 170.398 520.08 170.308L522.244 170.156C523.066 170.156 524.105 170.156 524.992 170.156C525.373 170.115 525.758 170.115 526.139 170.156C526.139 170.156 526.139 170.156 525.923 170.264C524.888 170.475 523.839 170.612 522.785 170.675C521.084 170.773 519.379 170.773 517.678 170.675C516.618 170.675 515.969 170.481 516.055 170.373C516.751 170.136 517.486 170.041 518.219 170.091L517.916 170.308Z" fill="#1395FF"/>
<path d="M520.577 171.13C519.506 170.998 518.423 170.998 517.352 171.13C516.703 171.238 517.179 171.39 517.677 171.498C518.943 171.546 520.21 171.423 521.442 171.13H520.577Z" fill="#1395FF"/>
<path d="M644.657 169.118C643.586 168.987 642.503 168.987 641.433 169.118C640.784 169.226 641.259 169.378 641.757 169.486C643.023 169.523 644.288 169.399 645.523 169.118H644.657Z" fill="#1395FF"/>
<path d="M522.048 175.629C519.018 175.629 515.881 175.629 512.808 175.629H511.726C511.445 175.629 511.358 175.629 511.38 175.737C511.401 175.846 515.708 176.3 514.301 176.56C514.041 176.56 513.609 176.668 513.695 176.711C514.487 176.784 515.284 176.784 516.075 176.711C520.944 176.581 523.498 175.975 520.771 175.586H522.048V175.629Z" fill="#1395FF"/>
<path d="M1075.02 136.879C1071.99 136.879 1068.85 136.879 1065.78 136.879H1064.72C1064.41 136.879 1064.33 136.879 1064.35 136.987C1064.37 137.096 1068.68 137.55 1067.27 137.81C1067.01 137.81 1066.58 137.918 1066.66 137.961C1067.46 138.034 1068.25 138.034 1069.04 137.961C1073.94 137.831 1076.47 137.225 1073.76 136.836H1075.02V136.879Z" fill="#1395FF"/>
<path d="M530.532 166.822C541.481 165.74 526.636 164.659 515.167 165.351C503.158 166.087 521.01 167.774 530.532 166.822Z" fill="#1395FF"/>
<path d="M490.585 174.46C501.535 173.53 486.69 172.621 475.221 173.227C463.212 173.855 481.064 175.283 490.585 174.46Z" fill="#1395FF"/>
<path opacity="0.5" d="M643.228 319.099L654.048 318.32C654.048 318.32 646.777 318.623 643.228 319.099Z" fill="#1AFFFF"/>
<g opacity="0.16">
<path d="M66.7163 266.048C61.934 266.914 55.8966 265.075 52.4993 266.535C49.1019 267.996 47.955 269.7 43.8436 269.402C39.7321 269.105 58.753 270.051 61.8041 269.402C63.6815 268.953 65.3992 267.78 66.7163 266.048Z" fill="#151B3C"/>
<path opacity="0.3" d="M673.35 327.308C673.35 327.308 648.357 327.308 647.924 327.308C647.491 327.308 653.225 328.498 653.225 328.498C653.225 328.498 635.568 330.202 634.486 330.662C633.404 331.122 671.099 332.204 676.964 330.662C682.828 329.12 684.667 328.39 686.42 328.12C688.173 327.849 709.812 328.255 710.223 327.281C710.634 326.307 698.971 325.307 698.321 324.847C694.946 323.875 691.481 323.483 688.021 323.684C683.131 323.846 670.493 325.442 669.411 325.739C668.33 326.037 673.35 327.308 673.35 327.308Z" fill="#33B9F8"/>
<path d="M-28.648 325.823C-17.8503 324.762 -7.01264 324.482 3.81086 324.984C16.7944 325.904 13.7432 326.337 8.6147 326.796C3.48621 327.256 -33.6467 326.093 -28.648 325.823Z" fill="#171F40"/>
<path opacity="0.4" d="M124.038 308.754C126.231 307.715 128.606 307.426 130.919 307.915C133.689 308.835 133.083 309.268 131.936 309.755C130.789 310.241 122.956 309.024 124.038 308.754Z" fill="#171F40"/>
<path d="M18.2661 279.621C20.4671 278.582 22.8493 278.293 25.169 278.782C27.9172 279.729 27.3329 280.162 26.186 280.622C25.0391 281.081 17.2058 279.891 18.2661 279.621Z" fill="#171F40"/>
<path d="M42.6533 308.402C42.6533 308.402 24.1517 309.863 24.3032 310.945C24.4546 312.027 75.9994 313.487 75.8912 313.19C75.783 312.892 66.1318 309.295 66.1318 309.295C66.1318 309.295 48.1497 308.727 42.6533 308.402Z" fill="#171F40"/>
<path opacity="0.4" d="M533.019 315.571C532.153 314.976 655.648 304.942 655.648 304.942C655.648 304.942 574.566 302.399 574.566 303.481C574.566 304.563 593.457 306.024 592.007 308.214C590.557 310.405 503.698 307.106 500.885 309.648C498.071 312.19 517.417 315.571 517.417 315.571C517.417 315.571 535.94 317.627 531.85 319.439C527.761 321.251 422.334 325.254 419.326 324.848C416.319 324.443 392.537 319.439 392.537 319.439C391.087 319.439 318.531 319.087 317.103 318.357C315.674 317.627 295.766 315.49 298.471 315.22C301.176 314.949 408.312 307.836 408.593 306.024C408.874 304.212 357.481 306.375 351.379 305.645C345.277 304.915 258.698 300.939 255.214 300.587C251.73 300.236 245.325 293.312 236.626 291.581C227.927 289.849 162.014 286.171 162.014 286.171C162.014 286.171 188.371 280.031 185.817 279.896C183.264 279.761 104.064 275.974 71.6488 278.517C36.1388 281.221 10.756 283.304 7.96453 283.439C5.17307 283.575 -5.1921 281.762 -10.4072 282.06C-15.6222 282.357 -36.8936 282.06 -36.8936 282.06C-31.0042 283.956 -25.0376 285.455 -19.0195 286.55C-15.3792 286.64 -11.7442 286.158 -8.19991 285.116C-8.19991 285.116 23.6096 284.521 34.5591 285.116C45.5085 285.711 65.46 291.067 63.8804 291.689C62.3007 292.311 3.29043 290.661 18.2215 295.502C33.1526 300.344 126.245 299.776 128.711 299.722C131.178 299.668 154.138 302.751 157.21 303.319C160.283 303.887 183.762 306.294 185.514 307.106C187.267 307.917 200.121 312.515 200.121 312.515C200.121 312.515 105.557 309.81 100.58 315.734C99.6066 316.843 166.645 318.628 166.645 318.628C166.645 318.628 172.315 320.521 171.644 321.062C170.973 321.603 116.096 322.712 116.096 322.712C116.096 322.712 164.265 323.794 166.212 324.335C168.16 324.875 174.435 332.449 190.015 332.259C205.596 332.07 215.117 332.503 232.969 332.259C233.662 332.259 231.022 335.397 230.351 336.749C229.68 338.102 300.743 341.023 299.596 342.943C298.449 344.863 172.336 349.272 172.336 349.272H788.557C788.557 349.272 629.703 320.737 627.388 318.547C625.072 316.356 533.906 316.247 533.019 315.571ZM120.142 283.493C120.142 286.198 96.7503 284.575 96.5772 283.061C96.5772 280.762 120.186 280.41 120.142 283.575V283.493ZM69.9177 291.608C69.5931 290.039 78.054 287.334 92.6605 287.848C92.6605 287.848 134.77 291.364 134.814 292.121C134.857 292.879 70.199 293.203 69.9177 291.662V291.608ZM164.784 294.664C152.125 294.204 138.492 293.501 138.189 292.338C137.886 291.175 167.684 289.173 167.684 289.173C167.684 289.173 220.354 291.148 222.691 292.608C225.028 294.069 179.91 295.259 164.784 294.718V294.664ZM359.04 331.286C358.542 328.797 380.462 324.821 393.359 327.364C393.359 327.364 404.179 327.688 404.179 328.906C404.179 330.123 359.516 333.774 359.04 331.34V331.286ZM469.941 331.421C469.941 329.014 493.549 328.581 493.506 331.854C493.462 334.504 470.114 332.963 469.941 331.475V331.421ZM541.155 318.357C541.371 318.06 551.455 317.708 551.282 318.357C551.109 319.006 540.939 318.682 541.155 318.411V318.357Z" fill="url(#paint22_linear_1265_3257)"/>
<path opacity="0.7" d="M812.425 348.783H1009.34C1009.34 348.783 977.965 340.804 963.727 338.992C949.488 337.18 941.07 333.907 929.45 331.635C917.83 329.363 851.289 327.01 852.177 325.712C853.064 324.414 895.823 321.736 894.676 319.843C893.529 317.949 836.575 317.787 822.617 318.571C814.438 319.031 765.381 322.358 765.381 322.358C765.381 322.358 825.733 330.634 826.318 332.203C826.902 333.772 821.362 336.071 823.396 338.613C825.43 341.156 837.635 339.344 836.185 340.804C834.735 342.265 812.425 348.783 812.425 348.783Z" fill="url(#paint23_linear_1265_3257)"/>
<path style="mix-blend-mode:screen" opacity="0.4" d="M686.896 349.32C686.896 349.32 661.124 345.777 638.467 344.939C615.811 344.1 587.723 344.56 585.97 343.181C584.218 341.801 681.746 334.498 683.347 333.471C684.948 332.443 643.379 335.039 641.713 333.471C641.237 333.011 642.016 332.686 643.336 332.389C625.311 334.012 589.238 337.257 568.551 339.313C555.286 339.313 544.488 337.365 544.899 336.608C545.548 335.283 599.408 330.306 596.011 329.495C594.929 329.224 496.903 332.037 499.327 333.417C500.409 334.012 521.096 336.527 533.777 342.396C499.868 343.478 453.885 344.885 446.332 345.101C434.128 345.371 412.078 342.667 413.073 341.287C414.068 339.908 439.43 342.477 441.68 342.288C443.93 342.099 450.617 342.288 458.45 341.936C466.284 341.585 468.037 340.855 467.106 340.476C463.594 339.15 459.954 338.422 456.286 338.312C452.803 338.664 449.6 340.124 447.284 340.395C444.969 340.665 442.351 341.017 441.55 341.017C440.75 341.017 363.822 338.853 362.091 340.205C360.36 341.558 373.581 345.128 373.581 345.128L304.076 349.483L686.896 349.32Z" fill="url(#paint24_linear_1265_3257)"/>
<path style="mix-blend-mode:screen" opacity="0.45" d="M360.75 336.182C360.75 336.182 322.535 332.287 319.051 332.179C315.567 332.071 274.885 331.719 270.968 331.422C267.052 331.124 311.65 327.31 312.797 326.607C313.944 325.904 285.921 325.336 285.337 324.795C284.753 324.254 310.049 322.983 310.049 322.983L226.651 321.522C226.651 321.522 204.147 322.983 199.927 323.172C195.707 323.362 182.615 321.522 182.615 321.522L235.177 320.63C235.177 320.63 311.629 318.115 317.147 318.439L310.655 321.144L280.749 319.791C280.749 319.791 332.684 321.685 337.834 322.767C342.984 323.849 332.316 325.147 332.316 325.147C332.316 325.147 316.476 325.769 315.891 327.283C315.307 328.798 360.641 333.667 360.641 333.667L392.04 334.748L360.75 336.182Z" fill="url(#paint25_linear_1265_3257)"/>
</g>
<path d="M867.086 188.395C867.086 188.395 885.739 185.625 921.833 188.395C921.833 188.395 901.298 192.657 867.086 188.395Z" fill="#1395FF"/>
<path d="M135.832 12.3398L141.631 31.5963H144.488L177.812 59.464L188.177 123.335L179.024 58.7284L142.583 23.8288L135.832 12.3398Z" fill="#7CE0FF"/>
<path d="M223.167 67.4258L236.323 89.7762L242.858 124.633L238.574 87.8073L223.167 67.4258Z" fill="#7CE0FF"/>
<path d="M245.477 131.168L252.964 156.504L258.309 233.422L255.301 156.396L245.477 131.168Z" fill="#7CE0FF"/>
<path d="M327.945 207.891L338.981 214.771L362.849 246.685L368.735 255.729L359.712 238.939L341.816 212.824L327.945 207.891Z" fill="#7CE0FF"/>
<path style="mix-blend-mode:multiply" opacity="0.97" d="M1512 134.133L695.487 156.505L1512 150.447V134.133Z" fill="url(#paint26_linear_1265_3257)"/>
<path style="mix-blend-mode:screen" opacity="0.45" d="M1480.08 150.661C1480.08 150.661 1017.89 165.352 716.217 167.45C423.114 169.506 115.383 161.565 115.383 161.565L695.509 156.481L443.541 139.907L1176.59 132.551L310.828 110.309C310.828 110.309 1117.63 125.562 1438.23 134.109L902.899 154.187L1480.08 150.661Z" fill="url(#paint27_linear_1265_3257)"/>
</g>
</g>
<defs>
<linearGradient id="paint0_linear_1265_3257" x1="754.627" y1="365.078" x2="754.627" y2="95.7695" gradientUnits="userSpaceOnUse">
<stop stop-color="#0C1226"/>
<stop offset="0.42" stop-color="#0F1836"/>
<stop offset="1" stop-color="#0052A4"/>
</linearGradient>
<linearGradient id="paint1_linear_1265_3257" x1="-2.74634" y1="246.684" x2="1512" y2="246.684" gradientUnits="userSpaceOnUse">
<stop stop-color="#B67AE7"/>
<stop offset="1" stop-color="#FFEBC4"/>
</linearGradient>
<linearGradient id="paint2_linear_1265_3257" x1="-2.74634" y1="182.164" x2="1195.33" y2="182.164" gradientUnits="userSpaceOnUse">
<stop/>
<stop offset="1" stop-color="#3B549A"/>
</linearGradient>
<linearGradient id="paint3_linear_1265_3257" x1="-2.74634" y1="283.467" x2="1195.33" y2="283.467" gradientUnits="userSpaceOnUse">
<stop/>
<stop offset="1" stop-color="#3B549A"/>
</linearGradient>
<linearGradient id="paint4_linear_1265_3257" x1="1017.89" y1="190.926" x2="1480.08" y2="190.926" gradientUnits="userSpaceOnUse">
<stop/>
<stop offset="1" stop-color="#3B549A"/>
</linearGradient>
<radialGradient id="paint5_radial_1265_3257" cx="0" cy="0" r="1" gradientUnits="userSpaceOnUse" gradientTransform="translate(753.371 101.373) scale(373.017 372.969)">
<stop stop-color="#FFFFB5"/>
<stop offset="0.99" stop-color="#FA8374"/>
</radialGradient>
<linearGradient id="paint6_linear_1265_3257" x1="348.366" y1="263.613" x2="328.749" y2="379.019" gradientUnits="userSpaceOnUse">
<stop stop-color="#5C3856"/>
<stop offset="0.26" stop-color="#655378"/>
<stop offset="0.57" stop-color="#6E6E99"/>
<stop offset="0.83" stop-color="#737EAE"/>
<stop offset="1" stop-color="#7584B5"/>
</linearGradient>
<linearGradient id="paint7_linear_1265_3257" x1="329.524" y1="290.801" x2="362.784" y2="290.801" gradientUnits="userSpaceOnUse">
<stop stop-color="#5C3856"/>
<stop offset="0.26" stop-color="#655378"/>
<stop offset="0.57" stop-color="#6E6E99"/>
<stop offset="0.83" stop-color="#737EAE"/>
<stop offset="1" stop-color="#7584B5"/>
</linearGradient>
<linearGradient id="paint8_linear_1265_3257" x1="337.855" y1="281.734" x2="369.643" y2="281.734" gradientUnits="userSpaceOnUse">
<stop stop-color="#5C3856"/>
<stop offset="0.26" stop-color="#655378"/>
<stop offset="0.57" stop-color="#6E6E99"/>
<stop offset="0.83" stop-color="#737EAE"/>
<stop offset="1" stop-color="#7584B5"/>
</linearGradient>
<linearGradient id="paint9_linear_1265_3257" x1="364.969" y1="290.739" x2="348.653" y2="290.739" gradientUnits="userSpaceOnUse">
<stop stop-color="#00003B"/>
<stop offset="0.59" stop-color="#00104F"/>
<stop offset="1" stop-color="#001656"/>
</linearGradient>
<linearGradient id="paint10_linear_1265_3257" x1="348.928" y1="280.455" x2="341.973" y2="210.894" gradientUnits="userSpaceOnUse">
<stop stop-color="#00003B"/>
<stop offset="0.59" stop-color="#00104F"/>
<stop offset="1" stop-color="#001656"/>
</linearGradient>
<linearGradient id="paint11_linear_1265_3257" x1="348.928" y1="280.455" x2="341.973" y2="210.894" gradientUnits="userSpaceOnUse">
<stop stop-color="#5C3856"/>
<stop offset="0.26" stop-color="#655378"/>
<stop offset="0.57" stop-color="#6E6E99"/>
<stop offset="0.83" stop-color="#737EAE"/>
<stop offset="1" stop-color="#7584B5"/>
</linearGradient>
<linearGradient id="paint12_linear_1265_3257" x1="1072.81" y1="276.543" x2="1068.22" y2="303.537" gradientUnits="userSpaceOnUse">
<stop stop-color="#00003B"/>
<stop offset="0.59" stop-color="#00104F"/>
<stop offset="1" stop-color="#001656"/>
</linearGradient>
<linearGradient id="paint13_linear_1265_3257" x1="1072.81" y1="276.543" x2="1068.22" y2="303.537" gradientUnits="userSpaceOnUse">
<stop stop-color="#5C3856"/>
<stop offset="0.26" stop-color="#655378"/>
<stop offset="0.57" stop-color="#6E6E99"/>
<stop offset="0.83" stop-color="#737EAE"/>
<stop offset="1" stop-color="#7584B5"/>
</linearGradient>
<linearGradient id="paint14_linear_1265_3257" x1="1073.06" y1="278.134" x2="1071.43" y2="261.863" gradientUnits="userSpaceOnUse">
<stop stop-color="#00003B"/>
<stop offset="0.59" stop-color="#00104F"/>
<stop offset="1" stop-color="#001656"/>
</linearGradient>
<linearGradient id="paint15_linear_1265_3257" x1="1073.06" y1="278.134" x2="1071.43" y2="261.863" gradientUnits="userSpaceOnUse">
<stop stop-color="#5C3856"/>
<stop offset="0.26" stop-color="#655378"/>
<stop offset="0.57" stop-color="#6E6E99"/>
<stop offset="0.83" stop-color="#737EAE"/>
<stop offset="1" stop-color="#7584B5"/>
</linearGradient>
<linearGradient id="paint16_linear_1265_3257" x1="329.524" y1="257.675" x2="362.784" y2="257.675" gradientUnits="userSpaceOnUse">
<stop stop-color="#5C3856"/>
<stop offset="0.26" stop-color="#655378"/>
<stop offset="0.57" stop-color="#6E6E99"/>
<stop offset="0.83" stop-color="#737EAE"/>
<stop offset="1" stop-color="#7584B5"/>
</linearGradient>
<linearGradient id="paint17_linear_1265_3257" x1="337.855" y1="263.019" x2="369.643" y2="263.019" gradientUnits="userSpaceOnUse">
<stop stop-color="#5C3856"/>
<stop offset="0.26" stop-color="#655378"/>
<stop offset="0.57" stop-color="#6E6E99"/>
<stop offset="0.83" stop-color="#737EAE"/>
<stop offset="1" stop-color="#7584B5"/>
</linearGradient>
<linearGradient id="paint18_linear_1265_3257" x1="364.969" y1="258.042" x2="348.653" y2="258.042" gradientUnits="userSpaceOnUse">
<stop stop-color="#00003B"/>
<stop offset="0.59" stop-color="#00104F"/>
<stop offset="1" stop-color="#001656"/>
</linearGradient>
<linearGradient id="paint19_linear_1265_3257" x1="144.487" y1="267.498" x2="144.487" y2="12.3398" gradientUnits="userSpaceOnUse">
<stop stop-color="#00003B"/>
<stop offset="0.59" stop-color="#00104F"/>
<stop offset="1" stop-color="#001656"/>
</linearGradient>
<linearGradient id="paint20_linear_1265_3257" x1="213.256" y1="267.498" x2="213.256" y2="67.4258" gradientUnits="userSpaceOnUse">
<stop stop-color="#5C3856"/>
<stop offset="0.26" stop-color="#655378"/>
<stop offset="0.57" stop-color="#6E6E99"/>
<stop offset="0.83" stop-color="#737EAE"/>
<stop offset="1" stop-color="#7584B5"/>
</linearGradient>
<linearGradient id="paint21_linear_1265_3257" x1="99.0875" y1="267.432" x2="99.0875" y2="18.0938" gradientUnits="userSpaceOnUse">
<stop stop-color="#5C3856"/>
<stop offset="0.26" stop-color="#655378"/>
<stop offset="0.57" stop-color="#6E6E99"/>
<stop offset="0.83" stop-color="#737EAE"/>
<stop offset="1" stop-color="#7584B5"/>
</linearGradient>
<linearGradient id="paint22_linear_1265_3257" x1="255.409" y1="315.166" x2="1039.01" y2="322.662" gradientUnits="userSpaceOnUse">
<stop stop-color="#141A3B"/>
<stop offset="0.99" stop-color="#1DA1F2"/>
</linearGradient>
<linearGradient id="paint23_linear_1265_3257" x1="255.301" y1="324.792" x2="1038.92" y2="332.289" gradientUnits="userSpaceOnUse">
<stop stop-color="#001252"/>
<stop offset="0.99" stop-color="#005F9B"/>
</linearGradient>
<linearGradient id="paint24_linear_1265_3257" x1="303.968" y1="339.34" x2="686.896" y2="339.34" gradientUnits="userSpaceOnUse">
<stop stop-color="#141D3A"/>
<stop offset="1" stop-color="#139CFF"/>
</linearGradient>
<linearGradient id="paint25_linear_1265_3257" x1="182.637" y1="327.311" x2="392.148" y2="327.311" gradientUnits="userSpaceOnUse">
<stop/>
<stop offset="1" stop-color="#3B549A"/>
</linearGradient>
<linearGradient id="paint26_linear_1265_3257" x1="695.487" y1="145.319" x2="1512" y2="145.319" gradientUnits="userSpaceOnUse">
<stop stop-color="#B67AE7"/>
<stop offset="1" stop-color="#FFEBC4"/>
</linearGradient>
<linearGradient id="paint27_linear_1265_3257" x1="115.361" y1="139.042" x2="1480.08" y2="139.042" gradientUnits="userSpaceOnUse">
<stop/>
<stop offset="1" stop-color="#3B549A"/>
</linearGradient>
<clipPath id="clip0_1265_3257">
<rect width="1512" height="375" fill="white"/>
</clipPath>
</defs>
</svg>
