<svg width="475" height="404" viewBox="0 0 475 404" fill="none" xmlns="http://www.w3.org/2000/svg">
<g clip-path="url(#clip0_1307_10488)">
<mask id="mask0_1307_10488" style="mask-type:alpha" maskUnits="userSpaceOnUse" x="-171" y="-107" width="1516" height="492">
<rect x="-171" y="-106.148" width="1516" height="490.294" fill="#D9D9D9"/>
</mask>
<g mask="url(#mask0_1307_10488)">
<path d="M702.725 106.48H-222.31V380H702.725V106.48Z" fill="url(#paint0_linear_1307_10488)"/>
<path d="M209.378 105.953L242.098 111.447L183.186 114.743H262.475C262.475 114.743 201.951 117.666 200.867 118.413C199.784 119.16 284.121 118.764 285.706 118.413C287.292 118.061 264.893 115.117 264.893 115.117C264.893 115.117 290.53 113.337 291.204 112.392C291.878 111.447 248.784 109.799 248.784 109.799L265.567 107.052L209.378 105.953Z" fill="#7CE0FF"/>
<path d="M183.965 132.147C183.12 132.147 252.841 136.981 252.841 136.981C252.841 136.981 201.766 139.552 201.171 140.388C200.576 141.223 254.651 143.947 254.651 143.947C254.651 143.947 218.905 144.958 217.227 145.771C215.549 146.584 239.005 148.672 239.005 148.672C239.005 148.672 186.978 155.045 184.824 155.88C182.67 156.715 285.891 156.583 286.895 155.77C287.9 154.957 257.347 150.76 257.347 150.76C257.347 150.76 270.284 149.309 271.5 148.562C272.716 147.815 249.947 146.76 249.947 146.76C249.947 146.76 272.095 146.079 272.597 145.815C273.099 145.552 252.471 141.816 252.471 141.816C252.471 141.816 290.516 136.476 290.516 135.773C290.49 133.048 218.76 131.861 183.965 132.147Z" fill="#7CE0FF"/>
<path d="M201.25 173.718C201.25 173.718 243.273 163.631 315.954 173.52C315.902 173.52 245.969 176.992 201.25 173.718Z" fill="#7CE0FF"/>
<path d="M-31.0791 106.276C-31.0791 106.276 431.267 103.505 586.7 105.902C586.7 105.902 13.6926 108.073 -31.0791 106.276Z" fill="#7CE0FF"/>
<path d="M197.828 236.137C197.828 236.137 239.864 232.972 312.532 236.137C312.532 236.137 242.613 237.148 197.828 236.137Z" fill="#7CE0FF"/>
<path d="M228.791 210.442C228.791 210.442 234.975 207.761 245.653 210.442C240.036 210.924 234.407 210.924 228.791 210.442V210.442Z" fill="#7CE0FF"/>
<path d="M258.55 260.172C258.55 260.172 264.721 257.491 275.412 260.172C269.795 260.655 264.167 260.655 258.55 260.172V260.172Z" fill="#7CE0FF"/>
<path d="M162.518 156.19C162.518 156.19 168.689 153.531 179.38 156.19C173.763 156.68 168.134 156.68 162.518 156.19V156.19Z" fill="#7CE0FF"/>
<path d="M163.906 260.172C163.906 260.172 196.731 257.491 253.475 260.172C253.475 260.106 198.872 261.029 163.906 260.172Z" fill="#7CE0FF"/>
<path d="M219.355 249.048C219.355 249.048 238.86 240.632 272.597 248.894C272.611 248.894 240.142 251.795 219.355 249.048Z" fill="#7CE0FF"/>
<path d="M133.855 235.033C133.855 235.033 153.36 226.595 187.098 234.858C187.032 234.858 154.576 237.78 133.855 235.033Z" fill="#7CE0FF"/>
<path d="M342.503 174.031C342.503 174.031 353.075 169.438 371.444 173.921C371.444 173.921 353.802 175.503 342.503 174.031Z" fill="#7CE0FF"/>
<path d="M219.355 184.138C219.355 184.138 241.225 178.93 272.597 183.984C272.611 183.984 240.142 186.885 219.355 184.138Z" fill="#7CE0FF"/>
<path style="mix-blend-mode:multiply" opacity="0.97" d="M702.725 247.208L153.03 266.128L330.28 272.391L-192.801 286.674L113.663 266.941L-222.31 249.691L702.725 219.3V208.664H-222.31V310.847H702.725V247.208Z" fill="url(#paint1_linear_1307_10488)"/>
<path style="mix-blend-mode:screen" opacity="0.45" d="M-222.31 179.793L509.34 208.668H-222.31V179.793Z" fill="url(#paint2_linear_1307_10488)"/>
<path style="mix-blend-mode:screen" opacity="0.25" d="M-222.31 282.656L509.34 311.553H-222.31V282.656Z" fill="url(#paint3_linear_1307_10488)"/>
<path style="mix-blend-mode:screen" opacity="0.45" d="M400.978 204.382L683.233 209.458C683.233 209.458 580.25 184.737 400.978 204.382Z" fill="url(#paint4_linear_1307_10488)"/>
<path style="mix-blend-mode:soft-light" opacity="0.6" d="M-82.8923 106.382L113.663 116.087L491.605 116.672L561.564 105.383L-82.8923 106.382Z" fill="url(#paint5_radial_1307_10488)"/>
<g opacity="0.5">
<path style="mix-blend-mode:multiply" opacity="0.3" d="M-20.3613 390.571L-26.3476 353.412L-25.5019 343.787L-7.7148 305.463L1.11268 307.946L0.914448 326.383L9.34549 283.686L1.0466 275.863L-20.2688 281.709L-34.5276 276.347L-31.7261 317.198L-32.2414 338.359L-20.3613 390.571Z" fill="url(#paint6_linear_1307_10488)" fill-opacity="0.6"/>
<path style="mix-blend-mode:multiply" opacity="0.5" d="M-19.3967 280.875L-18.2999 328.274H-8.74562L0.914389 326.385L-9.23456 325.44L-17.9431 327.374L-18.7624 290.917L-19.3967 280.875Z" fill="url(#paint7_linear_1307_10488)" fill-opacity="0.6"/>
<path style="mix-blend-mode:multiply" opacity="0.5" d="M-13.1462 279.749L-7.71492 305.459L1.11257 307.943L5.10342 305.174L0.914333 311.085L-8.62674 307.415L-11.2829 289.572L-12.3533 289.638L-14.3091 279.617L-13.1462 279.749Z" fill="url(#paint8_linear_1307_10488)" fill-opacity="0.6"/>
<path opacity="0.6" d="M1.1124 307.949L2.24887 299.973H1.1124H-3.84315L-7.71509 305.466L1.1124 307.949Z" fill="url(#paint9_linear_1307_10488)" fill-opacity="0.6"/>
</g>
<g opacity="0.2">
<path d="M436.725 286.226L434.24 300.027L428.294 312.113L425.188 306.289L419.004 284.007L425.215 282.996L432.8 285.128L436.725 286.226Z" fill="url(#paint10_linear_1307_10488)"/>
<path style="mix-blend-mode:multiply" opacity="0.5" d="M436.725 286.226L427.382 286.82L425.492 286.292L425.677 301.081L428.294 312.113L425.188 306.289L419.004 284.007L425.215 282.996L436.725 286.226Z" fill="url(#paint11_linear_1307_10488)"/>
<g style="mix-blend-mode:overlay" opacity="0.5">
<path d="M428.293 312.11L434.24 300.023L425.677 301.078L428.293 312.11Z" fill="#E0AE79"/>
</g>
</g>
<path d="M436.725 286.627L434.24 278.518L428.294 271.398L425.188 274.826L419.004 283.748L425.215 288.517L432.8 287.264L436.725 286.627Z" fill="url(#paint12_linear_1307_10488)"/>
<path style="mix-blend-mode:multiply" opacity="0.5" d="M436.725 286.627L427.382 286.275L425.492 286.583L425.677 277.881L428.294 271.398L425.188 274.826L419.004 283.748L425.215 288.517L436.725 286.627Z" fill="url(#paint13_linear_1307_10488)"/>
<g style="mix-blend-mode:overlay" opacity="0.5">
<path d="M428.294 271.402L434.24 278.522L425.677 277.885L428.294 271.402Z" fill="#E0AE79"/>
</g>
<path d="M197.497 190.144C198.158 190.012 197.088 189.836 196.176 189.748C195.594 189.748 194.854 189.638 194.246 189.748C193.401 189.748 193.348 189.99 193.44 190.144L193.665 190.517C193.665 190.517 193.758 190.627 194.062 190.671H194.973C196.533 190.671 198.013 190.517 199.295 190.363L197.497 190.144Z" fill="#1395FF"/>
<path d="M184.957 197.087C191.643 196.142 182.578 195.219 175.587 195.812C168.214 196.45 179.142 197.922 184.957 197.087Z" fill="#1395FF"/>
<path d="M374.443 154.168C371.646 153.846 368.84 153.773 366.038 153.948C365.576 154.388 366.184 154.893 368.351 155.223C370.99 155.556 373.641 155.556 376.28 155.223C378.117 154.849 376.28 154.19 373.32 154.234L374.443 154.168Z" fill="#1395FF"/>
<path d="M197.524 209.59C195.225 209.349 191.908 209.283 189.12 209.414C188.657 209.788 189.265 210.227 191.432 210.491C194.072 210.779 196.721 210.779 199.361 210.491C201.198 210.184 199.361 209.612 196.401 209.656L197.524 209.59Z" fill="#1395FF"/>
<path d="M13.2962 148.94C10.9836 148.698 7.67995 148.61 4.89163 148.764C4.42911 149.138 5.03699 149.577 7.20422 149.841C9.84433 150.129 12.493 150.129 15.1331 149.841C16.9567 149.533 15.1331 148.962 12.173 149.006L13.2962 148.94Z" fill="#1395FF"/>
<path d="M466.973 132.436C464.674 132.172 461.357 132.106 458.569 132.238C458.106 132.633 458.714 133.051 460.881 133.337C463.522 133.625 466.17 133.625 468.81 133.337C470.634 133.029 468.81 132.458 465.85 132.479L466.973 132.436Z" fill="#1395FF" fill-opacity="0.4"/>
<path d="M466.973 224.973C464.674 224.731 461.357 224.665 458.569 224.797C458.106 225.171 458.714 225.61 460.881 225.874C463.522 226.162 466.17 226.162 468.81 225.874C470.634 225.566 468.81 224.995 465.85 225.039L466.973 224.973Z" fill="#1395FF" fill-opacity="0.4"/>
<path d="M65.5212 180.144C65.9608 180.207 66.403 180.207 66.8427 180.144C67.3448 180.144 67.7016 180.144 68.1641 180.012C68.6267 179.88 69.2874 180.012 69.8424 180.012C70.0711 179.982 70.3008 179.982 70.5295 180.012C70.5295 180.012 70.5295 180.012 70.3974 180.012C69.7682 180.196 69.1327 180.314 68.4945 180.364C67.5827 180.364 66.3009 180.364 65.3626 180.364C64.7151 180.364 64.3319 180.188 64.3847 180.1C64.8141 179.898 65.2607 179.817 65.7062 179.858L65.5212 180.144Z" fill="#1395FF"/>
<path d="M206.047 161.851C203.893 162.466 202.823 163.169 202.968 163.85C202.968 163.96 203.048 164.07 203.418 164.18C204.735 164.406 206.058 164.509 207.382 164.488C210.578 164.589 213.774 164.339 216.95 163.741C218.654 163.257 218.271 162.686 216.209 162.224C214.591 161.904 212.963 161.728 211.333 161.697C209.521 161.59 207.706 161.693 205.902 162.005C206.465 162.092 207.031 162.092 207.594 162.005L206.047 161.851Z" fill="#1395FF"/>
<path d="M106.646 239.894C104.492 240.531 103.421 241.212 103.567 241.893C103.567 242.003 103.646 242.135 104.016 242.223C105.333 242.449 106.657 242.552 107.981 242.531C111.176 242.654 114.373 242.404 117.548 241.783C119.253 241.322 118.87 240.729 116.808 240.267C115.189 239.947 113.562 239.77 111.932 239.74C110.119 239.638 108.304 239.748 106.501 240.069C107.064 240.135 107.629 240.135 108.192 240.069L106.646 239.894Z" fill="#1395FF" fill-opacity="0.5"/>
<path d="M166.522 179.882C164.354 180.52 163.297 181.201 163.443 181.882C163.443 181.992 163.522 182.124 163.892 182.212C165.209 182.438 166.532 182.541 167.856 182.519C171.052 182.642 174.249 182.392 177.424 181.772C179.129 181.311 178.745 180.717 176.684 180.256C175.065 179.936 173.437 179.76 171.808 179.728C169.995 179.626 168.18 179.736 166.376 180.058C166.939 180.124 167.505 180.124 168.068 180.058L166.522 179.882Z" fill="#1395FF" fill-opacity="0.4"/>
<path d="M167.645 191.23C166.99 191.106 166.33 191.106 165.676 191.23C165.279 191.362 165.57 191.493 165.874 191.625C166.647 191.664 167.419 191.538 168.173 191.252L167.645 191.23Z" fill="#1395FF"/>
<path d="M194.048 172.757C192.198 172.757 190.295 172.757 188.406 172.757H187.758C187.573 172.757 187.52 172.757 187.533 172.867C187.547 172.977 190.176 173.439 189.317 173.702C189.172 173.702 188.894 173.702 188.947 173.856C189.431 173.93 189.918 173.93 190.401 173.856C193.388 173.724 194.934 173.109 193.282 172.691H194.101L194.048 172.757Z" fill="#1395FF"/>
<path d="M300.361 157.5C307.048 156.379 297.983 155.302 290.979 156.005C283.592 156.753 294.481 158.467 300.361 157.5Z" fill="#1395FF"/>
<path d="M121.526 146.033C128.213 145.088 119.147 144.143 112.157 144.759C104.783 145.396 115.712 146.868 121.526 146.033Z" fill="#1395FF"/>
<path style="mix-blend-mode:screen" opacity="0.45" d="M506 157.535C506 157.535 343.774 166.416 237.889 167.685C135.012 168.928 27 164.127 27 164.127L230.62 161.054L142.181 151.034L399.477 146.587L95.6 133.141C95.6 133.141 378.78 142.362 491.311 147.529L303.413 159.667L506 157.535Z" fill="url(#paint14_linear_1307_10488)" fill-opacity="0.4"/>
<path d="M330.345 173.928C337.032 172.983 327.967 172.038 320.963 172.653C313.576 173.29 324.531 174.763 330.345 173.928Z" fill="#1395FF"/>
<path d="M93.312 180.864C93.6424 180.864 93.6557 180.996 93.4046 181.04C93.1535 181.084 92.7305 181.04 92.3209 181.04H91.5677C91.0656 181.04 90.8805 180.886 91.1844 180.798C91.6683 180.739 92.1543 180.739 92.6382 180.798C93.1139 180.798 93.2856 180.952 93.0478 181.04L93.312 180.864Z" fill="#1395FF"/>
<path d="M101.465 183.966C100.479 183.627 99.4817 183.377 98.4788 183.219C98.2941 183.193 98.1086 183.193 97.9239 183.219C97.6995 183.196 97.4744 183.196 97.2499 183.219C96.1446 183.565 95.0283 183.807 93.9066 183.944C93.563 183.944 93.1665 183.944 92.9022 183.944C92.6379 183.944 92.9021 184.12 93.325 184.164C95.8888 184.465 98.464 184.362 101.016 183.856L101.28 183.988L101.465 183.966Z" fill="#1395FF"/>
<path d="M95.6514 182.194C96.0902 182.286 96.5341 182.286 96.9729 182.194L98.2944 182.04C98.7965 182.04 99.4309 182.04 99.9727 182.04C100.205 181.999 100.44 181.999 100.673 182.04C100.673 182.04 100.673 182.04 100.541 182.15C99.909 182.364 99.2686 182.504 98.6247 182.568C97.586 182.667 96.5448 182.667 95.5061 182.568C94.8585 182.568 94.4621 182.37 94.515 182.26C94.9397 182.02 95.3889 181.923 95.8364 181.974L95.6514 182.194Z" fill="#1395FF"/>
<path d="M97.2764 183.022C96.6225 182.888 95.9612 182.888 95.3074 183.022C94.9109 183.132 95.2017 183.286 95.5056 183.396C96.2787 183.445 97.0522 183.319 97.805 183.022H97.2764Z" fill="#1395FF"/>
<path d="M173.05 180.979C172.396 180.846 171.735 180.846 171.081 180.979C170.685 181.089 170.975 181.243 171.279 181.353C172.052 181.39 172.825 181.264 173.579 180.979H173.05Z" fill="#1395FF"/>
<path d="M98.1748 187.587C96.3248 187.587 94.4086 187.587 92.5321 187.587H91.8714C91.6996 187.587 91.6467 187.587 91.6599 187.697C91.6731 187.807 94.303 188.268 93.444 188.532C93.2854 188.532 93.0211 188.642 93.074 188.686C93.5575 188.76 94.044 188.76 94.5276 188.686C97.5009 188.554 99.0603 187.939 97.3952 187.543H98.1748V187.587Z" fill="#1395FF"/>
<path d="M435.866 148.243C434.015 148.243 432.099 148.243 430.223 148.243H429.575C429.39 148.243 429.337 148.243 429.351 148.353C429.364 148.463 431.993 148.924 431.135 149.188C430.976 149.188 430.712 149.298 430.765 149.342C431.248 149.416 431.735 149.416 432.218 149.342C435.205 149.21 436.751 148.595 435.099 148.199H435.866V148.243Z" fill="#1395FF"/>
<path d="M103.356 178.646C110.042 177.547 100.977 176.448 93.9731 177.151C86.6389 177.898 97.5412 179.612 103.356 178.646Z" fill="#1395FF"/>
<path d="M78.9611 186.412C85.6478 185.468 76.5825 184.545 69.5786 185.16C62.2444 185.797 73.1466 187.248 78.9611 186.412Z" fill="#1395FF"/>
<path opacity="0.5" d="M172.178 333.303L178.785 332.512C178.785 332.512 174.345 332.819 172.178 333.303Z" fill="#1AFFFF"/>
<g opacity="0.16">
<path opacity="0.3" d="M190.573 341.639C190.573 341.639 175.31 341.639 175.046 341.639C174.781 341.639 178.283 342.848 178.283 342.848C178.283 342.848 167.5 344.578 166.839 345.045C166.178 345.512 189.199 346.611 192.78 345.045C196.361 343.48 197.484 342.738 198.555 342.463C199.625 342.188 212.84 342.6 213.091 341.612C213.342 340.623 206.219 339.606 205.823 339.139C203.762 338.152 201.645 337.754 199.532 337.958C196.546 338.123 188.829 339.744 188.168 340.046C187.507 340.348 190.573 341.639 190.573 341.639Z" fill="#33B9F8"/>
<path opacity="0.4" d="M104.875 329.719C104.346 329.115 179.763 318.923 179.763 318.923C179.763 318.923 130.247 316.341 130.247 317.44C130.247 318.539 141.783 320.022 140.898 322.247C140.013 324.472 86.9685 321.121 85.2506 323.703C83.5327 326.285 95.3467 329.719 95.3467 329.719C95.3467 329.719 106.659 331.807 104.161 333.647C101.663 335.488 37.281 339.553 35.4442 339.141C33.6073 338.729 19.0843 333.647 19.0843 333.647C18.1989 333.647 -26.1103 333.29 -26.9824 332.548C-27.8546 331.807 -40.0122 329.637 -38.3604 329.362C-36.7085 329.087 28.7177 321.863 28.8895 320.022C29.0613 318.182 -2.32371 320.379 -6.05028 319.638C-9.77684 318.896 -62.6493 314.858 -64.7768 314.501C-66.9044 314.144 -70.816 307.111 -76.1283 305.353C-81.4406 303.595 -121.693 299.859 -121.693 299.859C-121.693 299.859 -105.597 293.623 -107.157 293.486C-108.716 293.349 -157.082 289.503 -176.878 292.085C-198.563 294.832 -214.064 296.947 -215.769 297.085C-217.474 297.222 -223.803 295.381 -226.988 295.684C-230.173 295.986 -243.163 295.684 -243.163 295.684C-239.567 297.609 -235.923 299.131 -232.248 300.244C-230.025 300.335 -227.805 299.846 -225.64 298.788C-225.64 298.788 -206.215 298.183 -199.528 298.788C-192.841 299.392 -180.657 304.831 -181.622 305.463C-182.587 306.095 -218.623 304.419 -209.505 309.336C-200.387 314.253 -143.537 313.677 -142.03 313.622C-140.524 313.567 -126.503 316.698 -124.626 317.275C-122.75 317.852 -108.412 320.297 -107.342 321.121C-106.271 321.945 -98.4216 326.615 -98.4216 326.615C-98.4216 326.615 -156.17 323.868 -159.21 329.884C-159.804 331.01 -118.865 332.823 -118.865 332.823C-118.865 332.823 -115.403 334.746 -115.812 335.295C-116.222 335.845 -149.735 336.971 -149.735 336.971C-149.735 336.971 -120.318 338.07 -119.129 338.619C-117.94 339.169 -114.108 346.86 -104.593 346.668C-95.0783 346.476 -89.2637 346.915 -78.3615 346.668C-77.9386 346.668 -79.551 349.855 -79.9606 351.228C-80.3703 352.602 -36.9729 355.568 -37.6733 357.519C-38.3737 359.469 -115.389 363.947 -115.389 363.947H260.928C260.928 363.947 163.918 334.966 162.504 332.741C161.09 330.516 105.416 330.406 104.875 329.719ZM-147.263 297.14C-147.263 299.887 -161.549 298.238 -161.654 296.7C-161.654 294.365 -147.237 294.008 -147.263 297.222V297.14ZM-177.935 305.381C-178.133 303.787 -172.966 301.04 -164.046 301.562C-164.046 301.562 -138.33 305.133 -138.304 305.902C-138.277 306.672 -177.763 307.001 -177.935 305.436V305.381ZM-120.001 308.485C-127.732 308.018 -136.057 307.304 -136.242 306.122C-136.427 304.941 -118.231 302.908 -118.231 302.908C-118.231 302.908 -86.0657 304.914 -84.6385 306.397C-83.2113 307.88 -110.764 309.089 -120.001 308.54V308.485ZM-1.37219 345.679C-1.67613 343.152 11.7104 339.114 19.5864 341.696C19.5864 341.696 26.1938 342.026 26.1938 343.262C26.1938 344.498 -1.08147 348.206 -1.37219 345.734V345.679ZM66.3536 345.816C66.3536 343.372 80.7709 342.932 80.7445 346.256C80.718 348.948 66.4593 347.382 66.3536 345.871V345.816ZM109.843 332.548C109.975 332.246 116.134 331.889 116.028 332.548C115.922 333.208 109.711 332.878 109.843 332.603V332.548Z" fill="url(#paint15_linear_1307_10488)"/>
<path opacity="0.7" d="M275.504 363.446H395.759C395.759 363.446 376.597 355.342 367.902 353.502C359.207 351.661 354.066 348.337 346.97 346.03C339.873 343.722 299.238 341.333 299.78 340.014C300.322 338.695 326.434 335.976 325.733 334.053C325.033 332.13 290.252 331.965 281.728 332.762C276.733 333.229 246.775 336.608 246.775 336.608C246.775 336.608 283.631 345.014 283.988 346.607C284.345 348.2 280.962 350.535 282.204 353.117C283.446 355.699 290.899 353.859 290.014 355.342C289.129 356.826 275.504 363.446 275.504 363.446Z" fill="url(#paint16_linear_1307_10488)"/>
<path style="mix-blend-mode:screen" opacity="0.4" d="M198.845 364.006C198.845 364.006 183.106 360.407 169.271 359.555C155.435 358.704 138.282 359.171 137.211 357.77C136.141 356.369 195.7 348.952 196.678 347.908C197.656 346.864 172.27 349.501 171.253 347.908C170.962 347.441 171.438 347.112 172.244 346.809C161.236 348.458 139.207 351.754 126.574 353.842C118.473 353.842 111.879 351.864 112.13 351.095C112.526 349.749 145.418 344.694 143.343 343.87C142.682 343.595 82.8194 346.452 84.2994 347.853C84.9602 348.458 97.5936 351.012 105.337 356.973C84.6299 358.072 56.5484 359.501 51.9365 359.72C44.4833 359.995 31.0175 357.248 31.6253 355.847C32.2332 354.446 47.7209 357.056 49.0953 356.863C50.4696 356.671 54.553 356.863 59.3367 356.506C64.1205 356.149 65.1909 355.407 64.6226 355.023C62.4777 353.676 60.2552 352.937 58.0152 352.825C55.8876 353.182 53.9318 354.666 52.5178 354.94C51.1039 355.215 49.505 355.572 49.016 355.572C48.5271 355.572 1.54843 353.375 0.491245 354.748C-0.565938 356.122 7.50837 359.748 7.50837 359.748L-34.9375 364.17L198.845 364.006Z" fill="url(#paint17_linear_1307_10488)"/>
<path style="mix-blend-mode:screen" opacity="0.45" d="M-0.327798 350.643C-0.327798 350.643 -23.6651 346.688 -25.7927 346.578C-27.9203 346.468 -52.764 346.111 -55.1559 345.809C-57.5478 345.507 -30.312 341.633 -29.6116 340.919C-28.9113 340.205 -46.0245 339.628 -46.3813 339.079C-46.7381 338.529 -31.2899 337.238 -31.2899 337.238L-82.2198 335.755C-82.2198 335.755 -95.9631 337.238 -98.54 337.43C-101.117 337.623 -109.112 335.755 -109.112 335.755L-77.0131 334.848C-77.0131 334.848 -30.3252 332.293 -26.9555 332.623L-30.9199 335.37L-49.1828 333.997C-49.1828 333.997 -17.4673 335.92 -14.3222 337.018C-11.1771 338.117 -17.692 339.436 -17.692 339.436C-17.692 339.436 -27.3652 340.067 -27.722 341.606C-28.0788 343.144 -0.393775 348.089 -0.393775 348.089L18.7809 349.188L-0.327798 350.643Z" fill="url(#paint18_linear_1307_10488)"/>
</g>
<path d="M322.325 190.396C320.012 190.111 316.708 190.023 313.92 190.176C313.457 190.638 314.065 191.143 316.233 191.451C318.871 191.806 321.523 191.806 324.161 191.451C325.985 191.099 324.161 190.44 321.201 190.484L322.325 190.396Z" fill="#1395FF" fill-opacity="0.3"/>
<path d="M316.774 260.096C314.475 259.854 311.171 259.766 308.37 259.92C307.907 260.294 308.515 260.733 310.682 260.997C313.322 261.285 315.971 261.285 318.611 260.997C320.448 260.689 318.611 260.118 315.651 260.162L316.774 260.096Z" fill="#1395FF" fill-opacity="0.3"/>
<path d="M324.307 233.924C322.007 233.66 318.704 233.594 315.902 233.726C315.44 234.122 316.047 234.561 318.215 234.825C320.855 235.113 323.503 235.113 326.144 234.825C327.98 234.517 326.144 233.946 323.183 233.99L324.307 233.924Z" fill="#1395FF" fill-opacity="0.3"/>
<path d="M341.327 245.059C339.16 245.675 338.103 246.378 338.248 247.059C338.248 247.059 338.327 247.279 338.697 247.389C340.014 247.615 341.338 247.718 342.662 247.696C345.862 247.797 349.062 247.548 352.242 246.949C353.947 246.466 353.564 245.895 351.502 245.433C349.879 245.12 348.247 244.951 346.613 244.928C344.8 244.821 342.986 244.924 341.182 245.235C341.744 245.323 342.311 245.323 342.873 245.235L341.327 245.059Z" fill="#1395FF" fill-opacity="0.3"/>
<path d="M354.542 190.38C352.375 191.017 351.318 191.699 351.463 192.38C351.463 192.49 351.543 192.6 351.913 192.71C353.23 192.936 354.553 193.039 355.877 193.017C359.077 193.118 362.278 192.868 365.458 192.27C367.163 191.787 366.779 191.215 364.718 190.754C363.099 190.434 361.471 190.258 359.842 190.226C358.024 190.114 356.205 190.224 354.397 190.556C354.964 190.633 355.535 190.633 356.102 190.556L354.542 190.38Z" fill="#1395FF" fill-opacity="0.3"/>
<path d="M368.907 209.451C366.739 210.088 365.682 210.77 365.828 211.451C365.828 211.561 365.907 211.693 366.277 211.78C367.594 212.007 368.917 212.109 370.241 212.088C373.437 212.2 376.634 211.95 379.809 211.341C381.514 210.857 381.13 210.286 379.069 209.825C377.45 209.505 375.822 209.329 374.193 209.297C372.38 209.184 370.564 209.294 368.761 209.627C369.324 209.693 369.89 209.693 370.453 209.627L368.907 209.451Z" fill="#1395FF" fill-opacity="0.3"/>
<path d="M414.55 180.083C412.383 180.699 411.313 181.38 411.458 182.083C411.458 182.083 411.551 182.303 411.907 182.391C413.224 182.627 414.548 182.737 415.872 182.72C419.072 182.828 422.273 182.571 425.453 181.951C427.144 181.49 426.774 180.896 424.699 180.457C423.081 180.126 421.453 179.942 419.823 179.908C418.01 179.806 416.195 179.916 414.392 180.237C414.954 180.325 415.521 180.325 416.083 180.237L414.55 180.083Z" fill="#1395FF" fill-opacity="0.3"/>
<path d="M403.635 182.223C404.058 181.937 403.754 181.652 402.816 181.41C402.587 181.379 402.357 181.379 402.128 181.41C401.684 181.388 401.24 181.462 400.807 181.63C400.212 181.783 398.864 181.849 398.27 182.003C397.675 182.157 397.939 182.289 398.098 182.443C398.841 182.864 399.629 183.021 400.41 182.904C400.967 182.901 401.524 182.835 402.075 182.706C402.742 182.59 403.401 182.377 404.044 182.069L403.635 182.223Z" fill="#1395FF" fill-opacity="0.3"/>
<path d="M291.256 202.807C291.586 202.807 291.6 202.917 291.349 202.983C291.098 203.05 290.675 202.983 290.265 202.983H289.564C289.076 202.983 288.877 202.851 289.181 202.763C289.67 202.704 290.16 202.704 290.648 202.763C291.111 202.763 291.282 202.917 291.045 202.983L291.256 202.807Z" fill="#1395FF" fill-opacity="0.3"/>
<path d="M299.41 205.889C298.657 205.626 297.652 205.384 296.423 205.142H295.882C295.653 205.119 295.423 205.119 295.194 205.142C294.092 205.477 292.981 205.719 291.864 205.867H290.86C290.424 205.867 290.86 206.043 291.27 206.109C293.838 206.41 296.417 206.307 298.974 205.801L299.225 205.933L299.41 205.889Z" fill="#1395FF" fill-opacity="0.3"/>
<path d="M287.53 190.949C288.019 190.949 288.244 191.103 288.098 191.191C287.663 191.325 287.22 191.384 286.777 191.367C286.47 191.437 286.159 191.437 285.852 191.367H286.037L287.266 191.059H287.57L287.53 190.949Z" fill="#1395FF" fill-opacity="0.3"/>
<path d="M285.177 192.746C284.609 192.746 284.794 192.966 285.058 193.076C285.323 193.185 288.455 193.361 288.018 193.449H284.688C284.406 193.468 284.124 193.401 283.856 193.251C283.671 193.251 279.217 193.098 278.953 193.032C278.332 192.922 282.376 192.79 282.918 192.658C283.424 192.614 283.931 192.614 284.437 192.658C284.873 192.658 285.085 192.79 284.966 192.878L285.177 192.746Z" fill="#1395FF" fill-opacity="0.3"/>
<path d="M287.53 196.568C285.23 196.282 281.266 196.721 279.707 196.831C279.244 197.271 279.27 197.315 281.438 197.622C284.077 197.955 286.727 197.955 289.367 197.622C291.19 197.271 289.366 196.59 286.406 196.634L287.53 196.568Z" fill="#1395FF" fill-opacity="0.3"/>
<path d="M294.851 196.57H293.371C293.371 196.57 293.371 196.702 293.503 196.768C294.056 196.813 294.61 196.754 295.155 196.592L294.851 196.57Z" fill="#1395FF" fill-opacity="0.3"/>
<path d="M293.609 204.134C294.048 204.217 294.491 204.217 294.93 204.134L296.252 203.98C296.74 203.98 297.375 203.98 297.93 203.98C298.16 203.982 298.39 204.019 298.617 204.09C298.617 204.09 298.617 204.09 298.485 204.2C297.857 204.413 297.221 204.553 296.582 204.618C295.539 204.706 294.493 204.706 293.45 204.618C292.802 204.618 292.419 204.42 292.472 204.31C292.871 204.08 293.293 203.983 293.714 204.024L293.609 204.134Z" fill="#1395FF" fill-opacity="0.3"/>
<path d="M295.221 204.972C294.566 204.848 293.906 204.848 293.252 204.972C292.855 205.104 293.146 205.236 293.45 205.367C294.223 205.405 294.995 205.279 295.749 204.994L295.221 204.972Z" fill="#1395FF" fill-opacity="0.3"/>
<path d="M296.079 209.515C294.229 209.515 292.326 209.515 290.437 209.515H289.789C289.604 209.515 289.551 209.515 289.564 209.625C289.578 209.735 292.208 210.196 291.349 210.46C291.19 210.46 290.926 210.57 290.978 210.614C291.462 210.688 291.949 210.688 292.432 210.614C295.419 210.482 296.965 209.867 295.313 209.449H296.132L296.079 209.515Z" fill="#1395FF" fill-opacity="0.3"/>
<path d="M301.3 200.601C307.987 199.481 298.921 198.404 291.931 199.107C284.596 199.854 295.485 201.568 301.3 200.601Z" fill="#1395FF" fill-opacity="0.3"/>
<path d="M276.905 208.345C283.591 207.4 274.526 206.477 267.522 207.07C260.188 207.707 271.09 209.18 276.905 208.345Z" fill="#1395FF" fill-opacity="0.3"/>
<path d="M308.885 200.547C308.885 200.547 320.276 197.734 342.318 200.547C342.318 200.547 329.777 204.876 308.885 200.547Z" fill="#1395FF" fill-opacity="0.3"/>
<path d="M33.5281 224.46L14.6311 223.882L20.2716 191.614L30.8676 181.546L24.5078 163.976L29.3376 129.546L38.8717 112.794L59.2416 107.049L68.045 70.2697L71.7787 66.6992L73.8911 72.7798L93.9299 95.9345L99.3991 135.559L104.617 139.21L110.737 114.794L114.3 108.176L117.862 100.874L125.992 113.519L128.024 135.559L134.818 156.069L136.405 203.855L138.049 224.996L85.0808 224.983L33.5281 224.46Z" fill="url(#paint19_linear_1307_10488)"/>
<path d="M68.0454 70.2697V116.378L71.4594 120.217V134.15V143.277L80.9479 164.378L83.8138 173.358L85.7206 193.251L90.1394 202.271L94.5012 185.681L92.994 180.365L92.1376 170.553L96.8647 176.419L99.3538 190.553L101.352 213.976L103.658 217.802L101.192 166.942L101.352 147.479L99.6621 138.284L99.3995 135.559L93.9303 95.9345L87.7873 88.8203L87.2507 101.143L88.6208 126.351L85.8462 102.565L82.3409 94.8741L81.0278 81.0215L73.8915 72.7798L71.7791 66.6992L68.0454 70.2697Z" fill="#005F9B"/>
<path style="mix-blend-mode:multiply" opacity="0.5" d="M117.862 100.879L110.737 114.799L104.617 139.215L99.3992 135.564L101.352 147.484L103.658 217.807L105.611 225.001H112.085L112.233 186.048L116.846 164.141L114.38 193.256L119.598 203.35L125.878 225.001V206.061L124.804 193.256V168.209L122.201 164.96L117.029 162.947L120.671 141.363L119.598 142.262L116.618 161.175L117.862 100.879Z" fill="url(#paint20_linear_1307_10488)"/>
<path d="M117.863 100.879L114.38 114.919V132.53L116.846 164.141L117.863 157.766L119.598 142.262L120.671 141.363L122.35 155.417V166.048L124.805 168.209V193.256L125.878 206.061V217.833V225.001H138.05L136.406 203.86L134.819 156.074L132.626 151.269L128.173 145.859L127.716 153.47L126.221 152.168V141.269V133.255L127.18 139.47L128.333 140.275L128.025 135.564L125.992 113.523L117.863 100.879Z" fill="#005F9B"/>
<path d="M38.8715 112.792L38.1179 122.309L48.8053 141.262L54.697 142.255L60.977 147.893L59.2642 142.255L60.977 136.041L59.2414 107.047L38.8715 112.792Z" fill="#005F9B"/>
<path style="mix-blend-mode:multiply" opacity="0.5" d="M38.1181 122.307L48.8055 141.26L51.3746 154.146L54.6972 142.253L60.9772 147.891V173.354L67.3142 189.287L62.8041 148.924L60.9772 136.038L59.5157 107.917L68.045 70.2656V116.374L66.8575 138.105L71.459 120.213V143.273L69.4608 158.656L75.2841 186.227L83.8134 173.354L85.7202 193.247L90.139 202.267L82.1806 224.952L14.6311 223.878L20.2716 191.609L31.45 197.395L42.2058 200.71L30.8676 181.542L24.5078 163.971L29.3376 129.542L38.8717 112.79L38.1181 122.307Z" fill="url(#paint21_linear_1307_10488)"/>
<path d="M71.7791 66.6992L73.8915 72.7798L76.0038 85.8538L76.3464 105.76L81.4046 116.378L78.4359 100.82L76.5861 89.2498L81.4046 82.78L82.3409 94.8741L85.8462 102.565L89.3516 131.801L89.8426 145.855V156.137L83.4028 153.465L78.4359 142.257L72.704 120.217V126.351L71.4594 143.277V120.217L68.0454 116.378V70.2697L71.7791 66.6992Z" fill="#007BA8"/>
<path d="M114.38 114.919V132.53L115.762 127.47V132.53L120.671 141.363L119.781 130.369L121.973 125.389L121.048 118.611L125.992 113.523L117.863 100.879L114.38 114.919Z" fill="#007BA8"/>
<path d="M91.9663 159.293L98.703 176.125L100.439 184.421L99.2396 169.562L91.9663 159.293Z" fill="#007BA8"/>
<path d="M59.5154 107.919L44.8203 114.134L43.0962 116.376L44.9345 125.356L45.0487 128.47L46.0878 132.524L43.0962 128.738L39.1912 124.215L47.3437 136.175L48.8053 141.262L38.1179 122.309L38.8715 112.792L59.2414 107.047L59.5154 107.919Z" fill="#007BA8"/>
<path d="M124.805 168.199L126.221 194.159L128.173 197.582L130.171 207.488L132.775 217.797H134.773H137.49L138.05 224.992H125.878L125.421 199.018L124.805 193.247V168.199Z" fill="#007BA8"/>
<path d="M128.173 145.855L127.716 153.466V157.936L124.805 166.943V168.205L130.479 175.775V179.386L133.083 193.252V175.91V169.56L135.218 168.205L134.818 156.07L132.626 151.265L128.173 145.855Z" fill="#007BA8"/>
<path d="M59.0703 224.571C63.4014 223.837 67.7685 223.433 72.1441 223.363C76.3573 223.618 107.129 225.31 107.129 225.31C107.129 225.31 60.3035 225.014 59.0703 224.571Z" fill="#1395FF" fill-opacity="0.4"/>
<path d="M71.7793 66.6992L74.8393 78.6457H76.3465L93.9304 95.9345L99.3997 135.559L94.5698 95.4781L75.3417 73.8268L71.7793 66.6992Z" fill="#7CE0FF"/>
<path d="M117.862 100.879L124.804 114.745L128.253 136.369L125.992 113.523L117.862 100.879Z" fill="#7CE0FF"/>
<path d="M129.635 140.414L133.585 156.132L136.405 203.851L134.818 156.065L129.635 140.414Z" fill="#7CE0FF"/>
<path d="M209.537 216.956L199.306 195.412L191.188 181.627L183.869 178.566L173.604 197.332L174.049 204.929L171.629 212.755L184.702 217.976L202.366 219.762L209.537 216.956Z" fill="url(#paint22_linear_1307_10488)"/>
<path style="mix-blend-mode:multiply" opacity="0.5" d="M183.869 178.566L178.696 191.922L179.427 195.372L194.796 209.144L202.423 208.245L202.252 201.627L209.537 216.956L202.366 219.762L183.949 217.668L171.629 212.755L174.049 204.929L173.604 197.332L183.869 178.566Z" fill="url(#paint23_linear_1307_10488)"/>
<path d="M199.306 195.412L202.252 201.627L183.206 196.406L178.696 191.922L183.869 178.566L191.188 181.627L199.306 195.412Z" fill="#005F9B"/>
<path style="mix-blend-mode:multiply" opacity="0.5" d="M184.702 217.979L185.65 200.945H193.905L202.252 201.63L193.483 201.965L185.958 201.267L185.25 214.368L184.702 217.979Z" fill="url(#paint24_linear_1307_10488)"/>
<path style="mix-blend-mode:multiply" opacity="0.5" d="M190.103 218.379L194.796 209.144L202.423 208.245L205.871 209.238L202.252 207.117L194.008 208.446L191.713 214.849L190.788 214.822L189.098 218.419L190.103 218.379Z" fill="url(#paint25_linear_1307_10488)"/>
<path d="M198.769 207.682L195.618 204.997H194.83L194.088 204.769L188.23 201.48L185.958 201.266L194.008 208.447L198.769 207.682Z" fill="#005F9B"/>
<path d="M202.423 208.246L203.405 211.119H202.423H198.141L194.796 209.145L202.423 208.246Z" fill="url(#paint26_linear_1307_10488)"/>
<path d="M183.869 178.566L189.692 182.835L202.287 202.634L205.392 208.245L200.631 197.828L191.188 181.627L183.869 178.566Z" fill="#7CE0FF"/>
<path style="mix-blend-mode:multiply" opacity="0.97" d="M702.725 145.445L204.092 168.167L702.725 162.014V145.445Z" fill="url(#paint27_linear_1307_10488)"/>
</g>
</g>
<defs>
<linearGradient id="paint0_linear_1307_10488" x1="240.208" y1="380" x2="240.208" y2="106.48" gradientUnits="userSpaceOnUse">
<stop stop-color="#0C1226"/>
<stop offset="0.42" stop-color="#0F1836"/>
<stop offset="1" stop-color="#0052A4"/>
</linearGradient>
<linearGradient id="paint1_linear_1307_10488" x1="-222.31" y1="259.755" x2="702.725" y2="259.755" gradientUnits="userSpaceOnUse">
<stop stop-color="#B67AE7"/>
<stop offset="1" stop-color="#FFEBC4"/>
</linearGradient>
<linearGradient id="paint2_linear_1307_10488" x1="-222.31" y1="194.23" x2="509.34" y2="194.23" gradientUnits="userSpaceOnUse">
<stop/>
<stop offset="1" stop-color="#3B549A"/>
</linearGradient>
<linearGradient id="paint3_linear_1307_10488" x1="-222.31" y1="297.116" x2="509.34" y2="297.116" gradientUnits="userSpaceOnUse">
<stop/>
<stop offset="1" stop-color="#3B549A"/>
</linearGradient>
<linearGradient id="paint4_linear_1307_10488" x1="400.978" y1="203.129" x2="683.233" y2="203.129" gradientUnits="userSpaceOnUse">
<stop/>
<stop offset="1" stop-color="#3B549A"/>
</linearGradient>
<radialGradient id="paint5_radial_1307_10488" cx="0" cy="0" r="1" gradientUnits="userSpaceOnUse" gradientTransform="translate(239.441 111.027) scale(227.796 314.888)">
<stop stop-color="#FFFFB5"/>
<stop offset="0.99" stop-color="#FA8374"/>
</radialGradient>
<linearGradient id="paint6_linear_1307_10488" x1="-7.89055" y1="276.95" x2="-39.4596" y2="388.623" gradientUnits="userSpaceOnUse">
<stop stop-color="#5C3856"/>
<stop offset="0.26" stop-color="#655378"/>
<stop offset="0.57" stop-color="#6E6E99"/>
<stop offset="0.83" stop-color="#737EAE"/>
<stop offset="1" stop-color="#7584B5"/>
</linearGradient>
<linearGradient id="paint7_linear_1307_10488" x1="-19.3967" y1="304.564" x2="0.914389" y2="304.564" gradientUnits="userSpaceOnUse">
<stop stop-color="#5C3856"/>
<stop offset="0.26" stop-color="#655378"/>
<stop offset="0.57" stop-color="#6E6E99"/>
<stop offset="0.83" stop-color="#737EAE"/>
<stop offset="1" stop-color="#7584B5"/>
</linearGradient>
<linearGradient id="paint8_linear_1307_10488" x1="-14.3091" y1="295.351" x2="5.10342" y2="295.351" gradientUnits="userSpaceOnUse">
<stop stop-color="#5C3856"/>
<stop offset="0.26" stop-color="#655378"/>
<stop offset="0.57" stop-color="#6E6E99"/>
<stop offset="0.83" stop-color="#737EAE"/>
<stop offset="1" stop-color="#7584B5"/>
</linearGradient>
<linearGradient id="paint9_linear_1307_10488" x1="2.24887" y1="304.504" x2="-7.71509" y2="304.504" gradientUnits="userSpaceOnUse">
<stop stop-color="#00003B"/>
<stop offset="0.59" stop-color="#00104F"/>
<stop offset="1" stop-color="#001656"/>
</linearGradient>
<linearGradient id="paint10_linear_1307_10488" x1="434.519" y1="290.074" x2="427.135" y2="316.194" gradientUnits="userSpaceOnUse">
<stop stop-color="#00003B"/>
<stop offset="0.59" stop-color="#00104F"/>
<stop offset="1" stop-color="#001656"/>
</linearGradient>
<linearGradient id="paint11_linear_1307_10488" x1="434.519" y1="290.074" x2="427.135" y2="316.194" gradientUnits="userSpaceOnUse">
<stop stop-color="#5C3856"/>
<stop offset="0.26" stop-color="#655378"/>
<stop offset="0.57" stop-color="#6E6E99"/>
<stop offset="0.83" stop-color="#737EAE"/>
<stop offset="1" stop-color="#7584B5"/>
</linearGradient>
<linearGradient id="paint12_linear_1307_10488" x1="434.668" y1="291.692" x2="431.968" y2="275.451" gradientUnits="userSpaceOnUse">
<stop stop-color="#00003B"/>
<stop offset="0.59" stop-color="#00104F"/>
<stop offset="1" stop-color="#001656"/>
</linearGradient>
<linearGradient id="paint13_linear_1307_10488" x1="434.668" y1="291.692" x2="431.968" y2="275.451" gradientUnits="userSpaceOnUse">
<stop stop-color="#5C3856"/>
<stop offset="0.26" stop-color="#655378"/>
<stop offset="0.57" stop-color="#6E6E99"/>
<stop offset="0.83" stop-color="#737EAE"/>
<stop offset="1" stop-color="#7584B5"/>
</linearGradient>
<linearGradient id="paint14_linear_1307_10488" x1="26.9924" y1="150.511" x2="506" y2="150.511" gradientUnits="userSpaceOnUse">
<stop/>
<stop offset="1" stop-color="#3B549A"/>
</linearGradient>
<linearGradient id="paint15_linear_1307_10488" x1="-64.6578" y1="329.307" x2="413.902" y2="332.06" gradientUnits="userSpaceOnUse">
<stop stop-color="#141A3B"/>
<stop offset="0.99" stop-color="#1DA1F2"/>
</linearGradient>
<linearGradient id="paint16_linear_1307_10488" x1="-64.7237" y1="339.08" x2="413.849" y2="341.833" gradientUnits="userSpaceOnUse">
<stop stop-color="#001252"/>
<stop offset="0.99" stop-color="#005F9B"/>
</linearGradient>
<linearGradient id="paint17_linear_1307_10488" x1="-35.0036" y1="353.869" x2="198.845" y2="353.869" gradientUnits="userSpaceOnUse">
<stop stop-color="#141D3A"/>
<stop offset="1" stop-color="#139CFF"/>
</linearGradient>
<linearGradient id="paint18_linear_1307_10488" x1="-109.099" y1="341.633" x2="18.847" y2="341.633" gradientUnits="userSpaceOnUse">
<stop/>
<stop offset="1" stop-color="#3B549A"/>
</linearGradient>
<linearGradient id="paint19_linear_1307_10488" x1="76.346" y1="224.996" x2="76.346" y2="66.6992" gradientUnits="userSpaceOnUse">
<stop stop-color="#00003B"/>
<stop offset="0.59" stop-color="#00104F"/>
<stop offset="1" stop-color="#001656"/>
</linearGradient>
<linearGradient id="paint20_linear_1307_10488" x1="112.633" y1="225.001" x2="112.633" y2="100.879" gradientUnits="userSpaceOnUse">
<stop stop-color="#5C3856"/>
<stop offset="0.26" stop-color="#655378"/>
<stop offset="0.57" stop-color="#6E6E99"/>
<stop offset="0.83" stop-color="#737EAE"/>
<stop offset="1" stop-color="#7584B5"/>
</linearGradient>
<linearGradient id="paint21_linear_1307_10488" x1="52.3908" y1="224.952" x2="52.3908" y2="70.2656" gradientUnits="userSpaceOnUse">
<stop stop-color="#5C3856"/>
<stop offset="0.26" stop-color="#655378"/>
<stop offset="0.57" stop-color="#6E6E99"/>
<stop offset="0.83" stop-color="#737EAE"/>
<stop offset="1" stop-color="#7584B5"/>
</linearGradient>
<linearGradient id="paint22_linear_1307_10488" x1="194.941" y1="223.584" x2="189.887" y2="180.592" gradientUnits="userSpaceOnUse">
<stop stop-color="#00003B"/>
<stop offset="0.59" stop-color="#00104F"/>
<stop offset="1" stop-color="#001656"/>
</linearGradient>
<linearGradient id="paint23_linear_1307_10488" x1="194.941" y1="223.584" x2="189.887" y2="180.592" gradientUnits="userSpaceOnUse">
<stop stop-color="#5C3856"/>
<stop offset="0.26" stop-color="#655378"/>
<stop offset="0.57" stop-color="#6E6E99"/>
<stop offset="0.83" stop-color="#737EAE"/>
<stop offset="1" stop-color="#7584B5"/>
</linearGradient>
<linearGradient id="paint24_linear_1307_10488" x1="184.702" y1="209.455" x2="202.252" y2="209.455" gradientUnits="userSpaceOnUse">
<stop stop-color="#5C3856"/>
<stop offset="0.26" stop-color="#655378"/>
<stop offset="0.57" stop-color="#6E6E99"/>
<stop offset="0.83" stop-color="#737EAE"/>
<stop offset="1" stop-color="#7584B5"/>
</linearGradient>
<linearGradient id="paint25_linear_1307_10488" x1="189.098" y1="212.768" x2="205.871" y2="212.768" gradientUnits="userSpaceOnUse">
<stop stop-color="#5C3856"/>
<stop offset="0.26" stop-color="#655378"/>
<stop offset="0.57" stop-color="#6E6E99"/>
<stop offset="0.83" stop-color="#737EAE"/>
<stop offset="1" stop-color="#7584B5"/>
</linearGradient>
<linearGradient id="paint26_linear_1307_10488" x1="203.405" y1="209.682" x2="194.796" y2="209.682" gradientUnits="userSpaceOnUse">
<stop stop-color="#00003B"/>
<stop offset="0.59" stop-color="#00104F"/>
<stop offset="1" stop-color="#001656"/>
</linearGradient>
<linearGradient id="paint27_linear_1307_10488" x1="204.092" y1="156.806" x2="702.725" y2="156.806" gradientUnits="userSpaceOnUse">
<stop stop-color="#B67AE7"/>
<stop offset="1" stop-color="#FFEBC4"/>
</linearGradient>
<clipPath id="clip0_1307_10488">
<rect width="475" height="404" fill="white"/>
</clipPath>
</defs>
</svg>
