<svg width="1280" height="379" viewBox="0 0 1280 379" fill="none" xmlns="http://www.w3.org/2000/svg">
<g clip-path="url(#clip0_1304_6255)">
<mask id="mask0_1304_6255" style="mask-type:alpha" maskUnits="userSpaceOnUse" x="0" y="-62" width="1516" height="491">
<rect y="-61.8945" width="1516" height="490.294" fill="#D9D9D9"/>
</mask>
<g mask="url(#mask0_1304_6255)">
<path d="M1283.39 143.234H-2.33105V371.824H1283.39V143.234Z" fill="url(#paint0_linear_1304_6255)"/>
<path d="M597.677 142.793L643.155 147.384L561.273 150.139H671.477C671.477 150.139 587.354 152.581 585.848 153.206C584.342 153.83 701.563 153.5 703.767 153.206C705.971 152.912 674.838 150.451 674.838 150.451C674.838 150.451 710.471 148.964 711.408 148.174C712.344 147.384 652.448 146.007 652.448 146.007L675.775 143.711L597.677 142.793Z" fill="#7CE0FF"/>
<path d="M562.356 164.687C561.18 164.687 658.087 168.727 658.087 168.727C658.087 168.727 587.097 170.876 586.27 171.574C585.443 172.272 660.603 174.549 660.603 174.549C660.603 174.549 610.919 175.394 608.586 176.073C606.254 176.753 638.856 178.498 638.856 178.498C638.856 178.498 566.543 183.823 563.55 184.521C560.556 185.219 704.024 185.109 705.419 184.429C706.815 183.75 664.35 180.242 664.35 180.242C664.35 180.242 682.332 179.03 684.021 178.406C685.711 177.781 654.064 176.9 654.064 176.9C654.064 176.9 684.848 176.33 685.546 176.11C686.244 175.89 657.572 172.768 657.572 172.768C657.572 172.768 710.452 168.305 710.452 167.717C710.415 165.44 610.717 164.448 562.356 164.687Z" fill="#7CE0FF"/>
<path d="M586.38 199.433C586.38 199.433 644.789 191.003 745.809 199.267C745.736 199.267 648.535 202.169 586.38 199.433Z" fill="#7CE0FF"/>
<path d="M263.463 144.004C263.463 144.004 906.084 139.756 1122.12 143.429C1122.12 143.429 325.692 146.759 263.463 144.004Z" fill="#7CE0FF"/>
<path d="M581.624 251.589C581.624 251.589 640.05 248.945 741.053 251.589C741.053 251.589 643.871 252.434 581.624 251.589Z" fill="#7CE0FF"/>
<path d="M624.659 230.117C624.659 230.117 633.255 227.876 648.095 230.117C640.288 230.52 632.466 230.52 624.659 230.117V230.117Z" fill="#7CE0FF"/>
<path d="M666.022 271.679C666.022 271.679 674.6 269.439 689.459 271.679C681.652 272.083 673.829 272.083 666.022 271.679V271.679Z" fill="#7CE0FF"/>
<path d="M532.545 184.777C532.545 184.777 541.123 182.555 555.982 184.777C548.175 185.186 540.352 185.186 532.545 184.777V184.777Z" fill="#7CE0FF"/>
<path d="M534.474 271.679C534.474 271.679 580.099 269.439 658.969 271.679C658.969 271.624 583.074 272.396 534.474 271.679Z" fill="#7CE0FF"/>
<path d="M611.544 262.387C611.544 262.387 638.655 255.353 685.546 262.259C685.565 262.259 640.436 264.683 611.544 262.387Z" fill="#7CE0FF"/>
<path d="M492.707 250.67C492.707 250.67 519.817 243.618 566.709 250.524C566.617 250.524 521.507 252.966 492.707 250.67Z" fill="#7CE0FF"/>
<path d="M782.71 199.687C782.71 199.687 797.404 195.848 822.934 199.595C822.934 199.595 798.414 200.917 782.71 199.687Z" fill="#7CE0FF"/>
<path d="M611.544 208.137C611.544 208.137 641.942 203.785 685.546 208.009C685.565 208.009 640.436 210.433 611.544 208.137Z" fill="#7CE0FF"/>
<path style="mix-blend-mode:multiply" opacity="0.97" d="M1283.39 260.845L519.358 276.657L765.72 281.891L38.6833 293.829L464.641 277.337L-2.33105 262.92L1283.39 237.521V228.633H-2.33105V314.03H1283.39V260.845Z" fill="url(#paint1_linear_1304_6255)"/>
<path style="mix-blend-mode:screen" opacity="0.45" d="M-2.33105 204.504L1014.6 228.636H-2.33105V204.504Z" fill="url(#paint2_linear_1304_6255)"/>
<path style="mix-blend-mode:screen" opacity="0.25" d="M-2.33105 290.469L1014.6 314.619H-2.33105V290.469Z" fill="url(#paint3_linear_1304_6255)"/>
<path style="mix-blend-mode:screen" opacity="0.45" d="M863.985 225.05L1256.29 229.292C1256.29 229.292 1113.16 208.632 863.985 225.05Z" fill="url(#paint4_linear_1304_6255)"/>
<path style="mix-blend-mode:soft-light" opacity="0.6" d="M191.447 143.321L464.641 153.078L989.948 153.666L1087.19 142.316L191.447 143.321Z" fill="url(#paint5_radial_1304_6255)"/>
<g opacity="0.5">
<path style="mix-blend-mode:multiply" opacity="0.3" d="M278.36 380.658L270.039 349.603L271.215 341.559L295.937 309.531L308.207 311.606L307.931 327.014L319.649 291.331L308.115 284.793L278.488 289.678L258.67 285.197L262.564 319.338L261.847 337.023L278.36 380.658Z" fill="url(#paint6_linear_1304_6255)" fill-opacity="0.6"/>
<path style="mix-blend-mode:multiply" opacity="0.5" d="M279.7 288.98L281.224 328.594H294.504L307.931 327.014L293.824 326.225L281.72 327.841L280.582 297.373L279.7 288.98Z" fill="url(#paint7_linear_1304_6255)" fill-opacity="0.6"/>
<path style="mix-blend-mode:multiply" opacity="0.5" d="M288.388 288.044L295.937 309.531L308.206 311.606L313.753 309.292L307.931 314.232L294.67 311.165L290.978 296.253L289.49 296.308L286.772 287.934L288.388 288.044Z" fill="url(#paint8_linear_1304_6255)" fill-opacity="0.6"/>
<g style="mix-blend-mode:overlay" opacity="0.3">
<path d="M302.329 312.931L297.26 319.175H295.993L294.799 319.708L285.376 327.348L281.721 327.843L294.67 311.168L302.329 312.931Z" fill="#E0AE79"/>
</g>
<path opacity="0.6" d="M308.206 311.608L309.786 304.941H308.206H301.318L295.937 309.533L308.206 311.608Z" fill="url(#paint9_linear_1304_6255)" fill-opacity="0.6"/>
</g>
<g opacity="0.2">
<path d="M913.669 293.457L910.216 304.991L901.951 315.091L897.635 310.225L889.039 291.603L897.671 290.758L908.214 292.539L913.669 293.457Z" fill="url(#paint10_linear_1304_6255)"/>
<path style="mix-blend-mode:multiply" opacity="0.5" d="M913.669 293.457L900.684 293.953L898.057 293.513L898.314 305.872L901.951 315.091L897.635 310.225L889.039 291.603L897.671 290.758L913.669 293.457Z" fill="url(#paint11_linear_1304_6255)"/>
<g style="mix-blend-mode:overlay" opacity="0.5">
<path d="M901.95 315.093L910.216 304.992L898.314 305.874L901.95 315.093Z" fill="#E0AE79"/>
</g>
</g>
<path d="M913.669 293.789L910.216 287.013L901.951 281.062L897.635 283.927L889.039 291.384L897.671 295.369L908.214 294.322L913.669 293.789Z" fill="url(#paint12_linear_1304_6255)"/>
<path style="mix-blend-mode:multiply" opacity="0.5" d="M913.669 293.789L900.684 293.496L898.057 293.753L898.314 286.48L901.951 281.062L897.635 283.927L889.039 291.384L897.671 295.369L913.669 293.789Z" fill="url(#paint13_linear_1304_6255)"/>
<g style="mix-blend-mode:overlay" opacity="0.5">
<path d="M901.95 281.062L910.216 287.013L898.313 286.48L901.95 281.062Z" fill="#E0AE79"/>
</g>
<path d="M581.164 213.149C582.082 213.039 580.594 212.892 579.327 212.818C578.519 212.818 577.49 212.726 576.645 212.818C575.47 212.818 575.396 213.02 575.525 213.149L575.837 213.461C575.837 213.461 575.966 213.553 576.388 213.589H577.656C579.823 213.589 581.88 213.461 583.662 213.332L581.164 213.149Z" fill="#1395FF"/>
<path d="M563.734 218.956C573.028 218.166 560.428 217.395 550.711 217.891C540.462 218.424 555.652 219.654 563.734 218.956Z" fill="#1395FF"/>
<path d="M754.663 213.375C751.449 213.136 746.857 213.063 742.981 213.191C742.338 213.577 743.183 214 746.196 214.257C749.863 214.553 753.548 214.553 757.216 214.257C759.751 213.963 757.216 213.412 753.102 213.449L754.663 213.375Z" fill="#1395FF"/>
<path d="M827.103 183.089C823.215 182.82 819.316 182.759 815.421 182.906C814.778 183.273 815.623 183.695 818.635 183.971C822.304 184.249 825.988 184.249 829.656 183.971C832.209 183.659 829.656 183.108 825.542 183.144L827.103 183.089Z" fill="#1395FF"/>
<path d="M1204.88 305.013C1199.65 304.608 1193.24 304.315 1186.35 304.149C1185.25 304.149 1184.09 304.149 1182.94 304.149C1181.31 304.137 1179.69 304.248 1178.09 304.48C1175.85 304.884 1177.41 305.38 1181.36 305.692C1185.3 306.004 1191.29 306.114 1196.66 306.004C1199.61 306.004 1202.53 305.839 1204.15 305.637C1205.77 305.435 1205.64 305.141 1203.3 304.994C1202.37 304.994 1201.91 305.104 1202.59 305.159L1204.88 305.013Z" fill="#7084CD"/>
<path d="M581.202 229.402C578.006 229.2 573.395 229.145 569.52 229.255C568.877 229.567 569.722 229.934 572.734 230.155C576.404 230.396 580.085 230.396 583.755 230.155C586.308 229.898 583.755 229.42 579.64 229.457L581.202 229.402Z" fill="#1395FF"/>
<path d="M325.141 178.719C321.927 178.517 317.335 178.443 313.459 178.572C312.816 178.884 313.661 179.251 316.674 179.472C320.343 179.713 324.024 179.713 327.694 179.472C330.229 179.215 327.694 178.737 323.58 178.774L325.141 178.719Z" fill="#1395FF"/>
<path d="M955.712 164.924C952.516 164.703 947.906 164.648 944.031 164.758C943.388 165.089 944.233 165.438 947.245 165.676C950.914 165.917 954.596 165.917 958.265 165.676C960.8 165.419 958.265 164.942 954.151 164.96L955.712 164.924Z" fill="#1395FF"/>
<path d="M1218.79 304.079C1217.26 303.987 1215.11 303.95 1213.28 303.987C1213.54 304.094 1213.81 304.162 1214.09 304.189C1214.82 304.232 1215.56 304.232 1216.29 304.189C1216.91 304.199 1217.53 304.125 1218.13 303.969H1218.62L1218.79 304.079Z" fill="#536BC3"/>
<path d="M1153.75 299.687C1152.81 299.687 1151.91 299.687 1150.83 299.687C1149.99 299.671 1149.15 299.708 1148.31 299.798C1148.11 299.798 1148.13 299.798 1148.31 299.926C1149.53 300.07 1150.76 300.119 1151.99 300.073C1153.42 300.073 1154.23 299.871 1153.6 299.761L1153.75 299.687Z" fill="#536BC3"/>
<path d="M1183.56 304.535C1180.36 304.333 1175.77 304.26 1171.88 304.388C1171.23 304.7 1172.08 305.068 1175.09 305.288C1178.76 305.529 1182.44 305.529 1186.11 305.288C1188.67 305.031 1186.11 304.553 1182 304.59L1183.56 304.535Z" fill="#1395FF"/>
<path d="M746.949 271.625C743.753 271.423 739.161 271.349 735.267 271.478C734.624 271.79 735.469 272.158 738.481 272.378C742.151 272.619 745.832 272.619 749.502 272.378C752.055 272.121 749.501 271.643 745.387 271.68L746.949 271.625Z" fill="#1395FF"/>
<path d="M757.418 249.752C754.222 249.531 749.63 249.476 745.736 249.586C745.094 249.917 745.938 250.284 748.951 250.505C752.62 250.746 756.302 250.746 759.971 250.505C762.524 250.247 759.971 249.77 755.857 249.807L757.418 249.752Z" fill="#1395FF"/>
<path d="M1163.12 297.5C1162.33 297.5 1162.58 297.665 1162.97 297.739C1163.36 297.812 1163.76 297.904 1163.15 297.978H1162.44C1162.05 297.987 1161.66 297.937 1161.28 297.831L1160.18 297.721C1159.31 297.721 1159.22 297.519 1159.98 297.408C1160.73 297.298 1161.48 297.408 1162.09 297.408C1162.69 297.408 1162.99 297.408 1162.82 297.555L1163.12 297.5Z" fill="#536BC3"/>
<path d="M955.712 242.261C952.516 242.059 947.906 242.004 944.031 242.114C943.388 242.427 944.233 242.794 947.245 243.014C950.914 243.255 954.596 243.255 958.265 243.014C960.8 242.757 958.265 242.28 954.151 242.316L955.712 242.261Z" fill="#1395FF"/>
<path d="M969.396 245.364C970.809 245.28 972.226 245.28 973.639 245.364C974.428 245.493 973.271 245.64 972.188 245.732C971.631 245.763 971.073 245.763 970.516 245.732C969.028 245.732 970.277 245.42 968.9 245.346C969.199 245.308 969.501 245.308 969.8 245.346L969.396 245.364Z" fill="#1395FF"/>
<path d="M397.729 204.794C398.34 204.847 398.955 204.847 399.566 204.794C400.264 204.794 400.759 204.794 401.402 204.684C402.045 204.574 402.964 204.684 403.735 204.684C404.053 204.659 404.372 204.659 404.69 204.684C404.69 204.684 404.69 204.684 404.506 204.684C403.632 204.838 402.749 204.937 401.862 204.978C400.594 204.978 398.813 204.978 397.508 204.978C396.608 204.978 396.076 204.831 396.149 204.758C396.746 204.589 397.367 204.521 397.986 204.556L397.729 204.794Z" fill="#1395FF"/>
<path d="M1167.3 297.081C1167.89 296.879 1167.47 296.677 1166.17 296.493C1165.93 296.493 1165.63 296.493 1165.21 296.493C1164.6 296.486 1163.98 296.535 1163.37 296.64C1162.55 296.75 1160.67 296.805 1159.85 296.915C1159.02 297.025 1159.39 297.117 1159.61 297.228C1160.65 297.527 1161.74 297.639 1162.82 297.558C1163.6 297.555 1164.37 297.512 1165.14 297.429C1166.06 297.34 1166.97 297.186 1167.87 296.97L1167.3 297.081Z" fill="#7084CD"/>
<path d="M1204.08 301.467C1201.06 301.981 1199.58 302.569 1199.78 303.138C1199.78 303.23 1199.91 303.322 1200.4 303.414C1202.23 303.603 1204.07 303.689 1205.91 303.671C1210.35 303.755 1214.8 303.547 1219.21 303.047C1221.58 302.643 1221.05 302.165 1218.18 301.779C1215.93 301.511 1213.67 301.364 1211.41 301.339C1208.89 301.25 1206.36 301.336 1203.86 301.596C1204.64 301.669 1205.43 301.669 1206.21 301.596L1204.08 301.467Z" fill="#7084CD"/>
<path d="M781.075 259.043C778.063 259.557 776.593 260.145 776.795 260.714C776.795 260.714 776.906 260.898 777.42 260.99C779.25 261.179 781.09 261.265 782.93 261.247C787.378 261.331 791.826 261.122 796.246 260.622C798.616 260.218 798.083 259.741 795.218 259.355C792.962 259.093 790.693 258.952 788.422 258.933C785.903 258.843 783.38 258.929 780.873 259.19C781.655 259.263 782.442 259.263 783.224 259.19L781.075 259.043Z" fill="#1395FF"/>
<path d="M799.443 213.356C796.431 213.888 794.961 214.458 795.163 215.027C795.163 215.119 795.274 215.211 795.788 215.302C797.618 215.492 799.458 215.578 801.298 215.56C805.746 215.644 810.194 215.435 814.614 214.935C816.984 214.531 816.451 214.054 813.586 213.668C811.336 213.401 809.074 213.253 806.808 213.227C804.282 213.133 801.753 213.225 799.241 213.503C800.029 213.567 800.822 213.567 801.61 213.503L799.443 213.356Z" fill="#1395FF"/>
<path d="M1067.77 254.733C1064.76 255.266 1063.27 255.835 1063.47 256.404C1063.47 256.496 1063.6 256.606 1064.1 256.68C1065.93 256.869 1067.77 256.955 1069.61 256.937C1074.06 257.04 1078.51 256.831 1082.92 256.313C1085.28 255.927 1084.76 255.431 1081.88 255.045C1079.63 254.777 1077.37 254.63 1075.1 254.605C1072.58 254.52 1070.06 254.612 1067.55 254.88C1068.33 254.935 1069.12 254.935 1069.9 254.88L1067.77 254.733Z" fill="#1395FF"/>
<path d="M593.048 189.514C590.054 190.028 588.566 190.616 588.768 191.185C588.768 191.277 588.879 191.369 589.393 191.461C591.223 191.65 593.063 191.736 594.903 191.718C599.345 191.802 603.787 191.594 608.201 191.093C610.57 190.689 610.038 190.212 607.172 189.826C604.923 189.558 602.66 189.411 600.395 189.386C597.876 189.297 595.353 189.382 592.846 189.643C593.628 189.716 594.415 189.716 595.197 189.643L593.048 189.514Z" fill="#1395FF"/>
<path d="M819.408 229.294C816.396 229.826 814.926 230.396 815.128 230.965C815.128 231.057 815.239 231.167 815.753 231.24C817.583 231.43 819.423 231.515 821.263 231.497C825.705 231.591 830.148 231.382 834.561 230.873C836.93 230.469 836.398 229.992 833.533 229.606C831.283 229.339 829.02 229.191 826.755 229.165C824.235 229.07 821.712 229.162 819.206 229.441C819.989 229.496 820.774 229.496 821.557 229.441L819.408 229.294Z" fill="#1395FF"/>
<path d="M454.889 254.733C451.895 255.266 450.407 255.835 450.609 256.405C450.609 256.496 450.719 256.607 451.234 256.68C453.064 256.869 454.904 256.955 456.744 256.937C461.186 257.04 465.629 256.832 470.042 256.313C472.411 255.927 471.878 255.431 469.013 255.046C466.763 254.778 464.501 254.631 462.236 254.605C459.716 254.52 457.193 254.612 454.687 254.88C455.469 254.935 456.255 254.935 457.038 254.88L454.889 254.733Z" fill="#1395FF"/>
<path d="M242.91 182.464C239.898 182.996 238.41 183.566 238.612 184.135C238.612 184.227 238.74 184.337 239.236 184.41C241.067 184.599 242.906 184.685 244.747 184.667C249.194 184.771 253.644 184.562 258.063 184.043C260.414 183.657 259.9 183.162 257.016 182.776C254.766 182.507 252.504 182.36 250.238 182.335C247.719 182.25 245.196 182.342 242.689 182.611C243.472 182.666 244.258 182.666 245.04 182.611L242.91 182.464Z" fill="#1395FF"/>
<path d="M882.849 204.759C879.837 205.274 878.349 205.843 878.551 206.431C878.551 206.431 878.679 206.614 879.175 206.688C881.005 206.885 882.845 206.977 884.685 206.963C889.134 207.053 893.583 206.838 898.002 206.32C900.353 205.935 899.838 205.439 896.955 205.072C894.706 204.795 892.443 204.642 890.177 204.612C887.658 204.528 885.135 204.62 882.628 204.888C883.41 204.961 884.197 204.961 884.979 204.888L882.849 204.759Z" fill="#1395FF"/>
<path d="M538.11 204.577C535.098 205.11 533.629 205.679 533.831 206.249C533.831 206.341 533.941 206.451 534.455 206.524C536.286 206.713 538.125 206.799 539.965 206.781C544.407 206.884 548.851 206.675 553.263 206.157C555.633 205.771 555.1 205.275 552.235 204.89C549.985 204.622 547.723 204.475 545.457 204.449C542.938 204.363 540.415 204.455 537.908 204.724C538.691 204.78 539.477 204.78 540.259 204.724L538.11 204.577Z" fill="#1395FF"/>
<path d="M867.677 206.543C868.265 206.304 867.842 206.065 866.538 205.863C866.22 205.837 865.901 205.837 865.583 205.863C864.965 205.845 864.348 205.907 863.746 206.047C862.92 206.175 861.046 206.23 860.22 206.359C859.393 206.487 859.761 206.598 859.981 206.726C861.014 207.078 862.109 207.21 863.195 207.112C863.97 207.109 864.743 207.054 865.51 206.947C866.436 206.85 867.351 206.671 868.246 206.414L867.677 206.543Z" fill="#1395FF"/>
<path d="M711.48 223.749C711.94 223.749 711.958 223.841 711.609 223.896C711.26 223.951 710.672 223.896 710.103 223.896H709.129C708.45 223.896 708.174 223.786 708.597 223.712C709.276 223.664 709.957 223.664 710.636 223.712C711.278 223.712 711.517 223.841 711.186 223.896L711.48 223.749Z" fill="#1395FF"/>
<path d="M722.814 226.318C721.767 226.098 720.371 225.896 718.663 225.694H717.91C717.592 225.675 717.273 225.675 716.955 225.694C715.423 225.973 713.878 226.176 712.326 226.3H710.93C710.324 226.3 710.93 226.447 711.5 226.502C715.069 226.754 718.654 226.668 722.208 226.245L722.557 226.355L722.814 226.318Z" fill="#1395FF"/>
<path d="M706.302 213.832C706.981 213.832 707.293 213.961 707.091 214.034C706.486 214.146 705.87 214.196 705.255 214.181C704.828 214.24 704.396 214.24 703.969 214.181H704.226L705.934 213.924H706.357L706.302 213.832Z" fill="#1395FF"/>
<path d="M703.031 215.335C702.242 215.335 702.499 215.519 702.866 215.611C703.233 215.703 707.587 215.85 706.98 215.923H702.352C701.959 215.939 701.567 215.883 701.195 215.758C700.937 215.758 694.748 215.629 694.38 215.574C693.517 215.482 699.138 215.372 699.891 215.262C700.594 215.225 701.299 215.225 702.003 215.262C702.609 215.262 702.903 215.372 702.737 215.446L703.031 215.335Z" fill="#1395FF"/>
<path d="M706.301 218.532C703.105 218.294 697.595 218.661 695.428 218.753C694.785 219.12 694.821 219.157 697.834 219.414C701.502 219.692 705.186 219.692 708.854 219.414C711.389 219.12 708.854 218.551 704.74 218.588L706.301 218.532Z" fill="#1395FF"/>
<path d="M716.477 218.531H714.42C714.42 218.531 714.42 218.641 714.604 218.697C715.372 218.734 716.142 218.685 716.899 218.55L716.477 218.531Z" fill="#1395FF"/>
<path d="M714.75 224.847C715.361 224.916 715.977 224.916 716.587 224.847L718.424 224.719C719.103 224.719 719.985 224.719 720.757 224.719C721.077 224.72 721.397 224.751 721.712 224.811C721.712 224.811 721.711 224.811 721.528 224.902C720.655 225.08 719.772 225.197 718.883 225.251C717.433 225.325 715.98 225.325 714.53 225.251C713.63 225.251 713.097 225.086 713.171 224.994C713.725 224.802 714.312 224.721 714.897 224.756L714.75 224.847Z" fill="#1395FF"/>
<path d="M716.991 225.546C716.081 225.443 715.163 225.443 714.254 225.546C713.703 225.657 714.107 225.767 714.53 225.877C715.604 225.908 716.678 225.803 717.726 225.565L716.991 225.546Z" fill="#1395FF"/>
<path d="M539.671 214.066C538.762 213.962 537.844 213.962 536.935 214.066C536.384 214.176 536.788 214.286 537.21 214.397C538.285 214.429 539.359 214.324 540.406 214.084L539.671 214.066Z" fill="#1395FF"/>
<path d="M718.184 229.344C715.613 229.344 712.968 229.344 710.341 229.344H709.441C709.184 229.344 709.111 229.344 709.129 229.436C709.147 229.528 712.803 229.914 711.609 230.134C711.389 230.134 711.021 230.226 711.095 230.262C711.767 230.324 712.443 230.324 713.115 230.262C717.266 230.152 719.415 229.638 717.119 229.289H718.258L718.184 229.344Z" fill="#1395FF"/>
<path d="M576.37 198.625C573.799 198.625 571.154 198.625 568.527 198.625H567.627C567.37 198.625 567.297 198.625 567.315 198.717C567.333 198.809 570.988 199.195 569.794 199.415C569.592 199.415 569.207 199.415 569.28 199.544C569.952 199.606 570.629 199.606 571.301 199.544C575.452 199.433 577.601 198.919 575.305 198.57H576.443L576.37 198.625Z" fill="#1395FF"/>
<path d="M725.441 221.889C734.735 220.953 722.135 220.053 712.418 220.64C702.224 221.265 717.359 222.697 725.441 221.889Z" fill="#1395FF"/>
<path d="M724.136 185.878C733.43 184.941 720.83 184.041 711.095 184.629C700.828 185.253 715.962 186.686 724.136 185.878Z" fill="#1395FF"/>
<path d="M691.533 228.374C700.827 227.584 688.227 226.813 678.493 227.309C668.299 227.842 683.452 229.072 691.533 228.374Z" fill="#1395FF"/>
<path d="M475.571 176.292C484.865 175.502 472.265 174.712 462.548 175.226C452.299 175.759 467.489 176.989 475.571 176.292Z" fill="#1395FF"/>
<path d="M765.811 199.596C775.105 198.807 762.505 198.017 752.77 198.531C742.503 199.064 757.729 200.294 765.811 199.596Z" fill="#1395FF"/>
<path d="M436.355 205.4C436.815 205.4 436.833 205.51 436.484 205.547C436.135 205.584 435.547 205.547 434.978 205.547H433.931C433.233 205.547 432.976 205.418 433.398 205.345C434.071 205.296 434.746 205.296 435.419 205.345C436.08 205.345 436.319 205.473 435.988 205.547L436.355 205.4Z" fill="#1395FF"/>
<path d="M447.688 207.992C446.316 207.709 444.931 207.5 443.537 207.368C443.28 207.346 443.022 207.346 442.765 207.368C442.454 207.349 442.141 207.349 441.829 207.368C440.292 207.657 438.741 207.86 437.182 207.974C436.704 207.974 436.153 207.974 435.786 207.974C435.418 207.974 435.786 208.121 436.373 208.157C439.937 208.409 443.516 208.323 447.063 207.9L447.431 208.011L447.688 207.992Z" fill="#1395FF"/>
<path d="M439.607 206.503C440.217 206.58 440.834 206.58 441.444 206.503L443.281 206.375C443.979 206.375 444.86 206.375 445.614 206.375C445.937 206.34 446.263 206.34 446.587 206.375C446.587 206.375 446.587 206.375 446.403 206.467C445.525 206.646 444.635 206.762 443.74 206.816C442.296 206.898 440.849 206.898 439.405 206.816C438.505 206.816 437.954 206.65 438.028 206.559C438.618 206.358 439.242 206.277 439.865 206.32L439.607 206.503Z" fill="#1395FF"/>
<path d="M441.866 207.201C440.957 207.089 440.038 207.089 439.129 207.201C438.578 207.293 438.982 207.421 439.404 207.513C440.479 207.554 441.554 207.449 442.6 207.201H441.866Z" fill="#1395FF"/>
<path d="M547.185 205.494C546.276 205.382 545.357 205.382 544.448 205.494C543.897 205.586 544.301 205.714 544.724 205.806C545.798 205.837 546.872 205.732 547.92 205.494H547.185Z" fill="#1395FF"/>
<path d="M443.115 211.021C440.543 211.021 437.88 211.021 435.272 211.021H434.353C434.114 211.021 434.041 211.021 434.059 211.113C434.078 211.205 437.733 211.59 436.539 211.811C436.319 211.811 435.951 211.903 436.025 211.939C436.697 212.001 437.373 212.001 438.045 211.939C442.178 211.829 444.345 211.315 442.031 210.984H443.115V211.021Z" fill="#1395FF"/>
<path d="M912.475 178.13C909.903 178.13 907.24 178.13 904.632 178.13H903.732C903.475 178.13 903.401 178.13 903.42 178.222C903.438 178.314 907.093 178.7 905.899 178.92C905.679 178.92 905.312 179.012 905.385 179.049C906.057 179.111 906.733 179.111 907.405 179.049C911.556 178.939 913.705 178.424 911.409 178.094H912.475V178.13Z" fill="#1395FF"/>
<path d="M450.315 203.543C459.609 202.625 447.009 201.707 437.274 202.295C427.081 202.919 442.234 204.351 450.315 203.543Z" fill="#1395FF"/>
<path d="M416.409 210.03C425.703 209.24 413.103 208.468 403.368 208.983C393.174 209.515 408.327 210.727 416.409 210.03Z" fill="#1395FF"/>
<path opacity="0.5" d="M545.972 332.798L555.156 332.137C555.156 332.137 548.984 332.394 545.972 332.798Z" fill="#1AFFFF"/>
<g opacity="0.16">
<path d="M56.6288 287.768C52.5696 288.502 47.4451 286.941 44.5615 288.181C41.6778 289.421 40.7043 290.867 37.2145 290.614C33.7247 290.362 49.8696 291.165 52.4594 290.614C54.0529 290.233 55.5109 289.237 56.6288 287.768V287.768Z" fill="#151B3C"/>
<path opacity="0.3" d="M571.54 339.764C571.54 339.764 550.326 339.764 549.958 339.764C549.591 339.764 554.458 340.774 554.458 340.774C554.458 340.774 539.47 342.221 538.552 342.611C537.633 343.001 569.629 343.919 574.607 342.611C579.585 341.302 581.146 340.682 582.634 340.453C584.121 340.223 602.489 340.568 602.838 339.741C603.187 338.915 593.287 338.065 592.736 337.675C589.871 336.85 586.929 336.518 583.993 336.688C579.842 336.826 569.115 338.18 568.197 338.433C567.278 338.685 571.54 339.764 571.54 339.764Z" fill="#33B9F8"/>
<path d="M-24.3164 338.507C-15.1514 337.606 -5.95233 337.369 3.23466 337.795C14.2551 338.576 11.6652 338.943 7.31217 339.333C2.9591 339.724 -28.5593 338.737 -24.3164 338.507Z" fill="#171F40"/>
<path opacity="0.4" d="M105.283 324.018C107.145 323.136 109.161 322.89 111.124 323.306C113.475 324.087 112.961 324.454 111.987 324.867C111.014 325.28 104.365 324.247 105.283 324.018Z" fill="#171F40"/>
<path d="M15.5042 299.287C17.3724 298.406 19.3943 298.16 21.3634 298.575C23.696 299.379 23.2001 299.746 22.2266 300.137C21.2531 300.527 14.6042 299.517 15.5042 299.287Z" fill="#171F40"/>
<path d="M36.2041 323.715C36.2041 323.715 20.4999 324.955 20.6285 325.873C20.757 326.791 64.5082 328.031 64.4164 327.778C64.3245 327.526 56.1327 324.472 56.1327 324.472C56.1327 324.472 40.8694 323.99 36.2041 323.715Z" fill="#171F40"/>
<path opacity="0.4" d="M452.426 329.805C451.692 329.3 556.515 320.783 556.515 320.783C556.515 320.783 487.692 318.625 487.692 319.543C487.692 320.461 503.727 321.701 502.496 323.56C501.265 325.42 427.539 322.619 425.151 324.777C422.763 326.935 439.184 329.805 439.184 329.805C439.184 329.805 454.906 331.55 451.435 333.088C447.963 334.626 358.477 338.024 355.924 337.679C353.371 337.335 333.186 333.088 333.186 333.088C331.955 333.088 270.369 332.789 269.157 332.17C267.945 331.55 251.047 329.736 253.343 329.506C255.638 329.277 346.575 323.239 346.814 321.701C347.053 320.163 303.43 321.999 298.251 321.379C293.071 320.76 219.583 317.385 216.626 317.086C213.669 316.788 208.232 310.911 200.848 309.442C193.465 307.972 137.518 304.85 137.518 304.85C137.518 304.85 159.889 299.639 157.722 299.524C155.554 299.409 88.3298 296.195 60.8155 298.353C30.6746 300.649 9.12964 302.416 6.76025 302.531C4.39086 302.646 -4.4071 301.108 -8.83364 301.36C-13.2602 301.613 -31.3153 301.36 -31.3153 301.36C-26.3164 302.97 -21.252 304.242 -16.1438 305.171C-13.0539 305.248 -9.96855 304.839 -6.96013 303.955C-6.96013 303.955 20.0398 303.45 29.3337 303.955C38.6276 304.46 55.5624 309.005 54.2216 309.533C52.8808 310.061 2.79288 308.661 15.4664 312.77C28.1399 316.88 107.156 316.398 109.25 316.352C111.344 316.306 130.832 318.923 133.44 319.405C136.048 319.887 155.977 321.93 157.465 322.619C158.952 323.308 169.863 327.211 169.863 327.211C169.863 327.211 89.5971 324.915 85.3726 329.943C84.5461 330.884 141.448 332.399 141.448 332.399C141.448 332.399 146.261 334.006 145.691 334.465C145.122 334.924 98.5421 335.866 98.5421 335.866C98.5421 335.866 139.428 336.784 141.081 337.243C142.734 337.702 148.061 344.131 161.285 343.97C174.51 343.809 182.591 344.176 197.744 343.97C198.332 343.97 196.091 346.633 195.522 347.781C194.952 348.929 255.271 351.408 254.297 353.038C253.324 354.668 146.279 358.41 146.279 358.41H669.327C669.327 358.41 534.492 334.19 532.527 332.33C530.562 330.471 453.18 330.379 452.426 329.805ZM101.977 302.577C101.977 304.873 82.1217 303.496 81.9747 302.21C81.9747 300.259 102.014 299.96 101.977 302.646V302.577ZM59.3461 309.465C59.0706 308.133 66.2522 305.837 78.6502 306.273C78.6502 306.273 114.393 309.258 114.43 309.901C114.467 310.543 59.5849 310.819 59.3461 309.51V309.465ZM139.869 312.059C129.124 311.668 117.552 311.072 117.295 310.084C117.038 309.097 142.33 307.398 142.33 307.398C142.33 307.398 187.036 309.074 189.02 310.314C191.004 311.554 152.708 312.564 139.869 312.105V312.059ZM304.753 343.143C304.33 341.031 322.937 337.656 333.883 339.814C333.883 339.814 343.067 340.09 343.067 341.123C343.067 342.156 305.157 345.255 304.753 343.189V343.143ZM398.886 343.258C398.886 341.215 418.925 340.848 418.888 343.625C418.851 345.875 399.033 344.567 398.886 343.304V343.258ZM459.333 332.17C459.516 331.917 468.076 331.619 467.929 332.17C467.782 332.721 459.149 332.445 459.333 332.215V332.17Z" fill="url(#paint14_linear_1304_6255)"/>
<path opacity="0.7" d="M689.587 357.992H856.73C856.73 357.992 830.097 351.219 818.012 349.681C805.926 348.143 798.781 345.365 788.918 343.437C779.054 341.508 722.575 339.511 723.328 338.409C724.081 337.307 760.375 335.034 759.401 333.427C758.428 331.82 710.085 331.682 698.238 332.348C691.295 332.738 649.656 335.562 649.656 335.562C649.656 335.562 700.883 342.587 701.379 343.919C701.875 345.25 697.173 347.202 698.899 349.36C700.626 351.518 710.985 349.98 709.754 351.219C708.524 352.459 689.587 357.992 689.587 357.992Z" fill="url(#paint15_linear_1304_6255)"/>
<path style="mix-blend-mode:screen" opacity="0.4" d="M583.037 358.449C583.037 358.449 561.162 355.441 541.931 354.73C522.701 354.018 498.86 354.408 497.372 353.237C495.884 352.067 578.666 345.868 580.025 344.996C581.384 344.123 546.101 346.327 544.686 344.996C544.282 344.605 544.943 344.33 546.064 344.077C530.764 345.455 500.145 348.21 482.586 349.955C471.327 349.955 462.162 348.302 462.511 347.659C463.062 346.534 508.778 342.31 505.894 341.621C504.976 341.391 421.772 343.779 423.829 344.95C424.747 345.455 442.306 347.59 453.07 352.572C424.288 353.49 385.257 354.684 378.847 354.868C368.488 355.097 349.771 352.801 350.616 351.63C351.461 350.46 372.988 352.641 374.898 352.48C376.808 352.319 382.484 352.48 389.133 352.181C395.782 351.883 397.269 351.263 396.48 350.942C393.498 349.816 390.409 349.199 387.296 349.105C384.339 349.404 381.62 350.643 379.655 350.873C377.69 351.102 375.468 351.401 374.788 351.401C374.108 351.401 308.812 349.564 307.343 350.712C305.873 351.86 317.096 354.89 317.096 354.89L258.1 358.587L583.037 358.449Z" fill="url(#paint16_linear_1304_6255)"/>
<path style="mix-blend-mode:screen" opacity="0.45" d="M306.204 347.296C306.204 347.296 273.767 343.99 270.81 343.898C267.853 343.806 233.323 343.508 229.998 343.255C226.674 343.003 264.529 339.766 265.502 339.169C266.476 338.572 242.69 338.09 242.194 337.631C241.698 337.171 263.17 336.092 263.17 336.092L192.382 334.853C192.382 334.853 173.28 336.092 169.698 336.253C166.116 336.414 155.004 334.853 155.004 334.853L199.618 334.095C199.618 334.095 264.51 331.96 269.194 332.235L263.684 334.531L238.3 333.383C238.3 333.383 282.382 334.99 286.753 335.909C291.125 336.827 282.07 337.929 282.07 337.929C282.07 337.929 268.625 338.457 268.129 339.743C267.633 341.028 306.113 345.161 306.113 345.161L332.764 346.079L306.204 347.296Z" fill="url(#paint17_linear_1304_6255)"/>
</g>
<path d="M735.983 221.857C735.983 221.857 751.815 219.507 782.452 221.857C782.452 221.857 765.022 225.475 735.983 221.857Z" fill="#1395FF"/>
<path d="M58.6207 281.226L23.3646 280.31L33.8882 229.105L53.6571 213.13L41.7915 185.248L50.8026 130.613L68.5903 104.031L106.594 94.9145L123.019 36.5525L129.985 30.8867L133.926 40.5356L171.312 77.2781L181.516 140.156L191.252 145.949L202.67 107.205L209.316 96.7037L215.963 85.1165L231.13 105.181L234.922 140.156L247.597 172.702L250.558 248.53L253.626 282.078L154.803 282.056L58.6207 281.226Z" fill="url(#paint18_linear_1304_6255)"/>
<path d="M123.02 36.5525V109.718L129.389 115.81V137.919V152.403L147.092 185.887L152.439 200.137L155.996 231.703L164.24 246.017L172.378 219.69L169.566 211.255L167.968 195.685L176.788 204.993L181.432 227.422L185.16 264.59L189.463 270.661L184.861 189.955L185.16 159.07L182.007 144.48L181.517 140.156L171.313 77.2781L159.852 65.9891L158.851 85.5425L161.407 125.544L156.231 87.8003L149.691 75.5954L147.241 53.6138L133.927 40.5356L129.986 30.8867L123.02 36.5525Z" fill="#005F9B"/>
<path style="mix-blend-mode:multiply" opacity="0.5" d="M215.963 85.1172L202.67 107.205L191.252 145.95L181.516 140.156L185.159 159.071L189.462 270.661L193.105 282.078H205.184L205.461 220.266L214.067 185.504L209.466 231.704L219.201 247.721L230.917 282.078V252.024L228.915 231.704V191.958L224.058 186.803L214.408 183.608L221.203 149.358L219.201 150.785L213.641 180.797L215.963 85.1172Z" fill="url(#paint19_linear_1304_6255)"/>
<path d="M215.963 85.1172L209.466 107.397V135.343L214.067 185.504L215.963 175.387L219.201 150.785L221.204 149.358L224.335 171.659V188.529L228.915 191.958V231.704L230.918 252.024V270.704V282.078H253.627L250.559 248.531L247.598 172.703L243.508 165.077L235.2 156.493L234.348 168.571L231.557 166.504V149.209V136.493L233.346 146.355L235.498 147.633L234.923 140.156L231.131 105.182L215.963 85.1172Z" fill="#005F9B"/>
<path d="M68.5902 104.027L67.1842 119.128L87.1236 149.204L98.1158 150.78L109.832 159.726L106.637 150.78L109.832 140.918L106.594 94.9102L68.5902 104.027Z" fill="#005F9B"/>
<path style="mix-blend-mode:multiply" opacity="0.5" d="M67.1844 119.131L87.1237 149.206L91.9169 169.654L98.116 150.783L109.832 159.729V200.135L121.656 225.418L113.241 161.369L109.832 140.921L107.106 96.2973L123.019 36.5508V109.716L120.803 144.201L129.388 115.808V152.401L125.66 176.811L136.525 220.562L152.438 200.135L155.996 231.701L164.24 246.015L149.392 282.012L23.3646 280.308L33.8882 229.103L54.7436 238.283L74.8107 243.544L53.6571 213.128L41.7915 185.246L50.8026 130.612L68.5903 104.029L67.1844 119.131Z" fill="url(#paint20_linear_1304_6255)"/>
<path d="M129.986 30.8867L133.927 40.5356L137.868 61.2818L138.507 92.8697L147.944 109.718L142.405 85.0313L138.954 66.6707L147.944 56.4041L149.691 75.5954L156.231 87.8003L162.77 134.192L163.686 156.493V172.809L151.672 168.57L142.405 150.784L131.711 115.81V125.544L129.389 152.403V115.81L123.02 109.718V36.5525L129.986 30.8867Z" fill="#007BA8"/>
<path d="M209.466 107.397V135.343L212.044 127.313V135.343L221.204 149.358L219.542 131.913L223.632 124.011L221.907 113.255L231.131 105.182L215.963 85.1172L209.466 107.397Z" fill="#007BA8"/>
<path d="M167.649 177.816L180.217 204.527L183.455 217.69L181.219 194.111L167.649 177.816Z" fill="#007BA8"/>
<path d="M107.106 96.2947L79.6889 106.157L76.4722 109.714L79.9019 123.963L80.115 128.905L82.0535 135.338L76.4722 129.331L69.1867 122.153L84.3968 141.131L87.1236 149.204L67.1842 119.128L68.5902 104.027L106.594 94.9102L107.106 96.2947Z" fill="#007BA8"/>
<path d="M228.916 191.957L231.557 233.151L235.2 238.583L238.928 254.302L243.785 270.661H247.513H252.583L253.627 282.077H230.918L230.066 240.862L228.916 231.703V191.957Z" fill="#007BA8"/>
<path d="M235.2 156.492L234.348 168.569V175.662L228.916 189.955V191.957L239.503 203.97V209.7L244.36 231.703V204.183V194.108L248.344 191.957L247.598 172.701L243.508 165.076L235.2 156.492Z" fill="#007BA8"/>
<path d="M106.275 281.397C114.355 280.231 122.503 279.591 130.666 279.48C138.527 279.885 195.938 282.569 195.938 282.569C195.938 282.569 108.575 282.1 106.275 281.397Z" fill="#1395FF" fill-opacity="0.2"/>
<path d="M129.986 30.8867L135.695 49.8437H138.507L171.313 77.2781L181.517 140.156L172.506 76.5539L136.632 42.197L129.986 30.8867Z" fill="#7CE0FF"/>
<path d="M215.963 85.1172L228.915 107.12L235.348 141.434L231.13 105.182L215.963 85.1172Z" fill="#7CE0FF"/>
<path d="M237.926 147.863L245.297 172.806L250.559 248.527L247.598 172.699L237.926 147.863Z" fill="#7CE0FF"/>
<path d="M387 269.316L367.913 235.13L352.766 213.255L339.111 208.398L319.96 238.176L320.791 250.232L316.275 262.65L340.667 270.935L373.622 273.768L387 269.316Z" fill="url(#paint21_linear_1304_6255)"/>
<path style="mix-blend-mode:multiply" opacity="0.5" d="M339.111 208.398L329.461 229.592L330.825 235.066L359.498 256.92L373.728 255.493L373.409 244.992L387 269.316L373.622 273.768L339.261 270.445L316.275 262.65L320.791 250.232L319.96 238.176L339.111 208.398Z" fill="url(#paint22_linear_1304_6255)"/>
<path d="M367.912 235.13L373.408 244.992L337.876 236.706L329.461 229.592L339.111 208.398L352.766 213.255L367.912 235.13Z" fill="#005F9B"/>
<path style="mix-blend-mode:multiply" opacity="0.5" d="M340.666 270.932L342.434 243.902H357.836L373.408 244.989L357.048 245.521L343.009 244.414L341.689 265.202L340.666 270.932Z" fill="url(#paint23_linear_1304_6255)"/>
<path style="mix-blend-mode:multiply" opacity="0.5" d="M350.742 271.57L359.497 256.916L373.727 255.488L380.161 257.065L373.408 253.699L358.027 255.808L353.746 265.968L352.02 265.925L348.867 271.634L350.742 271.57Z" fill="url(#paint24_linear_1304_6255)"/>
<path d="M366.911 254.599L361.032 250.339H359.562L358.177 249.977L347.249 244.759L343.01 244.418L358.028 255.813L366.911 254.599Z" fill="#005F9B"/>
<path d="M373.728 255.492L375.56 260.05H373.728H365.739L359.498 256.919L373.728 255.492Z" fill="url(#paint25_linear_1304_6255)"/>
<path d="M339.112 208.398L349.976 215.172L373.473 246.589L379.268 255.493L370.384 238.964L352.767 213.255L339.112 208.398Z" fill="#7CE0FF"/>
<path style="mix-blend-mode:multiply" opacity="0.97" d="M1283.39 175.797L590.33 194.786L1283.39 189.644V175.797Z" fill="url(#paint26_linear_1304_6255)"/>
<path style="mix-blend-mode:screen" opacity="0.45" d="M1256.29 189.829C1256.29 189.829 863.985 202.299 607.926 204.08C359.139 205.825 97.9368 199.085 97.9368 199.085L590.348 194.769L376.478 180.701L998.692 174.457L263.831 155.578C263.831 155.578 948.641 168.525 1220.77 175.78L766.381 192.822L1256.29 189.829Z" fill="url(#paint27_linear_1304_6255)"/>
</g>
</g>
<defs>
<linearGradient id="paint0_linear_1304_6255" x1="640.528" y1="371.824" x2="640.528" y2="143.234" gradientUnits="userSpaceOnUse">
<stop stop-color="#0C1226"/>
<stop offset="0.42" stop-color="#0F1836"/>
<stop offset="1" stop-color="#0052A4"/>
</linearGradient>
<linearGradient id="paint1_linear_1304_6255" x1="-2.33105" y1="271.331" x2="1283.39" y2="271.331" gradientUnits="userSpaceOnUse">
<stop stop-color="#B67AE7"/>
<stop offset="1" stop-color="#FFEBC4"/>
</linearGradient>
<linearGradient id="paint2_linear_1304_6255" x1="-2.33105" y1="216.57" x2="1014.6" y2="216.57" gradientUnits="userSpaceOnUse">
<stop/>
<stop offset="1" stop-color="#3B549A"/>
</linearGradient>
<linearGradient id="paint3_linear_1304_6255" x1="-2.33105" y1="302.553" x2="1014.6" y2="302.553" gradientUnits="userSpaceOnUse">
<stop/>
<stop offset="1" stop-color="#3B549A"/>
</linearGradient>
<linearGradient id="paint4_linear_1304_6255" x1="863.985" y1="224.003" x2="1256.29" y2="224.003" gradientUnits="userSpaceOnUse">
<stop/>
<stop offset="1" stop-color="#3B549A"/>
</linearGradient>
<radialGradient id="paint5_radial_1304_6255" cx="0" cy="0" r="1" gradientUnits="userSpaceOnUse" gradientTransform="translate(639.462 147.991) scale(316.617 316.576)">
<stop stop-color="#FFFFB5"/>
<stop offset="0.99" stop-color="#FA8374"/>
</radialGradient>
<linearGradient id="paint6_linear_1304_6255" x1="295.693" y1="285.701" x2="279.042" y2="383.658" gradientUnits="userSpaceOnUse">
<stop stop-color="#5C3856"/>
<stop offset="0.26" stop-color="#655378"/>
<stop offset="0.57" stop-color="#6E6E99"/>
<stop offset="0.83" stop-color="#737EAE"/>
<stop offset="1" stop-color="#7584B5"/>
</linearGradient>
<linearGradient id="paint7_linear_1304_6255" x1="279.7" y1="308.778" x2="307.931" y2="308.778" gradientUnits="userSpaceOnUse">
<stop stop-color="#5C3856"/>
<stop offset="0.26" stop-color="#655378"/>
<stop offset="0.57" stop-color="#6E6E99"/>
<stop offset="0.83" stop-color="#737EAE"/>
<stop offset="1" stop-color="#7584B5"/>
</linearGradient>
<linearGradient id="paint8_linear_1304_6255" x1="286.772" y1="301.083" x2="313.753" y2="301.083" gradientUnits="userSpaceOnUse">
<stop stop-color="#5C3856"/>
<stop offset="0.26" stop-color="#655378"/>
<stop offset="0.57" stop-color="#6E6E99"/>
<stop offset="0.83" stop-color="#737EAE"/>
<stop offset="1" stop-color="#7584B5"/>
</linearGradient>
<linearGradient id="paint9_linear_1304_6255" x1="309.786" y1="308.728" x2="295.937" y2="308.728" gradientUnits="userSpaceOnUse">
<stop stop-color="#00003B"/>
<stop offset="0.59" stop-color="#00104F"/>
<stop offset="1" stop-color="#001656"/>
</linearGradient>
<linearGradient id="paint10_linear_1304_6255" x1="910.604" y1="296.673" x2="906.709" y2="319.585" gradientUnits="userSpaceOnUse">
<stop stop-color="#00003B"/>
<stop offset="0.59" stop-color="#00104F"/>
<stop offset="1" stop-color="#001656"/>
</linearGradient>
<linearGradient id="paint11_linear_1304_6255" x1="910.604" y1="296.673" x2="906.709" y2="319.585" gradientUnits="userSpaceOnUse">
<stop stop-color="#5C3856"/>
<stop offset="0.26" stop-color="#655378"/>
<stop offset="0.57" stop-color="#6E6E99"/>
<stop offset="0.83" stop-color="#737EAE"/>
<stop offset="1" stop-color="#7584B5"/>
</linearGradient>
<linearGradient id="paint12_linear_1304_6255" x1="910.811" y1="298.023" x2="909.43" y2="284.212" gradientUnits="userSpaceOnUse">
<stop stop-color="#00003B"/>
<stop offset="0.59" stop-color="#00104F"/>
<stop offset="1" stop-color="#001656"/>
</linearGradient>
<linearGradient id="paint13_linear_1304_6255" x1="910.811" y1="298.023" x2="909.43" y2="284.212" gradientUnits="userSpaceOnUse">
<stop stop-color="#5C3856"/>
<stop offset="0.26" stop-color="#655378"/>
<stop offset="0.57" stop-color="#6E6E99"/>
<stop offset="0.83" stop-color="#737EAE"/>
<stop offset="1" stop-color="#7584B5"/>
</linearGradient>
<linearGradient id="paint14_linear_1304_6255" x1="216.791" y1="329.461" x2="881.909" y2="335.824" gradientUnits="userSpaceOnUse">
<stop stop-color="#141A3B"/>
<stop offset="0.99" stop-color="#1DA1F2"/>
</linearGradient>
<linearGradient id="paint15_linear_1304_6255" x1="216.7" y1="337.628" x2="881.836" y2="343.992" gradientUnits="userSpaceOnUse">
<stop stop-color="#001252"/>
<stop offset="0.99" stop-color="#005F9B"/>
</linearGradient>
<linearGradient id="paint16_linear_1304_6255" x1="258.008" y1="349.977" x2="583.037" y2="349.977" gradientUnits="userSpaceOnUse">
<stop stop-color="#141D3A"/>
<stop offset="1" stop-color="#139CFF"/>
</linearGradient>
<linearGradient id="paint17_linear_1304_6255" x1="155.022" y1="339.766" x2="332.856" y2="339.766" gradientUnits="userSpaceOnUse">
<stop/>
<stop offset="1" stop-color="#3B549A"/>
</linearGradient>
<linearGradient id="paint18_linear_1304_6255" x1="138.506" y1="282.078" x2="138.506" y2="30.8867" gradientUnits="userSpaceOnUse">
<stop stop-color="#00003B"/>
<stop offset="0.59" stop-color="#00104F"/>
<stop offset="1" stop-color="#001656"/>
</linearGradient>
<linearGradient id="paint19_linear_1304_6255" x1="206.206" y1="282.078" x2="206.206" y2="85.1172" gradientUnits="userSpaceOnUse">
<stop stop-color="#5C3856"/>
<stop offset="0.26" stop-color="#655378"/>
<stop offset="0.57" stop-color="#6E6E99"/>
<stop offset="0.83" stop-color="#737EAE"/>
<stop offset="1" stop-color="#7584B5"/>
</linearGradient>
<linearGradient id="paint20_linear_1304_6255" x1="93.8128" y1="282.012" x2="93.8128" y2="36.5508" gradientUnits="userSpaceOnUse">
<stop stop-color="#5C3856"/>
<stop offset="0.26" stop-color="#655378"/>
<stop offset="0.57" stop-color="#6E6E99"/>
<stop offset="0.83" stop-color="#737EAE"/>
<stop offset="1" stop-color="#7584B5"/>
</linearGradient>
<linearGradient id="paint21_linear_1304_6255" x1="359.769" y1="279.834" x2="352.922" y2="211.355" gradientUnits="userSpaceOnUse">
<stop stop-color="#00003B"/>
<stop offset="0.59" stop-color="#00104F"/>
<stop offset="1" stop-color="#001656"/>
</linearGradient>
<linearGradient id="paint22_linear_1304_6255" x1="359.769" y1="279.834" x2="352.922" y2="211.355" gradientUnits="userSpaceOnUse">
<stop stop-color="#5C3856"/>
<stop offset="0.26" stop-color="#655378"/>
<stop offset="0.57" stop-color="#6E6E99"/>
<stop offset="0.83" stop-color="#737EAE"/>
<stop offset="1" stop-color="#7584B5"/>
</linearGradient>
<linearGradient id="paint23_linear_1304_6255" x1="340.666" y1="257.407" x2="373.408" y2="257.407" gradientUnits="userSpaceOnUse">
<stop stop-color="#5C3856"/>
<stop offset="0.26" stop-color="#655378"/>
<stop offset="0.57" stop-color="#6E6E99"/>
<stop offset="0.83" stop-color="#737EAE"/>
<stop offset="1" stop-color="#7584B5"/>
</linearGradient>
<linearGradient id="paint24_linear_1304_6255" x1="348.867" y1="262.667" x2="380.161" y2="262.667" gradientUnits="userSpaceOnUse">
<stop stop-color="#5C3856"/>
<stop offset="0.26" stop-color="#655378"/>
<stop offset="0.57" stop-color="#6E6E99"/>
<stop offset="0.83" stop-color="#737EAE"/>
<stop offset="1" stop-color="#7584B5"/>
</linearGradient>
<linearGradient id="paint25_linear_1304_6255" x1="375.56" y1="257.771" x2="359.498" y2="257.771" gradientUnits="userSpaceOnUse">
<stop stop-color="#00003B"/>
<stop offset="0.59" stop-color="#00104F"/>
<stop offset="1" stop-color="#001656"/>
</linearGradient>
<linearGradient id="paint26_linear_1304_6255" x1="590.33" y1="185.292" x2="1283.39" y2="185.292" gradientUnits="userSpaceOnUse">
<stop stop-color="#B67AE7"/>
<stop offset="1" stop-color="#FFEBC4"/>
</linearGradient>
<linearGradient id="paint27_linear_1304_6255" x1="97.9184" y1="179.967" x2="1256.29" y2="179.967" gradientUnits="userSpaceOnUse">
<stop/>
<stop offset="1" stop-color="#3B549A"/>
</linearGradient>
<clipPath id="clip0_1304_6255">
<rect width="1280" height="379" fill="white"/>
</clipPath>
</defs>
</svg>
