<svg width="640" height="332" viewBox="0 0 640 332" fill="none" xmlns="http://www.w3.org/2000/svg">
<g clip-path="url(#clip0_1307_9430)">
<mask id="mask0_1307_9430" style="mask-type:alpha" maskUnits="userSpaceOnUse" x="-115" y="-112" width="1516" height="492">
<rect x="-115" y="-111.148" width="1516" height="490.294" fill="#D9D9D9"/>
</mask>
<g mask="url(#mask0_1307_9430)">
<path d="M834.337 80.5508H-182.884V296.561H834.337V80.5508Z" fill="url(#paint0_linear_1307_9430)"/>
<path d="M291.824 80.1289L327.805 84.4675L263.022 87.0707H350.213C350.213 87.0707 283.658 89.3788 282.466 89.9688C281.274 90.5589 374.016 90.2465 375.76 89.9688C377.503 89.6911 352.872 87.3657 352.872 87.3657C352.872 87.3657 381.064 85.96 381.805 85.2137C382.546 84.4675 335.158 83.1659 335.158 83.1659L353.613 80.9966L291.824 80.1289Z" fill="#7CE0FF"/>
<path d="M263.879 100.818C262.949 100.818 339.619 104.636 339.619 104.636C339.619 104.636 283.454 106.666 282.8 107.326C282.146 107.985 341.61 110.137 341.61 110.137C341.61 110.137 302.301 110.936 300.456 111.578C298.61 112.22 324.404 113.868 324.404 113.868C324.404 113.868 267.193 118.901 264.824 119.561C262.455 120.22 375.963 120.116 377.067 119.474C378.171 118.832 344.574 115.517 344.574 115.517C344.574 115.517 358.801 114.372 360.138 113.782C361.474 113.192 336.436 112.359 336.436 112.359C336.436 112.359 360.791 111.821 361.344 111.612C361.896 111.404 339.212 108.454 339.212 108.454C339.212 108.454 381.049 104.237 381.049 103.681C381.02 101.529 302.142 100.592 263.879 100.818Z" fill="#7CE0FF"/>
<path d="M282.887 133.646C282.887 133.646 329.098 125.68 409.022 133.489C408.964 133.489 332.062 136.231 282.887 133.646Z" fill="#7CE0FF"/>
<path d="M27.4043 81.2728C27.4043 81.2728 535.827 77.259 706.749 80.7298C706.749 80.7298 76.6378 83.8759 27.4043 81.2728Z" fill="#7CE0FF"/>
<path d="M279.124 182.939C279.124 182.939 325.349 180.44 405.259 182.939C405.259 182.939 328.372 183.737 279.124 182.939Z" fill="#7CE0FF"/>
<path d="M313.172 162.648C313.172 162.648 319.972 160.531 331.714 162.648C325.537 163.029 319.348 163.029 313.172 162.648Z" fill="#7CE0FF"/>
<path d="M345.897 201.925C345.897 201.925 352.683 199.808 364.439 201.925C358.263 202.307 352.074 202.307 345.897 201.925Z" fill="#7CE0FF"/>
<path d="M240.294 119.804C240.294 119.804 247.081 117.704 258.837 119.804C252.66 120.191 246.471 120.191 240.294 119.804Z" fill="#7CE0FF"/>
<path d="M241.821 201.925C241.821 201.925 277.917 199.808 340.317 201.925C340.317 201.873 280.271 202.602 241.821 201.925Z" fill="#7CE0FF"/>
<path d="M302.796 193.139C302.796 193.139 324.245 186.492 361.344 193.017C361.359 193.017 325.654 195.308 302.796 193.139Z" fill="#7CE0FF"/>
<path d="M208.775 182.07C208.775 182.07 230.224 175.406 267.324 181.931C267.251 181.931 231.561 184.239 208.775 182.07Z" fill="#7CE0FF"/>
<path d="M438.217 133.896C438.217 133.896 449.842 130.269 470.041 133.809C470.041 133.809 450.641 135.059 438.217 133.896Z" fill="#7CE0FF"/>
<path d="M302.796 141.872C302.796 141.872 326.846 137.759 361.344 141.751C361.359 141.751 325.654 144.042 302.796 141.872Z" fill="#7CE0FF"/>
<path style="mix-blend-mode:multiply" opacity="0.97" d="M834.337 191.686L229.861 206.628L424.775 211.574L-150.434 222.854L186.571 207.27L-182.884 193.647L834.337 169.646V161.246H-182.884V241.944H834.337V191.686Z" fill="url(#paint1_linear_1307_9430)"/>
<path style="mix-blend-mode:screen" opacity="0.45" d="M-182.884 138.441L621.68 161.245H-182.884V138.441Z" fill="url(#paint2_linear_1307_9430)"/>
<path style="mix-blend-mode:screen" opacity="0.25" d="M-182.884 219.68L621.68 242.501H-182.884V219.68Z" fill="url(#paint3_linear_1307_9430)"/>
<path style="mix-blend-mode:screen" opacity="0.45" d="M502.519 157.865L812.902 161.874C812.902 161.874 699.656 142.35 502.519 157.865Z" fill="url(#paint4_linear_1307_9430)"/>
<path style="mix-blend-mode:soft-light" opacity="0.6" d="M-29.5724 80.6287L186.57 89.8494L602.178 90.4047L679.109 79.6797L-29.5724 80.6287Z" fill="url(#paint5_radial_1307_9430)"/>
<g opacity="0.5">
<path style="mix-blend-mode:multiply" opacity="0.3" d="M39.1902 304.906L32.6073 275.56L33.5373 267.959L53.097 237.693L62.8042 239.654L62.5862 254.214L71.8575 220.495L62.7316 214.316L39.2919 218.933L23.6122 214.698L26.6929 246.96L26.1262 263.672L39.1902 304.906Z" fill="url(#paint6_linear_1307_9430)" fill-opacity="0.6"/>
<path style="mix-blend-mode:multiply" opacity="0.5" d="M40.2507 218.273L41.4569 255.707H51.9633L62.586 254.214L51.4256 253.468L41.8492 254.995L40.9482 226.204L40.2507 218.273Z" fill="url(#paint7_linear_1307_9430)" fill-opacity="0.6"/>
<path style="mix-blend-mode:multiply" opacity="0.5" d="M47.1245 217.385L53.097 237.69L62.8042 239.651L67.1928 237.464L62.5862 242.133L52.0943 239.235L49.1735 225.143L47.9964 225.195L45.8457 217.281L47.1245 217.385Z" fill="url(#paint8_linear_1307_9430)" fill-opacity="0.6"/>
<g style="mix-blend-mode:overlay" opacity="0.3">
<path d="M58.1544 240.904L54.1437 246.805H53.141L52.1964 247.308L44.7417 254.527L41.8499 254.996L52.0947 239.238L58.1544 240.904Z" fill="#E0AE79"/>
</g>
<path opacity="0.6" d="M62.8039 239.659L64.0536 233.359H62.8039H57.3545L53.0967 237.698L62.8039 239.659Z" fill="url(#paint9_linear_1307_9430)" fill-opacity="0.6"/>
</g>
<g opacity="0.2">
<path d="M541.828 222.5L539.096 233.399L532.557 242.944L529.142 238.345L522.341 220.748L529.171 219.949L537.512 221.633L541.828 222.5Z" fill="url(#paint10_linear_1307_9430)"/>
<path style="mix-blend-mode:multiply" opacity="0.5" d="M541.828 222.5L531.554 222.969L529.476 222.552L529.679 234.232L532.557 242.944L529.142 238.345L522.341 220.748L529.171 219.949L541.828 222.5Z" fill="url(#paint11_linear_1307_9430)"/>
<g style="mix-blend-mode:overlay" opacity="0.5">
<path d="M532.556 242.943L539.095 233.398L529.679 234.231L532.556 242.943Z" fill="#E0AE79"/>
</g>
</g>
<path d="M541.828 222.816L539.096 216.412L532.557 210.789L529.142 213.496L522.341 220.542L529.171 224.308L537.512 223.319L541.828 222.816Z" fill="url(#paint12_linear_1307_9430)"/>
<path style="mix-blend-mode:multiply" opacity="0.5" d="M541.828 222.816L531.554 222.538L529.476 222.781L529.679 215.909L532.557 210.789L529.142 213.496L522.341 220.542L529.171 224.308L541.828 222.816Z" fill="url(#paint13_linear_1307_9430)"/>
<g style="mix-blend-mode:overlay" opacity="0.5">
<path d="M532.556 210.793L539.096 216.416L529.679 215.913L532.556 210.793Z" fill="#E0AE79"/>
</g>
<path d="M278.76 146.62C279.486 146.516 278.309 146.378 277.307 146.308C276.667 146.308 275.853 146.221 275.185 146.308C274.255 146.308 274.197 146.499 274.299 146.62L274.546 146.915C274.546 146.915 274.647 147.002 274.982 147.037H275.984C277.699 147.037 279.327 146.915 280.736 146.794L278.76 146.62Z" fill="#1395FF"/>
<path d="M264.97 152.1C272.323 151.354 262.354 150.625 254.667 151.093C246.558 151.597 258.576 152.759 264.97 152.1Z" fill="#1395FF"/>
<path d="M416.027 146.823C413.484 146.597 409.851 146.528 406.785 146.649C406.276 147.013 406.945 147.413 409.328 147.656C412.229 147.936 415.145 147.936 418.047 147.656C420.052 147.378 418.047 146.857 414.792 146.892L416.027 146.823Z" fill="#1395FF"/>
<path d="M473.339 118.208C470.264 117.954 467.178 117.896 464.097 118.034C463.589 118.381 464.257 118.78 466.64 119.041C469.542 119.304 472.457 119.304 475.359 119.041C477.379 118.746 475.359 118.225 472.104 118.26L473.339 118.208Z" fill="#1395FF"/>
<path d="M278.79 161.973C276.261 161.782 272.613 161.73 269.547 161.834C269.039 162.129 269.707 162.476 272.09 162.684C274.993 162.912 277.906 162.912 280.809 162.684C282.829 162.441 280.809 161.99 277.554 162.025L278.79 161.973Z" fill="#1395FF"/>
<path d="M76.2021 114.078C73.659 113.887 70.0261 113.818 66.9599 113.939C66.4513 114.234 67.1198 114.581 69.503 114.79C72.4062 115.017 75.3188 115.017 78.222 114.79C80.2274 114.547 78.222 114.096 74.9669 114.13L76.2021 114.078Z" fill="#1395FF"/>
<path d="M575.091 101.04C572.563 100.832 568.915 100.78 565.849 100.884C565.34 101.196 566.009 101.526 568.392 101.752C571.295 101.98 574.208 101.98 577.111 101.752C579.116 101.509 577.111 101.058 573.856 101.075L575.091 101.04Z" fill="#1395FF"/>
<path d="M409.924 201.871C407.395 201.68 403.762 201.611 400.681 201.732C400.173 202.027 400.841 202.374 403.225 202.583C406.128 202.81 409.04 202.81 411.944 202.583C413.963 202.34 411.943 201.889 408.688 201.923L409.924 201.871Z" fill="#1395FF"/>
<path d="M418.207 181.2C415.678 180.992 412.045 180.94 408.965 181.044C408.456 181.357 409.125 181.704 411.508 181.912C414.411 182.14 417.324 182.14 420.227 181.912C422.247 181.669 420.227 181.218 416.972 181.252L418.207 181.2Z" fill="#1395FF"/>
<path d="M575.091 174.125C572.563 173.934 568.915 173.882 565.849 173.986C565.34 174.281 566.009 174.628 568.392 174.837C571.295 175.064 574.208 175.064 577.111 174.837C579.116 174.594 577.111 174.143 573.856 174.177L575.091 174.125Z" fill="#1395FF"/>
<path d="M585.917 177.052C587.035 176.972 588.156 176.972 589.274 177.052C589.899 177.174 588.983 177.313 588.126 177.399C587.685 177.429 587.244 177.429 586.803 177.399C585.626 177.399 586.615 177.104 585.525 177.035C585.761 176.999 586 176.999 586.237 177.035L585.917 177.052Z" fill="#1395FF"/>
<path d="M133.632 138.718C134.115 138.768 134.601 138.768 135.085 138.718C135.637 138.718 136.029 138.718 136.538 138.614C137.047 138.51 137.773 138.614 138.384 138.614C138.635 138.59 138.888 138.59 139.139 138.614C139.139 138.614 139.139 138.614 138.994 138.614C138.302 138.76 137.603 138.853 136.901 138.892C135.899 138.892 134.489 138.892 133.457 138.892C132.745 138.892 132.324 138.753 132.382 138.684C132.854 138.524 133.345 138.46 133.835 138.493L133.632 138.718Z" fill="#1395FF"/>
<path d="M436.923 189.988C434.54 190.474 433.378 191.029 433.537 191.567C433.537 191.567 433.625 191.741 434.031 191.828C435.48 192.007 436.935 192.088 438.391 192.071C441.91 192.15 445.429 191.953 448.927 191.48C450.801 191.099 450.38 190.647 448.113 190.283C446.328 190.036 444.533 189.902 442.736 189.884C440.743 189.799 438.747 189.881 436.763 190.127C437.382 190.196 438.005 190.196 438.624 190.127L436.923 189.988Z" fill="#1395FF"/>
<path d="M451.456 146.808C449.072 147.311 447.91 147.849 448.07 148.387C448.07 148.474 448.157 148.56 448.564 148.647C450.012 148.826 451.467 148.907 452.923 148.89C456.442 148.97 459.962 148.773 463.459 148.3C465.333 147.918 464.912 147.467 462.645 147.103C460.865 146.85 459.075 146.711 457.283 146.686C455.284 146.597 453.283 146.684 451.296 146.946C451.92 147.007 452.547 147.007 453.17 146.946L451.456 146.808Z" fill="#1395FF"/>
<path d="M288.162 124.275C285.793 124.761 284.616 125.316 284.776 125.854C284.776 125.941 284.863 126.027 285.27 126.114C286.718 126.293 288.174 126.374 289.63 126.357C293.144 126.437 296.658 126.24 300.151 125.767C302.025 125.385 301.604 124.934 299.337 124.57C297.557 124.316 295.767 124.177 293.975 124.153C291.982 124.069 289.986 124.15 288.002 124.396C288.621 124.466 289.244 124.466 289.862 124.396L288.162 124.275Z" fill="#1395FF"/>
<path d="M467.251 161.871C464.868 162.374 463.706 162.912 463.866 163.45C463.866 163.537 463.953 163.641 464.36 163.71C465.808 163.889 467.263 163.97 468.719 163.953C472.233 164.041 475.748 163.844 479.24 163.363C481.115 162.981 480.693 162.53 478.426 162.166C476.646 161.913 474.856 161.774 473.064 161.749C471.071 161.659 469.074 161.746 467.092 162.009C467.711 162.061 468.332 162.061 468.952 162.009L467.251 161.871Z" fill="#1395FF"/>
<path d="M178.855 185.908C176.486 186.412 175.309 186.949 175.469 187.487C175.469 187.574 175.556 187.678 175.963 187.748C177.411 187.927 178.867 188.008 180.322 187.991C183.837 188.088 187.352 187.891 190.843 187.401C192.718 187.036 192.296 186.568 190.03 186.203C188.25 185.95 186.46 185.811 184.667 185.787C182.674 185.706 180.678 185.793 178.695 186.047C179.314 186.099 179.936 186.099 180.555 186.047L178.855 185.908Z" fill="#1395FF"/>
<path d="M11.1435 117.619C8.76029 118.122 7.58327 118.66 7.74312 119.198C7.74312 119.285 7.84479 119.389 8.23715 119.459C9.68535 119.637 11.1408 119.718 12.5967 119.701C16.1157 119.799 19.6362 119.602 23.1322 119.111C24.9922 118.747 24.5854 118.278 22.3039 117.914C20.5241 117.66 18.734 117.521 16.9416 117.498C14.9481 117.418 12.9524 117.504 10.9691 117.758C11.5884 117.81 12.21 117.81 12.8292 117.758L11.1435 117.619Z" fill="#1395FF"/>
<path d="M517.444 138.679C515.061 139.165 513.883 139.703 514.043 140.259C514.043 140.259 514.145 140.432 514.537 140.501C515.985 140.688 517.441 140.775 518.897 140.762C522.416 140.847 525.936 140.644 529.432 140.154C531.292 139.79 530.885 139.321 528.604 138.974C526.825 138.713 525.035 138.568 523.242 138.54C521.248 138.46 519.253 138.547 517.269 138.801C517.888 138.87 518.511 138.87 519.129 138.801L517.444 138.679Z" fill="#1395FF"/>
<path d="M244.697 138.51C242.314 139.013 241.152 139.551 241.311 140.089C241.311 140.176 241.399 140.28 241.805 140.35C243.254 140.528 244.709 140.61 246.165 140.593C249.679 140.69 253.195 140.493 256.686 140.003C258.56 139.638 258.139 139.17 255.872 138.805C254.092 138.553 252.302 138.413 250.51 138.389C248.516 138.308 246.521 138.395 244.537 138.649C245.157 138.701 245.778 138.701 246.397 138.649L244.697 138.51Z" fill="#1395FF"/>
<path d="M505.44 140.367C505.905 140.142 505.571 139.916 504.539 139.725C504.288 139.701 504.035 139.701 503.784 139.725C503.295 139.708 502.807 139.766 502.331 139.899C501.677 140.02 500.194 140.072 499.54 140.194C498.886 140.315 499.177 140.419 499.351 140.541C500.168 140.874 501.035 140.998 501.895 140.905C502.507 140.903 503.119 140.851 503.726 140.749C504.458 140.658 505.183 140.489 505.891 140.246L505.44 140.367Z" fill="#1395FF"/>
<path d="M381.862 156.624C382.226 156.624 382.24 156.711 381.964 156.763C381.688 156.815 381.223 156.763 380.772 156.763H380.002C379.465 156.763 379.247 156.659 379.581 156.589C380.118 156.543 380.657 156.543 381.194 156.589C381.703 156.589 381.891 156.711 381.63 156.763L381.862 156.624Z" fill="#1395FF"/>
<path d="M390.829 159.057C390.001 158.848 388.896 158.658 387.545 158.467H386.949C386.697 158.449 386.445 158.449 386.193 158.467C384.981 158.731 383.759 158.922 382.531 159.039H381.427C380.947 159.039 381.427 159.178 381.877 159.23C384.701 159.468 387.538 159.387 390.349 158.987L390.625 159.091L390.829 159.057Z" fill="#1395FF"/>
<path d="M377.765 147.258C378.303 147.258 378.55 147.379 378.39 147.449C377.911 147.555 377.424 147.602 376.937 147.588C376.599 147.643 376.257 147.643 375.919 147.588H376.123L377.474 147.345H377.808L377.765 147.258Z" fill="#1395FF"/>
<path d="M375.178 148.681C374.553 148.681 374.756 148.855 375.047 148.942C375.338 149.029 378.782 149.167 378.302 149.237H374.64C374.329 149.252 374.019 149.199 373.725 149.081C373.521 149.081 368.624 148.959 368.333 148.907C367.65 148.82 372.097 148.716 372.693 148.612C373.25 148.577 373.807 148.577 374.364 148.612C374.843 148.612 375.076 148.716 374.945 148.786L375.178 148.681Z" fill="#1395FF"/>
<path d="M377.765 151.7C375.236 151.474 370.876 151.821 369.162 151.908C368.653 152.255 368.682 152.29 371.065 152.533C373.968 152.796 376.882 152.796 379.784 152.533C381.79 152.255 379.784 151.717 376.529 151.752L377.765 151.7Z" fill="#1395FF"/>
<path d="M385.815 151.695H384.188C384.188 151.695 384.188 151.799 384.333 151.851C384.941 151.887 385.55 151.841 386.15 151.713L385.815 151.695Z" fill="#1395FF"/>
<path d="M384.449 157.672C384.932 157.737 385.42 157.737 385.902 157.672L387.356 157.551C387.893 157.551 388.591 157.551 389.201 157.551C389.455 157.552 389.708 157.581 389.957 157.638C389.957 157.638 389.957 157.638 389.811 157.724C389.121 157.892 388.422 158.003 387.719 158.054C386.572 158.124 385.422 158.124 384.275 158.054C383.563 158.054 383.141 157.898 383.2 157.811C383.638 157.629 384.102 157.553 384.565 157.586L384.449 157.672Z" fill="#1395FF"/>
<path d="M386.222 158.331C385.503 158.233 384.776 158.233 384.057 158.331C383.621 158.435 383.941 158.539 384.275 158.644C385.125 158.673 385.974 158.574 386.803 158.349L386.222 158.331Z" fill="#1395FF"/>
<path d="M245.932 147.476C245.213 147.378 244.486 147.378 243.767 147.476C243.331 147.58 243.651 147.684 243.985 147.788C244.835 147.819 245.685 147.72 246.514 147.493L245.932 147.476Z" fill="#1395FF"/>
<path d="M387.166 161.923C385.132 161.923 383.039 161.923 380.961 161.923H380.249C380.046 161.923 379.987 161.923 380.002 162.01C380.017 162.097 382.908 162.461 381.964 162.669C381.79 162.669 381.499 162.756 381.557 162.791C382.089 162.849 382.624 162.849 383.155 162.791C386.44 162.687 388.14 162.201 386.323 161.871H387.224L387.166 161.923Z" fill="#1395FF"/>
<path d="M274.967 132.888C272.933 132.888 270.84 132.888 268.762 132.888H268.05C267.847 132.888 267.788 132.888 267.803 132.975C267.818 133.062 270.709 133.426 269.765 133.634C269.605 133.634 269.3 133.634 269.358 133.756C269.89 133.814 270.425 133.814 270.956 133.756C274.241 133.652 275.941 133.166 274.124 132.836H275.025L274.967 132.888Z" fill="#1395FF"/>
<path d="M392.907 154.881C400.26 153.995 390.291 153.145 382.604 153.7C374.539 154.291 386.513 155.644 392.907 154.881Z" fill="#1395FF"/>
<path d="M391.875 120.841C399.228 119.956 389.259 119.106 381.557 119.661C373.434 120.251 385.408 121.605 391.875 120.841Z" fill="#1395FF"/>
<path d="M366.081 160.998C373.434 160.252 363.465 159.523 355.763 159.992C347.698 160.495 359.687 161.658 366.081 160.998Z" fill="#1395FF"/>
<path d="M195.218 111.783C202.571 111.036 192.602 110.29 184.915 110.776C176.806 111.279 188.824 112.442 195.218 111.783Z" fill="#1395FF"/>
<path d="M424.847 133.81C432.2 133.064 422.231 132.317 414.53 132.803C406.406 133.307 418.453 134.469 424.847 133.81Z" fill="#1395FF"/>
<path d="M164.192 139.289C164.555 139.289 164.57 139.394 164.294 139.428C164.017 139.463 163.552 139.428 163.102 139.428H162.274C161.721 139.428 161.518 139.307 161.852 139.237C162.384 139.192 162.919 139.192 163.451 139.237C163.974 139.237 164.163 139.359 163.901 139.428L164.192 139.289Z" fill="#1395FF"/>
<path d="M173.158 141.742C172.073 141.474 170.976 141.277 169.873 141.152C169.67 141.132 169.466 141.132 169.263 141.152C169.016 141.134 168.769 141.134 168.522 141.152C167.307 141.426 166.079 141.617 164.846 141.725C164.468 141.725 164.032 141.725 163.741 141.725C163.451 141.725 163.741 141.864 164.206 141.898C167.025 142.136 169.857 142.055 172.664 141.655L172.954 141.759L173.158 141.742Z" fill="#1395FF"/>
<path d="M166.765 140.336C167.247 140.409 167.735 140.409 168.218 140.336L169.671 140.215C170.223 140.215 170.921 140.215 171.516 140.215C171.772 140.182 172.031 140.182 172.287 140.215C172.287 140.215 172.287 140.215 172.141 140.302C171.446 140.471 170.742 140.581 170.034 140.631C168.892 140.71 167.747 140.71 166.605 140.631C165.893 140.631 165.457 140.475 165.515 140.389C165.982 140.199 166.476 140.122 166.968 140.163L166.765 140.336Z" fill="#1395FF"/>
<path d="M168.551 140.993C167.832 140.888 167.105 140.888 166.386 140.993C165.95 141.08 166.27 141.201 166.604 141.288C167.454 141.327 168.305 141.228 169.133 140.993H168.551Z" fill="#1395FF"/>
<path d="M251.877 139.38C251.158 139.274 250.431 139.274 249.712 139.38C249.276 139.467 249.595 139.588 249.929 139.675C250.779 139.704 251.629 139.605 252.458 139.38H251.877Z" fill="#1395FF"/>
<path d="M169.539 144.601C167.505 144.601 165.398 144.601 163.334 144.601H162.608C162.419 144.601 162.361 144.601 162.375 144.688C162.39 144.775 165.282 145.139 164.337 145.347C164.163 145.347 163.872 145.434 163.93 145.469C164.462 145.527 164.997 145.527 165.529 145.469C168.798 145.365 170.513 144.879 168.682 144.566H169.539V144.601Z" fill="#1395FF"/>
<path d="M540.883 113.527C538.849 113.527 536.742 113.527 534.678 113.527H533.966C533.763 113.527 533.704 113.527 533.719 113.614C533.733 113.7 536.625 114.065 535.681 114.273C535.506 114.273 535.216 114.36 535.274 114.395C535.806 114.453 536.341 114.453 536.872 114.395C540.157 114.29 541.857 113.805 540.04 113.492H540.883V113.527Z" fill="#1395FF"/>
<path d="M175.237 137.539C182.59 136.671 172.621 135.803 164.919 136.359C156.854 136.949 168.843 138.302 175.237 137.539Z" fill="#1395FF"/>
<path d="M148.411 143.67C155.764 142.924 145.795 142.195 138.093 142.681C130.028 143.184 142.017 144.329 148.411 143.67Z" fill="#1395FF"/>
<path opacity="0.5" d="M250.917 259.676L258.183 259.051C258.183 259.051 253.3 259.294 250.917 259.676Z" fill="#1AFFFF"/>
<g opacity="0.16">
<path opacity="0.3" d="M271.146 266.26C271.146 266.26 254.362 266.26 254.071 266.26C253.78 266.26 257.631 267.215 257.631 267.215C257.631 267.215 245.773 268.582 245.047 268.951C244.32 269.319 269.634 270.187 273.572 268.951C277.51 267.714 278.746 267.128 279.923 266.911C281.1 266.694 295.632 267.02 295.908 266.239C296.184 265.458 288.351 264.655 287.915 264.286C285.649 263.506 283.321 263.193 280.998 263.353C277.714 263.484 269.227 264.764 268.501 265.002C267.774 265.241 271.146 266.26 271.146 266.26Z" fill="#33B9F8"/>
<path opacity="0.4" d="M176.907 256.846C176.325 256.368 259.258 248.32 259.258 248.32C259.258 248.32 204.808 246.281 204.808 247.148C204.808 248.016 217.494 249.188 216.52 250.945C215.547 252.702 157.216 250.055 155.327 252.095C153.438 254.134 166.429 256.846 166.429 256.846C166.429 256.846 178.869 258.494 176.122 259.948C173.376 261.401 102.577 264.612 100.557 264.287C98.5373 263.961 82.5669 259.948 82.5669 259.948C81.5933 259.948 32.8685 259.666 31.9094 259.08C30.9503 258.494 17.5811 256.781 19.3976 256.564C21.214 256.347 93.1604 250.641 93.3493 249.188C93.5382 247.734 59.0255 249.47 54.9276 248.884C50.8296 248.298 -7.31189 245.109 -9.6515 244.827C-11.9911 244.545 -16.2924 238.991 -22.1342 237.603C-27.976 236.214 -72.2395 233.264 -72.2395 233.264C-72.2395 233.264 -54.5399 228.339 -56.2546 228.231C-57.9694 228.123 -111.155 225.085 -132.924 227.125C-156.771 229.294 -173.816 230.964 -175.691 231.073C-177.565 231.181 -184.526 229.728 -188.028 229.967C-191.53 230.205 -205.815 229.967 -205.815 229.967C-201.86 231.487 -197.853 232.689 -193.812 233.568C-191.367 233.64 -188.926 233.254 -186.546 232.418C-186.546 232.418 -165.184 231.941 -157.831 232.418C-150.478 232.895 -137.08 237.191 -138.141 237.69C-139.202 238.189 -178.83 236.865 -168.803 240.749C-158.776 244.632 -96.2605 244.176 -94.6039 244.133C-92.9473 244.09 -77.529 246.563 -75.4655 247.018C-73.402 247.474 -57.6352 249.405 -56.4581 250.055C-55.281 250.706 -46.6492 254.394 -46.6492 254.394C-46.6492 254.394 -110.153 252.225 -113.495 256.976C-114.149 257.865 -69.1297 259.297 -69.1297 259.297C-69.1297 259.297 -65.3224 260.816 -65.7729 261.25C-66.2234 261.684 -103.076 262.573 -103.076 262.573C-103.076 262.573 -70.7282 263.441 -69.4204 263.875C-68.1125 264.309 -63.8983 270.383 -53.4355 270.231C-42.9726 270.079 -36.5786 270.426 -24.59 270.231C-24.125 270.231 -25.8979 272.748 -26.3484 273.832C-26.7989 274.917 20.9232 277.26 20.1531 278.8C19.3829 280.341 -65.3079 283.877 -65.3079 283.877H348.512C348.512 283.877 241.835 260.989 240.28 259.232C238.725 257.475 177.503 257.388 176.907 256.846ZM-100.358 231.116C-100.358 233.286 -116.067 231.984 -116.183 230.769C-116.183 228.925 -100.329 228.643 -100.358 231.181V231.116ZM-134.087 237.625C-134.304 236.366 -128.623 234.197 -118.814 234.609C-118.814 234.609 -90.535 237.429 -90.5059 238.037C-90.4769 238.644 -133.898 238.905 -134.087 237.668V237.625ZM-70.3794 240.076C-78.8805 239.707 -88.0355 239.143 -88.239 238.21C-88.4424 237.278 -68.4322 235.672 -68.4322 235.672C-68.4322 235.672 -33.062 237.256 -31.4925 238.427C-29.9231 239.599 -60.2218 240.553 -70.3794 240.119V240.076ZM60.0718 269.45C59.7376 267.454 74.4582 264.265 83.1191 266.304C83.1191 266.304 90.385 266.565 90.385 267.541C90.385 268.517 60.3915 271.446 60.0718 269.493V269.45ZM134.547 269.559C134.547 267.628 150.401 267.281 150.372 269.906C150.343 272.032 134.663 270.795 134.547 269.602V269.559ZM182.371 259.08C182.516 258.842 189.288 258.56 189.172 259.08C189.055 259.601 182.225 259.341 182.371 259.124V259.08Z" fill="url(#paint14_linear_1307_9430)"/>
<path opacity="0.7" d="M364.541 283.482H496.779C496.779 283.482 475.708 277.082 466.147 275.629C456.585 274.175 450.932 271.55 443.128 269.728C435.325 267.905 390.64 266.018 391.236 264.977C391.831 263.935 420.546 261.788 419.776 260.269C419.006 258.75 380.758 258.62 371.385 259.249C365.892 259.618 332.949 262.287 332.949 262.287C332.949 262.287 373.478 268.925 373.87 270.183C374.262 271.442 370.542 273.286 371.908 275.325C373.274 277.364 381.47 275.911 380.497 277.082C379.523 278.254 364.541 283.482 364.541 283.482Z" fill="url(#paint15_linear_1307_9430)"/>
<path style="mix-blend-mode:screen" opacity="0.4" d="M280.242 283.924C280.242 283.924 262.935 281.082 247.72 280.41C232.505 279.737 213.643 280.106 212.466 279C211.289 277.893 276.784 272.036 277.859 271.211C278.934 270.387 251.019 272.47 249.9 271.211C249.58 270.843 250.103 270.582 250.99 270.344C238.885 271.645 214.66 274.249 200.768 275.897C191.86 275.897 184.609 274.335 184.885 273.728C185.321 272.665 221.49 268.673 219.209 268.022C218.482 267.805 152.654 270.062 154.281 271.168C155.008 271.645 168.9 273.663 177.416 278.371C154.645 279.238 123.765 280.366 118.693 280.54C110.497 280.757 95.6893 278.588 96.3578 277.481C97.0262 276.375 114.057 278.436 115.569 278.284C117.08 278.132 121.57 278.284 126.831 278.002C132.091 277.72 133.268 277.134 132.643 276.83C130.285 275.767 127.841 275.183 125.378 275.095C123.038 275.377 120.887 276.548 119.332 276.765C117.777 276.982 116.019 277.264 115.482 277.264C114.944 277.264 63.2835 275.529 62.1209 276.613C60.9584 277.698 69.8374 280.562 69.8374 280.562L23.1615 284.054L280.242 283.924Z" fill="url(#paint16_linear_1307_9430)"/>
<path style="mix-blend-mode:screen" opacity="0.45" d="M61.2203 273.372C61.2203 273.372 35.5572 270.248 33.2176 270.161C30.878 270.074 3.5584 269.792 0.928162 269.554C-1.70208 269.315 28.2479 266.256 29.0181 265.692C29.7883 265.128 10.9696 264.672 10.5772 264.239C10.1849 263.805 27.1725 262.785 27.1725 262.785L-28.8328 261.614C-28.8328 261.614 -43.9457 262.785 -46.7794 262.937C-49.6131 263.089 -58.4048 261.614 -58.4048 261.614L-23.1072 260.898C-23.1072 260.898 28.2334 258.88 31.939 259.14L27.5795 261.31L7.49653 260.225C7.49653 260.225 42.3727 261.744 45.8312 262.611C49.2898 263.479 42.1255 264.521 42.1255 264.521C42.1255 264.521 31.4884 265.019 31.096 266.234C30.7037 267.449 61.1477 271.354 61.1477 271.354L82.2332 272.222L61.2203 273.372Z" fill="url(#paint17_linear_1307_9430)"/>
</g>
<path d="M401.248 154.839C401.248 154.839 413.774 152.617 438.013 154.839C438.013 154.839 424.222 158.258 401.248 154.839Z" fill="#1395FF"/>
<path d="M30.6708 180.024L9.89062 179.379L16.0933 143.331L27.7452 132.085L20.7516 112.457L26.0627 73.9951L36.547 55.2815L58.9469 48.8637L68.6276 7.7777L72.7334 3.78906L75.0562 10.5818L97.092 36.4479L103.106 80.7128L108.844 84.7915L115.574 57.5157L119.492 50.1233L123.409 41.966L132.349 56.0912L134.584 80.7128L142.055 103.625L143.8 157.007L145.608 180.624L87.3611 180.609L30.6708 180.024Z" fill="url(#paint18_linear_1307_9430)"/>
<path d="M68.6279 7.7777V59.2851L72.3822 63.5737V79.1384V89.3349L82.8162 112.907L85.9678 122.938L88.0646 145.161L92.9238 155.237L97.7202 136.704L96.0628 130.766L95.1211 119.805L100.319 126.357L103.056 142.147L105.254 168.313L107.79 172.587L105.078 115.771L105.254 94.0283L103.395 83.7568L103.107 80.7128L97.0924 36.4479L90.3372 28.5006L89.7471 42.2659L91.2538 70.4263L88.2027 43.8554L84.348 35.2633L82.9041 19.7886L75.0566 10.5818L72.7337 3.78906L68.6279 7.7777Z" fill="#005F9B"/>
<path style="mix-blend-mode:multiply" opacity="0.5" d="M123.41 41.9688L115.575 57.5184L108.845 84.7942L103.106 80.7155L105.254 94.031L107.79 172.589L109.937 180.626H117.056L117.219 137.111L122.292 112.64L119.58 145.164L125.318 156.44L132.224 180.626V159.469L131.044 145.164V117.183L128.181 113.554L122.493 111.305L126.498 87.1933L125.318 88.198L122.041 109.326L123.41 41.9688Z" fill="url(#paint19_linear_1307_9430)"/>
<path d="M123.41 41.9688L119.58 57.6534V77.3267L122.292 112.64L123.41 105.517L125.318 88.198L126.499 87.1933L128.344 102.893V114.769L131.044 117.183V145.164L132.224 159.469V172.619V180.626H145.609L143.801 157.01L142.055 103.628L139.645 98.2596L134.748 92.2166L134.246 100.719L132.601 99.2642V87.0884V78.1364L133.655 85.0791L134.924 85.9788L134.585 80.7155L132.35 56.0939L123.41 41.9688Z" fill="#005F9B"/>
<path d="M36.5468 55.285L35.7181 65.9164L47.4705 87.0892L53.9494 88.1988L60.8552 94.4966L58.9718 88.1988L60.8552 81.2562L58.9467 48.8672L36.5468 55.285Z" fill="#005F9B"/>
<path style="mix-blend-mode:multiply" opacity="0.5" d="M35.7183 65.9086L47.4707 87.0814L50.2958 101.477L53.9496 88.191L60.8554 94.4889V122.934L67.824 140.733L62.8644 95.6435L60.8554 81.2484L59.2482 49.8341L68.6276 7.77344V59.2809L67.3217 83.5576L72.3818 63.5694V89.3306L70.1845 106.515L76.5881 137.314L85.9674 122.934L88.0642 145.157L92.9234 155.233L84.1719 180.575L9.89062 179.375L16.0933 143.327L28.3856 149.79L40.2133 153.494L27.7452 132.081L20.7516 112.453L26.0627 73.9909L36.547 55.2772L35.7183 65.9086Z" fill="url(#paint20_linear_1307_9430)"/>
<path d="M72.7337 3.78906L75.0566 10.5818L77.3795 25.1868L77.7561 47.4242L83.3184 59.2851L80.0539 41.9061L78.0198 28.9805L83.3184 21.7529L84.348 35.2633L88.2027 43.8554L92.0574 76.5143L92.5973 92.2139V103.7L85.5157 100.716L80.0539 88.1953L73.7508 63.5737V70.4264L72.3822 89.3349V63.5737L68.6279 59.2851V7.7777L72.7337 3.78906Z" fill="#007BA8"/>
<path d="M119.58 57.6534V77.3267L121.099 71.6736V77.3267L126.499 87.1933L125.519 74.9125L127.93 69.3494L126.913 61.777L132.35 56.0939L123.41 41.9688L119.58 57.6534Z" fill="#007BA8"/>
<path d="M94.9329 107.227L102.341 126.03L104.249 135.297L102.931 118.698L94.9329 107.227Z" fill="#007BA8"/>
<path d="M59.2481 49.8419L43.0885 56.7845L41.1925 59.2886L43.2141 69.3202L43.3396 72.799L44.4822 77.3275L41.1925 73.0989L36.8984 68.0457L45.8634 81.4061L47.4705 87.0892L35.7181 65.9164L36.5468 55.285L58.9467 48.8672L59.2481 49.8419Z" fill="#007BA8"/>
<path d="M131.044 117.176L132.601 146.176L134.748 150L136.945 161.066L139.808 172.582H142.005H144.994L145.609 180.619H132.224L131.722 151.604L131.044 145.156V117.176Z" fill="#007BA8"/>
<path d="M134.748 92.2148L134.246 100.717V105.71L131.044 115.772V117.181L137.284 125.638V129.672L140.147 145.162V125.788V118.696L142.495 117.181L142.055 103.626L139.645 98.2578L134.748 92.2148Z" fill="#007BA8"/>
<path d="M58.7584 180.146C63.5211 179.326 68.3234 178.875 73.1351 178.797C77.7682 179.082 111.607 180.971 111.607 180.971C111.607 180.971 60.1145 180.641 58.7584 180.146Z" fill="#1395FF" fill-opacity="0.2"/>
<path d="M72.734 3.78906L76.099 17.1345H77.7564L97.0926 36.4479L103.107 80.7128L97.7958 35.9381L76.6515 11.7514L72.734 3.78906Z" fill="#7CE0FF"/>
<path d="M123.409 41.9688L131.043 57.4585L134.835 81.6152L132.349 56.0939L123.409 41.9688Z" fill="#7CE0FF"/>
<path d="M136.355 86.1406L140.699 103.7L143.801 157.006L142.055 103.625L136.355 86.1406Z" fill="#7CE0FF"/>
<path d="M224.22 171.635L212.97 147.569L204.042 132.169L195.994 128.75L184.706 149.713L185.196 158.2L182.534 166.942L196.911 172.775L216.335 174.769L224.22 171.635Z" fill="url(#paint21_linear_1307_9430)"/>
<path style="mix-blend-mode:multiply" opacity="0.5" d="M195.994 128.75L190.306 143.67L191.11 147.524L208.01 162.908L216.398 161.904L216.209 154.511L224.22 171.635L216.335 174.769L196.082 172.43L182.534 166.942L185.196 158.2L184.706 149.713L195.994 128.75Z" fill="url(#paint22_linear_1307_9430)"/>
<path d="M212.97 147.569L216.209 154.511L195.266 148.678L190.306 143.67L195.994 128.75L204.042 132.169L212.97 147.569Z" fill="#005F9B"/>
<path style="mix-blend-mode:multiply" opacity="0.5" d="M196.91 172.778L197.953 153.75H207.031L216.209 154.515L206.566 154.89L198.292 154.11L197.513 168.745L196.91 172.778Z" fill="url(#paint23_linear_1307_9430)"/>
<path style="mix-blend-mode:multiply" opacity="0.5" d="M202.849 173.225L208.01 162.909L216.397 161.904L220.189 163.014L216.209 160.645L207.143 162.129L204.619 169.282L203.602 169.252L201.744 173.27L202.849 173.225Z" fill="url(#paint24_linear_1307_9430)"/>
<path d="M212.379 161.273L208.914 158.274H208.048L207.231 158.019L200.79 154.345L198.292 154.105L207.144 162.128L212.379 161.273Z" fill="#005F9B"/>
<path d="M216.397 161.902L217.477 165.111H216.397H211.689L208.01 162.907L216.397 161.902Z" fill="url(#paint25_linear_1307_9430)"/>
<path d="M195.995 128.75L202.398 133.518L216.247 155.636L219.663 161.904L214.427 150.268L204.043 132.169L195.995 128.75Z" fill="#7CE0FF"/>
<path style="mix-blend-mode:multiply" opacity="0.97" d="M834.337 111.316L286.012 129.261L834.337 124.402V111.316Z" fill="url(#paint26_linear_1307_9430)"/>
<path style="mix-blend-mode:screen" opacity="0.45" d="M812.903 124.573C812.903 124.573 502.52 136.357 299.933 138.04C103.101 139.689 -103.555 133.32 -103.555 133.32L286.026 129.241L116.819 115.948L609.095 110.047L27.6957 92.207C27.6957 92.207 569.496 104.442 784.798 111.297L425.298 127.402L812.903 124.573Z" fill="url(#paint27_linear_1307_9430)"/>
</g>
</g>
<defs>
<linearGradient id="paint0_linear_1307_9430" x1="325.727" y1="296.561" x2="325.727" y2="80.5508" gradientUnits="userSpaceOnUse">
<stop stop-color="#0C1226"/>
<stop offset="0.42" stop-color="#0F1836"/>
<stop offset="1" stop-color="#0052A4"/>
</linearGradient>
<linearGradient id="paint1_linear_1307_9430" x1="-182.884" y1="201.595" x2="834.337" y2="201.595" gradientUnits="userSpaceOnUse">
<stop stop-color="#B67AE7"/>
<stop offset="1" stop-color="#FFEBC4"/>
</linearGradient>
<linearGradient id="paint2_linear_1307_9430" x1="-182.884" y1="149.843" x2="621.68" y2="149.843" gradientUnits="userSpaceOnUse">
<stop/>
<stop offset="1" stop-color="#3B549A"/>
</linearGradient>
<linearGradient id="paint3_linear_1307_9430" x1="-182.884" y1="231.099" x2="621.68" y2="231.099" gradientUnits="userSpaceOnUse">
<stop/>
<stop offset="1" stop-color="#3B549A"/>
</linearGradient>
<linearGradient id="paint4_linear_1307_9430" x1="502.519" y1="156.876" x2="812.902" y2="156.876" gradientUnits="userSpaceOnUse">
<stop/>
<stop offset="1" stop-color="#3B549A"/>
</linearGradient>
<radialGradient id="paint5_radial_1307_9430" cx="0" cy="0" r="1" gradientUnits="userSpaceOnUse" gradientTransform="translate(324.883 85.0422) scale(250.498 299.155)">
<stop stop-color="#FFFFB5"/>
<stop offset="0.99" stop-color="#FA8374"/>
</radialGradient>
<linearGradient id="paint6_linear_1307_9430" x1="52.9038" y1="215.174" x2="34.3333" y2="306.645" gradientUnits="userSpaceOnUse">
<stop stop-color="#5C3856"/>
<stop offset="0.26" stop-color="#655378"/>
<stop offset="0.57" stop-color="#6E6E99"/>
<stop offset="0.83" stop-color="#737EAE"/>
<stop offset="1" stop-color="#7584B5"/>
</linearGradient>
<linearGradient id="paint7_linear_1307_9430" x1="40.2507" y1="236.981" x2="62.586" y2="236.981" gradientUnits="userSpaceOnUse">
<stop stop-color="#5C3856"/>
<stop offset="0.26" stop-color="#655378"/>
<stop offset="0.57" stop-color="#6E6E99"/>
<stop offset="0.83" stop-color="#737EAE"/>
<stop offset="1" stop-color="#7584B5"/>
</linearGradient>
<linearGradient id="paint8_linear_1307_9430" x1="45.8457" y1="229.707" x2="67.1928" y2="229.707" gradientUnits="userSpaceOnUse">
<stop stop-color="#5C3856"/>
<stop offset="0.26" stop-color="#655378"/>
<stop offset="0.57" stop-color="#6E6E99"/>
<stop offset="0.83" stop-color="#737EAE"/>
<stop offset="1" stop-color="#7584B5"/>
</linearGradient>
<linearGradient id="paint9_linear_1307_9430" x1="64.0536" y1="236.938" x2="53.0967" y2="236.938" gradientUnits="userSpaceOnUse">
<stop stop-color="#00003B"/>
<stop offset="0.59" stop-color="#00104F"/>
<stop offset="1" stop-color="#001656"/>
</linearGradient>
<linearGradient id="paint10_linear_1307_9430" x1="539.402" y1="225.539" x2="535.059" y2="246.934" gradientUnits="userSpaceOnUse">
<stop stop-color="#00003B"/>
<stop offset="0.59" stop-color="#00104F"/>
<stop offset="1" stop-color="#001656"/>
</linearGradient>
<linearGradient id="paint11_linear_1307_9430" x1="539.402" y1="225.539" x2="535.059" y2="246.934" gradientUnits="userSpaceOnUse">
<stop stop-color="#5C3856"/>
<stop offset="0.26" stop-color="#655378"/>
<stop offset="0.57" stop-color="#6E6E99"/>
<stop offset="0.83" stop-color="#737EAE"/>
<stop offset="1" stop-color="#7584B5"/>
</linearGradient>
<linearGradient id="paint12_linear_1307_9430" x1="539.567" y1="226.816" x2="538.015" y2="213.82" gradientUnits="userSpaceOnUse">
<stop stop-color="#00003B"/>
<stop offset="0.59" stop-color="#00104F"/>
<stop offset="1" stop-color="#001656"/>
</linearGradient>
<linearGradient id="paint13_linear_1307_9430" x1="539.567" y1="226.816" x2="538.015" y2="213.82" gradientUnits="userSpaceOnUse">
<stop stop-color="#5C3856"/>
<stop offset="0.26" stop-color="#655378"/>
<stop offset="0.57" stop-color="#6E6E99"/>
<stop offset="0.83" stop-color="#737EAE"/>
<stop offset="1" stop-color="#7584B5"/>
</linearGradient>
<linearGradient id="paint14_linear_1307_9430" x1="-9.52059" y1="256.52" x2="516.714" y2="260.735" gradientUnits="userSpaceOnUse">
<stop stop-color="#141A3B"/>
<stop offset="0.99" stop-color="#1DA1F2"/>
</linearGradient>
<linearGradient id="paint15_linear_1307_9430" x1="-9.59293" y1="264.239" x2="516.657" y2="268.454" gradientUnits="userSpaceOnUse">
<stop stop-color="#001252"/>
<stop offset="0.99" stop-color="#005F9B"/>
</linearGradient>
<linearGradient id="paint16_linear_1307_9430" x1="23.0888" y1="275.919" x2="280.242" y2="275.919" gradientUnits="userSpaceOnUse">
<stop stop-color="#141D3A"/>
<stop offset="1" stop-color="#139CFF"/>
</linearGradient>
<linearGradient id="paint17_linear_1307_9430" x1="-58.3903" y1="266.256" x2="82.3059" y2="266.256" gradientUnits="userSpaceOnUse">
<stop/>
<stop offset="1" stop-color="#3B549A"/>
</linearGradient>
<linearGradient id="paint18_linear_1307_9430" x1="77.7558" y1="180.624" x2="77.7558" y2="3.78906" gradientUnits="userSpaceOnUse">
<stop stop-color="#00003B"/>
<stop offset="0.59" stop-color="#00104F"/>
<stop offset="1" stop-color="#001656"/>
</linearGradient>
<linearGradient id="paint19_linear_1307_9430" x1="117.659" y1="180.626" x2="117.659" y2="41.9688" gradientUnits="userSpaceOnUse">
<stop stop-color="#5C3856"/>
<stop offset="0.26" stop-color="#655378"/>
<stop offset="0.57" stop-color="#6E6E99"/>
<stop offset="0.83" stop-color="#737EAE"/>
<stop offset="1" stop-color="#7584B5"/>
</linearGradient>
<linearGradient id="paint20_linear_1307_9430" x1="51.4133" y1="180.575" x2="51.4133" y2="7.77344" gradientUnits="userSpaceOnUse">
<stop stop-color="#5C3856"/>
<stop offset="0.26" stop-color="#655378"/>
<stop offset="0.57" stop-color="#6E6E99"/>
<stop offset="0.83" stop-color="#737EAE"/>
<stop offset="1" stop-color="#7584B5"/>
</linearGradient>
<linearGradient id="paint21_linear_1307_9430" x1="208.17" y1="179.04" x2="202.437" y2="131.034" gradientUnits="userSpaceOnUse">
<stop stop-color="#00003B"/>
<stop offset="0.59" stop-color="#00104F"/>
<stop offset="1" stop-color="#001656"/>
</linearGradient>
<linearGradient id="paint22_linear_1307_9430" x1="208.17" y1="179.04" x2="202.437" y2="131.034" gradientUnits="userSpaceOnUse">
<stop stop-color="#5C3856"/>
<stop offset="0.26" stop-color="#655378"/>
<stop offset="0.57" stop-color="#6E6E99"/>
<stop offset="0.83" stop-color="#737EAE"/>
<stop offset="1" stop-color="#7584B5"/>
</linearGradient>
<linearGradient id="paint23_linear_1307_9430" x1="196.91" y1="163.257" x2="216.209" y2="163.257" gradientUnits="userSpaceOnUse">
<stop stop-color="#5C3856"/>
<stop offset="0.26" stop-color="#655378"/>
<stop offset="0.57" stop-color="#6E6E99"/>
<stop offset="0.83" stop-color="#737EAE"/>
<stop offset="1" stop-color="#7584B5"/>
</linearGradient>
<linearGradient id="paint24_linear_1307_9430" x1="201.744" y1="166.957" x2="220.189" y2="166.957" gradientUnits="userSpaceOnUse">
<stop stop-color="#5C3856"/>
<stop offset="0.26" stop-color="#655378"/>
<stop offset="0.57" stop-color="#6E6E99"/>
<stop offset="0.83" stop-color="#737EAE"/>
<stop offset="1" stop-color="#7584B5"/>
</linearGradient>
<linearGradient id="paint25_linear_1307_9430" x1="217.477" y1="163.507" x2="208.01" y2="163.507" gradientUnits="userSpaceOnUse">
<stop stop-color="#00003B"/>
<stop offset="0.59" stop-color="#00104F"/>
<stop offset="1" stop-color="#001656"/>
</linearGradient>
<linearGradient id="paint26_linear_1307_9430" x1="286.012" y1="120.289" x2="834.337" y2="120.289" gradientUnits="userSpaceOnUse">
<stop stop-color="#B67AE7"/>
<stop offset="1" stop-color="#FFEBC4"/>
</linearGradient>
<linearGradient id="paint27_linear_1307_9430" x1="-103.569" y1="115.254" x2="812.903" y2="115.254" gradientUnits="userSpaceOnUse">
<stop/>
<stop offset="1" stop-color="#3B549A"/>
</linearGradient>
<clipPath id="clip0_1307_9430">
<rect width="640" height="332" fill="white"/>
</clipPath>
</defs>
</svg>
