<svg width="2100" height="684" viewBox="0 0 2100 684" fill="none" xmlns="http://www.w3.org/2000/svg">
<g clip-path="url(#clip0_1304_5200)">
<mask id="mask0_1304_5200" style="mask-type:alpha" maskUnits="userSpaceOnUse" x="0" y="-124" width="2100" height="680">
<rect y="-123.516" width="2100" height="679.167" fill="#D9D9D9"/>
</mask>
<g mask="url(#mask0_1304_5200)">
<path d="M2349 203.91H-47.9863V630.21H2349V203.91Z" fill="url(#paint0_linear_1304_5200)"/>
<path d="M1070.62 203.09L1155.4 211.652L1002.75 216.79H1208.21C1208.21 216.79 1051.37 221.345 1048.57 222.509C1045.76 223.674 1264.3 223.057 1268.4 222.509C1272.51 221.961 1214.47 217.372 1214.47 217.372C1214.47 217.372 1280.9 214.598 1282.65 213.125C1284.4 211.652 1172.73 209.083 1172.73 209.083L1216.22 204.802L1070.62 203.09Z" fill="#7CE0FF"/>
<path d="M1004.77 243.912C1002.58 243.912 1183.24 251.447 1183.24 251.447C1183.24 251.447 1050.89 255.454 1049.35 256.756C1047.81 258.057 1187.93 262.304 1187.93 262.304C1187.93 262.304 1095.31 263.88 1090.96 265.147C1086.61 266.414 1147.39 269.668 1147.39 269.668C1147.39 269.668 1012.58 279.6 1007 280.902C1001.41 282.203 1268.88 281.997 1271.49 280.73C1274.09 279.463 1194.92 272.921 1194.92 272.921C1194.92 272.921 1228.44 270.661 1231.59 269.497C1234.74 268.332 1175.74 266.688 1175.74 266.688C1175.74 266.688 1233.13 265.626 1234.43 265.215C1235.74 264.804 1182.28 258.982 1182.28 258.982C1182.28 258.982 1280.87 250.659 1280.87 249.563C1280.8 245.317 1094.93 243.467 1004.77 243.912Z" fill="#7CE0FF"/>
<path d="M1049.56 308.708C1049.56 308.708 1158.45 292.988 1346.78 308.4C1346.65 308.4 1165.44 313.811 1049.56 308.708Z" fill="#7CE0FF"/>
<path d="M447.538 205.349C447.538 205.349 1645.59 197.428 2048.35 204.278C2048.35 204.278 563.552 210.487 447.538 205.349Z" fill="#7CE0FF"/>
<path d="M1040.69 405.985C1040.69 405.985 1149.62 401.053 1337.92 405.985C1337.92 405.985 1156.74 407.56 1040.69 405.985Z" fill="#7CE0FF"/>
<path d="M1120.92 365.947C1120.92 365.947 1136.95 361.769 1164.62 365.947C1150.06 366.699 1135.48 366.699 1120.92 365.947V365.947Z" fill="#7CE0FF"/>
<path d="M1198.04 443.451C1198.04 443.451 1214.03 439.272 1241.73 443.451C1227.17 444.203 1212.59 444.203 1198.04 443.451V443.451Z" fill="#7CE0FF"/>
<path d="M949.193 281.381C949.193 281.381 965.185 277.237 992.887 281.381C978.332 282.145 963.748 282.145 949.193 281.381V281.381Z" fill="#7CE0FF"/>
<path d="M952.791 443.451C952.791 443.451 1037.85 439.272 1184.89 443.451C1184.89 443.348 1043.4 444.787 952.791 443.451Z" fill="#7CE0FF"/>
<path d="M1096.47 426.12C1096.47 426.12 1147.01 413.003 1234.44 425.881C1234.47 425.881 1150.34 430.402 1096.47 426.12Z" fill="#7CE0FF"/>
<path d="M874.922 404.271C874.922 404.271 925.464 391.119 1012.89 403.997C1012.71 403.997 928.614 408.552 874.922 404.271Z" fill="#7CE0FF"/>
<path d="M1415.58 309.198C1415.58 309.198 1442.97 302.039 1490.57 309.026C1490.57 309.026 1444.86 311.492 1415.58 309.198Z" fill="#7CE0FF"/>
<path d="M1096.47 324.945C1096.47 324.945 1153.14 316.828 1234.44 324.706C1234.47 324.706 1150.34 329.226 1096.47 324.945Z" fill="#7CE0FF"/>
<path style="mix-blend-mode:multiply" opacity="0.97" d="M2349 423.245L924.608 452.734L1383.9 462.495L28.4775 484.757L822.599 454.001L-47.9863 427.115L2349 379.748V363.172H-47.9863V522.431H2349V423.245Z" fill="url(#paint1_linear_1304_5200)"/>
<path style="mix-blend-mode:screen" opacity="0.45" d="M-47.9863 318.164L1847.89 363.167H-47.9863V318.164Z" fill="url(#paint2_linear_1304_5200)"/>
<path style="mix-blend-mode:screen" opacity="0.25" d="M-47.9863 478.488L1847.89 523.526H-47.9863V478.488Z" fill="url(#paint3_linear_1304_5200)"/>
<path style="mix-blend-mode:screen" opacity="0.45" d="M1567.1 356.49L2298.49 364.401C2298.49 364.401 2031.64 325.871 1567.1 356.49Z" fill="url(#paint4_linear_1304_5200)"/>
<path style="mix-blend-mode:soft-light" opacity="0.6" d="M313.278 204.072L822.598 222.269L1801.94 223.365L1983.22 202.199L313.278 204.072Z" fill="url(#paint5_radial_1304_5200)"/>
<g opacity="0.5">
<path style="mix-blend-mode:multiply" opacity="0.3" d="M475.311 646.687L459.799 588.772L461.99 573.771L508.081 514.04L530.955 517.91L530.441 546.645L552.288 480.099L530.784 467.906L475.55 477.017L438.603 468.66L445.862 532.329L444.527 565.311L475.311 646.687Z" fill="url(#paint6_linear_1304_5200)" fill-opacity="0.6"/>
<path style="mix-blend-mode:multiply" opacity="0.5" d="M477.81 475.719L480.652 549.594H505.41L530.441 546.649L504.143 545.176L481.577 548.19L479.454 491.371L477.81 475.719Z" fill="url(#paint7_linear_1304_5200)" fill-opacity="0.6"/>
<path style="mix-blend-mode:multiply" opacity="0.5" d="M494.007 473.971L508.081 514.043L530.955 517.913L541.296 513.597L530.441 522.81L505.718 517.091L498.835 489.281L496.062 489.383L490.994 473.766L494.007 473.971Z" fill="url(#paint8_linear_1304_5200)" fill-opacity="0.6"/>
<g style="mix-blend-mode:overlay" opacity="0.3">
<path d="M519.998 520.378L510.547 532.022H508.185L505.959 533.016L488.392 547.263L481.578 548.188L505.719 517.09L519.998 520.378Z" fill="#E0AE79"/>
</g>
<path opacity="0.6" d="M530.954 517.909L533.899 505.477H530.954H518.113L508.08 514.039L530.954 517.909Z" fill="url(#paint9_linear_1304_5200)" fill-opacity="0.6"/>
</g>
<path d="M552.288 479.343L521.607 424.373L497.26 389.199L475.311 381.391L444.527 429.271L445.862 448.656L438.603 468.623L477.81 481.946L530.784 486.501L552.288 479.343Z" fill="url(#paint10_linear_1304_5200)"/>
<path style="mix-blend-mode:multiply" opacity="0.5" d="M475.311 381.391L459.799 415.469L461.99 424.271L508.081 459.41L530.955 457.116L530.441 440.231L552.288 479.343L530.784 486.501L475.55 481.159L438.603 468.623L445.862 448.656L444.527 429.271L475.311 381.391Z" fill="url(#paint11_linear_1304_5200)"/>
<g opacity="0.2">
<path d="M1659.73 484.066L1653.29 505.574L1637.88 524.411L1629.84 515.335L1613.81 480.607L1629.9 479.031L1649.56 482.353L1659.73 484.066Z" fill="url(#paint12_linear_1304_5200)"/>
<path style="mix-blend-mode:multiply" opacity="0.5" d="M1659.73 484.066L1635.52 484.991L1630.62 484.169L1631.1 507.218L1637.88 524.411L1629.84 515.335L1613.81 480.607L1629.9 479.031L1659.73 484.066Z" fill="url(#paint13_linear_1304_5200)"/>
<g style="mix-blend-mode:overlay" opacity="0.5">
<path d="M1637.88 524.411L1653.29 505.574L1631.1 507.218L1637.88 524.411Z" fill="#E0AE79"/>
</g>
</g>
<path d="M1659.73 484.692L1653.29 472.054L1637.88 460.957L1629.84 466.3L1613.81 480.205L1629.9 487.637L1649.56 485.685L1659.73 484.692Z" fill="url(#paint14_linear_1304_5200)"/>
<path style="mix-blend-mode:multiply" opacity="0.5" d="M1659.73 484.692L1635.52 484.144L1630.62 484.623L1631.1 471.061L1637.88 460.957L1629.84 466.3L1613.81 480.205L1629.9 487.637L1659.73 484.692Z" fill="url(#paint15_linear_1304_5200)"/>
<path d="M521.607 424.373L530.441 440.231L473.325 426.908L459.799 415.469L475.311 381.391L497.26 389.199L521.607 424.373Z" fill="#005F9B"/>
<g style="mix-blend-mode:overlay" opacity="0.5">
<path d="M1637.88 460.953L1653.29 472.05L1631.1 471.057L1637.88 460.953Z" fill="#E0AE79"/>
</g>
<path style="mix-blend-mode:multiply" opacity="0.5" d="M477.81 481.943L480.652 438.48H505.41L530.441 440.227L504.143 441.083L481.577 439.302L479.454 472.73L477.81 481.943Z" fill="url(#paint16_linear_1304_5200)"/>
<path style="mix-blend-mode:multiply" opacity="0.5" d="M494.006 482.973L508.08 459.41L530.954 457.115L541.295 459.65L530.44 454.238L505.717 457.629L498.834 473.966L496.061 473.897L490.993 483.076L494.006 482.973Z" fill="url(#paint17_linear_1304_5200)"/>
<path d="M519.997 455.676L510.546 448.826H508.183L505.957 448.244L488.391 439.853L481.577 439.305L505.718 457.628L519.997 455.676Z" fill="#005F9B"/>
<path d="M530.954 457.113L533.899 464.443H530.954H518.113L508.08 459.408L530.954 457.113Z" fill="url(#paint18_linear_1304_5200)"/>
<path d="M56.5905 474.378L-0.0810547 472.906L16.8348 390.571L48.612 364.884L29.5388 320.052L44.0235 232.202L72.6161 189.459L133.705 174.801L160.106 80.9579L171.303 71.8477L177.638 87.3625L237.734 146.442L254.136 247.546L269.785 256.862L288.139 194.563L298.823 177.678L309.507 159.046L333.887 191.309L339.983 247.546L360.357 299.879L365.117 421.806L370.048 475.748L211.196 475.714L56.5905 474.378Z" fill="url(#paint19_linear_1304_5200)"/>
<path d="M160.107 80.9579V198.604L170.345 208.399V243.95V267.239L198.801 321.079L207.396 343.992L213.115 394.749L226.366 417.765L239.447 375.433L234.927 361.87L232.359 336.834L246.535 351.801L254 387.865L259.993 447.63L266.91 457.391L259.513 327.621L259.993 277.959L254.925 254.499L254.137 247.546L237.735 146.442L219.312 128.29L217.703 159.731L221.812 224.051L213.491 163.362L202.979 143.737L199.041 108.392L177.639 87.3625L171.304 71.8477L160.107 80.9579Z" fill="#005F9B"/>
<path style="mix-blend-mode:multiply" opacity="0.5" d="M309.507 159.043L288.139 194.559L269.785 256.859L254.136 247.543L259.992 277.956L266.909 457.388L272.764 475.745H292.18L292.625 376.354L306.459 320.459L299.063 394.746L314.711 420.501L333.545 475.745V427.42L330.326 394.746V330.837L322.519 322.549L307.007 317.411L317.93 262.339L314.711 264.633L305.774 312.89L309.507 159.043Z" fill="url(#paint20_linear_1304_5200)"/>
<path d="M309.508 159.043L299.064 194.868V239.803L306.46 320.459L309.508 304.191L314.713 264.633L317.932 262.339L322.965 298.197V325.323L330.327 330.837V394.746L333.546 427.42V457.456V475.745H370.049L365.118 421.803L360.358 299.876L353.784 287.614L340.429 273.812L339.059 293.231L334.574 289.909V262.099V241.652L337.45 257.509L340.908 259.564L339.984 247.543L333.889 191.306L309.508 159.043Z" fill="#005F9B"/>
<path d="M72.616 189.459L70.356 213.742L102.407 262.102L120.076 264.636L138.91 279.021L133.773 264.636L138.91 248.779L133.705 174.801L72.616 189.459Z" fill="#005F9B"/>
<path style="mix-blend-mode:multiply" opacity="0.5" d="M70.3561 213.737L102.407 262.097L110.112 294.976L120.076 264.632L138.91 279.016V343.987L157.915 384.641L144.389 281.653L138.91 248.774L134.527 177.022L160.106 80.9531V198.599L156.545 254.049L170.345 208.394V267.234L164.352 306.484L181.816 376.832L207.395 343.987L213.114 394.744L226.366 417.76L202.498 475.641L-0.0810547 472.901L16.8348 390.566L50.3583 405.327L82.6149 413.787L48.612 364.879L29.5388 320.047L44.0235 232.198L72.6161 189.455L70.3561 213.737Z" fill="url(#paint21_linear_1304_5200)"/>
<path d="M171.304 71.8477L177.639 87.3625L183.974 120.721L185.001 171.513L200.171 198.604L191.268 158.909L185.72 129.386L200.171 112.878L202.979 143.737L213.491 163.362L224.004 237.956L225.476 273.815V300.05L206.163 293.234L191.268 264.636L174.078 208.399V224.051L170.345 267.239V208.399L160.107 198.604V80.9579L171.304 71.8477Z" fill="#007BA8"/>
<path d="M299.064 194.868V239.803L303.207 226.891V239.803L317.932 262.339L315.261 234.288L321.835 221.582L319.062 204.286L333.889 191.306L309.508 159.043L299.064 194.868Z" fill="#007BA8"/>
<path d="M231.845 308.094L252.048 351.042L257.253 372.208L253.658 334.294L231.845 308.094Z" fill="#007BA8"/>
<path d="M134.527 177.027L90.4564 192.884L85.2857 198.604L90.7988 221.517L91.1412 229.462L94.2573 239.806L85.2857 230.147L73.5747 218.606L98.024 249.122L102.407 262.102L70.356 213.742L72.616 189.459L133.705 174.801L134.527 177.027Z" fill="#007BA8"/>
<path d="M330.327 330.836L334.573 397.074L340.429 405.807L346.421 431.083L354.229 457.387H360.221H368.371L370.049 475.744H333.546L332.176 409.472L330.327 394.745V330.836Z" fill="#007BA8"/>
<path d="M340.429 273.816L339.059 293.236V304.641L330.327 327.622V330.841L347.346 350.158V359.371L355.153 394.75V350.5V334.3L361.556 330.841L360.358 299.88L353.783 287.619L340.429 273.816Z" fill="#007BA8"/>
<path d="M133.191 474.649C146.18 472.774 159.277 471.744 172.399 471.566C185.034 472.217 277.318 476.533 277.318 476.533C277.318 476.533 136.889 475.779 133.191 474.649Z" fill="#1395FF" fill-opacity="0.2"/>
<path d="M1039.83 334.302C1041.55 334.096 1038.77 333.822 1036.41 333.685C1034.9 333.685 1032.98 333.514 1031.41 333.685C1029.22 333.685 1029.08 334.062 1029.32 334.302L1029.9 334.884C1029.9 334.884 1030.14 335.055 1030.93 335.124H1033.29C1037.33 335.124 1041.17 334.884 1044.49 334.644L1039.83 334.302Z" fill="#1395FF"/>
<path d="M1007.34 345.122C1024.67 343.65 1001.18 342.211 983.061 343.136C963.953 344.129 992.272 346.424 1007.34 345.122Z" fill="#1395FF"/>
<path d="M1363.29 334.709C1357.3 334.264 1348.74 334.127 1341.51 334.367C1340.31 335.086 1341.89 335.874 1347.51 336.353C1354.34 336.906 1361.21 336.906 1368.05 336.353C1372.78 335.805 1368.05 334.778 1360.38 334.846L1363.29 334.709Z" fill="#1395FF"/>
<path d="M1498.34 278.233C1491.09 277.732 1483.82 277.617 1476.56 277.891C1475.37 278.576 1476.94 279.363 1482.56 279.877C1489.4 280.396 1496.26 280.396 1503.1 279.877C1507.86 279.295 1503.1 278.268 1495.43 278.336L1498.34 278.233Z" fill="#1395FF"/>
<path d="M1039.9 364.612C1033.95 364.236 1025.35 364.133 1018.13 364.338C1016.93 364.921 1018.5 365.606 1024.12 366.017C1030.96 366.466 1037.82 366.466 1044.66 366.017C1049.42 365.537 1044.66 364.647 1036.99 364.715L1039.9 364.612Z" fill="#1395FF"/>
<path d="M562.525 270.081C556.533 269.704 547.972 269.567 540.747 269.807C539.549 270.389 541.124 271.074 546.74 271.485C553.581 271.934 560.444 271.934 567.285 271.485C572.011 271.006 567.285 270.115 559.615 270.184L562.525 270.081Z" fill="#1395FF"/>
<path d="M1738.11 244.36C1732.15 243.949 1723.56 243.846 1716.33 244.052C1715.13 244.668 1716.71 245.319 1722.33 245.764C1729.17 246.214 1736.03 246.214 1742.87 245.764C1747.6 245.285 1742.87 244.394 1735.2 244.429L1738.11 244.36Z" fill="#1395FF"/>
<path d="M2107.32 495.683C2105.57 495.683 2103.89 495.683 2101.87 495.683C2100.31 495.652 2098.74 495.721 2097.18 495.888C2096.8 495.888 2096.84 495.888 2097.18 496.128C2099.45 496.396 2101.74 496.488 2104.03 496.402C2106.7 496.402 2108.21 496.025 2107.04 495.82L2107.32 495.683Z" fill="#536BC3"/>
<path d="M1348.91 443.35C1342.95 442.974 1334.39 442.837 1327.13 443.076C1325.93 443.659 1327.51 444.344 1333.12 444.755C1339.96 445.204 1346.83 445.204 1353.67 444.755C1358.43 444.275 1353.67 443.385 1346 443.453L1348.91 443.35Z" fill="#1395FF"/>
<path d="M1368.43 402.556C1362.47 402.145 1353.91 402.042 1346.65 402.247C1345.45 402.864 1347.03 403.549 1352.64 403.96C1359.48 404.409 1366.35 404.409 1373.19 403.96C1377.95 403.48 1373.19 402.59 1365.52 402.658L1368.43 402.556Z" fill="#1395FF"/>
<path d="M1738.11 388.581C1732.15 388.204 1723.56 388.102 1716.33 388.307C1715.13 388.889 1716.71 389.574 1722.33 389.985C1729.17 390.435 1736.03 390.435 1742.87 389.985C1747.6 389.506 1742.87 388.615 1735.2 388.684L1738.11 388.581Z" fill="#1395FF"/>
<path d="M1763.62 394.373C1766.26 394.214 1768.9 394.214 1771.53 394.373C1773 394.612 1770.85 394.886 1768.83 395.058C1767.79 395.116 1766.75 395.116 1765.71 395.058C1762.94 395.058 1765.26 394.475 1762.7 394.338C1763.25 394.267 1763.82 394.267 1764.37 394.338L1763.62 394.373Z" fill="#1395FF"/>
<path d="M697.853 318.716C698.992 318.814 700.138 318.814 701.277 318.716C702.578 318.716 703.503 318.716 704.701 318.51C705.9 318.305 707.612 318.51 709.05 318.51C709.643 318.463 710.238 318.463 710.831 318.51C710.831 318.51 710.831 318.51 710.488 318.51C708.858 318.798 707.211 318.981 705.557 319.058C703.195 319.058 699.873 319.058 697.442 319.058C695.764 319.058 694.771 318.784 694.908 318.647C696.021 318.333 697.178 318.205 698.332 318.27L697.853 318.716Z" fill="#1395FF"/>
<path d="M1412.53 419.886C1406.92 420.845 1404.18 421.941 1404.55 423.003C1404.55 423.003 1404.76 423.346 1405.72 423.517C1409.13 423.87 1412.56 424.03 1415.99 423.996C1424.28 424.153 1432.57 423.764 1440.82 422.832C1445.23 422.078 1444.24 421.188 1438.9 420.469C1434.69 419.98 1430.46 419.717 1426.23 419.681C1421.53 419.514 1416.83 419.675 1412.15 420.16C1413.61 420.298 1415.08 420.298 1416.54 420.16L1412.53 419.886Z" fill="#1395FF"/>
<path d="M1446.78 334.678C1441.16 335.671 1438.42 336.732 1438.8 337.794C1438.8 337.965 1439 338.137 1439.96 338.308C1443.37 338.661 1446.8 338.821 1450.23 338.787C1458.53 338.944 1466.82 338.555 1475.06 337.623C1479.48 336.87 1478.48 335.979 1473.14 335.26C1468.95 334.761 1464.73 334.487 1460.51 334.438C1455.8 334.262 1451.08 334.434 1446.4 334.952C1447.87 335.072 1449.35 335.072 1450.82 334.952L1446.78 334.678Z" fill="#1395FF"/>
<path d="M1947.02 411.839C1941.41 412.833 1938.63 413.894 1939.01 414.956C1939.01 415.127 1939.25 415.333 1940.18 415.47C1943.59 415.822 1947.02 415.983 1950.45 415.949C1958.74 416.142 1967.04 415.753 1975.27 414.785C1979.66 414.066 1978.7 413.141 1973.32 412.422C1969.13 411.921 1964.91 411.646 1960.69 411.6C1955.99 411.442 1951.29 411.613 1946.61 412.113C1948.07 412.216 1949.54 412.216 1951 412.113L1947.02 411.839Z" fill="#1395FF"/>
<path d="M1061.99 290.221C1056.41 291.18 1053.63 292.276 1054.01 293.338C1054.01 293.509 1054.22 293.68 1055.18 293.851C1058.59 294.204 1062.02 294.364 1065.45 294.331C1073.73 294.488 1082.01 294.099 1090.24 293.166C1094.66 292.413 1093.66 291.522 1088.32 290.803C1084.13 290.303 1079.91 290.029 1075.69 289.981C1070.99 289.815 1066.29 289.976 1061.61 290.461C1063.07 290.598 1064.54 290.598 1066 290.461L1061.99 290.221Z" fill="#1395FF"/>
<path d="M1484 364.401C1478.38 365.394 1475.64 366.456 1476.02 367.518C1476.02 367.689 1476.22 367.895 1477.18 368.032C1480.59 368.384 1484.02 368.544 1487.45 368.511C1495.74 368.685 1504.02 368.296 1512.25 367.346C1516.66 366.593 1515.67 365.703 1510.33 364.983C1506.13 364.485 1501.92 364.21 1497.69 364.161C1493 363.984 1488.29 364.156 1483.62 364.675C1485.08 364.778 1486.54 364.778 1488 364.675L1484 364.401Z" fill="#1395FF"/>
<path d="M804.416 411.84C798.835 412.833 796.061 413.895 796.438 414.957C796.438 415.128 796.643 415.333 797.602 415.47C801.015 415.823 804.444 415.983 807.875 415.95C816.156 416.142 824.44 415.753 832.667 414.785C837.084 414.066 836.091 413.141 830.749 412.422C826.555 411.922 822.337 411.648 818.114 411.6C813.416 411.441 808.713 411.613 804.04 412.114C805.499 412.217 806.963 412.217 808.423 412.114L804.416 411.84Z" fill="#1395FF"/>
<path d="M409.221 277.066C403.605 278.059 400.831 279.121 401.208 280.183C401.208 280.354 401.448 280.559 402.372 280.696C405.785 281.049 409.215 281.209 412.645 281.176C420.937 281.368 429.233 280.979 437.471 280.011C441.854 279.292 440.895 278.367 435.519 277.648C431.325 277.147 427.107 276.873 422.884 276.826C418.186 276.668 413.483 276.84 408.81 277.34C410.269 277.443 411.734 277.443 413.193 277.34L409.221 277.066Z" fill="#1395FF"/>
<path d="M1602.27 318.647C1596.65 319.606 1593.88 320.668 1594.26 321.764C1594.26 321.764 1594.5 322.106 1595.42 322.243C1598.83 322.611 1602.26 322.783 1605.69 322.757C1613.99 322.924 1622.28 322.524 1630.52 321.558C1634.9 320.839 1633.94 319.914 1628.57 319.229C1624.37 318.713 1620.16 318.428 1615.93 318.373C1611.23 318.215 1606.53 318.387 1601.86 318.887C1603.32 319.024 1604.78 319.024 1606.24 318.887L1602.27 318.647Z" fill="#1395FF"/>
<path d="M959.568 318.301C953.952 319.295 951.213 320.356 951.59 321.418C951.59 321.589 951.795 321.795 952.754 321.932C956.167 322.284 959.596 322.445 963.027 322.411C971.308 322.603 979.592 322.214 987.818 321.247C992.236 320.528 991.243 319.603 985.901 318.884C981.707 318.385 977.489 318.111 973.265 318.062C968.568 317.902 963.865 318.074 959.192 318.575C960.651 318.678 962.116 318.678 963.575 318.575L959.568 318.301Z" fill="#1395FF"/>
<path d="M1573.98 321.971C1575.08 321.526 1574.29 321.081 1571.86 320.704C1571.27 320.656 1570.67 320.656 1570.08 320.704C1568.93 320.67 1567.78 320.785 1566.66 321.046C1565.12 321.286 1561.62 321.389 1560.08 321.629C1558.54 321.868 1559.23 322.074 1559.64 322.314C1561.56 322.971 1563.6 323.216 1565.63 323.033C1567.07 323.028 1568.51 322.925 1569.94 322.725C1571.67 322.544 1573.38 322.211 1575.05 321.731L1573.98 321.971Z" fill="#1395FF"/>
<path d="M1282.78 354.062C1283.64 354.062 1283.68 354.234 1283.02 354.336C1282.37 354.439 1281.28 354.336 1280.22 354.336H1278.4C1277.13 354.336 1276.62 354.131 1277.41 353.994C1278.67 353.903 1279.94 353.903 1281.21 353.994C1282.41 353.994 1282.85 354.234 1282.24 354.336L1282.78 354.062Z" fill="#1395FF"/>
<path d="M1303.91 358.851C1301.96 358.44 1299.36 358.064 1296.18 357.687H1294.77C1294.18 357.651 1293.58 357.651 1292.99 357.687C1290.14 358.208 1287.26 358.585 1284.36 358.817H1281.76C1280.63 358.817 1281.76 359.091 1282.82 359.194C1289.48 359.663 1296.16 359.503 1302.78 358.714L1303.44 358.92L1303.91 358.851Z" fill="#1395FF"/>
<path d="M1273.13 335.57C1274.4 335.57 1274.98 335.81 1274.6 335.947C1273.47 336.157 1272.33 336.249 1271.18 336.221C1270.38 336.331 1269.58 336.331 1268.78 336.221H1269.26L1272.45 335.742H1273.23L1273.13 335.57Z" fill="#1395FF"/>
<path d="M1267.03 338.372C1265.56 338.372 1266.04 338.715 1266.73 338.886C1267.41 339.057 1275.53 339.331 1274.4 339.468H1265.77C1265.04 339.497 1264.3 339.393 1263.61 339.16C1263.13 339.16 1251.59 338.92 1250.91 338.817C1249.3 338.646 1259.77 338.441 1261.18 338.235C1262.49 338.166 1263.8 338.166 1265.12 338.235C1266.25 338.235 1266.79 338.441 1266.49 338.578L1267.03 338.372Z" fill="#1395FF"/>
<path d="M1273.13 344.336C1267.17 343.89 1256.9 344.575 1252.86 344.746C1251.66 345.431 1251.73 345.5 1257.34 345.98C1264.18 346.498 1271.05 346.498 1277.89 345.98C1282.62 345.432 1277.89 344.37 1270.22 344.438L1273.13 344.336Z" fill="#1395FF"/>
<path d="M1292.1 344.336H1288.27C1288.27 344.336 1288.27 344.541 1288.61 344.644C1290.04 344.714 1291.48 344.623 1292.89 344.37L1292.1 344.336Z" fill="#1395FF"/>
<path d="M1288.88 356.115C1290.02 356.243 1291.17 356.243 1292.31 356.115L1295.73 355.875C1297 355.875 1298.64 355.875 1300.08 355.875C1300.68 355.878 1301.27 355.935 1301.86 356.046C1301.86 356.046 1301.86 356.046 1301.52 356.218C1299.89 356.549 1298.24 356.767 1296.59 356.868C1293.88 357.005 1291.17 357.005 1288.47 356.868C1286.79 356.868 1285.8 356.56 1285.94 356.389C1286.97 356.03 1288.06 355.879 1289.15 355.944L1288.88 356.115Z" fill="#1395FF"/>
<path d="M1293.06 357.418C1291.36 357.225 1289.65 357.225 1287.96 357.418C1286.93 357.624 1287.68 357.829 1288.47 358.035C1290.47 358.093 1292.48 357.897 1294.43 357.453L1293.06 357.418Z" fill="#1395FF"/>
<path d="M962.48 336.012C960.784 335.819 959.073 335.819 957.378 336.012C956.35 336.218 957.104 336.423 957.891 336.629C959.894 336.689 961.896 336.493 963.849 336.046L962.48 336.012Z" fill="#1395FF"/>
<path d="M1295.28 364.505C1290.49 364.505 1285.56 364.505 1280.66 364.505H1278.98C1278.51 364.505 1278.37 364.505 1278.4 364.676C1278.44 364.848 1285.25 365.567 1283.03 365.978C1282.61 365.978 1281.93 366.149 1282.07 366.218C1283.32 366.333 1284.58 366.333 1285.83 366.218C1293.57 366.012 1297.58 365.053 1293.3 364.402H1295.42L1295.28 364.505Z" fill="#1395FF"/>
<path d="M1030.9 307.208C1026.1 307.208 1021.17 307.208 1016.28 307.208H1014.6C1014.12 307.208 1013.98 307.208 1014.02 307.379C1014.05 307.551 1020.86 308.27 1018.64 308.681C1018.26 308.681 1017.54 308.681 1017.68 308.921C1018.93 309.036 1020.19 309.036 1021.45 308.921C1029.18 308.715 1033.19 307.756 1028.91 307.105H1031.03L1030.9 307.208Z" fill="#1395FF"/>
<path d="M1308.81 350.6C1326.14 348.853 1302.65 347.175 1284.53 348.271C1265.53 349.436 1293.74 352.107 1308.81 350.6Z" fill="#1395FF"/>
<path d="M1306.38 283.436C1323.71 281.689 1300.22 280.011 1282.07 281.107C1262.93 282.272 1291.14 284.943 1306.38 283.436Z" fill="#1395FF"/>
<path d="M1245.6 362.689C1262.92 361.216 1239.43 359.777 1221.28 360.702C1202.28 361.695 1230.53 363.99 1245.6 362.689Z" fill="#1395FF"/>
<path d="M842.975 265.558C860.302 264.085 836.811 262.612 818.696 263.571C799.589 264.565 827.908 266.859 842.975 265.558Z" fill="#1395FF"/>
<path d="M1384.07 309.023C1401.4 307.55 1377.91 306.077 1359.76 307.036C1340.62 308.029 1369.01 310.324 1384.07 309.023Z" fill="#1395FF"/>
<path d="M769.865 319.846C770.721 319.846 770.756 320.052 770.105 320.12C769.454 320.189 768.358 320.12 767.297 320.12H765.345C764.044 320.12 763.564 319.88 764.352 319.743C765.606 319.653 766.865 319.653 768.119 319.743C769.352 319.743 769.797 319.983 769.18 320.12L769.865 319.846Z" fill="#1395FF"/>
<path d="M790.992 324.675C788.436 324.147 785.852 323.758 783.253 323.511C782.775 323.47 782.294 323.47 781.815 323.511C781.234 323.475 780.651 323.475 780.069 323.511C777.205 324.051 774.312 324.428 771.406 324.641C770.515 324.641 769.488 324.641 768.803 324.641C768.118 324.641 768.803 324.915 769.899 324.983C776.542 325.453 783.215 325.292 789.828 324.504L790.513 324.709L790.992 324.675Z" fill="#1395FF"/>
<path d="M775.928 321.902C777.065 322.046 778.215 322.046 779.352 321.902L782.776 321.663C784.077 321.663 785.721 321.663 787.125 321.663C787.728 321.598 788.337 321.598 788.94 321.663C788.94 321.663 788.94 321.663 788.598 321.834C786.96 322.167 785.301 322.385 783.632 322.485C780.941 322.639 778.243 322.639 775.551 322.485C773.873 322.485 772.846 322.176 772.983 322.005C774.084 321.631 775.248 321.48 776.407 321.56L775.928 321.902Z" fill="#1395FF"/>
<path d="M780.137 323.207C778.443 322.999 776.73 322.999 775.035 323.207C774.008 323.378 774.761 323.618 775.549 323.789C777.552 323.866 779.557 323.67 781.507 323.207H780.137Z" fill="#1395FF"/>
<path d="M976.486 320.016C974.792 319.807 973.078 319.807 971.384 320.016C970.357 320.187 971.11 320.427 971.897 320.598C973.9 320.656 975.902 320.46 977.856 320.016H976.486Z" fill="#1395FF"/>
<path d="M782.466 330.326C777.672 330.326 772.707 330.326 767.844 330.326H766.132C765.687 330.326 765.55 330.326 765.584 330.497C765.618 330.669 772.433 331.388 770.207 331.799C769.796 331.799 769.111 331.97 769.248 332.039C770.501 332.154 771.762 332.154 773.015 332.039C780.72 331.833 784.76 330.874 780.446 330.258H782.466V330.326Z" fill="#1395FF"/>
<path d="M1657.5 268.986C1652.71 268.986 1647.74 268.986 1642.88 268.986H1641.2C1640.73 268.986 1640.59 268.986 1640.62 269.158C1640.66 269.329 1647.47 270.048 1645.24 270.459C1644.83 270.459 1644.15 270.63 1644.29 270.699C1645.54 270.814 1646.8 270.814 1648.05 270.699C1655.79 270.493 1659.8 269.534 1655.52 268.918H1657.5V268.986Z" fill="#1395FF"/>
<path d="M795.891 316.385C813.218 314.673 789.727 312.96 771.579 314.056C752.574 315.221 780.825 317.892 795.891 316.385Z" fill="#1395FF"/>
<path d="M732.678 328.473C750.005 327.001 726.514 325.562 708.366 326.521C689.361 327.514 717.611 329.775 732.678 328.473Z" fill="#1395FF"/>
<g opacity="0.16">
<path d="M61.9337 473.45C54.3661 474.82 44.8124 471.908 39.4363 474.22C34.0602 476.532 32.2454 479.23 25.7392 478.759C19.2331 478.288 49.3324 479.786 54.1606 478.759C57.1314 478.047 59.8496 476.191 61.9337 473.45V473.45Z" fill="#151B3C"/>
<path opacity="0.4" d="M152.642 541.053C156.113 539.409 159.871 538.951 163.531 539.726C167.914 541.182 166.955 541.867 165.14 542.638C163.325 543.408 150.93 541.482 152.642 541.053Z" fill="#171F40"/>
<path d="M-14.7349 494.936C-11.252 493.292 -7.4824 492.834 -3.8115 493.609C0.537316 495.107 -0.387336 495.792 -2.2022 496.52C-4.01706 497.248 -16.4128 495.364 -14.7349 494.936Z" fill="#171F40"/>
<path d="M23.8563 540.492C23.8563 540.492 -5.42134 542.804 -5.18164 544.517C-4.94194 546.229 76.6241 548.541 76.4529 548.07C76.2817 547.599 61.0095 541.905 61.0095 541.905C61.0095 541.905 32.5539 541.006 23.8563 540.492Z" fill="#171F40"/>
<path opacity="0.4" d="M799.827 551.839C798.457 550.897 993.88 535.013 993.88 535.013C993.88 535.013 865.573 530.988 865.573 532.701C865.573 534.414 895.466 536.726 893.172 540.193C890.878 543.661 753.428 538.438 748.976 542.463C744.525 546.487 775.138 551.839 775.138 551.839C775.138 551.839 804.45 555.093 797.978 557.961C791.506 560.83 624.676 567.166 619.916 566.524C615.156 565.882 577.524 557.961 577.524 557.961C575.229 557.961 460.414 557.405 458.154 556.249C455.894 555.093 424.391 551.71 428.671 551.282C432.951 550.854 602.486 539.594 602.932 536.726C603.377 533.857 522.051 537.282 512.394 536.126C502.738 534.97 365.733 528.676 360.22 528.12C354.707 527.563 344.571 516.603 330.805 513.863C317.04 511.123 212.737 505.3 212.737 505.3C212.737 505.3 254.444 495.581 250.404 495.367C246.363 495.153 121.035 489.159 69.7395 493.184C13.5473 497.465 -26.6193 500.762 -31.0366 500.976C-35.4539 501.19 -51.8561 498.321 -60.1085 498.792C-68.361 499.263 -102.021 498.792 -102.021 498.792C-92.702 501.793 -83.2602 504.166 -73.737 505.899C-67.9765 506.042 -62.2244 505.28 -56.6157 503.63C-56.6157 503.63 -6.27921 502.688 11.0476 503.63C28.3743 504.572 59.9462 513.049 57.4465 514.034C54.9468 515.019 -38.433 512.407 -14.8056 520.071C8.82184 527.735 156.134 526.836 160.037 526.75C163.941 526.664 200.273 531.545 205.135 532.444C209.997 533.343 247.151 537.154 249.924 538.438C252.698 539.722 273.038 547.001 273.038 547.001C273.038 547.001 123.398 542.719 115.522 552.096C113.981 553.851 220.065 556.677 220.065 556.677C220.065 556.677 229.036 559.674 227.975 560.53C226.913 561.386 140.074 563.142 140.074 563.142C140.074 563.142 216.298 564.854 219.38 565.711C222.462 566.567 232.392 578.555 257.047 578.255C281.701 577.955 296.768 578.64 325.019 578.255C326.114 578.255 321.936 583.221 320.875 585.362C319.813 587.503 432.266 592.127 430.451 595.167C428.636 598.206 229.071 605.185 229.071 605.185H1204.2C1204.2 605.185 952.823 560.016 949.159 556.548C945.495 553.08 801.231 552.909 799.827 551.839ZM146.477 501.062C146.477 505.343 109.461 502.774 109.187 500.376C109.187 496.737 146.546 496.181 146.477 501.19V501.062ZM67.0001 513.906C66.4865 511.423 79.8754 507.141 102.989 507.955C102.989 507.955 169.625 513.52 169.694 514.719C169.762 515.918 67.4453 516.432 67.0001 513.991V513.906ZM217.12 518.744C197.088 518.016 175.515 516.903 175.036 515.062C174.556 513.221 221.708 510.052 221.708 510.052C221.708 510.052 305.055 513.178 308.753 515.49C312.452 517.802 241.056 519.686 217.12 518.829V518.744ZM524.516 576.714C523.729 572.775 558.416 566.481 578.825 570.506C578.825 570.506 595.946 571.019 595.946 572.946C595.946 574.873 525.27 580.653 524.516 576.799V576.714ZM700.01 576.928C700.01 573.117 737.368 572.432 737.3 577.613C737.232 581.809 700.284 579.368 700.01 577.013V576.928ZM812.702 556.249C813.044 555.778 829.002 555.221 828.728 556.249C828.454 557.276 812.36 556.762 812.702 556.334V556.249Z" fill="url(#paint22_linear_1304_5200)"/>
<path opacity="0.7" d="M1241.97 604.414H1553.58C1553.58 604.414 1503.93 591.784 1481.39 588.916C1458.86 586.047 1445.54 580.867 1427.15 577.27C1408.77 573.674 1303.47 569.949 1304.87 567.894C1306.28 565.839 1373.94 561.6 1372.13 558.603C1370.31 555.606 1280.18 555.349 1258.1 556.591C1245.15 557.319 1167.53 562.585 1167.53 562.585C1167.53 562.585 1263.03 575.686 1263.95 578.169C1264.88 580.653 1256.11 584.292 1259.33 588.316C1262.55 592.341 1281.86 589.472 1279.57 591.784C1277.27 594.096 1241.97 604.414 1241.97 604.414Z" fill="url(#paint23_linear_1304_5200)"/>
</g>
<path d="M1328.47 350.534C1328.47 350.534 1357.98 346.15 1415.1 350.534C1415.1 350.534 1382.6 357.281 1328.47 350.534Z" fill="#1395FF"/>
<path d="M171.305 71.8477L180.482 102.329H185.002L237.735 146.442L254.138 247.546L239.653 145.278L181.988 90.034L171.305 71.8477Z" fill="#7CE0FF"/>
<path d="M309.506 159.043L330.326 194.422L340.667 249.598L333.887 191.306L309.506 159.043Z" fill="#7CE0FF"/>
<path d="M344.812 259.949L356.659 300.055L365.117 421.811L360.358 299.884L344.812 259.949Z" fill="#7CE0FF"/>
<path d="M475.312 381.391L492.775 392.282L530.545 442.799L539.859 457.116L525.58 430.538L497.261 389.199L475.312 381.391Z" fill="#7CE0FF"/>
<path style="mix-blend-mode:multiply" opacity="0.97" d="M2349 264.641L1056.92 300.054L2349 290.465V264.641Z" fill="url(#paint24_linear_1304_5200)"/>
<path style="mix-blend-mode:screen" opacity="0.45" d="M2298.49 290.797C2298.49 290.797 1567.1 314.052 1089.73 317.374C625.909 320.628 138.945 308.058 138.945 308.058L1056.96 300.01L658.234 273.775L1818.24 262.13L448.224 226.922C448.224 226.922 1724.93 251.068 2232.27 264.596L1385.14 296.379L2298.49 290.797Z" fill="url(#paint25_linear_1304_5200)"/>
</g>
</g>
<defs>
<linearGradient id="paint0_linear_1304_5200" x1="1150.51" y1="630.21" x2="1150.51" y2="203.91" gradientUnits="userSpaceOnUse">
<stop stop-color="#0C1226"/>
<stop offset="0.42" stop-color="#0F1836"/>
<stop offset="1" stop-color="#0052A4"/>
</linearGradient>
<linearGradient id="paint1_linear_1304_5200" x1="-47.9863" y1="442.801" x2="2349" y2="442.801" gradientUnits="userSpaceOnUse">
<stop stop-color="#B67AE7"/>
<stop offset="1" stop-color="#FFEBC4"/>
</linearGradient>
<linearGradient id="paint2_linear_1304_5200" x1="-47.9863" y1="340.666" x2="1847.89" y2="340.666" gradientUnits="userSpaceOnUse">
<stop/>
<stop offset="1" stop-color="#3B549A"/>
</linearGradient>
<linearGradient id="paint3_linear_1304_5200" x1="-47.9863" y1="501.024" x2="1847.89" y2="501.024" gradientUnits="userSpaceOnUse">
<stop/>
<stop offset="1" stop-color="#3B549A"/>
</linearGradient>
<linearGradient id="paint4_linear_1304_5200" x1="1567.1" y1="354.538" x2="2298.49" y2="354.538" gradientUnits="userSpaceOnUse">
<stop/>
<stop offset="1" stop-color="#3B549A"/>
</linearGradient>
<radialGradient id="paint5_radial_1304_5200" cx="0" cy="0" r="1" gradientUnits="userSpaceOnUse" gradientTransform="translate(1148.52 212.782) scale(590.275 590.388)">
<stop stop-color="#FFFFB5"/>
<stop offset="0.99" stop-color="#FA8374"/>
</radialGradient>
<linearGradient id="paint6_linear_1304_5200" x1="507.625" y1="469.6" x2="476.564" y2="652.278" gradientUnits="userSpaceOnUse">
<stop stop-color="#5C3856"/>
<stop offset="0.26" stop-color="#655378"/>
<stop offset="0.57" stop-color="#6E6E99"/>
<stop offset="0.83" stop-color="#737EAE"/>
<stop offset="1" stop-color="#7584B5"/>
</linearGradient>
<linearGradient id="paint7_linear_1304_5200" x1="477.81" y1="512.639" x2="530.441" y2="512.639" gradientUnits="userSpaceOnUse">
<stop stop-color="#5C3856"/>
<stop offset="0.26" stop-color="#655378"/>
<stop offset="0.57" stop-color="#6E6E99"/>
<stop offset="0.83" stop-color="#737EAE"/>
<stop offset="1" stop-color="#7584B5"/>
</linearGradient>
<linearGradient id="paint8_linear_1304_5200" x1="490.994" y1="498.288" x2="541.296" y2="498.288" gradientUnits="userSpaceOnUse">
<stop stop-color="#5C3856"/>
<stop offset="0.26" stop-color="#655378"/>
<stop offset="0.57" stop-color="#6E6E99"/>
<stop offset="0.83" stop-color="#737EAE"/>
<stop offset="1" stop-color="#7584B5"/>
</linearGradient>
<linearGradient id="paint9_linear_1304_5200" x1="533.899" y1="512.539" x2="508.08" y2="512.539" gradientUnits="userSpaceOnUse">
<stop stop-color="#00003B"/>
<stop offset="0.59" stop-color="#00104F"/>
<stop offset="1" stop-color="#001656"/>
</linearGradient>
<linearGradient id="paint10_linear_1304_5200" x1="508.516" y1="496.256" x2="497.503" y2="386.145" gradientUnits="userSpaceOnUse">
<stop stop-color="#00003B"/>
<stop offset="0.59" stop-color="#00104F"/>
<stop offset="1" stop-color="#001656"/>
</linearGradient>
<linearGradient id="paint11_linear_1304_5200" x1="508.516" y1="496.256" x2="497.503" y2="386.145" gradientUnits="userSpaceOnUse">
<stop stop-color="#5C3856"/>
<stop offset="0.26" stop-color="#655378"/>
<stop offset="0.57" stop-color="#6E6E99"/>
<stop offset="0.83" stop-color="#737EAE"/>
<stop offset="1" stop-color="#7584B5"/>
</linearGradient>
<linearGradient id="paint12_linear_1304_5200" x1="1654.01" y1="490.062" x2="1646.75" y2="532.791" gradientUnits="userSpaceOnUse">
<stop stop-color="#00003B"/>
<stop offset="0.59" stop-color="#00104F"/>
<stop offset="1" stop-color="#001656"/>
</linearGradient>
<linearGradient id="paint13_linear_1304_5200" x1="1654.01" y1="490.062" x2="1646.75" y2="532.791" gradientUnits="userSpaceOnUse">
<stop stop-color="#5C3856"/>
<stop offset="0.26" stop-color="#655378"/>
<stop offset="0.57" stop-color="#6E6E99"/>
<stop offset="0.83" stop-color="#737EAE"/>
<stop offset="1" stop-color="#7584B5"/>
</linearGradient>
<linearGradient id="paint14_linear_1304_5200" x1="1654.4" y1="492.586" x2="1651.82" y2="466.831" gradientUnits="userSpaceOnUse">
<stop stop-color="#00003B"/>
<stop offset="0.59" stop-color="#00104F"/>
<stop offset="1" stop-color="#001656"/>
</linearGradient>
<linearGradient id="paint15_linear_1304_5200" x1="1654.4" y1="492.586" x2="1651.82" y2="466.831" gradientUnits="userSpaceOnUse">
<stop stop-color="#5C3856"/>
<stop offset="0.26" stop-color="#655378"/>
<stop offset="0.57" stop-color="#6E6E99"/>
<stop offset="0.83" stop-color="#737EAE"/>
<stop offset="1" stop-color="#7584B5"/>
</linearGradient>
<linearGradient id="paint16_linear_1304_5200" x1="477.81" y1="460.194" x2="530.441" y2="460.194" gradientUnits="userSpaceOnUse">
<stop stop-color="#5C3856"/>
<stop offset="0.26" stop-color="#655378"/>
<stop offset="0.57" stop-color="#6E6E99"/>
<stop offset="0.83" stop-color="#737EAE"/>
<stop offset="1" stop-color="#7584B5"/>
</linearGradient>
<linearGradient id="paint17_linear_1304_5200" x1="490.993" y1="468.657" x2="541.295" y2="468.657" gradientUnits="userSpaceOnUse">
<stop stop-color="#5C3856"/>
<stop offset="0.26" stop-color="#655378"/>
<stop offset="0.57" stop-color="#6E6E99"/>
<stop offset="0.83" stop-color="#737EAE"/>
<stop offset="1" stop-color="#7584B5"/>
</linearGradient>
<linearGradient id="paint18_linear_1304_5200" x1="533.899" y1="460.778" x2="508.08" y2="460.778" gradientUnits="userSpaceOnUse">
<stop stop-color="#00003B"/>
<stop offset="0.59" stop-color="#00104F"/>
<stop offset="1" stop-color="#001656"/>
</linearGradient>
<linearGradient id="paint19_linear_1304_5200" x1="185" y1="475.748" x2="185" y2="71.8477" gradientUnits="userSpaceOnUse">
<stop stop-color="#00003B"/>
<stop offset="0.59" stop-color="#00104F"/>
<stop offset="1" stop-color="#001656"/>
</linearGradient>
<linearGradient id="paint20_linear_1304_5200" x1="293.823" y1="475.745" x2="293.823" y2="159.043" gradientUnits="userSpaceOnUse">
<stop stop-color="#5C3856"/>
<stop offset="0.26" stop-color="#655378"/>
<stop offset="0.57" stop-color="#6E6E99"/>
<stop offset="0.83" stop-color="#737EAE"/>
<stop offset="1" stop-color="#7584B5"/>
</linearGradient>
<linearGradient id="paint21_linear_1304_5200" x1="113.159" y1="475.641" x2="113.159" y2="80.9531" gradientUnits="userSpaceOnUse">
<stop stop-color="#5C3856"/>
<stop offset="0.26" stop-color="#655378"/>
<stop offset="0.57" stop-color="#6E6E99"/>
<stop offset="0.83" stop-color="#737EAE"/>
<stop offset="1" stop-color="#7584B5"/>
</linearGradient>
<linearGradient id="paint22_linear_1304_5200" x1="360.528" y1="551.197" x2="1600.52" y2="563.056" gradientUnits="userSpaceOnUse">
<stop stop-color="#141A3B"/>
<stop offset="0.99" stop-color="#1DA1F2"/>
</linearGradient>
<linearGradient id="paint23_linear_1304_5200" x1="360.358" y1="566.438" x2="1600.38" y2="578.298" gradientUnits="userSpaceOnUse">
<stop stop-color="#001252"/>
<stop offset="0.99" stop-color="#005F9B"/>
</linearGradient>
<linearGradient id="paint24_linear_1304_5200" x1="1056.92" y1="282.347" x2="2349" y2="282.347" gradientUnits="userSpaceOnUse">
<stop stop-color="#B67AE7"/>
<stop offset="1" stop-color="#FFEBC4"/>
</linearGradient>
<linearGradient id="paint25_linear_1304_5200" x1="138.911" y1="272.405" x2="2298.49" y2="272.405" gradientUnits="userSpaceOnUse">
<stop/>
<stop offset="1" stop-color="#3B549A"/>
</linearGradient>
<clipPath id="clip0_1304_5200">
<rect width="2100" height="684" fill="white"/>
</clipPath>
</defs>
</svg>
