<svg width="1024" height="297" viewBox="0 0 1024 297" fill="none" xmlns="http://www.w3.org/2000/svg">
<g clip-path="url(#clip0_1304_7313)">
<mask id="mask0_1304_7313" style="mask-type:alpha" maskUnits="userSpaceOnUse" x="0" y="-72" width="1516" height="491">
<rect y="-71.5195" width="1516" height="490.294" fill="#D9D9D9"/>
</mask>
<g mask="url(#mask0_1304_7313)">
<path d="M1026.71 117.289H-1.8649V300.161H1026.71V117.289Z" fill="url(#paint0_linear_1304_7313)"/>
<path d="M478.142 116.934L514.524 120.607L449.018 122.81H537.182C537.182 122.81 469.883 124.764 468.679 125.264C467.474 125.763 561.25 125.499 563.014 125.264C564.777 125.029 539.871 123.06 539.871 123.06C539.871 123.06 568.377 121.87 569.126 121.238C569.876 120.607 521.959 119.505 521.959 119.505L540.62 117.668L478.142 116.934Z" fill="#7CE0FF"/>
<path d="M449.885 134.45C448.944 134.45 526.469 137.682 526.469 137.682C526.469 137.682 469.677 139.401 469.016 139.959C468.355 140.517 528.482 142.339 528.482 142.339C528.482 142.339 488.735 143.015 486.869 143.559C485.003 144.102 511.085 145.498 511.085 145.498C511.085 145.498 453.235 149.759 450.84 150.317C448.445 150.875 563.219 150.787 564.336 150.244C565.452 149.7 531.48 146.894 531.48 146.894C531.48 146.894 545.865 145.924 547.217 145.425C548.569 144.925 523.251 144.22 523.251 144.22C523.251 144.22 547.878 143.764 548.437 143.588C548.995 143.412 526.058 140.914 526.058 140.914C526.058 140.914 568.362 137.344 568.362 136.874C568.332 135.052 488.574 134.259 449.885 134.45Z" fill="#7CE0FF"/>
<path d="M469.104 162.248C469.104 162.248 515.831 155.504 596.647 162.115C596.589 162.115 518.828 164.437 469.104 162.248Z" fill="#7CE0FF"/>
<path d="M210.77 117.906C210.77 117.906 724.867 114.508 897.697 117.447C897.697 117.447 260.553 120.11 210.77 117.906Z" fill="#7CE0FF"/>
<path d="M465.299 203.972C465.299 203.972 512.04 201.856 592.842 203.972C592.842 203.972 515.097 204.647 465.299 203.972Z" fill="#7CE0FF"/>
<path d="M499.727 186.797C499.727 186.797 506.604 185.004 518.476 186.797C512.231 187.119 505.973 187.119 499.727 186.797V186.797Z" fill="#7CE0FF"/>
<path d="M532.818 220.047C532.818 220.047 539.68 218.254 551.567 220.047C545.321 220.369 539.063 220.369 532.818 220.047V220.047Z" fill="#7CE0FF"/>
<path d="M426.036 150.521C426.036 150.521 432.898 148.743 444.786 150.521C438.54 150.848 432.282 150.848 426.036 150.521V150.521Z" fill="#7CE0FF"/>
<path d="M427.58 220.047C427.58 220.047 464.079 218.254 527.175 220.047C527.175 220.003 466.46 220.62 427.58 220.047Z" fill="#7CE0FF"/>
<path d="M489.235 212.61C489.235 212.61 510.924 206.983 548.437 212.507C548.452 212.507 512.349 214.446 489.235 212.61Z" fill="#7CE0FF"/>
<path d="M394.166 203.238C394.166 203.238 415.854 197.596 453.367 203.12C453.294 203.12 417.206 205.074 394.166 203.238Z" fill="#7CE0FF"/>
<path d="M626.168 162.449C626.168 162.449 637.923 159.379 658.347 162.376C658.347 162.376 638.731 163.434 626.168 162.449Z" fill="#7CE0FF"/>
<path d="M489.235 169.211C489.235 169.211 513.554 165.729 548.437 169.108C548.452 169.108 512.349 171.048 489.235 169.211Z" fill="#7CE0FF"/>
<path style="mix-blend-mode:multiply" opacity="0.97" d="M1026.71 211.375L415.486 224.025L612.576 228.212L30.9466 237.762L371.713 224.569L-1.8649 213.035L1026.71 192.716V185.605H-1.8649V253.923H1026.71V211.375Z" fill="url(#paint1_linear_1304_7313)"/>
<path style="mix-blend-mode:screen" opacity="0.45" d="M-1.8649 166.305L811.678 185.61H-1.8649V166.305Z" fill="url(#paint2_linear_1304_7313)"/>
<path style="mix-blend-mode:screen" opacity="0.25" d="M-1.8649 235.074L811.678 254.394H-1.8649V235.074Z" fill="url(#paint3_linear_1304_7313)"/>
<path style="mix-blend-mode:screen" opacity="0.45" d="M691.188 182.743L1005.03 186.137C1005.03 186.137 890.525 169.608 691.188 182.743Z" fill="url(#paint4_linear_1304_7313)"/>
<path style="mix-blend-mode:soft-light" opacity="0.6" d="M153.158 117.358L371.713 125.164L791.959 125.634L869.748 116.555L153.158 117.358Z" fill="url(#paint5_radial_1304_7313)"/>
<g opacity="0.5">
<path style="mix-blend-mode:multiply" opacity="0.3" d="M222.688 307.227L216.031 282.383L216.972 275.948L236.75 250.325L246.565 251.985L246.345 264.312L255.72 235.766L246.492 230.535L222.79 234.443L206.936 230.858L210.051 258.171L209.478 272.319L222.688 307.227Z" fill="url(#paint6_linear_1304_7313)" fill-opacity="0.6"/>
<path style="mix-blend-mode:multiply" opacity="0.5" d="M223.76 233.883L224.98 265.573H235.603L246.345 264.31L235.06 263.678L225.376 264.971L224.465 240.597L223.76 233.883Z" fill="url(#paint7_linear_1304_7313)" fill-opacity="0.6"/>
<path style="mix-blend-mode:multiply" opacity="0.5" d="M230.71 233.135L236.75 250.325L246.565 251.985L251.003 250.134L246.345 254.086L235.736 251.632L232.782 239.702L231.592 239.746L229.417 233.047L230.71 233.135Z" fill="url(#paint8_linear_1304_7313)" fill-opacity="0.6"/>
<g style="mix-blend-mode:overlay" opacity="0.3">
<path d="M241.864 253.043L237.808 258.039H236.794L235.839 258.465L228.301 264.576L225.377 264.973L235.736 251.633L241.864 253.043Z" fill="#E0AE79"/>
</g>
<path opacity="0.6" d="M246.565 251.986L247.829 246.652H246.565H241.055L236.749 250.325L246.565 251.986Z" fill="url(#paint9_linear_1304_7313)" fill-opacity="0.6"/>
</g>
<g opacity="0.2">
<path d="M730.935 237.468L728.173 246.695L721.561 254.776L718.108 250.882L711.231 235.984L718.137 235.309L726.571 236.734L730.935 237.468Z" fill="url(#paint10_linear_1304_7313)"/>
<path style="mix-blend-mode:multiply" opacity="0.5" d="M730.935 237.468L720.547 237.865L718.445 237.512L718.651 247.4L721.561 254.776L718.108 250.882L711.231 235.984L718.137 235.309L730.935 237.468Z" fill="url(#paint11_linear_1304_7313)"/>
<g style="mix-blend-mode:overlay" opacity="0.5">
<path d="M721.56 254.776L728.173 246.695L718.651 247.401L721.56 254.776Z" fill="#E0AE79"/>
</g>
</g>
<path d="M730.935 237.732L728.173 232.311L721.561 227.551L718.108 229.843L711.231 235.808L718.137 238.996L726.571 238.158L730.935 237.732Z" fill="url(#paint12_linear_1304_7313)"/>
<path style="mix-blend-mode:multiply" opacity="0.5" d="M730.935 237.732L720.547 237.497L718.445 237.703L718.651 231.885L721.561 227.551L718.108 229.843L711.231 235.808L718.137 238.996L730.935 237.732Z" fill="url(#paint13_linear_1304_7313)"/>
<g style="mix-blend-mode:overlay" opacity="0.5">
<path d="M721.56 227.551L728.173 232.311L718.651 231.885L721.56 227.551Z" fill="#E0AE79"/>
</g>
<path d="M464.931 173.219C465.666 173.131 464.476 173.013 463.462 172.955C462.815 172.955 461.992 172.881 461.316 172.955C460.376 172.955 460.317 173.116 460.42 173.219L460.67 173.469C460.67 173.469 460.773 173.542 461.111 173.572H462.125C463.859 173.572 465.504 173.469 466.93 173.366L464.931 173.219Z" fill="#1395FF"/>
<path d="M450.987 177.864C458.422 177.232 448.342 176.615 440.569 177.012C432.37 177.438 444.522 178.422 450.987 177.864Z" fill="#1395FF"/>
<path d="M603.73 173.4C601.159 173.209 597.485 173.15 594.385 173.253C593.871 173.562 594.547 173.9 596.956 174.105C599.89 174.343 602.839 174.343 605.773 174.105C607.8 173.87 605.773 173.43 602.481 173.459L603.73 173.4Z" fill="#1395FF"/>
<path d="M661.683 149.174C658.572 148.959 655.453 148.91 652.337 149.027C651.823 149.321 652.499 149.659 654.909 149.879C657.843 150.101 660.79 150.101 663.725 149.879C665.767 149.629 663.725 149.189 660.433 149.218L661.683 149.174Z" fill="#1395FF"/>
<path d="M963.908 246.711C959.72 246.388 954.592 246.152 949.081 246.02C948.2 246.02 947.274 246.02 946.348 246.02C945.051 246.011 943.754 246.099 942.469 246.285C940.677 246.608 941.926 247.005 945.085 247.254C948.244 247.504 953.034 247.592 957.325 247.504C959.69 247.504 962.027 247.372 963.32 247.21C964.613 247.049 964.51 246.814 962.644 246.696C961.894 246.696 961.527 246.784 962.071 246.828L963.908 246.711Z" fill="#7084CD"/>
<path d="M464.961 186.225C462.405 186.063 458.716 186.019 455.616 186.107C455.101 186.357 455.777 186.651 458.187 186.827C461.123 187.02 464.068 187.02 467.004 186.827C469.046 186.621 467.004 186.239 463.712 186.269L464.961 186.225Z" fill="#1395FF"/>
<path d="M260.113 145.677C257.541 145.515 253.868 145.456 250.767 145.559C250.253 145.809 250.929 146.103 253.339 146.279C256.274 146.472 259.219 146.472 262.155 146.279C264.183 146.073 262.155 145.691 258.864 145.721L260.113 145.677Z" fill="#1395FF"/>
<path d="M764.57 134.637C762.013 134.461 758.325 134.417 755.225 134.505C754.71 134.769 755.386 135.049 757.796 135.24C760.732 135.432 763.677 135.432 766.612 135.24C768.64 135.034 766.612 134.652 763.321 134.667L764.57 134.637Z" fill="#1395FF"/>
<path d="M975.03 245.963C973.811 245.89 972.092 245.86 970.622 245.89C970.829 245.975 971.046 246.029 971.269 246.051C971.856 246.086 972.445 246.086 973.032 246.051C973.527 246.059 974.022 246 974.501 245.875H974.898L975.03 245.963Z" fill="#536BC3"/>
<path d="M923 242.452C922.25 242.452 921.53 242.452 920.663 242.452C919.991 242.439 919.319 242.469 918.65 242.54C918.489 242.54 918.503 242.54 918.65 242.643C919.625 242.758 920.608 242.798 921.589 242.761C922.735 242.761 923.382 242.599 922.882 242.511L923 242.452Z" fill="#536BC3"/>
<path d="M946.847 246.329C944.29 246.167 940.617 246.108 937.502 246.211C936.988 246.461 937.664 246.755 940.073 246.931C943.009 247.124 945.954 247.124 948.89 246.931C950.932 246.726 948.89 246.344 945.598 246.373L946.847 246.329Z" fill="#1395FF"/>
<path d="M597.559 220.001C595.002 219.839 591.329 219.78 588.214 219.883C587.699 220.133 588.375 220.427 590.785 220.603C593.721 220.796 596.666 220.796 599.601 220.603C601.644 220.397 599.601 220.015 596.31 220.045L597.559 220.001Z" fill="#1395FF"/>
<path d="M605.934 202.501C603.378 202.324 599.704 202.28 596.589 202.368C596.075 202.633 596.751 202.927 599.16 203.103C602.096 203.296 605.041 203.296 607.977 203.103C610.019 202.897 607.977 202.515 604.685 202.545L605.934 202.501Z" fill="#1395FF"/>
<path d="M930.493 240.702C929.861 240.702 930.067 240.835 930.376 240.893C930.684 240.952 931.008 241.026 930.523 241.084H929.95C929.637 241.092 929.325 241.052 929.024 240.967L928.142 240.879C927.452 240.879 927.378 240.717 927.981 240.629C928.583 240.541 929.185 240.629 929.67 240.629C930.155 240.629 930.39 240.629 930.258 240.747L930.493 240.702Z" fill="#536BC3"/>
<path d="M764.57 196.51C762.013 196.348 758.325 196.304 755.225 196.392C754.71 196.642 755.386 196.936 757.796 197.112C760.732 197.305 763.677 197.305 766.612 197.112C768.64 196.906 766.612 196.525 763.321 196.554L764.57 196.51Z" fill="#1395FF"/>
<path d="M775.517 198.992C776.647 198.924 777.78 198.924 778.911 198.992C779.543 199.095 778.617 199.213 777.75 199.286C777.305 199.311 776.858 199.311 776.413 199.286C775.223 199.286 776.222 199.036 775.12 198.978C775.359 198.947 775.601 198.947 775.84 198.978L775.517 198.992Z" fill="#1395FF"/>
<path d="M318.183 166.534C318.672 166.576 319.164 166.576 319.653 166.534C320.211 166.534 320.608 166.534 321.122 166.446C321.636 166.358 322.371 166.446 322.988 166.446C323.242 166.426 323.498 166.426 323.752 166.446C323.752 166.446 323.752 166.446 323.605 166.446C322.906 166.569 322.199 166.648 321.489 166.681C320.475 166.681 319.05 166.681 318.007 166.681C317.287 166.681 316.861 166.563 316.92 166.505C317.397 166.37 317.894 166.315 318.389 166.343L318.183 166.534Z" fill="#1395FF"/>
<path d="M933.844 240.365C934.314 240.204 933.976 240.042 932.933 239.895C932.742 239.895 932.506 239.895 932.168 239.895C931.676 239.889 931.184 239.929 930.699 240.013C930.038 240.101 928.539 240.145 927.878 240.233C927.217 240.321 927.51 240.395 927.687 240.483C928.522 240.722 929.392 240.812 930.258 240.747C930.877 240.745 931.495 240.711 932.11 240.644C932.847 240.573 933.579 240.45 934.299 240.277L933.844 240.365Z" fill="#7084CD"/>
<path d="M963.261 243.876C960.851 244.287 959.661 244.758 959.823 245.213C959.823 245.287 959.926 245.36 960.322 245.433C961.787 245.585 963.258 245.653 964.731 245.639C968.284 245.707 971.838 245.54 975.369 245.14C977.264 244.816 976.838 244.434 974.546 244.126C972.746 243.911 970.936 243.793 969.124 243.773C967.109 243.702 965.091 243.771 963.085 243.979C963.71 244.038 964.34 244.038 964.965 243.979L963.261 243.876Z" fill="#7084CD"/>
<path d="M624.86 209.936C622.45 210.347 621.275 210.817 621.436 211.273C621.436 211.273 621.524 211.42 621.936 211.493C623.4 211.645 624.872 211.713 626.344 211.699C629.902 211.766 633.461 211.599 636.997 211.199C638.893 210.876 638.466 210.494 636.174 210.186C634.369 209.976 632.554 209.863 630.737 209.848C628.722 209.776 626.704 209.845 624.698 210.053C625.324 210.112 625.954 210.112 626.579 210.053L624.86 209.936Z" fill="#1395FF"/>
<path d="M639.554 173.385C637.144 173.811 635.969 174.267 636.131 174.722C636.131 174.796 636.219 174.869 636.63 174.943C638.095 175.094 639.566 175.163 641.038 175.148C644.597 175.216 648.155 175.049 651.691 174.649C653.587 174.326 653.161 173.944 650.869 173.635C649.069 173.421 647.259 173.304 645.447 173.283C643.426 173.207 641.402 173.281 639.393 173.503C640.023 173.554 640.657 173.554 641.288 173.503L639.554 173.385Z" fill="#1395FF"/>
<path d="M854.217 206.487C851.807 206.913 850.617 207.368 850.779 207.824C850.779 207.897 850.881 207.985 851.278 208.044C852.743 208.195 854.214 208.264 855.686 208.25C859.245 208.332 862.804 208.165 866.339 207.75C868.22 207.442 867.809 207.045 865.502 206.736C863.702 206.521 861.892 206.404 860.08 206.384C858.064 206.316 856.046 206.39 854.041 206.604C854.667 206.648 855.295 206.648 855.922 206.604L854.217 206.487Z" fill="#1395FF"/>
<path d="M474.438 154.314C472.043 154.725 470.853 155.195 471.015 155.651C471.015 155.724 471.103 155.798 471.514 155.871C472.979 156.022 474.45 156.091 475.922 156.077C479.476 156.144 483.029 155.977 486.561 155.577C488.456 155.254 488.03 154.872 485.738 154.563C483.938 154.349 482.128 154.231 480.316 154.211C478.3 154.14 476.283 154.208 474.277 154.416C474.902 154.475 475.532 154.475 476.158 154.416L474.438 154.314Z" fill="#1395FF"/>
<path d="M655.526 186.136C653.117 186.562 651.941 187.017 652.103 187.473C652.103 187.546 652.191 187.634 652.602 187.693C654.067 187.844 655.538 187.913 657.011 187.899C660.564 187.973 664.118 187.806 667.649 187.399C669.544 187.076 669.118 186.694 666.826 186.385C665.026 186.172 663.216 186.054 661.404 186.033C659.388 185.957 657.37 186.03 655.365 186.253C655.991 186.297 656.62 186.297 657.246 186.253L655.526 186.136Z" fill="#1395FF"/>
<path d="M363.911 206.487C361.516 206.913 360.325 207.368 360.487 207.824C360.487 207.897 360.575 207.985 360.987 208.044C362.451 208.195 363.923 208.264 365.395 208.25C368.948 208.332 372.503 208.165 376.033 207.75C377.929 207.442 377.503 207.045 375.21 206.737C373.411 206.522 371.601 206.404 369.788 206.384C367.773 206.316 365.755 206.389 363.749 206.604C364.375 206.648 365.004 206.648 365.63 206.604L363.911 206.487Z" fill="#1395FF"/>
<path d="M194.328 148.67C191.918 149.096 190.728 149.552 190.889 150.007C190.889 150.081 190.992 150.169 191.389 150.228C192.853 150.379 194.325 150.447 195.797 150.433C199.356 150.516 202.915 150.349 206.45 149.934C208.331 149.625 207.92 149.228 205.613 148.92C203.813 148.705 202.003 148.587 200.191 148.567C198.175 148.5 196.157 148.573 194.151 148.788C194.778 148.832 195.406 148.832 196.032 148.788L194.328 148.67Z" fill="#1395FF"/>
<path d="M706.279 166.509C703.869 166.92 702.679 167.376 702.84 167.846C702.84 167.846 702.943 167.993 703.34 168.052C704.804 168.21 706.276 168.283 707.748 168.272C711.307 168.344 714.866 168.172 718.401 167.758C720.282 167.449 719.871 167.053 717.564 166.759C715.764 166.537 713.955 166.415 712.142 166.392C710.126 166.324 708.108 166.397 706.103 166.612C706.728 166.671 707.358 166.671 707.983 166.612L706.279 166.509Z" fill="#1395FF"/>
<path d="M430.488 166.362C428.078 166.788 426.903 167.243 427.065 167.699C427.065 167.772 427.153 167.861 427.564 167.919C429.029 168.071 430.5 168.139 431.972 168.125C435.526 168.207 439.081 168.04 442.611 167.626C444.506 167.317 444.08 166.92 441.788 166.612C439.988 166.398 438.178 166.28 436.366 166.259C434.35 166.191 432.332 166.264 430.327 166.48C430.953 166.524 431.581 166.524 432.208 166.48L430.488 166.362Z" fill="#1395FF"/>
<path d="M694.142 167.934C694.612 167.743 694.274 167.552 693.231 167.39C692.976 167.37 692.721 167.37 692.467 167.39C691.972 167.376 691.479 167.425 690.997 167.537C690.336 167.64 688.837 167.684 688.176 167.787C687.515 167.89 687.809 167.978 687.985 168.081C688.811 168.363 689.687 168.468 690.556 168.389C691.176 168.387 691.794 168.343 692.408 168.257C693.149 168.18 693.881 168.037 694.597 167.831L694.142 167.934Z" fill="#1395FF"/>
<path d="M569.184 181.699C569.552 181.699 569.566 181.773 569.287 181.817C569.008 181.861 568.538 181.817 568.082 181.817H567.303C566.76 181.817 566.54 181.729 566.877 181.67C567.42 181.631 567.966 181.631 568.508 181.67C569.023 181.67 569.214 181.773 568.949 181.817L569.184 181.699Z" fill="#1395FF"/>
<path d="M578.251 183.757C577.413 183.581 576.297 183.419 574.93 183.258H574.328C574.073 183.242 573.818 183.242 573.564 183.258C572.338 183.481 571.102 183.643 569.861 183.742H568.744C568.259 183.742 568.744 183.86 569.2 183.904C572.055 184.105 574.923 184.037 577.766 183.698L578.045 183.787L578.251 183.757Z" fill="#1395FF"/>
<path d="M565.041 173.766C565.585 173.766 565.835 173.868 565.673 173.927C565.189 174.017 564.696 174.057 564.204 174.045C563.862 174.092 563.516 174.092 563.175 174.045H563.381L564.747 173.839H565.085L565.041 173.766Z" fill="#1395FF"/>
<path d="M562.425 174.968C561.793 174.968 561.999 175.115 562.293 175.188C562.587 175.261 566.069 175.379 565.584 175.438H561.882C561.567 175.45 561.254 175.405 560.956 175.305C560.75 175.305 555.798 175.203 555.504 175.159C554.814 175.085 559.31 174.997 559.913 174.909C560.475 174.879 561.039 174.879 561.602 174.909C562.087 174.909 562.322 174.997 562.19 175.056L562.425 174.968Z" fill="#1395FF"/>
<path d="M565.041 177.528C562.484 177.337 558.076 177.631 556.342 177.705C555.828 177.998 555.857 178.028 558.267 178.234C561.202 178.456 564.149 178.456 567.083 178.234C569.111 177.998 567.083 177.543 563.792 177.572L565.041 177.528Z" fill="#1395FF"/>
<path d="M573.181 177.527H571.536C571.536 177.527 571.536 177.615 571.683 177.66C572.297 177.69 572.914 177.65 573.519 177.542L573.181 177.527Z" fill="#1395FF"/>
<path d="M571.8 182.579C572.288 182.634 572.781 182.634 573.27 182.579L574.739 182.477C575.283 182.477 575.988 182.477 576.605 182.477C576.862 182.478 577.117 182.502 577.369 182.55C577.369 182.55 577.369 182.55 577.222 182.623C576.524 182.766 575.817 182.859 575.106 182.903C573.946 182.961 572.784 182.961 571.624 182.903C570.904 182.903 570.478 182.77 570.537 182.697C570.98 182.543 571.449 182.478 571.918 182.506L571.8 182.579Z" fill="#1395FF"/>
<path d="M573.593 183.136C572.865 183.053 572.131 183.053 571.403 183.136C570.962 183.225 571.286 183.313 571.624 183.401C572.483 183.426 573.342 183.342 574.18 183.151L573.593 183.136Z" fill="#1395FF"/>
<path d="M431.737 173.953C431.01 173.87 430.275 173.87 429.548 173.953C429.107 174.041 429.43 174.129 429.768 174.217C430.628 174.243 431.487 174.159 432.325 173.967L431.737 173.953Z" fill="#1395FF"/>
<path d="M574.547 186.177C572.49 186.177 570.374 186.177 568.273 186.177H567.553C567.347 186.177 567.288 186.177 567.303 186.25C567.318 186.324 570.242 186.632 569.287 186.809C569.111 186.809 568.817 186.882 568.876 186.912C569.413 186.961 569.954 186.961 570.492 186.912C573.813 186.823 575.532 186.412 573.695 186.133H574.606L574.547 186.177Z" fill="#1395FF"/>
<path d="M461.096 161.599C459.039 161.599 456.923 161.599 454.822 161.599H454.102C453.896 161.599 453.837 161.599 453.852 161.672C453.867 161.746 456.791 162.054 455.836 162.231C455.674 162.231 455.365 162.231 455.424 162.333C455.962 162.383 456.503 162.383 457.041 162.333C460.361 162.245 462.081 161.834 460.244 161.555H461.155L461.096 161.599Z" fill="#1395FF"/>
<path d="M580.352 180.215C587.788 179.466 577.708 178.746 569.935 179.216C561.779 179.716 573.887 180.862 580.352 180.215Z" fill="#1395FF"/>
<path d="M579.309 151.403C586.744 150.654 576.664 149.934 568.876 150.404C560.662 150.903 572.77 152.049 579.309 151.403Z" fill="#1395FF"/>
<path d="M553.227 185.399C560.662 184.767 550.582 184.15 542.794 184.547C534.639 184.973 546.761 185.958 553.227 185.399Z" fill="#1395FF"/>
<path d="M380.457 143.733C387.892 143.102 377.812 142.47 370.038 142.881C361.839 143.307 373.991 144.292 380.457 143.733Z" fill="#1395FF"/>
<path d="M612.649 162.378C620.084 161.746 610.004 161.114 602.216 161.526C594.002 161.952 606.184 162.936 612.649 162.378Z" fill="#1395FF"/>
<path d="M349.084 167.022C349.452 167.022 349.466 167.11 349.187 167.14C348.908 167.169 348.438 167.14 347.982 167.14H347.145C346.586 167.14 346.381 167.037 346.719 166.978C347.257 166.94 347.797 166.94 348.335 166.978C348.864 166.978 349.055 167.081 348.791 167.14L349.084 167.022Z" fill="#1395FF"/>
<path d="M358.15 169.095C357.053 168.868 355.945 168.701 354.829 168.595C354.624 168.578 354.418 168.578 354.212 168.595C353.963 168.58 353.713 168.58 353.463 168.595C352.234 168.827 350.993 168.988 349.745 169.08C349.363 169.08 348.922 169.08 348.629 169.08C348.335 169.08 348.629 169.197 349.099 169.227C351.949 169.428 354.813 169.359 357.651 169.021L357.944 169.109L358.15 169.095Z" fill="#1395FF"/>
<path d="M351.686 167.902C352.174 167.963 352.667 167.963 353.155 167.902L354.625 167.799C355.183 167.799 355.888 167.799 356.491 167.799C356.75 167.771 357.011 167.771 357.27 167.799C357.27 167.799 357.27 167.799 357.123 167.873C356.42 168.016 355.708 168.109 354.992 168.152C353.837 168.218 352.679 168.218 351.524 168.152C350.804 168.152 350.363 168.02 350.422 167.946C350.894 167.786 351.394 167.721 351.892 167.755L351.686 167.902Z" fill="#1395FF"/>
<path d="M353.492 168.462C352.765 168.372 352.03 168.372 351.303 168.462C350.862 168.535 351.186 168.638 351.523 168.711C352.383 168.744 353.243 168.66 354.08 168.462H353.492Z" fill="#1395FF"/>
<path d="M437.748 167.098C437.021 167.009 436.286 167.009 435.559 167.098C435.118 167.172 435.441 167.275 435.779 167.348C436.638 167.373 437.497 167.289 438.336 167.098H437.748Z" fill="#1395FF"/>
<path d="M354.492 171.518C352.434 171.518 350.304 171.518 348.217 171.518H347.483C347.292 171.518 347.233 171.518 347.247 171.591C347.262 171.665 350.186 171.973 349.231 172.149C349.055 172.149 348.761 172.223 348.82 172.252C349.357 172.302 349.898 172.302 350.436 172.252C353.742 172.164 355.476 171.753 353.625 171.488H354.492V171.518Z" fill="#1395FF"/>
<path d="M729.98 145.205C727.923 145.205 725.792 145.205 723.706 145.205H722.986C722.78 145.205 722.721 145.205 722.736 145.279C722.75 145.352 725.675 145.661 724.719 145.837C724.543 145.837 724.249 145.91 724.308 145.94C724.846 145.989 725.387 145.989 725.924 145.94C729.245 145.852 730.964 145.44 729.128 145.176H729.98V145.205Z" fill="#1395FF"/>
<path d="M360.252 165.534C367.687 164.799 357.607 164.065 349.82 164.535C341.664 165.034 353.787 166.18 360.252 165.534Z" fill="#1395FF"/>
<path d="M333.127 170.724C340.562 170.093 330.482 169.476 322.695 169.887C314.539 170.313 326.662 171.283 333.127 170.724Z" fill="#1395FF"/>
<path opacity="0.5" d="M436.778 268.939L444.125 268.41C444.125 268.41 439.187 268.616 436.778 268.939Z" fill="#1AFFFF"/>
<g opacity="0.16">
<path d="M45.303 232.915C42.0557 233.503 37.9561 232.254 35.6491 233.246C33.3422 234.237 32.5634 235.394 29.7716 235.192C26.9797 234.99 39.8957 235.633 41.9675 235.192C43.2423 234.887 44.4087 234.091 45.303 232.915V232.915Z" fill="#151B3C"/>
<path opacity="0.3" d="M457.232 274.511C457.232 274.511 440.26 274.511 439.967 274.511C439.673 274.511 443.567 275.319 443.567 275.319C443.567 275.319 431.576 276.476 430.842 276.789C430.107 277.101 455.704 277.836 459.686 276.789C463.668 275.742 464.917 275.246 466.107 275.062C467.297 274.879 481.991 275.154 482.27 274.493C482.549 273.832 474.629 273.152 474.189 272.84C471.897 272.18 469.544 271.914 467.194 272.05C463.873 272.16 455.292 273.244 454.558 273.446C453.823 273.648 457.232 274.511 457.232 274.511Z" fill="#33B9F8"/>
<path d="M-19.4532 273.507C-12.1211 272.787 -4.76189 272.597 2.5877 272.938C11.404 273.562 9.33216 273.856 5.84971 274.168C2.36725 274.481 -22.8475 273.691 -19.4532 273.507Z" fill="#171F40"/>
<path opacity="0.4" d="M84.2266 261.914C85.716 261.209 87.3289 261.012 88.8993 261.345C90.7801 261.969 90.3686 262.263 89.5898 262.594C88.8111 262.924 83.4919 262.098 84.2266 261.914Z" fill="#171F40"/>
<path d="M12.4034 242.133C13.8979 241.428 15.5155 241.231 17.0907 241.563C18.9569 242.206 18.5601 242.5 17.7813 242.812C17.0025 243.125 11.6834 242.316 12.4034 242.133Z" fill="#171F40"/>
<path d="M28.9633 261.672C28.9633 261.672 16.3999 262.664 16.5028 263.398C16.6056 264.133 51.6066 265.125 51.5331 264.923C51.4596 264.721 44.9061 262.278 44.9061 262.278C44.9061 262.278 32.6955 261.892 28.9633 261.672Z" fill="#171F40"/>
<path opacity="0.4" d="M361.941 266.546C361.353 266.141 445.212 259.328 445.212 259.328C445.212 259.328 390.154 257.601 390.154 258.336C390.154 259.071 402.981 260.062 401.997 261.55C401.012 263.038 342.031 260.797 340.121 262.523C338.211 264.25 351.347 266.546 351.347 266.546C351.347 266.546 363.925 267.941 361.148 269.172C358.371 270.402 286.782 273.121 284.739 272.845C282.697 272.57 266.548 269.172 266.548 269.172C265.564 269.172 216.295 268.933 215.325 268.437C214.356 267.941 200.837 266.49 202.674 266.307C204.511 266.123 277.26 261.293 277.451 260.062C277.642 258.832 242.744 260.301 238.601 259.805C234.457 259.309 175.666 256.609 173.301 256.371C170.935 256.132 166.586 251.43 160.679 250.255C154.772 249.079 110.014 246.582 110.014 246.582C110.014 246.582 127.911 242.412 126.177 242.321C124.444 242.229 70.6638 239.658 48.6524 241.384C24.5397 243.221 7.30371 244.635 5.4082 244.727C3.51269 244.818 -3.52568 243.588 -7.06691 243.79C-10.6081 243.992 -25.0522 243.79 -25.0522 243.79C-21.0532 245.077 -17.0016 246.095 -12.9151 246.839C-10.4431 246.9 -7.97484 246.573 -5.56811 245.865C-5.56811 245.865 16.0319 245.461 23.467 245.865C30.9021 246.269 44.45 249.906 43.3773 250.328C42.3046 250.751 2.2343 249.63 12.3731 252.918C22.5119 256.205 85.7251 255.82 87.4002 255.783C89.0753 255.746 104.666 257.84 106.752 258.226C108.839 258.611 124.782 260.246 125.972 260.797C127.162 261.348 135.89 264.47 135.89 264.47C135.89 264.47 71.6777 262.634 68.2981 266.656C67.6369 267.409 113.159 268.621 113.159 268.621C113.159 268.621 117.008 269.907 116.553 270.274C116.097 270.641 78.8337 271.394 78.8337 271.394C78.8337 271.394 111.542 272.129 112.865 272.496C114.187 272.863 118.448 278.006 129.028 277.877C139.608 277.749 146.073 278.043 158.196 277.877C158.666 277.877 156.873 280.008 156.417 280.926C155.962 281.844 204.217 283.828 203.438 285.132C202.659 286.436 117.023 289.43 117.023 289.43H535.462C535.462 289.43 427.594 270.053 426.021 268.566C424.449 267.078 362.544 267.005 361.941 266.546ZM81.5815 244.763C81.5815 246.6 65.6973 245.498 65.5798 244.469C65.5798 242.908 81.6109 242.67 81.5815 244.818V244.763ZM47.4769 250.273C47.2565 249.208 53.0018 247.371 62.9202 247.72C62.9202 247.72 91.5145 250.108 91.5439 250.622C91.5733 251.136 47.6679 251.357 47.4769 250.31V250.273ZM111.895 252.349C103.299 252.036 94.0419 251.559 93.8361 250.769C93.6304 249.979 113.864 248.62 113.864 248.62C113.864 248.62 149.629 249.961 151.216 250.953C152.803 251.944 122.166 252.753 111.895 252.385V252.349ZM243.802 277.216C243.464 275.527 258.349 272.827 267.107 274.553C267.107 274.553 274.454 274.774 274.454 275.6C274.454 276.426 244.126 278.906 243.802 277.253V277.216ZM319.109 277.308C319.109 275.673 335.14 275.38 335.11 277.602C335.081 279.402 319.226 278.355 319.109 277.345V277.308ZM367.466 268.437C367.613 268.235 374.46 267.996 374.343 268.437C374.225 268.878 367.319 268.658 367.466 268.474V268.437Z" fill="url(#paint14_linear_1304_7313)"/>
<path opacity="0.7" d="M551.669 289.093H685.384C685.384 289.093 664.078 283.675 654.409 282.444C644.741 281.214 639.025 278.991 631.134 277.449C623.244 275.906 578.06 274.308 578.662 273.426C579.265 272.545 608.3 270.727 607.521 269.441C606.742 268.155 568.068 268.045 558.59 268.578C553.036 268.89 519.725 271.149 519.725 271.149C519.725 271.149 560.706 276.769 561.103 277.834C561.5 278.9 557.738 280.461 559.119 282.187C560.5 283.913 568.788 282.683 567.803 283.675C566.819 284.666 551.669 289.093 551.669 289.093Z" fill="url(#paint15_linear_1304_7313)"/>
<path style="mix-blend-mode:screen" opacity="0.4" d="M466.43 289.463C466.43 289.463 448.929 287.057 433.545 286.488C418.16 285.918 399.088 286.231 397.898 285.294C396.707 284.357 462.933 279.398 464.02 278.7C465.107 278.003 436.88 279.766 435.749 278.7C435.426 278.388 435.955 278.168 436.851 277.966C424.611 279.068 400.116 281.272 386.069 282.668C377.061 282.668 369.729 281.345 370.009 280.831C370.449 279.931 407.022 276.552 404.716 276.001C403.981 275.817 337.417 277.727 339.063 278.664C339.798 279.068 353.845 280.776 362.456 284.761C339.43 285.496 308.206 286.451 303.078 286.598C294.79 286.782 279.817 284.945 280.493 284.008C281.169 283.072 298.39 284.816 299.918 284.688C301.447 284.559 305.987 284.688 311.306 284.449C316.625 284.21 317.816 283.714 317.184 283.457C314.799 282.557 312.328 282.063 309.837 281.988C307.471 282.227 305.296 283.219 303.724 283.402C302.152 283.586 300.374 283.825 299.83 283.825C299.287 283.825 247.05 282.355 245.874 283.274C244.699 284.192 253.677 286.616 253.677 286.616L206.48 289.573L466.43 289.463Z" fill="url(#paint16_linear_1304_7313)"/>
<path style="mix-blend-mode:screen" opacity="0.45" d="M244.963 280.537C244.963 280.537 219.014 277.892 216.648 277.818C214.283 277.745 186.658 277.506 183.998 277.304C181.339 277.102 211.623 274.512 212.402 274.035C213.181 273.557 194.152 273.172 193.755 272.804C193.358 272.437 210.536 271.574 210.536 271.574L153.905 270.582C153.905 270.582 138.624 271.574 135.758 271.702C132.893 271.831 124.003 270.582 124.003 270.582L159.695 269.976C159.695 269.976 211.608 268.268 215.355 268.488L210.947 270.325L190.64 269.407C190.64 269.407 225.905 270.692 229.403 271.427C232.9 272.162 225.656 273.043 225.656 273.043C225.656 273.043 214.9 273.466 214.503 274.494C214.106 275.523 244.89 278.829 244.89 278.829L266.211 279.563L244.963 280.537Z" fill="url(#paint17_linear_1304_7313)"/>
</g>
<path d="M588.786 180.187C588.786 180.187 601.452 178.307 625.962 180.187C625.962 180.187 612.017 183.082 588.786 180.187Z" fill="#1395FF"/>
<path d="M86.8965 210.681L58.6917 209.949L67.1105 168.984L82.9256 156.204L73.4331 133.899L80.642 90.1915L94.8722 68.9255L125.276 61.6324L138.415 14.9428L143.988 10.4102L147.141 18.1293L177.05 47.5233L185.213 97.8254L193.001 102.46L202.136 71.4645L207.453 63.0638L212.77 53.794L224.904 69.8457L227.938 97.8254L238.078 123.863L240.447 184.525L242.901 211.363L163.842 211.346L86.8965 210.681Z" fill="url(#paint18_linear_1304_7313)"/>
<path d="M138.416 14.9428V73.4752L143.511 78.3486V96.0362V107.623L157.673 134.41L161.951 145.81L164.797 171.063L171.392 182.514L177.902 161.453L175.653 154.705L174.375 142.249L181.43 149.695L185.145 167.638L188.128 197.373L191.57 202.229L187.889 137.665L188.128 112.957L185.605 101.284L185.213 97.8254L177.05 47.5233L167.882 38.4921L167.081 54.1348L169.126 86.1359L164.984 55.941L159.752 46.1771L157.793 28.5918L147.141 18.1293L143.988 10.4102L138.416 14.9428Z" fill="#005F9B"/>
<path style="mix-blend-mode:multiply" opacity="0.5" d="M212.77 53.793L202.136 71.4634L193.001 102.459L185.213 97.8243L188.127 112.956L191.57 202.228L194.484 211.362H204.147L204.368 161.912L211.253 134.102L207.572 171.062L215.361 183.876L224.734 211.362V187.318L223.132 171.062V139.266L219.246 135.142L211.526 132.586L216.963 105.186L215.361 106.327L210.913 130.337L212.77 53.793Z" fill="url(#paint19_linear_1304_7313)"/>
<path d="M212.771 53.793L207.573 71.6168V93.9733L211.254 134.102L212.771 126.008L215.361 106.327L216.963 105.186L219.468 123.026V136.522L223.132 139.266V171.062L224.734 187.318V202.263V211.362H242.901L240.447 184.524L238.078 123.861L234.806 117.761L228.16 110.894L227.478 120.556L225.246 118.903V105.066V94.8934L226.677 102.783L228.398 103.805L227.938 97.8243L224.905 69.8447L212.771 53.793Z" fill="#005F9B"/>
<path d="M94.8722 68.922L93.7474 81.0034L109.699 105.064L118.493 106.325L127.866 113.482L125.31 106.325L127.866 98.4353L125.275 61.6289L94.8722 68.922Z" fill="#005F9B"/>
<path style="mix-blend-mode:multiply" opacity="0.5" d="M93.7475 81.0055L109.699 105.066L113.533 121.424L118.493 106.327L127.866 113.484V145.809L137.324 166.035L130.593 114.796L127.866 98.4374L125.685 62.7386L138.415 14.9414V73.4738L136.643 101.062L143.511 78.3473V107.622L140.528 127.15L149.22 162.15L161.95 145.809L164.796 171.062L171.392 182.513L159.513 211.31L58.6917 209.947L67.1105 168.983L83.7948 176.327L99.8485 180.536L82.9256 156.203L73.4331 133.898L80.642 90.1901L94.8722 68.9241L93.7475 81.0055Z" fill="url(#paint20_linear_1304_7313)"/>
<path d="M143.988 10.4102L147.141 18.1293L150.294 34.7262L150.805 59.9966L158.355 73.4752L153.924 53.7259L151.163 39.0374L158.355 30.8241L159.752 46.1771L164.984 55.9411L170.216 93.0542L170.949 110.895V123.948L161.337 120.557L153.924 106.328L145.369 78.3487V86.1359L143.511 107.623V78.3487L138.416 73.4752V14.9428L143.988 10.4102Z" fill="#007BA8"/>
<path d="M207.573 71.6168V93.9733L209.635 87.5492V93.9733L216.963 105.186L215.634 91.2299L218.906 84.908L217.526 76.3028L224.905 69.8447L212.771 53.793L207.573 71.6168Z" fill="#007BA8"/>
<path d="M174.119 127.953L184.174 149.321L186.764 159.852L184.975 140.989L174.119 127.953Z" fill="#007BA8"/>
<path d="M125.684 62.7365L103.751 70.626L101.178 73.4717L103.922 84.8715L104.092 88.8247L105.643 93.9708L101.178 89.1655L95.3493 83.4231L107.517 98.6057L109.699 105.064L93.7474 81.0034L94.8722 68.922L125.275 61.6289L125.684 62.7365Z" fill="#007BA8"/>
<path d="M223.132 139.266L225.246 172.221L228.16 176.566L231.142 189.142L235.028 202.228H238.01H242.066L242.901 211.362H224.734L224.053 178.389L223.132 171.062V139.266Z" fill="#007BA8"/>
<path d="M228.16 110.895L227.478 120.556V126.231L223.132 137.664V139.266L231.602 148.877V153.46L235.488 171.063V149.047V140.987L238.675 139.266L238.078 123.862L234.806 117.762L228.16 110.895Z" fill="#007BA8"/>
<path d="M125.02 210.819C131.484 209.886 138.002 209.374 144.533 209.285C150.822 209.609 196.75 211.756 196.75 211.756C196.75 211.756 126.86 211.381 125.02 210.819Z" fill="#1395FF" fill-opacity="0.2"/>
<path d="M143.989 10.4102L148.556 25.5758H150.806L177.051 47.5233L185.214 97.8254L178.005 46.9439L149.306 19.4584L143.989 10.4102Z" fill="#7CE0FF"/>
<path d="M212.77 53.793L223.132 71.3953L228.278 98.8467L224.904 69.8447L212.77 53.793Z" fill="#7CE0FF"/>
<path d="M230.341 103.992L236.238 123.946L240.447 184.523L238.078 123.861L230.341 103.992Z" fill="#7CE0FF"/>
<path d="M349.6 201.152L334.33 173.803L322.213 156.303L311.289 152.418L295.968 176.24L296.633 185.885L293.02 195.819L312.533 202.447L338.897 204.714L349.6 201.152Z" fill="url(#paint21_linear_1304_7313)"/>
<path style="mix-blend-mode:multiply" opacity="0.5" d="M311.289 152.418L303.569 169.373L304.66 173.752L327.599 191.235L338.983 190.093L338.727 181.693L349.6 201.152L338.897 204.714L311.408 202.055L293.02 195.819L296.633 185.885L295.968 176.24L311.289 152.418Z" fill="url(#paint22_linear_1304_7313)"/>
<path d="M334.33 173.803L338.727 181.693L310.3 175.064L303.569 169.373L311.289 152.418L322.213 156.303L334.33 173.803Z" fill="#005F9B"/>
<path style="mix-blend-mode:multiply" opacity="0.5" d="M312.533 202.448L313.947 180.824H326.269L338.727 181.693L325.638 182.119L314.407 181.233L313.351 197.864L312.533 202.448Z" fill="url(#paint23_linear_1304_7313)"/>
<path style="mix-blend-mode:multiply" opacity="0.5" d="M320.593 202.957L327.598 191.233L338.982 190.092L344.129 191.352L338.726 188.66L326.422 190.347L322.996 198.475L321.616 198.441L319.094 203.008L320.593 202.957Z" fill="url(#paint24_linear_1304_7313)"/>
<path d="M333.529 189.376L328.825 185.968H327.649L326.542 185.678L317.799 181.503L314.408 181.23L326.422 190.347L333.529 189.376Z" fill="#005F9B"/>
<path d="M338.982 190.094L340.448 193.74H338.982H332.591L327.598 191.235L338.982 190.094Z" fill="url(#paint25_linear_1304_7313)"/>
<path d="M311.29 152.418L319.981 157.837L338.779 182.971L343.414 190.093L336.308 176.87L322.214 156.303L311.29 152.418Z" fill="#7CE0FF"/>
<path style="mix-blend-mode:multiply" opacity="0.97" d="M1026.71 143.34L472.264 158.531L1026.71 154.418V143.34Z" fill="url(#paint26_linear_1304_7313)"/>
<path style="mix-blend-mode:screen" opacity="0.45" d="M1005.04 154.565C1005.04 154.565 691.188 164.541 486.34 165.966C287.311 167.361 78.3494 161.969 78.3494 161.969L472.278 158.517L301.182 147.263L798.953 142.267L211.065 127.164C211.065 127.164 758.913 137.522 976.618 143.325L613.105 156.959L1005.04 154.565Z" fill="url(#paint27_linear_1304_7313)"/>
</g>
</g>
<defs>
<linearGradient id="paint0_linear_1304_7313" x1="512.422" y1="300.161" x2="512.422" y2="117.289" gradientUnits="userSpaceOnUse">
<stop stop-color="#0C1226"/>
<stop offset="0.42" stop-color="#0F1836"/>
<stop offset="1" stop-color="#0052A4"/>
</linearGradient>
<linearGradient id="paint1_linear_1304_7313" x1="-1.8649" y1="219.764" x2="1026.71" y2="219.764" gradientUnits="userSpaceOnUse">
<stop stop-color="#B67AE7"/>
<stop offset="1" stop-color="#FFEBC4"/>
</linearGradient>
<linearGradient id="paint2_linear_1304_7313" x1="-1.8649" y1="175.957" x2="811.678" y2="175.957" gradientUnits="userSpaceOnUse">
<stop/>
<stop offset="1" stop-color="#3B549A"/>
</linearGradient>
<linearGradient id="paint3_linear_1304_7313" x1="-1.8649" y1="244.742" x2="811.678" y2="244.742" gradientUnits="userSpaceOnUse">
<stop/>
<stop offset="1" stop-color="#3B549A"/>
</linearGradient>
<linearGradient id="paint4_linear_1304_7313" x1="691.188" y1="181.906" x2="1005.03" y2="181.906" gradientUnits="userSpaceOnUse">
<stop/>
<stop offset="1" stop-color="#3B549A"/>
</linearGradient>
<radialGradient id="paint5_radial_1304_7313" cx="0" cy="0" r="1" gradientUnits="userSpaceOnUse" gradientTransform="translate(511.57 121.095) scale(253.294 253.261)">
<stop stop-color="#FFFFB5"/>
<stop offset="0.99" stop-color="#FA8374"/>
</radialGradient>
<linearGradient id="paint6_linear_1304_7313" x1="236.554" y1="231.262" x2="223.234" y2="309.627" gradientUnits="userSpaceOnUse">
<stop stop-color="#5C3856"/>
<stop offset="0.26" stop-color="#655378"/>
<stop offset="0.57" stop-color="#6E6E99"/>
<stop offset="0.83" stop-color="#737EAE"/>
<stop offset="1" stop-color="#7584B5"/>
</linearGradient>
<linearGradient id="paint7_linear_1304_7313" x1="223.76" y1="249.721" x2="246.345" y2="249.721" gradientUnits="userSpaceOnUse">
<stop stop-color="#5C3856"/>
<stop offset="0.26" stop-color="#655378"/>
<stop offset="0.57" stop-color="#6E6E99"/>
<stop offset="0.83" stop-color="#737EAE"/>
<stop offset="1" stop-color="#7584B5"/>
</linearGradient>
<linearGradient id="paint8_linear_1304_7313" x1="229.417" y1="243.566" x2="251.003" y2="243.566" gradientUnits="userSpaceOnUse">
<stop stop-color="#5C3856"/>
<stop offset="0.26" stop-color="#655378"/>
<stop offset="0.57" stop-color="#6E6E99"/>
<stop offset="0.83" stop-color="#737EAE"/>
<stop offset="1" stop-color="#7584B5"/>
</linearGradient>
<linearGradient id="paint9_linear_1304_7313" x1="247.829" y1="249.682" x2="236.749" y2="249.682" gradientUnits="userSpaceOnUse">
<stop stop-color="#00003B"/>
<stop offset="0.59" stop-color="#00104F"/>
<stop offset="1" stop-color="#001656"/>
</linearGradient>
<linearGradient id="paint10_linear_1304_7313" x1="728.483" y1="240.041" x2="725.367" y2="258.371" gradientUnits="userSpaceOnUse">
<stop stop-color="#00003B"/>
<stop offset="0.59" stop-color="#00104F"/>
<stop offset="1" stop-color="#001656"/>
</linearGradient>
<linearGradient id="paint11_linear_1304_7313" x1="728.483" y1="240.041" x2="725.367" y2="258.371" gradientUnits="userSpaceOnUse">
<stop stop-color="#5C3856"/>
<stop offset="0.26" stop-color="#655378"/>
<stop offset="0.57" stop-color="#6E6E99"/>
<stop offset="0.83" stop-color="#737EAE"/>
<stop offset="1" stop-color="#7584B5"/>
</linearGradient>
<linearGradient id="paint12_linear_1304_7313" x1="728.649" y1="241.119" x2="727.544" y2="230.07" gradientUnits="userSpaceOnUse">
<stop stop-color="#00003B"/>
<stop offset="0.59" stop-color="#00104F"/>
<stop offset="1" stop-color="#001656"/>
</linearGradient>
<linearGradient id="paint13_linear_1304_7313" x1="728.649" y1="241.119" x2="727.544" y2="230.07" gradientUnits="userSpaceOnUse">
<stop stop-color="#5C3856"/>
<stop offset="0.26" stop-color="#655378"/>
<stop offset="0.57" stop-color="#6E6E99"/>
<stop offset="0.83" stop-color="#737EAE"/>
<stop offset="1" stop-color="#7584B5"/>
</linearGradient>
<linearGradient id="paint14_linear_1304_7313" x1="173.433" y1="266.27" x2="705.527" y2="271.361" gradientUnits="userSpaceOnUse">
<stop stop-color="#141A3B"/>
<stop offset="0.99" stop-color="#1DA1F2"/>
</linearGradient>
<linearGradient id="paint15_linear_1304_7313" x1="173.36" y1="272.802" x2="705.469" y2="277.893" gradientUnits="userSpaceOnUse">
<stop stop-color="#001252"/>
<stop offset="0.99" stop-color="#005F9B"/>
</linearGradient>
<linearGradient id="paint16_linear_1304_7313" x1="206.406" y1="282.686" x2="466.43" y2="282.686" gradientUnits="userSpaceOnUse">
<stop stop-color="#141D3A"/>
<stop offset="1" stop-color="#139CFF"/>
</linearGradient>
<linearGradient id="paint17_linear_1304_7313" x1="124.018" y1="274.512" x2="266.284" y2="274.512" gradientUnits="userSpaceOnUse">
<stop/>
<stop offset="1" stop-color="#3B549A"/>
</linearGradient>
<linearGradient id="paint18_linear_1304_7313" x1="150.805" y1="211.363" x2="150.805" y2="10.4102" gradientUnits="userSpaceOnUse">
<stop stop-color="#00003B"/>
<stop offset="0.59" stop-color="#00104F"/>
<stop offset="1" stop-color="#001656"/>
</linearGradient>
<linearGradient id="paint19_linear_1304_7313" x1="204.965" y1="211.362" x2="204.965" y2="53.793" gradientUnits="userSpaceOnUse">
<stop stop-color="#5C3856"/>
<stop offset="0.26" stop-color="#655378"/>
<stop offset="0.57" stop-color="#6E6E99"/>
<stop offset="0.83" stop-color="#737EAE"/>
<stop offset="1" stop-color="#7584B5"/>
</linearGradient>
<linearGradient id="paint20_linear_1304_7313" x1="115.05" y1="211.31" x2="115.05" y2="14.9414" gradientUnits="userSpaceOnUse">
<stop stop-color="#5C3856"/>
<stop offset="0.26" stop-color="#655378"/>
<stop offset="0.57" stop-color="#6E6E99"/>
<stop offset="0.83" stop-color="#737EAE"/>
<stop offset="1" stop-color="#7584B5"/>
</linearGradient>
<linearGradient id="paint21_linear_1304_7313" x1="327.815" y1="209.567" x2="322.337" y2="154.783" gradientUnits="userSpaceOnUse">
<stop stop-color="#00003B"/>
<stop offset="0.59" stop-color="#00104F"/>
<stop offset="1" stop-color="#001656"/>
</linearGradient>
<linearGradient id="paint22_linear_1304_7313" x1="327.815" y1="209.567" x2="322.337" y2="154.783" gradientUnits="userSpaceOnUse">
<stop stop-color="#5C3856"/>
<stop offset="0.26" stop-color="#655378"/>
<stop offset="0.57" stop-color="#6E6E99"/>
<stop offset="0.83" stop-color="#737EAE"/>
<stop offset="1" stop-color="#7584B5"/>
</linearGradient>
<linearGradient id="paint23_linear_1304_7313" x1="312.533" y1="191.628" x2="338.727" y2="191.628" gradientUnits="userSpaceOnUse">
<stop stop-color="#5C3856"/>
<stop offset="0.26" stop-color="#655378"/>
<stop offset="0.57" stop-color="#6E6E99"/>
<stop offset="0.83" stop-color="#737EAE"/>
<stop offset="1" stop-color="#7584B5"/>
</linearGradient>
<linearGradient id="paint24_linear_1304_7313" x1="319.094" y1="195.834" x2="344.129" y2="195.834" gradientUnits="userSpaceOnUse">
<stop stop-color="#5C3856"/>
<stop offset="0.26" stop-color="#655378"/>
<stop offset="0.57" stop-color="#6E6E99"/>
<stop offset="0.83" stop-color="#737EAE"/>
<stop offset="1" stop-color="#7584B5"/>
</linearGradient>
<linearGradient id="paint25_linear_1304_7313" x1="340.448" y1="191.917" x2="327.598" y2="191.917" gradientUnits="userSpaceOnUse">
<stop stop-color="#00003B"/>
<stop offset="0.59" stop-color="#00104F"/>
<stop offset="1" stop-color="#001656"/>
</linearGradient>
<linearGradient id="paint26_linear_1304_7313" x1="472.264" y1="150.936" x2="1026.71" y2="150.936" gradientUnits="userSpaceOnUse">
<stop stop-color="#B67AE7"/>
<stop offset="1" stop-color="#FFEBC4"/>
</linearGradient>
<linearGradient id="paint27_linear_1304_7313" x1="78.3347" y1="146.675" x2="1005.04" y2="146.675" gradientUnits="userSpaceOnUse">
<stop/>
<stop offset="1" stop-color="#3B549A"/>
</linearGradient>
<clipPath id="clip0_1304_7313">
<rect width="1024" height="318" fill="white"/>
</clipPath>
</defs>
</svg>
