<svg width="1600" height="397" viewBox="0 0 1600 397" fill="none" xmlns="http://www.w3.org/2000/svg">
<g clip-path="url(#clip0_1304_4145)">
<mask id="mask0_1304_4145" style="mask-type:alpha" maskUnits="userSpaceOnUse" x="0" y="-124" width="1601" height="518">
<rect y="-123.516" width="1600.17" height="517.516" fill="#D9D9D9"/>
</mask>
<g mask="url(#mask0_1304_4145)">
<path d="M1693.3 114.93H-3.07568V416.664H1693.3V114.93Z" fill="url(#paint0_linear_1304_4145)"/>
<path d="M788.576 114.348L848.58 120.408L740.544 124.044H885.948C885.948 124.044 774.957 127.268 772.97 128.093C770.982 128.917 925.644 128.48 928.552 128.093C931.46 127.705 890.383 124.456 890.383 124.456C890.383 124.456 937.397 122.493 938.633 121.45C939.869 120.408 860.842 118.59 860.842 118.59L891.619 115.56L788.576 114.348Z" fill="#7CE0FF"/>
<path d="M741.974 143.241C740.423 143.241 868.281 148.574 868.281 148.574C868.281 148.574 774.617 151.41 773.526 152.332C772.436 153.253 871.601 156.259 871.601 156.259C871.601 156.259 806.048 157.374 802.971 158.271C799.893 159.168 842.908 161.471 842.908 161.471C842.908 161.471 747.499 168.501 743.549 169.422C739.599 170.343 928.891 170.198 930.732 169.301C932.574 168.404 876.545 163.774 876.545 163.774C876.545 163.774 900.27 162.174 902.5 161.35C904.729 160.525 862.974 159.362 862.974 159.362C862.974 159.362 903.59 158.61 904.511 158.319C905.432 158.028 867.603 153.907 867.603 153.907C867.603 153.907 937.372 148.017 937.372 147.241C937.324 144.235 805.782 142.926 741.974 143.241Z" fill="#7CE0FF"/>
<path d="M773.672 189.104C773.672 189.104 850.736 177.977 984.023 188.886C983.926 188.886 855.68 192.716 773.672 189.104Z" fill="#7CE0FF"/>
<path d="M347.614 115.944C347.614 115.944 1195.49 110.337 1480.53 115.185C1480.53 115.185 429.718 119.58 347.614 115.944Z" fill="#7CE0FF"/>
<path d="M767.396 257.954C767.396 257.954 844.484 254.463 977.747 257.954C977.747 257.954 849.525 259.069 767.396 257.954Z" fill="#7CE0FF"/>
<path d="M824.176 229.611C824.176 229.611 835.518 226.654 855.099 229.611C844.798 230.144 834.477 230.144 824.176 229.611V229.611Z" fill="#7CE0FF"/>
<path d="M878.751 284.475C878.751 284.475 890.068 281.517 909.674 284.475C899.373 285.007 889.052 285.007 878.751 284.475V284.475Z" fill="#7CE0FF"/>
<path d="M702.642 169.761C702.642 169.761 713.959 166.827 733.564 169.761C723.264 170.301 712.942 170.301 702.642 169.761V169.761Z" fill="#7CE0FF"/>
<path d="M705.187 284.475C705.187 284.475 765.384 281.517 869.445 284.475C869.445 284.402 769.31 285.42 705.187 284.475Z" fill="#7CE0FF"/>
<path d="M806.873 272.205C806.873 272.205 842.642 262.92 904.512 272.035C904.536 272.035 844.993 275.235 806.873 272.205Z" fill="#7CE0FF"/>
<path d="M650.079 256.738C650.079 256.738 685.849 247.43 747.718 256.544C747.597 256.544 688.078 259.768 650.079 256.738Z" fill="#7CE0FF"/>
<path d="M1032.71 189.448C1032.71 189.448 1052.1 184.382 1085.78 189.327C1085.78 189.327 1053.43 191.072 1032.71 189.448Z" fill="#7CE0FF"/>
<path d="M806.873 200.597C806.873 200.597 846.98 194.851 904.512 200.427C904.536 200.427 844.993 203.627 806.873 200.597Z" fill="#7CE0FF"/>
<path style="mix-blend-mode:multiply" opacity="0.97" d="M1693.3 270.172L685.242 291.044L1010.29 297.953L51.0388 313.71L613.049 291.941L-3.07568 272.911L1693.3 239.385V227.652H-3.07568V340.375H1693.3V270.172Z" fill="url(#paint1_linear_1304_4145)"/>
<path style="mix-blend-mode:screen" opacity="0.45" d="M-3.07568 195.797L1338.66 227.65H-3.07568V195.797Z" fill="url(#paint2_linear_1304_4145)"/>
<path style="mix-blend-mode:screen" opacity="0.25" d="M-3.07568 309.273L1338.66 341.151H-3.07568V309.273Z" fill="url(#paint3_linear_1304_4145)"/>
<path style="mix-blend-mode:screen" opacity="0.45" d="M1139.94 222.922L1657.56 228.522C1657.56 228.522 1468.7 201.25 1139.94 222.922Z" fill="url(#paint4_linear_1304_4145)"/>
<path style="mix-blend-mode:soft-light" opacity="0.6" d="M252.596 115.041L613.049 127.92L1306.14 128.696L1434.44 113.715L252.596 115.041Z" fill="url(#paint5_radial_1304_4145)"/>
<g opacity="0.5">
<path style="mix-blend-mode:multiply" opacity="0.3" d="M367.268 428.322L356.29 387.33L357.841 376.712L390.46 334.435L406.649 337.174L406.285 357.512L421.746 310.411L406.527 301.781L367.438 308.23L341.29 302.315L346.427 347.38L345.482 370.724L367.268 428.322Z" fill="url(#paint6_linear_1304_4145)" fill-opacity="0.6"/>
<path style="mix-blend-mode:multiply" opacity="0.5" d="M369.037 307.309L371.049 359.598H388.57L406.285 357.513L387.673 356.47L371.703 358.604L370.2 318.387L369.037 307.309Z" fill="url(#paint7_linear_1304_4145)" fill-opacity="0.6"/>
<path style="mix-blend-mode:multiply" opacity="0.5" d="M380.5 306.071L390.46 334.434L406.649 337.173L413.967 334.119L406.285 340.64L388.788 336.591L383.917 316.907L381.954 316.98L378.368 305.926L380.5 306.071Z" fill="url(#paint8_linear_1304_4145)" fill-opacity="0.6"/>
<g style="mix-blend-mode:overlay" opacity="0.3">
<path d="M398.894 338.921L392.206 347.163H390.533L388.958 347.866L376.526 357.951L371.704 358.605L388.789 336.594L398.894 338.921Z" fill="#E0AE79"/>
</g>
<path opacity="0.6" d="M406.648 337.175L408.732 328.375H406.648H397.561L390.46 334.435L406.648 337.175Z" fill="url(#paint9_linear_1304_4145)" fill-opacity="0.6"/>
</g>
<path d="M421.746 309.878L400.033 270.97L382.802 246.074L367.268 240.547L345.482 274.437L346.427 288.157L341.29 302.29L369.037 311.72L406.527 314.944L421.746 309.878Z" fill="url(#paint10_linear_1304_4145)"/>
<path style="mix-blend-mode:multiply" opacity="0.5" d="M367.268 240.547L356.29 264.667L357.841 270.897L390.46 295.769L406.649 294.145L406.285 282.194L421.746 309.878L406.527 314.944L367.438 311.162L341.29 302.29L346.427 288.157L345.482 274.437L367.268 240.547Z" fill="url(#paint11_linear_1304_4145)"/>
<g opacity="0.2">
<path d="M1205.5 313.224L1200.94 328.447L1190.04 341.78L1184.34 335.356L1173 310.775L1184.39 309.66L1198.3 312.012L1205.5 313.224Z" fill="url(#paint12_linear_1304_4145)"/>
<path style="mix-blend-mode:multiply" opacity="0.5" d="M1205.5 313.224L1188.36 313.878L1184.9 313.296L1185.24 329.611L1190.04 341.78L1184.34 335.356L1173 310.775L1184.39 309.66L1205.5 313.224Z" fill="url(#paint13_linear_1304_4145)"/>
<g style="mix-blend-mode:overlay" opacity="0.5">
<path d="M1190.04 341.782L1200.94 328.449L1185.24 329.613L1190.04 341.782Z" fill="#E0AE79"/>
</g>
</g>
<path d="M1205.5 313.659L1200.94 304.714L1190.04 296.859L1184.34 300.641L1173 310.483L1184.39 315.744L1198.3 314.362L1205.5 313.659Z" fill="url(#paint14_linear_1304_4145)"/>
<path style="mix-blend-mode:multiply" opacity="0.5" d="M1205.5 313.659L1188.36 313.271L1184.9 313.61L1185.24 304.011L1190.04 296.859L1184.34 300.641L1173 310.483L1184.39 315.744L1205.5 313.659Z" fill="url(#paint15_linear_1304_4145)"/>
<path d="M400.033 270.97L406.285 282.194L365.863 272.764L356.291 264.667L367.269 240.547L382.802 246.074L400.033 270.97Z" fill="#005F9B"/>
<g style="mix-blend-mode:overlay" opacity="0.5">
<path d="M1190.04 296.863L1200.94 304.718L1185.24 304.015L1190.04 296.863Z" fill="#E0AE79"/>
</g>
<path style="mix-blend-mode:multiply" opacity="0.5" d="M369.037 311.719L371.049 280.957H388.57L406.285 282.193L387.673 282.799L371.703 281.539L370.2 305.199L369.037 311.719Z" fill="url(#paint16_linear_1304_4145)"/>
<path style="mix-blend-mode:multiply" opacity="0.5" d="M380.499 312.448L390.459 295.77L406.648 294.146L413.966 295.94L406.284 292.109L388.787 294.509L383.916 306.073L381.953 306.024L378.367 312.521L380.499 312.448Z" fill="url(#paint17_linear_1304_4145)"/>
<path d="M398.894 293.127L392.205 288.278H390.533L388.958 287.866L376.526 281.927L371.703 281.539L388.788 294.508L398.894 293.127Z" fill="#005F9B"/>
<path d="M406.648 294.145L408.732 299.332H406.648H397.561L390.46 295.769L406.648 294.145Z" fill="url(#paint18_linear_1304_4145)"/>
<path d="M70.9349 306.364L30.8276 305.321L42.7992 247.045L65.2883 228.864L51.79 197.131L62.041 134.952L82.2764 104.698L125.51 94.3231L144.194 27.9014L152.119 21.4531L156.602 32.4345L199.133 74.2512L210.741 145.812L221.816 152.406L234.805 108.31L242.366 96.3594L249.927 83.172L267.182 106.008L271.495 145.812L285.914 182.853L289.283 269.153L292.773 307.333L180.351 307.309L70.9349 306.364Z" fill="url(#paint19_linear_1304_4145)"/>
<path d="M144.195 27.9014V111.171L151.441 118.104V143.267V159.751L171.579 197.859L177.662 214.076L181.709 250.002L191.088 266.292L200.345 236.33L197.146 226.73L195.328 209.01L205.361 219.603L210.644 245.13L214.885 287.431L219.781 294.34L214.546 202.489L214.885 167.339L211.299 150.733L210.741 145.812L199.133 74.2512L186.095 61.4031L184.956 83.6569L187.864 129.182L181.976 86.2265L174.536 72.3361L171.749 47.3188L156.603 32.4345L152.119 21.4531L144.195 27.9014Z" fill="#005F9B"/>
<path style="mix-blend-mode:multiply" opacity="0.5" d="M249.927 83.1719L234.805 108.31L221.816 152.406L210.741 145.812L214.885 167.338L219.78 294.34L223.924 307.333H237.665L237.98 236.984L247.77 197.422L242.536 250.002L253.611 268.232L266.939 307.333V273.128L264.661 250.002V204.767L259.136 198.901L248.158 195.265L255.889 156.284L253.611 157.908L247.286 192.065L249.927 83.1719Z" fill="url(#paint20_linear_1304_4145)"/>
<path d="M249.928 83.1719L242.536 108.529V140.333L247.771 197.422L249.928 185.907L253.611 157.908L255.889 156.284L259.451 181.665V200.864L264.662 204.767V250.002L266.94 273.128V294.388V307.333H292.773L289.283 269.153L285.915 182.853L281.262 174.175L271.811 164.405L270.841 178.15L267.667 175.799V156.115V141.642L269.702 152.866L272.15 154.321L271.496 145.812L267.182 106.007L249.928 83.1719Z" fill="#005F9B"/>
<path d="M82.2762 104.7L80.6768 121.887L103.36 156.116L115.864 157.91L129.193 168.091L125.558 157.91L129.193 146.686L125.51 94.3242L82.2762 104.7Z" fill="#005F9B"/>
<path style="mix-blend-mode:multiply" opacity="0.5" d="M80.6769 121.883L103.36 156.112L108.813 179.384L115.865 157.906L129.193 168.087V214.073L142.643 242.848L133.071 169.954L129.193 146.682L126.091 95.8959L144.194 27.8984V111.168L141.674 150.415L151.44 118.101V159.748L147.199 187.529L159.559 237.321L177.661 214.073L181.708 249.999L191.087 266.29L174.196 307.258L30.8276 305.318L42.7992 247.042L66.5243 257.49L89.3527 263.477L65.2883 228.861L51.79 197.128L62.041 134.949L82.2764 104.696L80.6769 121.883Z" fill="url(#paint21_linear_1304_4145)"/>
<path d="M152.119 21.4531L156.603 32.4345L161.086 56.0458L161.813 91.996L172.549 111.171L166.248 83.0751L162.322 62.1789L172.549 50.4945L174.536 72.3361L181.976 86.2265L189.415 139.025L190.457 164.405V182.974L176.79 178.15L166.248 157.909L154.082 118.104V129.182L151.441 159.751V118.104L144.195 111.171V27.9014L152.119 21.4531Z" fill="#007BA8"/>
<path d="M242.536 108.529V140.333L245.468 131.194V140.333L255.889 156.284L253.999 136.43L258.652 127.437L256.689 115.195L267.182 106.007L249.928 83.1719L242.536 108.529Z" fill="#007BA8"/>
<path d="M194.965 188.668L209.263 219.067L212.946 234.048L210.402 207.213L194.965 188.668Z" fill="#007BA8"/>
<path d="M126.091 95.8999L94.9021 107.124L91.2428 111.172L95.1444 127.39L95.3868 133.014L97.5921 140.335L91.2428 133.498L82.9547 125.329L100.258 146.928L103.36 156.116L80.6768 121.887L82.2762 104.7L125.51 94.3242L126.091 95.8999Z" fill="#007BA8"/>
<path d="M264.662 204.766L267.667 251.649L271.811 257.83L276.052 275.721L281.577 294.338H285.818H291.586L292.773 307.331H266.94L265.97 260.424L264.662 250V204.766Z" fill="#007BA8"/>
<path d="M271.811 164.406L270.841 178.151V186.224L264.662 202.49V204.768L276.706 218.441V224.962L282.231 250.003V218.683V207.217L286.763 204.768L285.915 182.854L281.262 174.176L271.811 164.406Z" fill="#007BA8"/>
<path d="M125.146 306.557C134.338 305.23 143.607 304.501 152.894 304.375C161.836 304.836 227.147 307.89 227.147 307.89C227.147 307.89 127.763 307.357 125.146 306.557Z" fill="#1395FF" fill-opacity="0.2"/>
<path d="M766.789 207.217C768.001 207.071 766.038 206.877 764.366 206.78C763.3 206.78 761.942 206.659 760.827 206.78C759.276 206.78 759.18 207.047 759.349 207.217L759.761 207.629C759.761 207.629 759.931 207.75 760.488 207.799H762.16C765.02 207.799 767.734 207.629 770.085 207.459L766.789 207.217Z" fill="#1395FF"/>
<path d="M743.792 214.878C756.054 213.836 739.43 212.818 726.61 213.472C713.087 214.175 733.129 215.8 743.792 214.878Z" fill="#1395FF"/>
<path d="M995.704 207.505C991.463 207.19 985.405 207.093 980.291 207.262C979.443 207.771 980.558 208.329 984.532 208.668C989.371 209.06 994.234 209.06 999.073 208.668C1002.42 208.28 999.073 207.553 993.644 207.602L995.704 207.505Z" fill="#1395FF"/>
<path d="M1091.28 167.532C1086.15 167.177 1081.01 167.096 1075.87 167.29C1075.02 167.775 1076.14 168.332 1080.11 168.696C1084.95 169.063 1089.81 169.063 1094.65 168.696C1098.02 168.284 1094.65 167.557 1089.22 167.605L1091.28 167.532Z" fill="#1395FF"/>
<path d="M1589.73 328.473C1582.82 327.939 1574.36 327.551 1565.28 327.333C1563.82 327.333 1562.29 327.333 1560.77 327.333C1558.63 327.317 1556.49 327.463 1554.37 327.77C1551.41 328.303 1553.47 328.957 1558.68 329.37C1563.89 329.782 1571.79 329.927 1578.87 329.782C1582.77 329.782 1586.63 329.563 1588.76 329.297C1590.89 329.03 1590.72 328.642 1587.64 328.448C1586.41 328.448 1585.8 328.594 1586.7 328.667L1589.73 328.473Z" fill="#7084CD"/>
<path d="M766.839 228.67C762.622 228.403 756.539 228.331 751.426 228.476C750.577 228.888 751.692 229.373 755.667 229.664C760.508 229.982 765.365 229.982 770.207 229.664C773.575 229.324 770.207 228.694 764.779 228.743L766.839 228.67Z" fill="#1395FF"/>
<path d="M428.992 161.763C424.751 161.496 418.692 161.399 413.579 161.569C412.731 161.981 413.846 162.466 417.82 162.757C422.661 163.075 427.519 163.075 432.36 162.757C435.705 162.417 432.36 161.787 426.932 161.835L428.992 161.763Z" fill="#1395FF"/>
<path d="M1260.97 143.557C1256.75 143.266 1250.67 143.193 1245.56 143.338C1244.71 143.775 1245.82 144.235 1249.8 144.55C1254.64 144.868 1259.5 144.868 1264.34 144.55C1267.68 144.211 1264.34 143.581 1258.91 143.605L1260.97 143.557Z" fill="#1395FF"/>
<path d="M1522.26 321.443C1521.02 321.443 1519.84 321.443 1518.41 321.443C1517.3 321.421 1516.19 321.469 1515.09 321.588C1514.82 321.588 1514.84 321.588 1515.09 321.758C1516.7 321.948 1518.32 322.012 1519.93 321.952C1521.82 321.952 1522.89 321.685 1522.07 321.54L1522.26 321.443Z" fill="#536BC3"/>
<path d="M1561.59 327.841C1557.37 327.574 1551.32 327.477 1546.18 327.647C1545.33 328.059 1546.44 328.544 1550.42 328.835C1555.26 329.153 1560.12 329.153 1564.96 328.835C1568.33 328.495 1564.96 327.865 1559.53 327.914L1561.59 327.841Z" fill="#1395FF"/>
<path d="M985.526 284.399C981.309 284.133 975.251 284.036 970.113 284.206C969.265 284.618 970.38 285.102 974.354 285.393C979.196 285.712 984.053 285.712 988.894 285.393C992.263 285.054 988.894 284.424 983.466 284.472L985.526 284.399Z" fill="#1395FF"/>
<path d="M999.339 255.529C995.123 255.238 989.064 255.166 983.927 255.311C983.078 255.747 984.193 256.232 988.168 256.523C993.009 256.841 997.866 256.841 1002.71 256.523C1006.08 256.184 1002.71 255.553 997.28 255.602L999.339 255.529Z" fill="#1395FF"/>
<path d="M1534.62 318.557C1533.58 318.557 1533.92 318.775 1534.42 318.872C1534.93 318.969 1535.47 319.09 1534.67 319.187H1533.72C1533.21 319.199 1532.69 319.133 1532.19 318.993L1530.74 318.848C1529.6 318.848 1529.48 318.581 1530.47 318.436C1531.47 318.29 1532.46 318.436 1533.26 318.436C1534.06 318.436 1534.45 318.436 1534.23 318.63L1534.62 318.557Z" fill="#536BC3"/>
<path d="M1260.97 245.639C1256.75 245.372 1250.67 245.299 1245.56 245.445C1244.71 245.857 1245.82 246.342 1249.8 246.633C1254.64 246.951 1259.5 246.951 1264.34 246.633C1267.68 246.293 1264.34 245.663 1258.91 245.711L1260.97 245.639Z" fill="#1395FF"/>
<path d="M1279.02 249.736C1280.89 249.624 1282.76 249.624 1284.62 249.736C1285.66 249.906 1284.14 250.1 1282.71 250.221C1281.97 250.262 1281.24 250.262 1280.5 250.221C1278.54 250.221 1280.19 249.809 1278.37 249.712C1278.76 249.661 1279.16 249.661 1279.56 249.712L1279.02 249.736Z" fill="#1395FF"/>
<path d="M524.765 196.186C525.571 196.256 526.382 196.256 527.188 196.186C528.109 196.186 528.763 196.186 529.612 196.041C530.46 195.895 531.672 196.041 532.689 196.041C533.109 196.007 533.53 196.007 533.949 196.041C533.949 196.041 533.949 196.041 533.707 196.041C532.553 196.244 531.388 196.374 530.217 196.429C528.545 196.429 526.195 196.429 524.474 196.429C523.287 196.429 522.584 196.235 522.681 196.138C523.468 195.915 524.287 195.825 525.104 195.871L524.765 196.186Z" fill="#1395FF"/>
<path d="M1540.14 317.999C1540.92 317.733 1540.36 317.466 1538.64 317.224C1538.33 317.224 1537.94 317.224 1537.38 317.224C1536.57 317.214 1535.76 317.279 1534.96 317.418C1533.87 317.563 1531.4 317.636 1530.31 317.781C1529.21 317.927 1529.7 318.048 1529.99 318.193C1531.37 318.588 1532.8 318.736 1534.23 318.63C1535.25 318.626 1536.27 318.569 1537.28 318.46C1538.5 318.342 1539.71 318.139 1540.9 317.854L1540.14 317.999Z" fill="#7084CD"/>
<path d="M1588.66 323.793C1584.69 324.471 1582.72 325.247 1582.99 325.999C1582.99 326.12 1583.16 326.241 1583.81 326.362C1586.23 326.612 1588.66 326.725 1591.08 326.702C1596.94 326.813 1602.81 326.538 1608.63 325.877C1611.76 325.344 1611.05 324.714 1607.27 324.205C1604.3 323.85 1601.32 323.656 1598.33 323.623C1595.01 323.506 1591.68 323.619 1588.37 323.962C1589.4 324.059 1590.44 324.059 1591.47 323.962L1588.66 323.793Z" fill="#7084CD"/>
<path d="M1030.55 267.796C1026.58 268.475 1024.64 269.251 1024.91 270.002C1024.91 270.002 1025.05 270.244 1025.73 270.366C1028.14 270.616 1030.57 270.729 1033 270.705C1038.87 270.816 1044.74 270.541 1050.57 269.881C1053.7 269.348 1052.99 268.717 1049.21 268.208C1046.24 267.863 1043.24 267.676 1040.25 267.651C1036.92 267.533 1033.59 267.646 1030.29 267.99C1031.32 268.087 1032.36 268.087 1033.39 267.99L1030.55 267.796Z" fill="#1395FF"/>
<path d="M1054.79 207.483C1050.81 208.186 1048.87 208.937 1049.14 209.689C1049.14 209.81 1049.29 209.931 1049.96 210.052C1052.38 210.302 1054.81 210.415 1057.23 210.392C1063.1 210.503 1068.97 210.227 1074.8 209.567C1077.93 209.034 1077.23 208.404 1073.45 207.895C1070.48 207.542 1067.49 207.348 1064.5 207.313C1061.17 207.188 1057.83 207.31 1054.52 207.676C1055.56 207.762 1056.61 207.762 1057.65 207.676L1054.79 207.483Z" fill="#1395FF"/>
<path d="M1408.82 262.1C1404.85 262.803 1402.88 263.555 1403.15 264.306C1403.15 264.428 1403.32 264.573 1403.97 264.67C1406.39 264.92 1408.82 265.033 1411.24 265.009C1417.11 265.146 1422.98 264.87 1428.81 264.185C1431.92 263.676 1431.24 263.022 1427.43 262.513C1424.46 262.158 1421.48 261.964 1418.49 261.931C1415.16 261.819 1411.84 261.941 1408.53 262.294C1409.56 262.367 1410.6 262.367 1411.63 262.294L1408.82 262.1Z" fill="#1395FF"/>
<path d="M782.469 176.015C778.519 176.694 776.556 177.47 776.822 178.221C776.822 178.342 776.968 178.464 777.646 178.585C780.061 178.835 782.489 178.948 784.916 178.924C790.777 179.036 796.638 178.76 802.462 178.1C805.588 177.567 804.885 176.936 801.104 176.427C798.136 176.074 795.151 175.879 792.162 175.846C788.838 175.728 785.51 175.842 782.202 176.185C783.234 176.282 784.272 176.282 785.304 176.185L782.469 176.015Z" fill="#1395FF"/>
<path d="M1081.13 228.526C1077.15 229.229 1075.22 229.981 1075.48 230.732C1075.48 230.853 1075.63 230.999 1076.31 231.096C1078.72 231.345 1081.15 231.459 1083.58 231.435C1089.44 231.558 1095.3 231.283 1101.12 230.611C1104.25 230.078 1103.55 229.447 1099.76 228.938C1096.8 228.585 1093.81 228.391 1090.82 228.356C1087.5 228.231 1084.17 228.352 1080.86 228.72C1081.89 228.793 1082.93 228.793 1083.96 228.72L1081.13 228.526Z" fill="#1395FF"/>
<path d="M600.181 262.101C596.231 262.804 594.268 263.555 594.535 264.307C594.535 264.428 594.68 264.573 595.359 264.67C597.774 264.92 600.201 265.033 602.629 265.01C608.49 265.146 614.352 264.871 620.174 264.186C623.301 263.676 622.598 263.022 618.817 262.513C615.849 262.159 612.864 261.965 609.875 261.931C606.551 261.819 603.222 261.94 599.915 262.295C600.948 262.367 601.984 262.367 603.017 262.295L600.181 262.101Z" fill="#1395FF"/>
<path d="M320.496 166.706C316.522 167.409 314.559 168.16 314.825 168.912C314.825 169.033 314.995 169.179 315.649 169.276C318.064 169.525 320.491 169.638 322.919 169.615C328.788 169.751 334.659 169.476 340.489 168.791C343.591 168.282 342.912 167.627 339.108 167.118C336.14 166.763 333.154 166.569 330.165 166.536C326.841 166.425 323.513 166.546 320.205 166.9C321.238 166.973 322.274 166.973 323.307 166.9L320.496 166.706Z" fill="#1395FF"/>
<path d="M1164.83 196.136C1160.86 196.815 1158.9 197.567 1159.16 198.342C1159.16 198.342 1159.33 198.585 1159.99 198.682C1162.4 198.942 1164.83 199.064 1167.26 199.045C1173.13 199.164 1179 198.88 1184.83 198.197C1187.93 197.688 1187.25 197.033 1183.44 196.549C1180.48 196.183 1177.49 195.981 1174.5 195.943C1171.18 195.831 1167.85 195.952 1164.54 196.306C1165.57 196.403 1166.61 196.403 1167.64 196.306L1164.83 196.136Z" fill="#1395FF"/>
<path d="M709.984 195.894C706.01 196.597 704.071 197.349 704.338 198.1C704.338 198.221 704.483 198.367 705.162 198.464C707.577 198.713 710.004 198.827 712.432 198.803C718.292 198.939 724.155 198.663 729.977 197.979C733.103 197.47 732.401 196.815 728.62 196.306C725.652 195.953 722.667 195.759 719.678 195.724C716.353 195.611 713.025 195.733 709.718 196.088C710.75 196.161 711.787 196.161 712.82 196.088L709.984 195.894Z" fill="#1395FF"/>
<path d="M1144.82 198.489C1145.59 198.174 1145.03 197.859 1143.31 197.592C1142.89 197.558 1142.47 197.558 1142.05 197.592C1141.24 197.568 1140.42 197.649 1139.63 197.834C1138.54 198.004 1136.07 198.077 1134.98 198.246C1133.89 198.416 1134.37 198.562 1134.66 198.731C1136.02 199.196 1137.47 199.37 1138.9 199.24C1139.92 199.237 1140.94 199.164 1141.96 199.022C1143.18 198.894 1144.39 198.659 1145.57 198.319L1144.82 198.489Z" fill="#1395FF"/>
<path d="M938.729 221.206C939.335 221.206 939.359 221.327 938.899 221.4C938.438 221.473 937.662 221.4 936.911 221.4H935.627C934.73 221.4 934.367 221.255 934.924 221.158C935.82 221.093 936.719 221.093 937.614 221.158C938.462 221.158 938.777 221.327 938.341 221.4L938.729 221.206Z" fill="#1395FF"/>
<path d="M953.682 224.593C952.301 224.302 950.459 224.036 948.205 223.769H947.212C946.792 223.744 946.371 223.744 945.951 223.769C943.93 224.138 941.892 224.405 939.844 224.569H938.003C937.203 224.569 938.003 224.763 938.754 224.836C943.464 225.168 948.194 225.054 952.882 224.496L953.343 224.642L953.682 224.593Z" fill="#1395FF"/>
<path d="M931.896 208.113C932.793 208.113 933.205 208.283 932.938 208.38C932.139 208.528 931.327 208.593 930.515 208.574C929.952 208.652 929.381 208.652 928.818 208.574H929.158L931.411 208.234H931.969L931.896 208.113Z" fill="#1395FF"/>
<path d="M927.582 210.098C926.539 210.098 926.879 210.341 927.364 210.462C927.848 210.583 933.592 210.777 932.792 210.874H926.685C926.167 210.895 925.65 210.821 925.158 210.656C924.819 210.656 916.652 210.486 916.167 210.413C915.028 210.292 922.444 210.147 923.438 210.001C924.366 209.953 925.296 209.953 926.224 210.001C927.024 210.001 927.412 210.147 927.194 210.244L927.582 210.098Z" fill="#1395FF"/>
<path d="M931.896 214.32C927.679 214.004 920.409 214.489 917.549 214.61C916.701 215.095 916.749 215.144 920.724 215.483C925.564 215.85 930.424 215.85 935.264 215.483C938.608 215.095 935.264 214.344 929.835 214.392L931.896 214.32Z" fill="#1395FF"/>
<path d="M945.322 214.32H942.607C942.607 214.32 942.608 214.466 942.85 214.538C943.864 214.588 944.88 214.523 945.879 214.345L945.322 214.32Z" fill="#1395FF"/>
<path d="M943.043 222.658C943.848 222.749 944.661 222.749 945.467 222.658L947.89 222.488C948.787 222.488 949.95 222.488 950.968 222.488C951.391 222.49 951.812 222.531 952.228 222.61C952.228 222.61 952.228 222.61 951.985 222.731C950.834 222.965 949.668 223.119 948.496 223.191C946.583 223.288 944.666 223.288 942.752 223.191C941.565 223.191 940.862 222.973 940.959 222.852C941.69 222.598 942.464 222.491 943.237 222.537L943.043 222.658Z" fill="#1395FF"/>
<path d="M945.999 223.579C944.8 223.442 943.588 223.442 942.388 223.579C941.661 223.725 942.195 223.87 942.752 224.015C944.169 224.056 945.586 223.918 946.969 223.603L945.999 223.579Z" fill="#1395FF"/>
<path d="M712.044 208.427C710.844 208.29 709.633 208.29 708.433 208.427C707.706 208.572 708.24 208.718 708.797 208.863C710.214 208.906 711.631 208.767 713.014 208.451L712.044 208.427Z" fill="#1395FF"/>
<path d="M947.574 228.596C944.181 228.596 940.692 228.596 937.226 228.596H936.039C935.699 228.596 935.602 228.596 935.627 228.717C935.651 228.839 940.474 229.348 938.898 229.639C938.608 229.639 938.123 229.76 938.22 229.808C939.106 229.89 939.999 229.89 940.885 229.808C946.362 229.663 949.198 228.984 946.169 228.523H947.671L947.574 228.596Z" fill="#1395FF"/>
<path d="M760.464 188.041C757.071 188.041 753.582 188.041 750.116 188.041H748.929C748.59 188.041 748.492 188.041 748.517 188.163C748.541 188.284 753.363 188.793 751.788 189.084C751.522 189.084 751.013 189.084 751.11 189.254C751.996 189.335 752.889 189.335 753.776 189.254C759.252 189.108 762.088 188.429 759.058 187.969H760.561L760.464 188.041Z" fill="#1395FF"/>
<path d="M957.148 218.755C969.41 217.519 952.786 216.331 939.966 217.107C926.516 217.931 946.485 219.822 957.148 218.755Z" fill="#1395FF"/>
<path d="M955.427 171.216C967.689 169.98 951.065 168.792 938.221 169.568C924.674 170.392 944.643 172.283 955.427 171.216Z" fill="#1395FF"/>
<path d="M912.411 227.312C924.673 226.269 908.049 225.251 895.205 225.906C881.755 226.609 901.748 228.233 912.411 227.312Z" fill="#1395FF"/>
<path d="M627.469 158.56C639.732 157.518 623.107 156.475 610.287 157.154C596.765 157.857 616.806 159.481 627.469 158.56Z" fill="#1395FF"/>
<path d="M1010.41 189.326C1022.68 188.283 1006.05 187.241 993.207 187.92C979.66 188.623 999.75 190.247 1010.41 189.326Z" fill="#1395FF"/>
<path d="M575.728 196.988C576.334 196.988 576.359 197.133 575.898 197.182C575.438 197.23 574.662 197.182 573.911 197.182H572.53C571.609 197.182 571.269 197.012 571.827 196.915C572.714 196.851 573.605 196.851 574.493 196.915C575.365 196.915 575.68 197.085 575.244 197.182L575.728 196.988Z" fill="#1395FF"/>
<path d="M590.681 200.404C588.872 200.03 587.043 199.755 585.204 199.58C584.865 199.551 584.525 199.551 584.186 199.58C583.775 199.555 583.362 199.555 582.95 199.58C580.923 199.962 578.876 200.229 576.819 200.38C576.189 200.38 575.462 200.38 574.977 200.38C574.493 200.38 574.977 200.574 575.753 200.622C580.454 200.955 585.177 200.841 589.857 200.283L590.342 200.428L590.681 200.404Z" fill="#1395FF"/>
<path d="M580.019 198.441C580.824 198.542 581.638 198.542 582.442 198.441L584.866 198.271C585.787 198.271 586.95 198.271 587.944 198.271C588.37 198.225 588.801 198.225 589.228 198.271C589.228 198.271 589.228 198.271 588.986 198.392C587.827 198.628 586.652 198.782 585.472 198.853C583.567 198.962 581.657 198.962 579.752 198.853C578.565 198.853 577.838 198.635 577.935 198.514C578.714 198.249 579.538 198.142 580.358 198.198L580.019 198.441Z" fill="#1395FF"/>
<path d="M582.999 199.361C581.8 199.213 580.587 199.213 579.388 199.361C578.661 199.482 579.194 199.651 579.751 199.773C581.169 199.827 582.588 199.688 583.968 199.361H582.999Z" fill="#1395FF"/>
<path d="M721.957 197.107C720.758 196.959 719.545 196.959 718.346 197.107C717.619 197.228 718.152 197.398 718.709 197.519C720.127 197.56 721.544 197.421 722.926 197.107H721.957Z" fill="#1395FF"/>
<path d="M584.646 204.404C581.254 204.404 577.74 204.404 574.298 204.404H573.087C572.772 204.404 572.675 204.404 572.699 204.525C572.723 204.646 577.546 205.155 575.971 205.446C575.68 205.446 575.195 205.568 575.292 205.616C576.179 205.698 577.071 205.698 577.958 205.616C583.41 205.471 586.27 204.792 583.217 204.355H584.646V204.404Z" fill="#1395FF"/>
<path d="M1203.92 160.986C1200.53 160.986 1197.01 160.986 1193.57 160.986H1192.39C1192.05 160.986 1191.95 160.986 1191.97 161.107C1192 161.228 1196.82 161.737 1195.25 162.028C1194.95 162.028 1194.47 162.15 1194.57 162.198C1195.45 162.28 1196.35 162.28 1197.23 162.198C1202.71 162.053 1205.55 161.374 1202.52 160.938H1203.92V160.986Z" fill="#1395FF"/>
<path d="M594.148 194.537C606.41 193.325 589.785 192.113 576.941 192.889C563.491 193.713 583.485 195.604 594.148 194.537Z" fill="#1395FF"/>
<path d="M549.411 203.093C561.673 202.051 545.049 201.033 532.205 201.712C518.755 202.415 538.748 204.015 549.411 203.093Z" fill="#1395FF"/>
<path opacity="0.5" d="M720.357 365.146L732.474 364.273C732.474 364.273 724.331 364.613 720.357 365.146Z" fill="#1AFFFF"/>
<g opacity="0.16">
<path d="M74.7161 305.709C69.3604 306.678 62.5991 304.618 58.7944 306.254C54.9896 307.89 53.7052 309.8 49.1008 309.466C44.4963 309.133 65.7979 310.194 69.2149 309.466C71.3174 308.963 73.2411 307.649 74.7161 305.709V305.709Z" fill="#151B3C"/>
<path opacity="0.3" d="M754.091 374.344C754.091 374.344 726.101 374.344 725.616 374.344C725.131 374.344 731.553 375.678 731.553 375.678C731.553 375.678 711.778 377.587 710.567 378.102C709.355 378.617 751.57 379.829 758.138 378.102C764.705 376.375 766.765 375.557 768.728 375.254C770.691 374.951 794.925 375.405 795.386 374.314C795.846 373.223 782.784 372.102 782.057 371.587C778.277 370.497 774.396 370.059 770.521 370.284C765.045 370.466 750.892 372.253 749.68 372.587C748.469 372.92 754.091 374.344 754.091 374.344Z" fill="#33B9F8"/>
<path d="M-32.0831 372.679C-19.9907 371.491 -7.85349 371.177 4.26785 371.74C18.8082 372.77 15.3912 373.255 9.64772 373.77C3.90427 374.285 -37.6812 372.982 -32.0831 372.679Z" fill="#171F40"/>
<path opacity="0.4" d="M138.911 353.555C141.367 352.391 144.027 352.067 146.617 352.615C149.719 353.645 149.041 354.13 147.756 354.676C146.472 355.221 137.699 353.858 138.911 353.555Z" fill="#171F40"/>
<path d="M20.4564 320.914C22.9213 319.75 25.5891 319.426 28.187 319.974C31.2647 321.035 30.6104 321.52 29.326 322.035C28.0416 322.55 19.2689 321.217 20.4564 320.914Z" fill="#171F40"/>
<path d="M47.7679 353.164C47.7679 353.164 27.0477 354.8 27.2173 356.013C27.387 357.225 85.1124 358.861 84.9912 358.528C84.87 358.194 74.0617 354.164 74.0617 354.164C74.0617 354.164 53.9233 353.528 47.7679 353.164Z" fill="#171F40"/>
<path opacity="0.4" d="M596.933 361.193C595.963 360.526 734.267 349.284 734.267 349.284C734.267 349.284 643.462 346.435 643.462 347.647C643.462 348.859 664.618 350.496 662.994 352.95C661.371 355.405 564.096 351.708 560.945 354.556C557.795 357.405 579.46 361.193 579.46 361.193C579.46 361.193 600.204 363.496 595.624 365.526C591.044 367.557 472.976 372.042 469.608 371.587C466.239 371.132 439.606 365.526 439.606 365.526C437.982 365.526 356.726 365.132 355.126 364.314C353.527 363.496 331.232 361.102 334.261 360.799C337.29 360.496 457.272 352.526 457.587 350.496C457.902 348.465 400.347 350.89 393.513 350.071C386.679 349.253 289.719 344.799 285.817 344.405C281.915 344.011 274.742 336.253 265 334.314C255.258 332.374 181.441 328.253 181.441 328.253C181.441 328.253 210.958 321.374 208.099 321.222C205.239 321.071 116.543 316.828 80.2402 319.677C40.4722 322.707 12.0458 325.041 8.9196 325.192C5.79341 325.344 -5.81464 323.313 -11.655 323.647C-17.4954 323.98 -41.3174 323.647 -41.3174 323.647C-34.7219 325.771 -28.0398 327.45 -21.3001 328.677C-17.2233 328.778 -13.1524 328.238 -9.18311 327.071C-9.18311 327.071 26.4407 326.404 38.7031 327.071C50.9655 327.738 73.3093 333.738 71.5402 334.435C69.7712 335.132 3.68503 333.283 20.4065 338.708C37.1279 344.132 141.382 343.496 144.145 343.435C146.908 343.374 172.62 346.829 176.061 347.465C179.503 348.102 205.796 350.799 207.759 351.708C209.722 352.617 224.117 357.769 224.117 357.769C224.117 357.769 118.215 354.738 112.641 361.375C111.55 362.617 186.627 364.617 186.627 364.617C186.627 364.617 192.977 366.738 192.225 367.345C191.474 367.951 130.017 369.193 130.017 369.193C130.017 369.193 183.962 370.405 186.143 371.011C188.324 371.617 195.352 380.102 212.8 379.89C230.248 379.678 240.912 380.163 260.905 379.89C261.68 379.89 258.723 383.405 257.972 384.921C257.221 386.436 336.805 389.709 335.521 391.86C334.236 394.012 193.001 398.951 193.001 398.951H883.112C883.112 398.951 705.21 366.981 702.617 364.526C700.024 362.072 597.926 361.951 596.933 361.193ZM134.549 325.253C134.549 328.283 108.352 326.465 108.158 324.768C108.158 322.192 134.597 321.798 134.549 325.344V325.253ZM78.3015 334.344C77.938 332.586 87.4135 329.556 103.771 330.132C103.771 330.132 150.931 334.071 150.979 334.92C151.028 335.768 78.6165 336.132 78.3015 334.404V334.344ZM184.543 337.768C170.366 337.253 155.099 336.465 154.76 335.162C154.42 333.859 187.791 331.617 187.791 331.617C187.791 331.617 246.776 333.829 249.393 335.465C252.011 337.102 201.483 338.435 184.543 337.829V337.768ZM402.092 378.799C401.534 376.011 426.083 371.557 440.527 374.405C440.527 374.405 452.644 374.769 452.644 376.133C452.644 377.496 402.625 381.587 402.092 378.86V378.799ZM526.291 378.951C526.291 376.254 552.73 375.769 552.682 379.436C552.633 382.405 526.485 380.678 526.291 379.011V378.951ZM606.045 364.314C606.287 363.981 617.58 363.587 617.386 364.314C617.192 365.041 605.802 364.678 606.045 364.375V364.314Z" fill="url(#paint22_linear_1304_4145)"/>
<path opacity="0.7" d="M909.842 398.404H1130.37C1130.37 398.404 1095.23 389.464 1079.29 387.434C1063.34 385.403 1053.91 381.737 1040.9 379.191C1027.89 376.646 953.367 374.009 954.36 372.555C955.354 371.1 1003.24 368.1 1001.96 365.979C1000.67 363.857 936.888 363.676 921.257 364.554C912.096 365.069 857.158 368.797 857.158 368.797C857.158 368.797 924.746 378.07 925.401 379.827C926.055 381.585 919.851 384.161 922.129 387.009C924.407 389.858 938.075 387.828 936.452 389.464C934.828 391.1 909.842 398.404 909.842 398.404Z" fill="url(#paint23_linear_1304_4145)"/>
<path style="mix-blend-mode:screen" opacity="0.4" d="M769.261 399.006C769.261 399.006 740.398 395.037 715.025 394.097C689.652 393.158 658.197 393.673 656.234 392.127C654.271 390.582 763.493 382.4 765.286 381.248C767.08 380.097 720.526 383.006 718.66 381.248C718.127 380.733 719 380.37 720.478 380.036C700.291 381.855 659.893 385.491 636.725 387.794C621.87 387.794 609.777 385.612 610.238 384.764C610.965 383.279 671.283 377.703 667.478 376.794C666.267 376.491 556.486 379.642 559.201 381.188C560.412 381.855 583.58 384.673 597.781 391.249C559.807 392.461 508.309 394.037 499.852 394.279C486.184 394.582 461.489 391.552 462.604 390.006C463.719 388.461 492.121 391.34 494.641 391.127C497.162 390.915 504.65 391.127 513.423 390.734C522.195 390.34 524.158 389.521 523.116 389.097C519.183 387.612 515.107 386.796 510.999 386.673C507.098 387.067 503.511 388.703 500.918 389.006C498.325 389.309 495.393 389.703 494.496 389.703C493.599 389.703 407.447 387.279 405.509 388.794C403.57 390.309 418.377 394.309 418.377 394.309L340.538 399.188L769.261 399.006Z" fill="url(#paint24_linear_1304_4145)"/>
<path style="mix-blend-mode:screen" opacity="0.45" d="M404.007 384.287C404.007 384.287 361.209 379.923 357.308 379.802C353.406 379.68 307.846 379.286 303.46 378.953C299.074 378.62 349.02 374.347 350.304 373.559C351.589 372.771 320.206 372.135 319.551 371.529C318.897 370.923 347.227 369.498 347.227 369.498L253.829 367.862C253.829 367.862 228.626 369.498 223.9 369.711C219.174 369.923 204.513 367.862 204.513 367.862L263.377 366.862C263.377 366.862 348.996 364.044 355.175 364.407L347.905 367.438L314.414 365.923C314.414 365.923 372.575 368.044 378.343 369.256C384.111 370.468 372.163 371.923 372.163 371.923C372.163 371.923 354.424 372.62 353.77 374.317C353.115 376.014 403.886 381.468 403.886 381.468L439.049 382.68L404.007 384.287Z" fill="url(#paint25_linear_1304_4145)"/>
</g>
<path d="M971.058 218.707C971.058 218.707 991.947 215.604 1032.37 218.707C1032.37 218.707 1009.37 223.483 971.058 218.707Z" fill="#1395FF"/>
<path d="M152.12 21.4531L158.614 43.0281H161.813L199.134 74.2512L210.742 145.812L200.491 73.4269L159.681 34.3254L152.12 21.4531Z" fill="#7CE0FF"/>
<path d="M249.927 83.1719L264.661 108.213L271.98 147.266L267.181 106.007L249.927 83.1719Z" fill="#7CE0FF"/>
<path d="M274.913 154.59L283.298 182.977L289.283 269.155L285.915 182.855L274.913 154.59Z" fill="#7CE0FF"/>
<path d="M367.269 240.547L379.628 248.256L406.358 284.012L412.95 294.145L402.844 275.333L382.803 246.074L367.269 240.547Z" fill="#7CE0FF"/>
<path style="mix-blend-mode:multiply" opacity="0.97" d="M1693.3 157.91L778.883 182.976L1693.3 176.188V157.91Z" fill="url(#paint26_linear_1304_4145)"/>
<path style="mix-blend-mode:screen" opacity="0.45" d="M1657.56 176.429C1657.56 176.429 1139.94 192.889 802.099 195.241C473.85 197.544 129.218 188.647 129.218 188.647L778.907 182.95L496.726 164.381L1317.68 156.139L348.1 131.219C348.1 131.219 1251.64 148.309 1610.69 157.884L1011.17 180.381L1657.56 176.429Z" fill="url(#paint27_linear_1304_4145)"/>
</g>
</g>
<defs>
<linearGradient id="paint0_linear_1304_4145" x1="845.113" y1="416.664" x2="845.113" y2="114.93" gradientUnits="userSpaceOnUse">
<stop stop-color="#0C1226"/>
<stop offset="0.42" stop-color="#0F1836"/>
<stop offset="1" stop-color="#0052A4"/>
</linearGradient>
<linearGradient id="paint1_linear_1304_4145" x1="-3.07568" y1="284.014" x2="1693.3" y2="284.014" gradientUnits="userSpaceOnUse">
<stop stop-color="#B67AE7"/>
<stop offset="1" stop-color="#FFEBC4"/>
</linearGradient>
<linearGradient id="paint2_linear_1304_4145" x1="-3.07568" y1="211.724" x2="1338.66" y2="211.724" gradientUnits="userSpaceOnUse">
<stop/>
<stop offset="1" stop-color="#3B549A"/>
</linearGradient>
<linearGradient id="paint3_linear_1304_4145" x1="-3.07568" y1="325.224" x2="1338.66" y2="325.224" gradientUnits="userSpaceOnUse">
<stop/>
<stop offset="1" stop-color="#3B549A"/>
</linearGradient>
<linearGradient id="paint4_linear_1304_4145" x1="1139.94" y1="221.54" x2="1657.56" y2="221.54" gradientUnits="userSpaceOnUse">
<stop/>
<stop offset="1" stop-color="#3B549A"/>
</linearGradient>
<radialGradient id="paint5_radial_1304_4145" cx="0" cy="0" r="1" gradientUnits="userSpaceOnUse" gradientTransform="translate(843.708 121.205) scale(417.745 417.875)">
<stop stop-color="#FFFFB5"/>
<stop offset="0.99" stop-color="#FA8374"/>
</radialGradient>
<linearGradient id="paint6_linear_1304_4145" x1="390.138" y1="302.98" x2="368.15" y2="432.278" gradientUnits="userSpaceOnUse">
<stop stop-color="#5C3856"/>
<stop offset="0.26" stop-color="#655378"/>
<stop offset="0.57" stop-color="#6E6E99"/>
<stop offset="0.83" stop-color="#737EAE"/>
<stop offset="1" stop-color="#7584B5"/>
</linearGradient>
<linearGradient id="paint7_linear_1304_4145" x1="369.037" y1="333.441" x2="406.285" y2="333.441" gradientUnits="userSpaceOnUse">
<stop stop-color="#5C3856"/>
<stop offset="0.26" stop-color="#655378"/>
<stop offset="0.57" stop-color="#6E6E99"/>
<stop offset="0.83" stop-color="#737EAE"/>
<stop offset="1" stop-color="#7584B5"/>
</linearGradient>
<linearGradient id="paint8_linear_1304_4145" x1="378.368" y1="323.283" x2="413.967" y2="323.283" gradientUnits="userSpaceOnUse">
<stop stop-color="#5C3856"/>
<stop offset="0.26" stop-color="#655378"/>
<stop offset="0.57" stop-color="#6E6E99"/>
<stop offset="0.83" stop-color="#737EAE"/>
<stop offset="1" stop-color="#7584B5"/>
</linearGradient>
<linearGradient id="paint9_linear_1304_4145" x1="408.732" y1="333.374" x2="390.46" y2="333.374" gradientUnits="userSpaceOnUse">
<stop stop-color="#00003B"/>
<stop offset="0.59" stop-color="#00104F"/>
<stop offset="1" stop-color="#001656"/>
</linearGradient>
<linearGradient id="paint10_linear_1304_4145" x1="390.768" y1="321.848" x2="382.972" y2="243.912" gradientUnits="userSpaceOnUse">
<stop stop-color="#00003B"/>
<stop offset="0.59" stop-color="#00104F"/>
<stop offset="1" stop-color="#001656"/>
</linearGradient>
<linearGradient id="paint11_linear_1304_4145" x1="390.768" y1="321.848" x2="382.972" y2="243.912" gradientUnits="userSpaceOnUse">
<stop stop-color="#5C3856"/>
<stop offset="0.26" stop-color="#655378"/>
<stop offset="0.57" stop-color="#6E6E99"/>
<stop offset="0.83" stop-color="#737EAE"/>
<stop offset="1" stop-color="#7584B5"/>
</linearGradient>
<linearGradient id="paint12_linear_1304_4145" x1="1201.45" y1="317.468" x2="1196.31" y2="347.711" gradientUnits="userSpaceOnUse">
<stop stop-color="#00003B"/>
<stop offset="0.59" stop-color="#00104F"/>
<stop offset="1" stop-color="#001656"/>
</linearGradient>
<linearGradient id="paint13_linear_1304_4145" x1="1201.45" y1="317.468" x2="1196.31" y2="347.711" gradientUnits="userSpaceOnUse">
<stop stop-color="#5C3856"/>
<stop offset="0.26" stop-color="#655378"/>
<stop offset="0.57" stop-color="#6E6E99"/>
<stop offset="0.83" stop-color="#737EAE"/>
<stop offset="1" stop-color="#7584B5"/>
</linearGradient>
<linearGradient id="paint14_linear_1304_4145" x1="1201.73" y1="319.246" x2="1199.9" y2="301.017" gradientUnits="userSpaceOnUse">
<stop stop-color="#00003B"/>
<stop offset="0.59" stop-color="#00104F"/>
<stop offset="1" stop-color="#001656"/>
</linearGradient>
<linearGradient id="paint15_linear_1304_4145" x1="1201.73" y1="319.246" x2="1199.9" y2="301.017" gradientUnits="userSpaceOnUse">
<stop stop-color="#5C3856"/>
<stop offset="0.26" stop-color="#655378"/>
<stop offset="0.57" stop-color="#6E6E99"/>
<stop offset="0.83" stop-color="#737EAE"/>
<stop offset="1" stop-color="#7584B5"/>
</linearGradient>
<linearGradient id="paint16_linear_1304_4145" x1="369.037" y1="296.326" x2="406.285" y2="296.326" gradientUnits="userSpaceOnUse">
<stop stop-color="#5C3856"/>
<stop offset="0.26" stop-color="#655378"/>
<stop offset="0.57" stop-color="#6E6E99"/>
<stop offset="0.83" stop-color="#737EAE"/>
<stop offset="1" stop-color="#7584B5"/>
</linearGradient>
<linearGradient id="paint17_linear_1304_4145" x1="378.367" y1="302.315" x2="413.966" y2="302.315" gradientUnits="userSpaceOnUse">
<stop stop-color="#5C3856"/>
<stop offset="0.26" stop-color="#655378"/>
<stop offset="0.57" stop-color="#6E6E99"/>
<stop offset="0.83" stop-color="#737EAE"/>
<stop offset="1" stop-color="#7584B5"/>
</linearGradient>
<linearGradient id="paint18_linear_1304_4145" x1="408.732" y1="296.738" x2="390.46" y2="296.738" gradientUnits="userSpaceOnUse">
<stop stop-color="#00003B"/>
<stop offset="0.59" stop-color="#00104F"/>
<stop offset="1" stop-color="#001656"/>
</linearGradient>
<linearGradient id="paint19_linear_1304_4145" x1="161.812" y1="307.333" x2="161.812" y2="21.4531" gradientUnits="userSpaceOnUse">
<stop stop-color="#00003B"/>
<stop offset="0.59" stop-color="#00104F"/>
<stop offset="1" stop-color="#001656"/>
</linearGradient>
<linearGradient id="paint20_linear_1304_4145" x1="238.828" y1="307.333" x2="238.828" y2="83.1719" gradientUnits="userSpaceOnUse">
<stop stop-color="#5C3856"/>
<stop offset="0.26" stop-color="#655378"/>
<stop offset="0.57" stop-color="#6E6E99"/>
<stop offset="0.83" stop-color="#737EAE"/>
<stop offset="1" stop-color="#7584B5"/>
</linearGradient>
<linearGradient id="paint21_linear_1304_4145" x1="110.969" y1="307.258" x2="110.969" y2="27.8984" gradientUnits="userSpaceOnUse">
<stop stop-color="#5C3856"/>
<stop offset="0.26" stop-color="#655378"/>
<stop offset="0.57" stop-color="#6E6E99"/>
<stop offset="0.83" stop-color="#737EAE"/>
<stop offset="1" stop-color="#7584B5"/>
</linearGradient>
<linearGradient id="paint22_linear_1304_4145" x1="286.035" y1="360.738" x2="1163.59" y2="369.13" gradientUnits="userSpaceOnUse">
<stop stop-color="#141A3B"/>
<stop offset="0.99" stop-color="#1DA1F2"/>
</linearGradient>
<linearGradient id="paint23_linear_1304_4145" x1="285.915" y1="371.524" x2="1163.5" y2="379.916" gradientUnits="userSpaceOnUse">
<stop stop-color="#001252"/>
<stop offset="0.99" stop-color="#005F9B"/>
</linearGradient>
<linearGradient id="paint24_linear_1304_4145" x1="340.416" y1="387.824" x2="769.261" y2="387.824" gradientUnits="userSpaceOnUse">
<stop stop-color="#141D3A"/>
<stop offset="1" stop-color="#139CFF"/>
</linearGradient>
<linearGradient id="paint25_linear_1304_4145" x1="204.537" y1="374.347" x2="439.17" y2="374.347" gradientUnits="userSpaceOnUse">
<stop/>
<stop offset="1" stop-color="#3B549A"/>
</linearGradient>
<linearGradient id="paint26_linear_1304_4145" x1="778.883" y1="170.443" x2="1693.3" y2="170.443" gradientUnits="userSpaceOnUse">
<stop stop-color="#B67AE7"/>
<stop offset="1" stop-color="#FFEBC4"/>
</linearGradient>
<linearGradient id="paint27_linear_1304_4145" x1="129.194" y1="163.412" x2="1657.56" y2="163.412" gradientUnits="userSpaceOnUse">
<stop/>
<stop offset="1" stop-color="#3B549A"/>
</linearGradient>
<clipPath id="clip0_1304_4145">
<rect width="1600" height="397" fill="white"/>
</clipPath>
</defs>
</svg>
