<svg width="768" height="299" viewBox="0 0 768 299" fill="none" xmlns="http://www.w3.org/2000/svg">
<g clip-path="url(#clip0_1304_8371)">
<mask id="mask0_1304_8371" style="mask-type:alpha" maskUnits="userSpaceOnUse" x="0" y="-117" width="1516" height="492">
<rect y="-116.148" width="1516" height="490.294" fill="#D9D9D9"/>
</mask>
<g mask="url(#mask0_1304_8371)">
<path d="M839 77.6484H-60V327.974H839V77.6484Z" fill="url(#paint0_linear_1304_8371)"/>
<path d="M359.541 76.9336L391.34 81.3762L334.087 84.0418H411.143C411.143 84.0418 352.323 86.4052 351.27 87.0094C350.217 87.6136 432.18 87.2937 433.721 87.0094C435.262 86.7251 413.493 84.3438 413.493 84.3438C413.493 84.3438 438.408 82.9044 439.063 82.1403C439.718 81.3762 397.838 80.0434 397.838 80.0434L414.148 77.8221L359.541 76.9336Z" fill="#7CE0FF"/>
<path d="M334.844 98.1156C334.022 98.1156 401.78 102.025 401.78 102.025C401.78 102.025 352.143 104.104 351.565 104.78C350.987 105.455 403.54 107.658 403.54 107.658C403.54 107.658 368.8 108.476 367.169 109.133C365.538 109.791 388.334 111.479 388.334 111.479C388.334 111.479 337.772 116.632 335.679 117.308C333.585 117.983 433.9 117.876 434.876 117.219C435.852 116.561 406.16 113.167 406.16 113.167C406.16 113.167 418.733 111.994 419.914 111.39C421.096 110.786 398.968 109.933 398.968 109.933C398.968 109.933 420.492 109.382 420.98 109.169C421.468 108.956 401.421 105.935 401.421 105.935C401.421 105.935 438.395 101.616 438.395 101.048C438.369 98.8442 368.659 97.8846 334.844 98.1156Z" fill="#7CE0FF"/>
<path d="M351.642 131.732C351.642 131.732 392.482 123.575 463.117 131.572C463.066 131.572 395.102 134.379 351.642 131.732Z" fill="#7CE0FF"/>
<path d="M125.853 78.1009C125.853 78.1009 575.184 73.9909 726.24 77.545C726.24 77.545 169.365 80.7665 125.853 78.1009Z" fill="#7CE0FF"/>
<path d="M348.316 182.204C348.316 182.204 389.169 179.645 459.791 182.204C459.791 182.204 391.84 183.021 348.316 182.204Z" fill="#7CE0FF"/>
<path d="M378.407 161.428C378.407 161.428 384.417 159.26 394.794 161.428C389.336 161.819 383.866 161.819 378.407 161.428V161.428Z" fill="#7CE0FF"/>
<path d="M407.329 201.647C407.329 201.647 413.327 199.479 423.716 201.647C418.257 202.037 412.788 202.037 407.329 201.647V201.647Z" fill="#7CE0FF"/>
<path d="M314 117.557C314 117.557 319.997 115.407 330.387 117.557C324.929 117.953 319.459 117.953 314 117.557V117.557Z" fill="#7CE0FF"/>
<path d="M315.349 201.647C315.349 201.647 347.25 199.479 402.397 201.647C402.397 201.594 349.331 202.34 315.349 201.647Z" fill="#7CE0FF"/>
<path d="M369.237 192.648C369.237 192.648 388.193 185.842 420.981 192.524C420.994 192.524 389.439 194.869 369.237 192.648Z" fill="#7CE0FF"/>
<path d="M286.144 181.318C286.144 181.318 305.1 174.494 337.888 181.175C337.824 181.175 306.282 183.539 286.144 181.318Z" fill="#7CE0FF"/>
<path d="M488.919 131.986C488.919 131.986 499.193 128.272 517.044 131.897C517.044 131.897 499.899 133.177 488.919 131.986Z" fill="#7CE0FF"/>
<path d="M369.237 140.155C369.237 140.155 390.492 135.944 420.981 140.031C420.994 140.031 389.439 142.377 369.237 140.155Z" fill="#7CE0FF"/>
<path style="mix-blend-mode:multiply" opacity="0.97" d="M839 191.161L304.779 206.462L477.039 211.526L-31.316 223.077L266.521 207.119L-59.9939 193.17L839 168.593V159.992H-59.9939V242.625H839V191.161Z" fill="url(#paint1_linear_1304_8371)"/>
<path style="mix-blend-mode:screen" opacity="0.45" d="M-59.9939 136.645L651.059 159.995H-59.9939V136.645Z" fill="url(#paint2_linear_1304_8371)"/>
<path style="mix-blend-mode:screen" opacity="0.25" d="M-59.9939 219.828L651.059 243.196H-59.9939V219.828Z" fill="url(#paint3_linear_1304_8371)"/>
<path style="mix-blend-mode:screen" opacity="0.45" d="M545.747 156.528L820.056 160.633C820.056 160.633 719.972 140.642 545.747 156.528Z" fill="url(#paint4_linear_1304_8371)"/>
<path style="mix-blend-mode:soft-light" opacity="0.6" d="M75.4987 77.4405L266.52 86.8822L633.823 87.4509L701.813 76.4688L75.4987 77.4405Z" fill="url(#paint5_radial_1304_8371)"/>
<g opacity="0.5">
<path style="mix-blend-mode:multiply" opacity="0.3" d="M136.269 307.098L130.452 277.048L131.274 269.264L148.56 238.273L157.139 240.281L156.946 255.19L165.14 220.662L157.075 214.336L136.359 219.063L122.502 214.727L125.225 247.762L124.724 264.875L136.269 307.098Z" fill="url(#paint6_linear_1304_8371)" fill-opacity="0.6"/>
<path style="mix-blend-mode:multiply" opacity="0.5" d="M137.207 218.387L138.273 256.717H147.558L156.946 255.189L147.083 254.425L138.619 255.989L137.823 226.508L137.207 218.387Z" fill="url(#paint7_linear_1304_8371)" fill-opacity="0.6"/>
<path style="mix-blend-mode:multiply" opacity="0.5" d="M143.281 217.482L148.56 238.273L157.139 240.281L161.017 238.042L156.946 242.822L147.674 239.855L145.092 225.425L144.052 225.478L142.151 217.375L143.281 217.482Z" fill="url(#paint8_linear_1304_8371)" fill-opacity="0.6"/>
<g style="mix-blend-mode:overlay" opacity="0.3">
<path d="M153.029 241.561L149.485 247.603H148.599L147.764 248.119L141.176 255.511L138.62 255.991L147.674 239.855L153.029 241.561Z" fill="#E0AE79"/>
</g>
<path opacity="0.6" d="M157.139 240.283L158.243 233.832H157.139H152.323L148.56 238.275L157.139 240.283Z" fill="url(#paint9_linear_1304_8371)" fill-opacity="0.6"/>
</g>
<g opacity="0.2">
<path d="M580.488 222.714L578.073 233.874L572.294 243.647L569.276 238.938L563.265 220.919L569.301 220.102L576.673 221.825L580.488 222.714Z" fill="url(#paint10_linear_1304_8371)"/>
<path style="mix-blend-mode:multiply" opacity="0.5" d="M580.488 222.714L571.408 223.194L569.571 222.767L569.751 234.727L572.294 243.647L569.276 238.938L563.265 220.919L569.301 220.102L580.488 222.714Z" fill="url(#paint11_linear_1304_8371)"/>
<g style="mix-blend-mode:overlay" opacity="0.5">
<path d="M572.294 243.645L578.073 233.871L569.751 234.724L572.294 243.645Z" fill="#E0AE79"/>
</g>
</g>
<path d="M580.488 223.038L578.073 216.48L572.294 210.723L569.276 213.495L563.265 220.71L569.301 224.566L576.673 223.553L580.488 223.038Z" fill="url(#paint12_linear_1304_8371)"/>
<path style="mix-blend-mode:multiply" opacity="0.5" d="M580.488 223.038L571.408 222.753L569.571 223.002L569.751 215.965L572.294 210.723L569.276 213.495L563.265 220.71L569.301 224.566L580.488 223.038Z" fill="url(#paint13_linear_1304_8371)"/>
<g style="mix-blend-mode:overlay" opacity="0.5">
<path d="M572.294 210.727L578.073 216.484L569.751 215.969L572.294 210.727Z" fill="#E0AE79"/>
</g>
<path d="M347.995 145.016C348.637 144.909 347.597 144.767 346.711 144.696C346.146 144.696 345.426 144.607 344.835 144.696C344.014 144.696 343.962 144.891 344.052 145.016L344.27 145.318C344.27 145.318 344.36 145.407 344.656 145.442H345.542C347.057 145.442 348.496 145.318 349.742 145.193L347.995 145.016Z" fill="#1395FF"/>
<path d="M335.807 150.628C342.306 149.863 333.496 149.117 326.702 149.597C319.536 150.112 330.157 151.303 335.807 150.628Z" fill="#1395FF"/>
<path d="M469.308 145.223C467.06 144.992 463.85 144.921 461.14 145.045C460.69 145.418 461.281 145.827 463.387 146.076C465.952 146.363 468.529 146.363 471.093 146.076C472.865 145.791 471.093 145.258 468.216 145.294L469.308 145.223Z" fill="#1395FF"/>
<path d="M519.959 115.921C517.241 115.66 514.514 115.601 511.791 115.743C511.342 116.098 511.932 116.507 514.039 116.774C516.604 117.043 519.179 117.043 521.744 116.774C523.53 116.472 521.744 115.939 518.868 115.974L519.959 115.921Z" fill="#1395FF"/>
<path d="M784.11 233.899C780.45 233.508 775.968 233.223 771.152 233.063C770.381 233.063 769.572 233.063 768.763 233.063C767.628 233.052 766.495 233.159 765.372 233.383C763.806 233.774 764.897 234.254 767.658 234.556C770.42 234.858 774.606 234.965 778.356 234.858C780.424 234.858 782.466 234.698 783.596 234.503C784.726 234.307 784.636 234.023 783.005 233.881C782.35 233.881 782.029 233.987 782.505 234.041L784.11 233.899Z" fill="#7084CD"/>
<path d="M348.021 160.735C345.787 160.54 342.563 160.486 339.853 160.593C339.404 160.895 339.994 161.251 342.101 161.464C344.666 161.697 347.24 161.697 349.806 161.464C351.591 161.215 349.806 160.753 346.929 160.789L348.021 160.735Z" fill="#1395FF"/>
<path d="M168.979 111.696C166.732 111.501 163.521 111.43 160.811 111.554C160.362 111.856 160.953 112.212 163.059 112.425C165.625 112.658 168.199 112.658 170.765 112.425C172.537 112.176 170.765 111.714 167.888 111.75L168.979 111.696Z" fill="#1395FF"/>
<path d="M609.885 98.3461C607.65 98.1328 604.427 98.0795 601.717 98.1861C601.267 98.506 601.858 98.8436 603.964 99.0746C606.53 99.3078 609.104 99.3078 611.67 99.0746C613.442 98.8259 611.67 98.3638 608.793 98.3816L609.885 98.3461Z" fill="#1395FF"/>
<path d="M748.356 228.75C747.701 228.75 747.071 228.75 746.314 228.75C745.726 228.734 745.138 228.769 744.554 228.856C744.413 228.856 744.426 228.856 744.554 228.981C745.406 229.12 746.265 229.167 747.123 229.123C748.124 229.123 748.69 228.928 748.253 228.821L748.356 228.75Z" fill="#536BC3"/>
<path d="M769.199 233.434C766.964 233.239 763.754 233.168 761.031 233.292C760.581 233.594 761.172 233.95 763.278 234.163C765.844 234.396 768.418 234.396 770.984 234.163C772.769 233.914 770.984 233.452 768.107 233.488L769.199 233.434Z" fill="#1395FF"/>
<path d="M463.914 201.591C461.679 201.395 458.469 201.324 455.746 201.449C455.297 201.751 455.887 202.106 457.994 202.319C460.559 202.553 463.133 202.553 465.699 202.319C467.484 202.071 465.699 201.609 462.822 201.644L463.914 201.591Z" fill="#1395FF"/>
<path d="M471.234 180.424C469 180.211 465.789 180.158 463.066 180.264C462.617 180.584 463.208 180.94 465.314 181.153C467.88 181.386 470.454 181.386 473.02 181.153C474.805 180.904 473.02 180.442 470.143 180.477L471.234 180.424Z" fill="#1395FF"/>
<path d="M754.905 226.628C754.353 226.628 754.533 226.788 754.802 226.859C755.072 226.931 755.355 227.019 754.931 227.09H754.43C754.157 227.099 753.884 227.051 753.621 226.948L752.85 226.842C752.247 226.842 752.182 226.646 752.709 226.54C753.236 226.433 753.762 226.54 754.186 226.54C754.61 226.54 754.815 226.54 754.7 226.682L754.905 226.628Z" fill="#536BC3"/>
<path d="M609.885 173.181C607.65 172.985 604.427 172.932 601.717 173.038C601.267 173.34 601.858 173.696 603.964 173.909C606.53 174.142 609.104 174.142 611.67 173.909C613.442 173.66 611.67 173.198 608.793 173.234L609.885 173.181Z" fill="#1395FF"/>
<path d="M619.453 176.179C620.441 176.097 621.431 176.097 622.419 176.179C622.971 176.303 622.162 176.445 621.405 176.534C621.015 176.564 620.625 176.564 620.236 176.534C619.196 176.534 620.069 176.232 619.106 176.161C619.315 176.124 619.526 176.124 619.735 176.161L619.453 176.179Z" fill="#1395FF"/>
<path d="M219.734 136.923C220.162 136.974 220.591 136.974 221.019 136.923C221.507 136.923 221.853 136.923 222.303 136.816C222.752 136.71 223.394 136.816 223.934 136.816C224.156 136.792 224.379 136.792 224.602 136.816C224.602 136.816 224.602 136.816 224.473 136.816C223.862 136.966 223.244 137.061 222.624 137.101C221.738 137.101 220.492 137.101 219.58 137.101C218.951 137.101 218.578 136.959 218.63 136.888C219.047 136.725 219.481 136.658 219.914 136.692L219.734 136.923Z" fill="#1395FF"/>
<path d="M757.833 226.226C758.244 226.03 757.949 225.835 757.037 225.657C756.87 225.657 756.665 225.657 756.369 225.657C755.939 225.65 755.509 225.697 755.085 225.799C754.507 225.906 753.197 225.959 752.619 226.066C752.041 226.172 752.298 226.261 752.452 226.368C753.182 226.657 753.943 226.766 754.7 226.688C755.24 226.685 755.78 226.643 756.318 226.563C756.962 226.476 757.602 226.328 758.231 226.119L757.833 226.226Z" fill="#7084CD"/>
<path d="M487.776 189.421C485.669 189.919 484.642 190.487 484.783 191.038C484.783 191.038 484.86 191.216 485.22 191.305C486.5 191.488 487.786 191.571 489.073 191.553C492.183 191.635 495.293 191.433 498.384 190.949C500.04 190.558 499.668 190.096 497.665 189.723C496.087 189.47 494.501 189.333 492.913 189.314C491.151 189.228 489.388 189.311 487.634 189.563C488.181 189.634 488.732 189.634 489.278 189.563L487.776 189.421Z" fill="#1395FF"/>
<path d="M500.619 145.21C498.513 145.725 497.485 146.276 497.626 146.827C497.626 146.916 497.703 147.005 498.063 147.093C499.343 147.277 500.629 147.36 501.916 147.342C505.026 147.424 508.136 147.222 511.227 146.738C512.884 146.347 512.511 145.885 510.508 145.512C508.935 145.253 507.353 145.111 505.769 145.085C504.003 144.994 502.234 145.083 500.478 145.352C501.029 145.414 501.583 145.414 502.134 145.352L500.619 145.21Z" fill="#1395FF"/>
<path d="M688.238 185.244C686.132 185.759 685.092 186.31 685.233 186.861C685.233 186.95 685.323 187.056 685.67 187.127C686.95 187.31 688.236 187.393 689.523 187.376C692.633 187.476 695.744 187.274 698.834 186.772C700.477 186.399 700.118 185.919 698.102 185.546C696.529 185.286 694.947 185.143 693.363 185.119C691.601 185.037 689.837 185.126 688.084 185.386C688.631 185.439 689.181 185.439 689.728 185.386L688.238 185.244Z" fill="#1395FF"/>
<path d="M356.304 122.138C354.211 122.635 353.171 123.204 353.312 123.755C353.312 123.844 353.389 123.933 353.749 124.021C355.028 124.204 356.315 124.287 357.601 124.27C360.707 124.352 363.813 124.15 366.9 123.666C368.556 123.275 368.184 122.813 366.18 122.44C364.607 122.18 363.025 122.038 361.441 122.013C359.68 121.927 357.916 122.01 356.163 122.262C356.71 122.333 357.26 122.333 357.807 122.262L356.304 122.138Z" fill="#1395FF"/>
<path d="M514.579 160.632C512.473 161.147 511.445 161.698 511.586 162.249C511.586 162.338 511.664 162.445 512.023 162.516C513.303 162.699 514.589 162.782 515.876 162.765C518.982 162.855 522.088 162.653 525.174 162.16C526.831 161.769 526.458 161.307 524.455 160.934C522.882 160.676 521.3 160.533 519.716 160.508C517.954 160.416 516.19 160.505 514.438 160.774C514.985 160.828 515.534 160.828 516.081 160.774L514.579 160.632Z" fill="#1395FF"/>
<path d="M259.701 185.244C257.608 185.759 256.567 186.31 256.709 186.861C256.709 186.95 256.786 187.056 257.146 187.128C258.425 187.311 259.712 187.394 260.998 187.376C264.104 187.476 267.211 187.274 270.297 186.772C271.953 186.399 271.581 185.919 269.577 185.546C268.004 185.287 266.422 185.144 264.838 185.12C263.077 185.037 261.313 185.126 259.56 185.386C260.107 185.439 260.656 185.439 261.204 185.386L259.701 185.244Z" fill="#1395FF"/>
<path d="M111.482 115.322C109.376 115.837 108.336 116.388 108.477 116.939C108.477 117.028 108.567 117.134 108.914 117.205C110.194 117.388 111.48 117.472 112.767 117.454C115.877 117.554 118.988 117.352 122.078 116.85C123.721 116.477 123.362 115.997 121.346 115.624C119.773 115.364 118.191 115.222 116.607 115.197C114.845 115.115 113.081 115.205 111.328 115.464C111.876 115.517 112.425 115.517 112.972 115.464L111.482 115.322Z" fill="#1395FF"/>
<path d="M558.938 136.886C556.831 137.384 555.791 137.935 555.932 138.504C555.932 138.504 556.022 138.681 556.369 138.752C557.648 138.943 558.935 139.032 560.222 139.019C563.332 139.106 566.443 138.898 569.533 138.397C571.177 138.024 570.817 137.544 568.801 137.189C567.228 136.921 565.646 136.773 564.062 136.744C562.3 136.662 560.536 136.751 558.783 137.011C559.33 137.082 559.88 137.082 560.427 137.011L558.938 136.886Z" fill="#1395FF"/>
<path d="M317.891 136.713C315.785 137.228 314.758 137.779 314.899 138.33C314.899 138.419 314.976 138.525 315.335 138.597C316.615 138.78 317.902 138.863 319.188 138.845C322.294 138.945 325.401 138.743 328.486 138.241C330.143 137.868 329.771 137.388 327.767 137.015C326.194 136.756 324.612 136.614 323.028 136.589C321.266 136.506 319.503 136.595 317.75 136.855C318.297 136.908 318.847 136.908 319.394 136.855L317.891 136.713Z" fill="#1395FF"/>
<path d="M548.329 138.614C548.74 138.383 548.445 138.152 547.533 137.956C547.311 137.931 547.087 137.931 546.865 137.956C546.433 137.939 546.002 137.998 545.581 138.134C545.003 138.258 543.693 138.312 543.115 138.436C542.537 138.56 542.794 138.667 542.948 138.791C543.67 139.132 544.436 139.259 545.196 139.165C545.737 139.162 546.278 139.109 546.814 139.005C547.461 138.911 548.102 138.738 548.727 138.489L548.329 138.614Z" fill="#1395FF"/>
<path d="M439.114 155.262C439.435 155.262 439.448 155.351 439.204 155.404C438.96 155.458 438.549 155.404 438.151 155.404H437.47C436.995 155.404 436.803 155.298 437.098 155.227C437.572 155.18 438.049 155.18 438.523 155.227C438.973 155.227 439.14 155.351 438.909 155.404L439.114 155.262Z" fill="#1395FF"/>
<path d="M447.039 157.751C446.307 157.538 445.331 157.342 444.136 157.147H443.61C443.387 157.128 443.164 157.128 442.942 157.147C441.871 157.417 440.79 157.613 439.705 157.733H438.729C438.306 157.733 438.729 157.875 439.127 157.929C441.623 158.172 444.13 158.089 446.615 157.68L446.859 157.786L447.039 157.751Z" fill="#1395FF"/>
<path d="M435.493 145.668C435.968 145.668 436.186 145.792 436.045 145.863C435.622 145.972 435.191 146.02 434.761 146.006C434.463 146.063 434.16 146.063 433.862 146.006H434.042L435.236 145.757H435.531L435.493 145.668Z" fill="#1395FF"/>
<path d="M433.207 147.125C432.654 147.125 432.834 147.303 433.091 147.392C433.348 147.481 436.392 147.623 435.968 147.694H432.731C432.457 147.709 432.183 147.655 431.922 147.534C431.742 147.534 427.414 147.41 427.158 147.356C426.554 147.267 430.484 147.161 431.01 147.054C431.502 147.018 431.995 147.018 432.487 147.054C432.911 147.054 433.117 147.161 433.001 147.232L433.207 147.125Z" fill="#1395FF"/>
<path d="M435.493 150.217C433.258 149.986 429.405 150.342 427.89 150.431C427.44 150.786 427.466 150.822 429.572 151.07C432.137 151.339 434.713 151.339 437.278 151.07C439.05 150.786 437.278 150.235 434.401 150.271L435.493 150.217Z" fill="#1395FF"/>
<path d="M442.608 150.215H441.169C441.169 150.215 441.169 150.321 441.298 150.375C441.835 150.411 442.374 150.364 442.903 150.233L442.608 150.215Z" fill="#1395FF"/>
<path d="M441.4 156.331C441.827 156.398 442.258 156.398 442.685 156.331L443.969 156.207C444.444 156.207 445.061 156.207 445.6 156.207C445.824 156.209 446.048 156.238 446.268 156.296C446.268 156.296 446.268 156.296 446.139 156.385C445.529 156.557 444.911 156.67 444.29 156.722C443.276 156.794 442.26 156.794 441.246 156.722C440.617 156.722 440.245 156.562 440.296 156.474C440.683 156.288 441.094 156.209 441.503 156.243L441.4 156.331Z" fill="#1395FF"/>
<path d="M442.967 157.009C442.331 156.909 441.689 156.909 441.054 157.009C440.668 157.115 440.951 157.222 441.246 157.329C441.997 157.359 442.748 157.257 443.481 157.027L442.967 157.009Z" fill="#1395FF"/>
<path d="M318.983 145.896C318.347 145.795 317.705 145.795 317.069 145.896C316.684 146.002 316.966 146.109 317.262 146.215C318.013 146.247 318.764 146.145 319.496 145.913L318.983 145.896Z" fill="#1395FF"/>
<path d="M443.802 160.686C442.004 160.686 440.154 160.686 438.318 160.686H437.688C437.509 160.686 437.457 160.686 437.47 160.775C437.483 160.864 440.039 161.237 439.204 161.45C439.05 161.45 438.793 161.539 438.844 161.575C439.314 161.635 439.787 161.635 440.257 161.575C443.159 161.468 444.662 160.97 443.057 160.633H443.853L443.802 160.686Z" fill="#1395FF"/>
<path d="M344.643 130.956C342.845 130.956 340.996 130.956 339.159 130.956H338.53C338.35 130.956 338.299 130.956 338.311 131.044C338.324 131.133 340.88 131.507 340.045 131.72C339.904 131.72 339.634 131.72 339.686 131.844C340.155 131.904 340.628 131.904 341.098 131.844C344.001 131.738 345.503 131.24 343.898 130.902H344.694L344.643 130.956Z" fill="#1395FF"/>
<path d="M448.875 153.476C455.374 152.569 446.564 151.699 439.77 152.267C432.642 152.871 443.224 154.257 448.875 153.476Z" fill="#1395FF"/>
<path d="M447.963 118.62C454.461 117.714 445.651 116.843 438.845 117.412C431.666 118.016 442.248 119.402 447.963 118.62Z" fill="#1395FF"/>
<path d="M425.167 159.741C431.665 158.977 422.855 158.23 416.048 158.71C408.921 159.225 419.516 160.416 425.167 159.741Z" fill="#1395FF"/>
<path d="M274.162 109.346C280.661 108.581 271.851 107.817 265.057 108.315C257.891 108.83 268.512 110.021 274.162 109.346Z" fill="#1395FF"/>
<path d="M477.103 131.896C483.601 131.132 474.791 130.368 467.985 130.866C460.806 131.381 471.452 132.572 477.103 131.896Z" fill="#1395FF"/>
<path d="M246.742 137.51C247.064 137.51 247.076 137.617 246.832 137.652C246.588 137.688 246.177 137.652 245.779 137.652H245.047C244.559 137.652 244.379 137.528 244.675 137.457C245.145 137.41 245.617 137.41 246.088 137.457C246.55 137.457 246.717 137.581 246.486 137.652L246.742 137.51Z" fill="#1395FF"/>
<path d="M254.666 140.018C253.707 139.744 252.738 139.542 251.764 139.414C251.584 139.393 251.404 139.393 251.224 139.414C251.006 139.396 250.788 139.396 250.57 139.414C249.495 139.694 248.41 139.89 247.32 140.001C246.986 140.001 246.601 140.001 246.344 140.001C246.087 140.001 246.344 140.143 246.755 140.178C249.247 140.422 251.749 140.339 254.23 139.929L254.486 140.036L254.666 140.018Z" fill="#1395FF"/>
<path d="M249.016 138.583C249.443 138.657 249.874 138.657 250.301 138.583L251.585 138.459C252.073 138.459 252.689 138.459 253.216 138.459C253.442 138.425 253.67 138.425 253.897 138.459C253.897 138.459 253.897 138.459 253.768 138.547C253.154 138.721 252.532 138.833 251.906 138.885C250.896 138.965 249.884 138.965 248.875 138.885C248.246 138.885 247.86 138.725 247.912 138.636C248.325 138.442 248.761 138.364 249.196 138.405L249.016 138.583Z" fill="#1395FF"/>
<path d="M250.595 139.253C249.96 139.145 249.317 139.145 248.682 139.253C248.296 139.342 248.579 139.466 248.874 139.555C249.626 139.595 250.377 139.493 251.109 139.253H250.595Z" fill="#1395FF"/>
<path d="M324.236 137.601C323.601 137.493 322.958 137.493 322.323 137.601C321.937 137.689 322.22 137.814 322.515 137.903C323.266 137.933 324.017 137.831 324.75 137.601H324.236Z" fill="#1395FF"/>
<path d="M251.469 142.95C249.671 142.95 247.808 142.95 245.985 142.95H245.343C245.176 142.95 245.124 142.95 245.137 143.038C245.15 143.127 247.706 143.5 246.871 143.714C246.717 143.714 246.46 143.803 246.511 143.838C246.981 143.898 247.454 143.898 247.924 143.838C250.814 143.731 252.329 143.234 250.711 142.914H251.469V142.95Z" fill="#1395FF"/>
<path d="M579.653 111.129C577.855 111.129 575.992 111.129 574.169 111.129H573.54C573.36 111.129 573.308 111.129 573.321 111.218C573.334 111.307 575.89 111.68 575.055 111.893C574.901 111.893 574.644 111.982 574.695 112.018C575.165 112.078 575.638 112.078 576.108 112.018C579.011 111.911 580.513 111.414 578.908 111.094H579.653V111.129Z" fill="#1395FF"/>
<path d="M256.504 135.716C263.002 134.827 254.192 133.939 247.385 134.507C240.257 135.112 250.853 136.498 256.504 135.716Z" fill="#1395FF"/>
<path d="M232.796 141.994C239.294 141.23 230.484 140.484 223.677 140.981C216.55 141.497 227.145 142.669 232.796 141.994Z" fill="#1395FF"/>
<path opacity="0.5" d="M323.388 260.784L329.809 260.145C329.809 260.145 325.494 260.393 323.388 260.784Z" fill="#1AFFFF"/>
<g opacity="0.16">
<path opacity="0.3" d="M341.266 267.526C341.266 267.526 326.432 267.526 326.175 267.526C325.919 267.526 329.322 268.504 329.322 268.504C329.322 268.504 318.842 269.903 318.2 270.281C317.558 270.659 339.93 271.547 343.41 270.281C346.891 269.015 347.982 268.415 349.023 268.193C350.063 267.971 362.906 268.304 363.15 267.504C363.394 266.704 356.471 265.883 356.086 265.505C354.083 264.706 352.026 264.385 349.973 264.55C347.07 264.683 339.57 265.994 338.928 266.238C338.286 266.482 341.266 267.526 341.266 267.526Z" fill="#33B9F8"/>
<path opacity="0.4" d="M15.2518 252.285C16.5536 251.432 17.9633 251.194 19.3358 251.597C20.9797 252.352 20.62 252.707 19.9394 253.107C19.2587 253.507 14.6097 252.507 15.2518 252.285Z" fill="#171F40"/>
<path opacity="0.4" d="M257.98 257.888C257.466 257.399 330.76 249.157 330.76 249.157C330.76 249.157 282.638 247.069 282.638 247.958C282.638 248.846 293.849 250.046 292.989 251.845C292.129 253.645 240.578 250.934 238.908 253.023C237.239 255.111 248.72 257.888 248.72 257.888C248.72 257.888 259.714 259.576 257.286 261.064C254.859 262.553 192.289 265.84 190.504 265.507C188.719 265.174 174.605 261.064 174.605 261.064C173.744 261.064 130.682 260.775 129.835 260.176C128.987 259.576 117.172 257.821 118.777 257.599C120.382 257.377 183.967 251.534 184.134 250.046C184.301 248.558 153.799 250.335 150.178 249.735C146.556 249.135 95.172 245.87 93.1043 245.581C91.0366 245.292 87.2352 239.605 82.0724 238.183C76.9096 236.762 37.7906 233.741 37.7906 233.741C37.7906 233.741 53.4331 228.698 51.9176 228.587C50.4022 228.476 3.39764 225.366 -15.8408 227.454C-36.9158 229.675 -51.9803 231.386 -53.6371 231.497C-55.2938 231.608 -61.4454 230.12 -64.5405 230.364C-67.6356 230.608 -80.2601 230.364 -80.2601 230.364C-76.7648 231.921 -73.2236 233.152 -69.6519 234.052C-67.4914 234.126 -65.3341 233.73 -63.2306 232.874C-63.2306 232.874 -44.3518 232.385 -37.8533 232.874C-31.3549 233.363 -19.5138 237.761 -20.4513 238.272C-21.3888 238.783 -56.4111 237.428 -47.5496 241.404C-38.6881 245.381 16.5615 244.914 18.0255 244.87C19.4896 244.826 33.1158 247.358 34.9395 247.824C36.7632 248.291 50.6975 250.268 51.7378 250.934C52.7781 251.601 60.4067 255.377 60.4067 255.377C60.4067 255.377 4.28379 253.156 1.32995 258.021C0.752027 258.932 40.5389 260.398 40.5389 260.398C40.5389 260.398 43.9037 261.953 43.5056 262.397C43.1075 262.841 10.5383 263.752 10.5383 263.752C10.5383 263.752 39.1262 264.641 40.2821 265.085C41.4379 265.529 45.1623 271.749 54.4091 271.594C63.6559 271.438 69.3068 271.794 79.902 271.594C80.313 271.594 78.7461 274.171 78.348 275.281C77.9498 276.392 120.125 278.791 119.445 280.368C118.764 281.946 43.9166 285.567 43.9166 285.567H409.64C409.64 285.567 315.361 262.13 313.987 260.331C312.613 258.532 258.506 258.443 257.98 257.888ZM12.9399 231.541C12.9399 233.763 -0.943187 232.43 -1.04593 231.186C-1.04593 229.298 12.9655 229.009 12.9399 231.608V231.541ZM-16.8682 238.206C-17.0609 236.917 -12.0393 234.696 -3.37047 235.118C-3.37047 235.118 21.6215 238.006 21.6472 238.628C21.6729 239.25 -16.7013 239.516 -16.8682 238.25V238.206ZM39.4345 240.716C31.9215 240.338 23.8305 239.761 23.6507 238.805C23.4709 237.85 41.1554 236.206 41.1554 236.206C41.1554 236.206 72.4147 237.828 73.8017 239.028C75.1887 240.227 48.4116 241.205 39.4345 240.76V240.716ZM154.724 270.794C154.429 268.75 167.438 265.485 175.093 267.573C175.093 267.573 181.514 267.84 181.514 268.839C181.514 269.839 155.007 272.838 154.724 270.838V270.794ZM220.543 270.905C220.543 268.928 234.555 268.573 234.529 271.261C234.503 273.438 220.646 272.171 220.543 270.95V270.905ZM262.809 260.176C262.937 259.931 268.922 259.642 268.819 260.176C268.716 260.709 262.68 260.442 262.809 260.22V260.176Z" fill="url(#paint14_linear_1304_8371)"/>
<path opacity="0.7" d="M423.806 285.161H540.675C540.675 285.161 522.053 278.608 513.602 277.12C505.152 275.631 500.156 272.943 493.259 271.077C486.363 269.211 446.871 267.279 447.398 266.212C447.925 265.146 473.302 262.947 472.621 261.392C471.94 259.837 438.138 259.704 429.855 260.348C425 260.725 395.886 263.458 395.886 263.458C395.886 263.458 431.704 270.255 432.051 271.544C432.398 272.832 429.11 274.72 430.317 276.809C431.524 278.897 438.768 277.408 437.907 278.608C437.047 279.808 423.806 285.161 423.806 285.161Z" fill="url(#paint15_linear_1304_8371)"/>
<path style="mix-blend-mode:screen" opacity="0.4" d="M349.305 285.614C349.305 285.614 334.009 282.704 320.563 282.016C307.116 281.327 290.447 281.705 289.406 280.572C288.366 279.439 346.248 273.441 347.199 272.597C348.149 271.753 323.478 273.885 322.489 272.597C322.207 272.219 322.669 271.953 323.452 271.708C312.754 273.041 291.345 275.707 279.068 277.395C271.195 277.395 264.787 275.796 265.031 275.174C265.416 274.085 297.382 269.998 295.365 269.331C294.723 269.109 236.545 271.42 237.984 272.552C238.626 273.041 250.904 275.107 258.43 279.928C238.305 280.816 211.014 281.971 206.532 282.149C199.289 282.371 186.202 280.15 186.793 279.017C187.383 277.884 202.435 279.994 203.771 279.839C205.106 279.683 209.075 279.839 213.724 279.55C218.373 279.261 219.413 278.661 218.861 278.35C216.776 277.261 214.616 276.664 212.44 276.573C210.372 276.862 208.471 278.062 207.097 278.284C205.723 278.506 204.169 278.795 203.694 278.795C203.218 278.795 157.562 277.017 156.535 278.128C155.508 279.239 163.355 282.171 163.355 282.171L122.104 285.748L349.305 285.614Z" fill="url(#paint16_linear_1304_8371)"/>
<path style="mix-blend-mode:screen" opacity="0.45" d="M155.739 274.807C155.739 274.807 133.059 271.608 130.991 271.52C128.923 271.431 104.779 271.142 102.454 270.898C100.13 270.653 126.599 267.521 127.279 266.943C127.96 266.366 111.329 265.899 110.982 265.455C110.635 265.011 125.648 263.967 125.648 263.967L76.1523 262.767C76.1523 262.767 62.7959 263.967 60.2915 264.122C57.7872 264.278 50.0173 262.767 50.0173 262.767L81.2125 262.034C81.2125 262.034 126.586 259.968 129.861 260.235L126.008 262.456L108.259 261.345C108.259 261.345 139.082 262.9 142.138 263.789C145.195 264.678 138.863 265.744 138.863 265.744C138.863 265.744 129.463 266.255 129.116 267.499C128.769 268.743 155.675 272.741 155.675 272.741L174.31 273.63L155.739 274.807Z" fill="url(#paint17_linear_1304_8371)"/>
</g>
<path d="M456.247 153.429C456.247 153.429 467.317 151.154 488.739 153.429C488.739 153.429 476.551 156.93 456.247 153.429Z" fill="#1395FF"/>
<path d="M78.365 187.413L60 186.753L65.4817 149.841L75.7795 138.325L69.5986 118.226L74.2925 78.8422L83.5582 59.68L103.355 53.1083L111.91 11.0374L115.539 6.95312L117.592 13.9087L137.066 40.3949L142.382 85.721L147.453 89.8974L153.401 61.9678L156.863 54.3981L160.325 46.0453L168.226 60.5091L170.201 85.721L176.803 109.182L178.346 163.844L179.944 188.027L128.466 188.012L78.365 187.413Z" fill="url(#paint18_linear_1304_8371)"/>
<path d="M111.911 11.0374V63.7796L115.228 68.1709V84.1088V94.5497L124.45 118.687L127.235 128.959L129.088 151.714L133.383 162.032L137.621 143.054L136.157 136.974L135.324 125.75L139.918 132.46L142.338 148.628L144.279 175.421L146.521 179.797L144.124 121.619L144.279 99.3557L142.637 88.8379L142.382 85.721L137.067 40.3949L131.097 32.2571L130.575 46.3524L131.907 75.1879L129.21 47.98L125.804 39.1819L124.527 23.3362L117.592 13.9087L115.539 6.95312L111.911 11.0374Z" fill="#005F9B"/>
<path style="mix-blend-mode:multiply" opacity="0.5" d="M160.325 46.0469L153.401 61.9693L147.453 89.8989L142.382 85.7225L144.279 99.3572L146.521 179.799L148.418 188.029H154.71L154.854 143.47L159.337 118.412L156.941 151.716L162.012 163.262L168.115 188.029V166.364L167.072 151.716V123.064L164.542 119.349L159.515 117.045L163.055 92.3556L162.012 93.3843L159.115 115.019L160.325 46.0469Z" fill="url(#paint19_linear_1304_8371)"/>
<path d="M160.325 46.0469L156.941 62.1075V82.2524L159.338 118.412L160.325 111.119L162.012 93.3843L163.055 92.3556L164.686 108.432V120.592L167.072 123.064V151.716L168.115 166.364V179.829V188.029H179.944L178.346 163.845L176.804 109.184L174.673 103.687L170.346 97.4993L169.902 106.205L168.448 104.716V92.2481V83.0816L169.38 90.1906L170.501 91.1119L170.201 85.7225L168.226 60.5107L160.325 46.0469Z" fill="#005F9B"/>
<path d="M83.5581 59.681L82.8257 70.5673L93.2122 92.2476L98.9381 93.3839L105.041 99.8327L103.377 93.3839L105.041 86.2748L103.355 53.1094L83.5581 59.681Z" fill="#005F9B"/>
<path style="mix-blend-mode:multiply" opacity="0.5" d="M82.8258 70.5601L93.2123 92.2404L95.7091 106.981L98.9382 93.3767L105.041 99.8255V128.953L111.2 147.178L106.817 101.008L105.041 86.2676L103.621 54.1002L111.91 11.0312V63.7735L110.756 88.6322L115.228 68.1648V94.5436L113.286 112.14L118.945 143.678L127.235 128.953L129.088 151.708L133.382 162.026L125.648 187.975L60 186.746L65.4817 149.835L76.3454 156.452L86.7984 160.245L75.7795 138.319L69.5986 118.22L74.2925 78.8361L83.5582 59.6738L82.8258 70.5601Z" fill="url(#paint20_linear_1304_8371)"/>
<path d="M115.539 6.95312L117.592 13.9087L119.645 28.8638L119.978 51.6343L124.894 63.7796L122.008 45.9839L120.211 32.7484L124.894 25.3476L125.804 39.1819L129.21 47.98L132.617 81.4218L133.094 97.4978V109.259L126.836 106.204L122.008 93.3828L116.438 68.1709V75.1879L115.228 94.5497V68.1709L111.911 63.7796V11.0374L115.539 6.95312Z" fill="#007BA8"/>
<path d="M156.941 62.1075V82.2524L158.284 76.4639V82.2524L163.055 92.3556L162.19 79.7804L164.32 74.0839L163.421 66.33L168.226 60.5107L160.325 46.0469L156.941 62.1075Z" fill="#007BA8"/>
<path d="M135.158 112.871L141.705 132.125L143.392 141.614L142.227 124.617L135.158 112.871Z" fill="#007BA8"/>
<path d="M103.621 54.1074L89.3395 61.2165L87.6639 63.7806L89.4504 74.0527L89.5614 77.6149L90.5712 82.2519L87.6639 77.922L83.8688 72.7476L91.7918 86.4283L93.2122 92.2476L82.8257 70.5673L83.5581 59.681L103.355 53.1094L103.621 54.1074Z" fill="#007BA8"/>
<path d="M167.072 123.059L168.448 152.754L170.346 156.669L172.288 168.001L174.818 179.793H176.759H179.4L179.944 188.023H168.115L167.671 158.312L167.072 151.71V123.059Z" fill="#007BA8"/>
<path d="M170.346 97.4961L169.902 106.202V111.315L167.072 121.618V123.061L172.587 131.721V135.851L175.117 151.712V131.875V124.612L177.192 123.061L176.804 109.181L174.673 103.684L170.346 97.4961Z" fill="#007BA8"/>
<path d="M103.188 187.538C107.397 186.698 111.641 186.236 115.894 186.156C119.988 186.448 149.894 188.383 149.894 188.383C149.894 188.383 104.387 188.045 103.188 187.538Z" fill="#1395FF" fill-opacity="0.2"/>
<path d="M115.539 6.95312L118.513 20.6185H119.978L137.067 40.3949L142.382 85.721L137.688 39.8729L119.002 15.1063L115.539 6.95312Z" fill="#7CE0FF"/>
<path d="M160.325 46.0469L167.072 61.9079L170.423 86.6438L168.226 60.5107L160.325 46.0469Z" fill="#7CE0FF"/>
<path d="M171.766 91.2773L175.605 109.257L178.346 163.842L176.804 109.181L171.766 91.2773Z" fill="#7CE0FF"/>
<path d="M249.419 178.824L239.476 154.18L231.586 138.411L224.474 134.91L214.498 156.376L214.93 165.066L212.578 174.018L225.284 179.991L242.45 182.033L249.419 178.824Z" fill="url(#paint21_linear_1304_8371)"/>
<path style="mix-blend-mode:multiply" opacity="0.5" d="M224.474 134.91L219.447 150.188L220.157 154.134L235.093 169.887L242.506 168.859L242.339 161.289L249.419 178.824L242.45 182.033L224.551 179.637L212.578 174.018L214.93 165.066L214.498 156.376L224.474 134.91Z" fill="url(#paint22_linear_1304_8371)"/>
<path d="M239.476 154.18L242.339 161.289L223.83 155.316L219.447 150.188L224.473 134.91L231.586 138.411L239.476 154.18Z" fill="#005F9B"/>
<path style="mix-blend-mode:multiply" opacity="0.5" d="M225.283 179.996L226.204 160.512H234.227L242.339 161.295L233.817 161.679L226.504 160.88L225.816 175.866L225.283 179.996Z" fill="url(#paint23_linear_1304_8371)"/>
<path style="mix-blend-mode:multiply" opacity="0.5" d="M230.532 180.449L235.093 169.885L242.505 168.856L245.856 169.992L242.339 167.566L234.327 169.086L232.096 176.411L231.198 176.38L229.555 180.495L230.532 180.449Z" fill="url(#paint24_linear_1304_8371)"/>
<path d="M238.954 168.21L235.892 165.14H235.126L234.405 164.879L228.712 161.117L226.504 160.871L234.327 169.086L238.954 168.21Z" fill="#005F9B"/>
<path d="M242.505 168.859L243.46 172.145H242.505H238.344L235.093 169.888L242.505 168.859Z" fill="url(#paint25_linear_1304_8371)"/>
<path d="M224.474 134.91L230.133 139.793L242.373 162.441L245.391 168.859L240.764 156.944L231.587 138.411L224.474 134.91Z" fill="#7CE0FF"/>
<path style="mix-blend-mode:multiply" opacity="0.97" d="M839 108.863L354.404 127.238L839 122.262V108.863Z" fill="url(#paint26_linear_1304_8371)"/>
<path style="mix-blend-mode:screen" opacity="0.45" d="M820.057 122.443C820.057 122.443 545.748 134.509 366.707 136.232C192.752 137.921 10.1149 131.399 10.1149 131.399L354.417 127.223L204.875 113.611L639.937 107.569L126.111 89.3008C126.111 89.3008 604.94 101.829 795.219 108.848L477.502 125.339L820.057 122.443Z" fill="url(#paint27_linear_1304_8371)"/>
</g>
</g>
<defs>
<linearGradient id="paint0_linear_1304_8371" x1="389.5" y1="327.974" x2="389.5" y2="77.6484" gradientUnits="userSpaceOnUse">
<stop stop-color="#0C1226"/>
<stop offset="0.42" stop-color="#0F1836"/>
<stop offset="1" stop-color="#0052A4"/>
</linearGradient>
<linearGradient id="paint1_linear_1304_8371" x1="-59.9939" y1="201.308" x2="839" y2="201.308" gradientUnits="userSpaceOnUse">
<stop stop-color="#B67AE7"/>
<stop offset="1" stop-color="#FFEBC4"/>
</linearGradient>
<linearGradient id="paint2_linear_1304_8371" x1="-59.9939" y1="148.32" x2="651.059" y2="148.32" gradientUnits="userSpaceOnUse">
<stop/>
<stop offset="1" stop-color="#3B549A"/>
</linearGradient>
<linearGradient id="paint3_linear_1304_8371" x1="-59.9939" y1="231.521" x2="651.059" y2="231.521" gradientUnits="userSpaceOnUse">
<stop/>
<stop offset="1" stop-color="#3B549A"/>
</linearGradient>
<linearGradient id="paint4_linear_1304_8371" x1="545.747" y1="155.515" x2="820.056" y2="155.515" gradientUnits="userSpaceOnUse">
<stop/>
<stop offset="1" stop-color="#3B549A"/>
</linearGradient>
<radialGradient id="paint5_radial_1304_8371" cx="0" cy="0" r="1" gradientUnits="userSpaceOnUse" gradientTransform="translate(388.758 81.9598) scale(221.384 306.326)">
<stop stop-color="#FFFFB5"/>
<stop offset="0.99" stop-color="#FA8374"/>
</radialGradient>
<linearGradient id="paint6_linear_1304_8371" x1="148.389" y1="215.215" x2="126.651" y2="307.625" gradientUnits="userSpaceOnUse">
<stop stop-color="#5C3856"/>
<stop offset="0.26" stop-color="#655378"/>
<stop offset="0.57" stop-color="#6E6E99"/>
<stop offset="0.83" stop-color="#737EAE"/>
<stop offset="1" stop-color="#7584B5"/>
</linearGradient>
<linearGradient id="paint7_linear_1304_8371" x1="137.207" y1="237.543" x2="156.946" y2="237.543" gradientUnits="userSpaceOnUse">
<stop stop-color="#5C3856"/>
<stop offset="0.26" stop-color="#655378"/>
<stop offset="0.57" stop-color="#6E6E99"/>
<stop offset="0.83" stop-color="#737EAE"/>
<stop offset="1" stop-color="#7584B5"/>
</linearGradient>
<linearGradient id="paint8_linear_1304_8371" x1="142.151" y1="230.099" x2="161.017" y2="230.099" gradientUnits="userSpaceOnUse">
<stop stop-color="#5C3856"/>
<stop offset="0.26" stop-color="#655378"/>
<stop offset="0.57" stop-color="#6E6E99"/>
<stop offset="0.83" stop-color="#737EAE"/>
<stop offset="1" stop-color="#7584B5"/>
</linearGradient>
<linearGradient id="paint9_linear_1304_8371" x1="158.243" y1="237.496" x2="148.56" y2="237.496" gradientUnits="userSpaceOnUse">
<stop stop-color="#00003B"/>
<stop offset="0.59" stop-color="#00104F"/>
<stop offset="1" stop-color="#001656"/>
</linearGradient>
<linearGradient id="paint10_linear_1304_8371" x1="578.344" y1="225.825" x2="573.26" y2="247.44" gradientUnits="userSpaceOnUse">
<stop stop-color="#00003B"/>
<stop offset="0.59" stop-color="#00104F"/>
<stop offset="1" stop-color="#001656"/>
</linearGradient>
<linearGradient id="paint11_linear_1304_8371" x1="578.344" y1="225.825" x2="573.26" y2="247.44" gradientUnits="userSpaceOnUse">
<stop stop-color="#5C3856"/>
<stop offset="0.26" stop-color="#655378"/>
<stop offset="0.57" stop-color="#6E6E99"/>
<stop offset="0.83" stop-color="#737EAE"/>
<stop offset="1" stop-color="#7584B5"/>
</linearGradient>
<linearGradient id="paint12_linear_1304_8371" x1="578.489" y1="227.134" x2="576.657" y2="213.89" gradientUnits="userSpaceOnUse">
<stop stop-color="#00003B"/>
<stop offset="0.59" stop-color="#00104F"/>
<stop offset="1" stop-color="#001656"/>
</linearGradient>
<linearGradient id="paint13_linear_1304_8371" x1="578.489" y1="227.134" x2="576.657" y2="213.89" gradientUnits="userSpaceOnUse">
<stop stop-color="#5C3856"/>
<stop offset="0.26" stop-color="#655378"/>
<stop offset="0.57" stop-color="#6E6E99"/>
<stop offset="0.83" stop-color="#737EAE"/>
<stop offset="1" stop-color="#7584B5"/>
</linearGradient>
<linearGradient id="paint14_linear_1304_8371" x1="93.22" y1="257.554" x2="558.301" y2="260.77" gradientUnits="userSpaceOnUse">
<stop stop-color="#141A3B"/>
<stop offset="0.99" stop-color="#1DA1F2"/>
</linearGradient>
<linearGradient id="paint15_linear_1304_8371" x1="93.156" y1="265.457" x2="558.249" y2="268.672" gradientUnits="userSpaceOnUse">
<stop stop-color="#001252"/>
<stop offset="0.99" stop-color="#005F9B"/>
</linearGradient>
<linearGradient id="paint16_linear_1304_8371" x1="122.039" y1="277.417" x2="349.305" y2="277.417" gradientUnits="userSpaceOnUse">
<stop stop-color="#141D3A"/>
<stop offset="1" stop-color="#139CFF"/>
</linearGradient>
<linearGradient id="paint17_linear_1304_8371" x1="50.0302" y1="267.521" x2="174.374" y2="267.521" gradientUnits="userSpaceOnUse">
<stop/>
<stop offset="1" stop-color="#3B549A"/>
</linearGradient>
<linearGradient id="paint18_linear_1304_8371" x1="119.977" y1="188.027" x2="119.977" y2="6.95312" gradientUnits="userSpaceOnUse">
<stop stop-color="#00003B"/>
<stop offset="0.59" stop-color="#00104F"/>
<stop offset="1" stop-color="#001656"/>
</linearGradient>
<linearGradient id="paint19_linear_1304_8371" x1="155.243" y1="188.029" x2="155.243" y2="46.0469" gradientUnits="userSpaceOnUse">
<stop stop-color="#5C3856"/>
<stop offset="0.26" stop-color="#655378"/>
<stop offset="0.57" stop-color="#6E6E99"/>
<stop offset="0.83" stop-color="#737EAE"/>
<stop offset="1" stop-color="#7584B5"/>
</linearGradient>
<linearGradient id="paint20_linear_1304_8371" x1="96.6967" y1="187.975" x2="96.6967" y2="11.0312" gradientUnits="userSpaceOnUse">
<stop stop-color="#5C3856"/>
<stop offset="0.26" stop-color="#655378"/>
<stop offset="0.57" stop-color="#6E6E99"/>
<stop offset="0.83" stop-color="#737EAE"/>
<stop offset="1" stop-color="#7584B5"/>
</linearGradient>
<linearGradient id="paint21_linear_1304_8371" x1="235.234" y1="186.406" x2="228.465" y2="137.484" gradientUnits="userSpaceOnUse">
<stop stop-color="#00003B"/>
<stop offset="0.59" stop-color="#00104F"/>
<stop offset="1" stop-color="#001656"/>
</linearGradient>
<linearGradient id="paint22_linear_1304_8371" x1="235.234" y1="186.406" x2="228.465" y2="137.484" gradientUnits="userSpaceOnUse">
<stop stop-color="#5C3856"/>
<stop offset="0.26" stop-color="#655378"/>
<stop offset="0.57" stop-color="#6E6E99"/>
<stop offset="0.83" stop-color="#737EAE"/>
<stop offset="1" stop-color="#7584B5"/>
</linearGradient>
<linearGradient id="paint23_linear_1304_8371" x1="225.283" y1="170.246" x2="242.339" y2="170.246" gradientUnits="userSpaceOnUse">
<stop stop-color="#5C3856"/>
<stop offset="0.26" stop-color="#655378"/>
<stop offset="0.57" stop-color="#6E6E99"/>
<stop offset="0.83" stop-color="#737EAE"/>
<stop offset="1" stop-color="#7584B5"/>
</linearGradient>
<linearGradient id="paint24_linear_1304_8371" x1="229.555" y1="174.031" x2="245.856" y2="174.031" gradientUnits="userSpaceOnUse">
<stop stop-color="#5C3856"/>
<stop offset="0.26" stop-color="#655378"/>
<stop offset="0.57" stop-color="#6E6E99"/>
<stop offset="0.83" stop-color="#737EAE"/>
<stop offset="1" stop-color="#7584B5"/>
</linearGradient>
<linearGradient id="paint25_linear_1304_8371" x1="243.46" y1="170.502" x2="235.093" y2="170.502" gradientUnits="userSpaceOnUse">
<stop stop-color="#00003B"/>
<stop offset="0.59" stop-color="#00104F"/>
<stop offset="1" stop-color="#001656"/>
</linearGradient>
<linearGradient id="paint26_linear_1304_8371" x1="354.404" y1="118.051" x2="839" y2="118.051" gradientUnits="userSpaceOnUse">
<stop stop-color="#B67AE7"/>
<stop offset="1" stop-color="#FFEBC4"/>
</linearGradient>
<linearGradient id="paint27_linear_1304_8371" x1="10.1021" y1="112.9" x2="820.057" y2="112.9" gradientUnits="userSpaceOnUse">
<stop/>
<stop offset="1" stop-color="#3B549A"/>
</linearGradient>
<clipPath id="clip0_1304_8371">
<rect width="768" height="299" fill="white"/>
</clipPath>
</defs>
</svg>
