<svg width="294" height="156" viewBox="0 0 294 156" fill="none" xmlns="http://www.w3.org/2000/svg">
<path fill-rule="evenodd" clip-rule="evenodd" d="M159.397 27.8711C160.028 14.8656 160.199 10.2667 163.219 6.68899C168.411 1.59345 176.281 0.106524 179.567 0H200.088C210.58 0 221.568 3.04375 224.695 13.0584C227.294 24.0342 229.592 38.5619 224.931 49.0395C222.207 55.1638 214.891 57.871 208.65 57.7525C203.371 57.7525 194.252 56.9564 188.333 55.8777C187.177 55.667 186.11 56.6197 186.324 57.7648C186.795 60.282 187.448 62.2314 188.106 64.1965C188.97 66.779 189.843 69.3888 190.326 73.3503C190.426 74.4633 190.222 75.5651 189.702 76.5635C188.862 78.1791 186.897 78.6934 185.066 78.6865C179.398 78.665 173.915 78.4467 168.651 78.0669C166.555 77.9157 164.767 76.5341 164.194 74.5259C163.705 72.8126 163.094 70.4704 162.488 67.6064C161.135 61.2126 158.197 44.6127 159.397 27.8711ZM189.656 39.5434C200.175 40.0767 205.54 36.9364 205.505 30.1226C204.769 25.6492 202.98 23.5754 200.14 23.9309C194.219 24.4661 190.245 25.6044 188.218 27.3601C187.207 28.235 186.88 29.6094 186.787 30.9375C186.418 36.2235 188.106 39.4648 189.656 39.5434Z" fill="#1EB1F7"/>
<path fill-rule="evenodd" clip-rule="evenodd" d="M50.4055 31.2557C50.048 24.1361 51.1972 17.0202 53.7928 10.282C55.9251 2.64687 62.6169 0.30625 65.6963 0.090332H80.1294C87.6727 0.090332 96.0248 2.68216 97.7973 10.0142C97.8188 10.1033 97.8397 10.1926 97.8599 10.282C98.9329 14.405 99.4901 18.6217 99.5215 22.8548C99.4538 29.3832 98.8342 35.8978 97.668 42.3427C97.0564 46.1257 95.906 51.4326 94.0496 54.1081C93.1143 55.5355 91.3528 56.1868 89.6953 55.7497C85.8097 54.7249 81.981 53.8646 78.2182 53.154C76.9241 52.9096 75.8705 51.9563 75.6604 50.6649C75.1808 47.718 74.9475 43.8038 74.9475 40.4852C74.9475 40.2466 74.9475 39.5164 75.1005 38.2718C75.1222 38.0957 75.0208 37.9266 74.8535 37.8643C74.7889 37.8402 74.7204 37.8278 74.6514 37.8278H71.2407C70.9851 37.8278 70.8573 37.9708 70.8573 38.1422L71.7738 47.921C71.8256 48.5362 71.8404 49.075 71.8304 49.5527C71.8009 50.9616 70.4299 51.8723 69.0228 51.6899C64.6463 51.1224 60.3752 50.753 56.2249 50.5561C54.5191 50.4752 53.0159 49.3738 52.6144 47.7254C51.2094 41.9577 50.562 34.6191 50.4055 31.2557ZM72.7812 17.6324C72.1863 18.2884 71.7081 19.028 71.3685 19.8259C71.1182 20.5132 70.6509 22.1274 70.399 24.0003C70.2889 24.8187 71.0017 25.488 71.8265 25.384C75.2775 24.9492 76.8976 25.2578 77.3762 23.3691C77.8547 21.4804 77.7888 19.5139 77.1845 17.6542C77.0739 17.2823 76.9238 16.9766 76.7214 16.7379C75.7297 15.5692 73.8111 16.4968 72.7812 17.6324Z" fill="#1EB1F7"/>
<path fill-rule="evenodd" clip-rule="evenodd" d="M105.407 5.92992C103.49 9.91826 102.588 11.6404 102.081 22.0587C101.222 34.0032 103.052 47.5562 105.349 59.5644C105.624 61.0005 106.695 62.1499 108.102 62.5693C111.09 63.4597 113.806 64.3679 115.896 65.2762C117.063 65.7831 118.456 66.2899 119.817 66.7852C120.84 67.1573 121.845 67.5229 122.722 67.8769C123.745 68.2902 124.809 68.7018 125.912 68.6442C128.809 68.4927 128.809 66.3452 128.809 63.1139L128.809 63.0034C128.656 60.1723 128.222 58.5709 127.748 56.8237C127.558 56.1228 127.361 55.3984 127.174 54.5617C127.118 54.3125 127.062 54.0658 127.005 53.8166L127.005 53.8163C126.658 52.2928 126.288 50.6713 125.867 47.7434C125.656 46.2824 127.406 45.2755 128.527 45.4707L128.769 45.5128C133.455 46.3291 138.414 47.193 142.469 47.193C147.482 47.2879 151.177 46.9477 154.529 42.0115C158.272 33.6181 156.616 18.9852 154.529 10.1927C152.151 2.59756 143.708 0.090332 135.749 0.090332H116.989C113.438 0.090332 107.235 2.12593 105.407 5.92992ZM126.385 31.4092C134.834 31.8364 139.143 29.3208 139.115 23.8624C138.524 20.2789 137.087 18.6176 134.806 18.9024C130.632 19.2787 127.662 20.0273 125.897 21.1559C124.534 22.0273 124.162 23.7408 124.175 25.3531C124.205 28.9888 124.577 31.3178 126.385 31.4092Z" fill="#1EB1F7"/>
<path d="M13.5362 54.7886C10.9766 55.4825 8.55923 56.2298 6.29476 57.0132C4.36317 57.6988 0.5 57.9802 0.5 53.621V10.8713C0.5 9.31082 0.616336 7.7315 1.17752 6.27544C1.4947 5.45248 1.85162 4.78495 2.26478 4.19361C3.73824 2.08468 7.59331 0.887806 13.7615 0.090332H15.9984C19.7151 1.00853 21.5058 7.28303 21.3705 18.9139C21.364 19.4732 22.2364 19.829 24.0629 19.829C24.7861 19.9236 25.4147 19.6733 25.5355 18.9589C25.8431 17.1406 26.019 12.8696 26.1911 5.83427C26.5095 2.34734 29.5664 0.090332 33.0678 0.090332H41.4863C43.658 0.090332 45.9294 0.926209 46.6628 2.97033C47.169 4.742 47.5004 6.54992 47.6533 8.37338C47.9835 12.1821 48.1156 15.9318 48.0826 19.6224C48.0826 29.6905 47.6204 36.9832 47.1912 41.5301C47.0305 43.6964 46.8204 44.8067 46.3242 47.4286L46.3101 47.503C46.2786 47.6082 46.2514 47.722 46.2198 47.854L46.2197 47.8544C46.1969 47.9496 46.1719 48.0542 46.1414 48.1719C45.8305 49.3704 44.771 50.2155 43.5258 50.2686C38.5827 50.4794 33.8673 50.9263 29.4121 51.5558C27.9094 51.7681 26.4299 50.9808 26.0806 49.5139C25.5196 47.1582 25.2756 44.3266 25.3657 42.5929V35.2493C25.3657 34.8962 25.0888 34.6019 24.7333 34.5943C21.8712 34.533 20.554 35.3807 20.38 36.574C20.2328 37.5841 20.0651 38.7904 19.881 40.1142L19.881 40.1144C19.4876 42.9439 19.0196 46.3101 18.5174 49.4442C18.0996 52.0518 16.1011 54.0932 13.5362 54.7886Z" fill="#1EB1F7"/>
<path d="M265.089 0H283.499C289.022 0 293.499 4.47715 293.499 10V24.398C293.503 29.5107 290.118 42.707 276.55 54.5907C267.897 62.1316 266.997 62.6569 263.314 64.8064C262.958 65.0141 262.576 65.2369 262.159 65.4828C251.891 71.0207 243.978 73.7977 238.419 73.814C238.191 73.814 237.944 73.8182 237.68 73.8226H237.68C235.095 73.8662 230.978 73.9355 228.931 70.3435C227.434 66.9037 227.2 63.2939 227.044 59.6423C226.895 58.3727 227.292 57.1003 228.165 56.0466C229.038 54.993 230.332 54.225 231.822 53.8763L238.262 51.6774C245.925 48.1631 252.05 42.7524 255.77 36.2119C255.77 35.9433 255.77 35.821 255.325 35.821H254.731C248.75 35.9675 245.052 33.9496 240.591 30.6658C236.999 27.7006 234.481 23.9694 233.321 19.8913C232.771 17.7959 232.492 15.6583 232.49 13.5145C232.594 10.0801 233.737 6.72128 235.814 3.7417C237.001 2.32464 241.096 1.54281 248.099 1.29849H250.384C254.806 1.93373 257.031 3.4485 257.031 5.86728C256.771 8.56334 256.144 11.2268 255.162 13.8077C254.823 14.7945 254.74 15.8288 254.918 16.8437C255.095 17.8586 255.53 18.8315 256.192 19.6996C256.855 20.5677 257.732 21.3117 258.766 21.8834C259.8 22.4551 260.968 22.8418 262.195 23.0185C262.818 23.0185 263.114 22.4077 263.085 20.8685C261.829 14.996 261.193 9.04487 261.186 3.08199C261.438 1.18758 263.178 0 265.089 0Z" fill="#1EB1F7"/>
<path d="M53.9252 147.741C53.7504 148.32 53.5855 148.87 53.4288 149.393C52.22 153.426 48.5383 155.937 44.3278 155.937H44.1138C38.8142 155.937 34.0504 153.396 32.4735 148.336C31.5478 145.366 30.7613 142.245 30.3085 140.22C29.962 142.764 29.164 147.189 28.0312 150.835C26.9709 154.248 23.6264 155.937 20.0526 155.937H17.8783C13.4666 155.937 9.32671 153.546 7.71902 149.438C2.45608 135.988 1.49703 120.234 0.835938 104.667V88.0061V80.8274C0.835938 74.3487 2.7968 67.5993 9.05387 65.9192C10.391 65.5602 11.9118 65.2714 13.633 65.0914C16.8322 64.757 19.0323 66.8848 19.6929 69.3955C20.3748 78.3465 22.2436 96.7371 24.2631 97.1669C24.4162 97.1432 25.0537 95.0281 25.6963 92.8957L25.6963 92.8957L25.6965 92.8951C26.0968 91.5667 26.4991 90.2317 26.7876 89.3917C28.2382 85.7054 29.9321 82.1254 31.9693 82.1254C34.0066 82.1254 37.7822 87.3183 39.5095 97.7041C39.7309 96.315 39.8948 94.1006 40.2373 91.8929C40.8013 88.2581 41.2111 84.3612 41.5844 82.1254C42.5455 76.3683 43.605 70.3218 45.0471 65.0914C45.3997 63.2806 47.0195 61.9571 48.9252 61.9609C52.5444 61.9683 56.2947 62.1129 60.1631 62.42C61.0978 62.4942 62.0176 62.8362 62.7897 63.3509C64.1407 64.2514 65.8314 65.9445 65.8314 72.6108C65.8314 72.6108 64.7231 86.552 61.3022 109.465C57.8813 132.377 56.4604 139.031 53.9252 147.741Z" fill="#1EB1F7"/>
<path fill-rule="evenodd" clip-rule="evenodd" d="M125.662 156C129.957 156 131.766 156 131.12 151.706C130.065 144.695 121.176 135.735 119.281 125.253C116.966 112.445 116.563 109.138 119.281 89.8065C120.905 78.2579 117.685 77.2826 113.814 76.0605C106.361 73.7075 96.7709 69.7813 89.3533 66.6259C86.1236 65.252 82.3477 64.7334 79.4634 66.726C79.0653 67.001 78.6852 67.2966 78.3333 67.6121C78.2272 67.7072 78.1295 67.7945 78.0387 67.8756C76.9791 68.8228 76.8709 68.9194 75.582 70.5169C72.0618 75.673 70.5788 79.9377 69.5363 83.365C68.7267 85.8603 66.9743 97.9129 67.0184 104.224C67.0943 115.083 67.8356 125.929 69.2387 136.709C70.0964 141.566 71.2297 145.745 72.6351 149.238C74.4457 153.739 79.1607 156 84.0122 156C87.553 156 91.2535 154.856 92.6882 151.619C93.7963 149.119 94.3216 146.221 94.7082 143.439C95.0675 140.854 95.4439 137.758 95.4439 133.698V129.724C95.4439 129.52 95.5567 129.332 95.7374 129.236C95.8449 129.179 95.9649 129.149 96.0868 129.149H100.413L100.456 129.149C100.712 129.149 100.994 129.148 101.155 129.341C101.24 129.442 101.281 129.568 101.271 129.696L102.177 143.439C102.392 146.207 102.93 148.262 103.598 149.847C105.387 154.087 110.786 156 115.388 156H125.662ZM101.422 107.955C101.259 108.782 100.426 109.206 99.5921 109.048C95.4126 108.256 93.8053 107.069 93.4339 105.075C92.8304 101.833 92.9081 98.5133 93.6625 95.299C94.0666 93.5775 94.8101 92.6832 96.4022 92.7328C96.8791 92.7477 97.0651 92.9013 97.3082 93.1426C98.9312 94.7529 100.103 96.7134 100.715 98.851C101.61 101.453 101.9 105.544 101.422 107.955Z" fill="#1EB1F7"/>
<path d="M164.593 149.452C164.799 148.557 165.009 147.509 165.222 146.275C165.922 142.225 165.931 136.714 165.922 131.898C165.922 130.202 165.922 125.671 165.842 121.237C165.758 116.594 169.834 112.863 173.546 110.073C178.397 106.426 179.611 99.7803 179.468 95.9061C179.468 94.0325 178.868 92.3369 178.134 90.9959C177.088 89.0832 174.954 88.2033 172.775 87.9696C164.768 87.1105 144.694 84.7971 133.749 82.4317C132.178 82.0923 130.46 82.1437 129.177 83.1048C128.81 83.3798 128.482 83.684 128.223 84.0283C127.201 85.3873 126.513 86.9265 126.206 88.5434C125.421 95.4781 125.026 101.314 126.404 108.782C126.77 110.911 128.301 112.795 130.154 113.966C131.263 114.667 132.174 115.471 136.311 114.976C137.074 114.917 137.886 114.853 138.741 114.802C139.413 114.761 139.96 114.72 140.605 114.671L140.605 114.671C141.947 114.569 143.082 115.639 143.071 116.985L142.923 134.809C142.923 139.699 143.087 145.652 143.9 150.086C144.657 154.216 148.617 156 152.816 156C157.843 156 163.463 154.35 164.593 149.452Z" fill="#1EB1F7"/>
<path d="M238.841 151.734C236.987 156 235.276 155.422 234.643 156H204.114C196.409 156 188.324 153.869 184.903 146.966C183.911 144.963 183.065 142.657 182.531 140.056C180.666 129.065 180.862 119.476 180.962 114.584L180.968 114.3C180.988 113.269 181 112.38 181.011 111.571C181.051 108.616 181.076 106.731 181.472 102.905C182.032 99.0999 183.353 95.2137 184.694 92.1408C185.67 89.9037 187.962 88.6009 190.417 88.57C202.695 88.4155 215.707 87.3724 229.151 85.1379C230.429 84.9256 231.779 84.8268 233.017 85.2042C234.053 85.5453 234.744 86.1044 235.313 86.8243C235.977 87.6651 236.313 88.7103 236.476 89.7668C237.481 96.2981 236.603 102.74 233.913 108.935C233.01 111.014 231.465 111.707 229.699 112.49C227.932 113.273 223.774 113.331 221.679 113.331C217.132 113.297 214.24 112.553 210.801 111.222C210.667 111.172 210.531 111.128 210.394 111.088C209.697 110.886 209.059 111.435 208.988 112.152L208.881 113.234C208.775 115.046 208.669 116.861 210.267 116.861H216.263C218.841 116.861 220.202 117.177 220.773 118.067C221.001 118.422 221.032 118.859 221.053 119.279C221.352 125.042 221.12 132.266 211.925 132.727C209.349 132.727 209.306 135.516 209.579 136.812C209.895 137.993 211.628 137.89 212.752 137.769C213.684 137.669 219.199 137.145 229.549 135.838C230.835 135.698 232.14 135.889 233.31 136.388C234.481 136.888 235.47 137.676 236.162 138.66C238.308 141.231 239.468 144.358 239.468 147.572C239.468 149.081 239.416 150.412 238.841 151.734Z" fill="#1EB1F7"/>
<path fill-rule="evenodd" clip-rule="evenodd" d="M293.498 87.7066C293.498 81.0568 293.321 73.274 287.775 69.6046C285.792 68.2922 283.246 68.5973 281.05 69.516C270.142 74.0779 259.256 77.6838 248.534 80.475C246.16 81.0929 243.761 82.1765 242.626 84.3372C242.362 84.8397 242.17 85.3329 242.048 85.8145C240.58 93.5747 239.751 101.435 239.569 109.321C238.871 128.611 241.816 142.968 246.101 150.815C248.159 154.583 252.499 156 256.792 156H257.529C261.285 156 265.286 154.356 265.286 150.6C264.79 142.128 264.525 136.936 264.525 135.025V134.77C266.704 140.06 269.278 145.191 272.227 150.123C273.002 151.159 273.751 152.113 274.476 152.982C276.168 155.009 278.738 156 281.379 156C285.16 156 289.017 154.523 291.023 151.317C292.031 149.705 292.445 148.271 292.902 145.616C293.333 143.108 293.498 140.56 293.498 138.016V132.718C293.498 128.416 291.886 124.094 287.67 123.24C287.07 123.118 286.429 123.012 285.746 122.921C283.335 122.543 282.364 121.688 281.167 120.635C281.012 120.499 280.853 120.359 280.688 120.217C279.362 119.081 279.634 117.084 281.098 116.129C281.628 115.782 282.158 115.454 282.683 115.129C284.755 113.844 286.748 112.609 288.407 110.499C292.55 104.835 293.498 97.5546 293.498 90.5373V87.7066ZM262.391 107.136C263.146 109.039 265.794 109.246 267.857 109.355C272.529 109.602 273.346 107.724 271.353 101.652C271.234 101.288 271.079 100.934 270.886 100.603C268.173 95.9769 266.037 97.0371 263.535 100.709C263.521 100.728 263.507 100.749 263.492 100.771C263.385 100.923 263.226 101.151 263.047 101.572C263.017 101.648 262.99 101.707 262.964 101.768C262.919 101.87 262.872 101.976 262.802 102.169C262.757 102.295 262.709 102.424 262.66 102.554C262.284 103.558 261.856 104.7 262.1 106.027C262.185 106.489 262.275 106.846 262.391 107.136Z" fill="#1EB1F7"/>
</svg>
