<svg width="872" height="468" viewBox="0 0 872 468" fill="none" xmlns="http://www.w3.org/2000/svg">
<path fill-rule="evenodd" clip-rule="evenodd" d="M472.813 84.1091C474.688 45.2212 475.194 31.47 484.163 20.7723C499.579 5.5361 522.949 1.09 532.706 0.771484H624.899C635.581 0.771484 646.808 3.0674 653.39 11.4818C658.955 18.5966 663.016 27.8971 666.712 39.8176C674.428 72.6366 681.254 116.076 667.413 147.405C659.323 165.718 637.6 173.812 619.067 173.458C603.392 173.458 576.313 171.078 558.738 167.852C555.305 167.222 552.136 170.071 552.772 173.495C554.171 181.022 556.109 186.85 558.061 192.726C560.628 200.448 563.221 208.252 564.656 220.097C564.953 223.425 564.346 226.72 562.803 229.705C560.306 234.536 554.474 236.074 549.036 236.053C532.206 235.989 515.924 235.336 500.294 234.2C494.069 233.748 488.758 229.617 487.057 223.613C485.605 218.49 483.793 211.486 481.992 202.922C477.973 183.804 469.25 134.169 472.813 84.1091ZM562.667 119.011C593.902 120.605 609.832 111.216 609.728 90.8415C607.542 77.4655 602.232 71.2647 593.798 72.3277C576.216 73.9279 564.415 77.3315 558.394 82.5812C555.394 85.1974 554.421 89.307 554.146 93.2782C553.049 109.084 558.061 118.776 562.667 119.011Z" fill="white"/>
<path fill-rule="evenodd" clip-rule="evenodd" d="M149.166 94.2291C148.104 72.9407 151.517 51.6633 159.224 31.5152C165.556 8.68534 185.427 1.68663 194.571 1.04102H260.475C268.054 1.04102 275.619 3.71911 280.11 9.82383C284.933 16.3786 288.332 23.7388 290.079 31.5152C293.265 43.8434 294.919 56.4521 295.013 69.1093C294.812 88.6301 292.972 108.109 289.509 127.38C287.693 138.692 284.277 154.56 278.764 162.56C275.987 166.828 270.756 168.776 265.834 167.469C254.296 164.405 242.927 161.832 231.754 159.707C227.911 158.977 224.783 156.126 224.158 152.265C222.734 143.453 222.042 131.749 222.042 121.826C222.042 121.113 222.042 118.93 222.496 115.208C222.56 114.681 222.259 114.176 221.763 113.989C221.571 113.917 221.367 113.88 221.162 113.88H211.035C210.276 113.88 209.896 114.308 209.896 114.82L212.618 144.06C212.771 145.9 212.815 147.511 212.786 148.939C212.698 153.152 208.627 155.875 204.449 155.33C191.453 153.633 178.77 152.528 166.446 151.939C161.381 151.697 156.917 148.404 155.725 143.475C151.553 126.229 149.63 104.286 149.166 94.2291ZM215.609 53.4938C213.843 55.4552 212.422 57.6667 211.414 60.0526C210.671 62.1078 209.283 66.9342 208.535 72.5345C208.208 74.9816 210.325 76.9828 212.774 76.6721C223.022 75.3719 227.832 76.2947 229.253 70.6472C230.675 64.9997 230.479 59.1196 228.684 53.559C228.356 52.4471 227.91 51.5327 227.309 50.8192C224.364 47.3246 218.667 50.0981 215.609 53.4938Z" fill="white"/>
<path fill-rule="evenodd" clip-rule="evenodd" d="M312.494 18.5021C306.802 30.4276 304.122 35.577 302.617 66.7291C300.068 102.444 305.501 142.969 312.321 178.875C313.137 183.169 316.319 186.606 320.497 187.86C329.368 190.523 337.435 193.238 343.641 195.954C347.105 197.47 351.242 198.985 355.284 200.466C358.321 201.579 361.304 202.672 363.908 203.731C366.948 204.967 370.107 206.197 373.383 206.025C381.985 205.572 381.984 199.15 381.983 189.489L381.983 189.158C381.531 180.693 380.241 175.904 378.834 170.68C378.269 168.584 377.686 166.418 377.13 163.917C376.964 163.171 376.797 162.434 376.628 161.689L376.628 161.688C375.596 157.132 374.498 152.284 373.247 143.529C372.623 139.161 377.818 136.15 381.147 136.733L381.865 136.859C395.78 139.3 410.507 141.883 422.547 141.883C437.433 142.167 448.406 141.15 458.358 126.39C469.474 101.293 464.555 57.5387 458.357 31.2483C456.539 25.4001 454.35 20.2068 451.738 15.6684C445.393 4.6451 432.097 1.04102 419.378 1.04102H346.887C336.342 1.04102 317.922 7.12768 312.494 18.5021ZM374.788 94.688C399.876 95.9653 412.671 88.4434 412.588 72.1222C410.832 61.4071 406.566 56.4398 399.792 57.2913C387.397 58.4165 378.578 60.6548 373.337 64.0294C369.29 66.635 368.186 71.7586 368.224 76.5795C368.312 87.4506 369.418 94.4146 374.788 94.688Z" fill="white"/>
<path d="M39.6868 164.595C32.0861 166.67 24.9079 168.905 18.1837 171.247C12.448 173.297 0.976562 174.138 0.976562 161.104V28.5872C0.976562 27.0372 1.14282 25.4876 1.55083 23.9922C2.82862 19.3091 4.32402 16.0385 6.21697 13.3103C10.5923 7.00435 22.0397 3.42555 40.3557 1.04102H46.9981C58.0346 3.78652 63.3521 22.548 62.9503 57.3255C62.931 58.9981 65.5215 60.0618 70.9452 60.0618C73.0926 60.3447 74.9592 59.5962 75.318 57.4602C76.2312 52.0233 76.7538 39.2526 77.2648 18.216C77.6193 14.306 78.0629 10.8848 78.5981 7.94759C79.3626 3.75225 83.1801 1.04102 87.4445 1.04102H124.06C129.628 1.04102 135.358 3.19767 137.535 8.32278C137.721 8.7607 137.894 9.2041 138.054 9.65255C139.557 14.95 140.541 20.3559 140.995 25.8083C141.976 37.1968 142.368 48.4088 142.27 59.4442C142.27 89.5489 140.898 111.355 139.623 124.951C139.146 131.428 138.522 134.748 137.049 142.588L137.007 142.81C136.913 143.125 136.832 143.465 136.739 143.861L136.738 143.861C136.671 144.146 136.596 144.458 136.506 144.81C135.583 148.394 132.436 150.921 128.739 151.08C114.061 151.71 100.059 153.046 86.8293 154.929C82.367 155.563 77.9738 153.209 76.9365 148.823C75.2708 141.779 74.5461 133.312 74.8137 128.129V106.17C74.8137 105.115 73.9914 104.234 72.9359 104.212C64.4371 104.029 60.5256 106.563 60.0091 110.131C59.5718 113.152 59.0738 116.759 58.5274 120.717C57.3592 129.178 55.9695 139.243 54.4782 148.615C53.2375 156.412 47.3032 162.516 39.6868 164.595Z" fill="white"/>
<path d="M786.722 0.771484H861.022C866.545 0.771484 871.022 5.24863 871.022 10.7715V73.7243C871.032 89.0119 860.981 128.47 820.693 164.004C794.998 186.552 792.325 188.123 781.387 194.55L781.385 194.552C780.329 195.172 779.195 195.838 777.957 196.572C747.469 213.131 723.971 221.435 707.464 221.484C706.788 221.484 706.053 221.496 705.272 221.509L705.27 221.51C697.594 221.64 685.367 221.847 679.29 211.107C674.846 200.821 674.149 190.027 673.688 179.109C673.245 175.313 674.422 171.508 677.014 168.357C679.607 165.207 683.45 162.91 687.875 161.868L706.997 155.293C729.752 144.785 747.94 128.606 758.985 109.049C758.985 108.246 758.985 107.88 757.664 107.88H755.902C738.142 108.318 727.159 102.285 713.915 92.4657C703.246 83.5995 695.77 72.4427 692.326 60.2486C690.693 53.9831 689.865 47.5917 689.859 41.1814C690.168 30.9122 693.56 20.8689 699.728 11.9596C703.253 7.72242 715.413 5.38467 736.208 4.65413H742.994C756.123 6.55355 762.732 11.0829 762.732 18.3153C761.959 26.3769 760.097 34.341 757.18 42.0581C756.176 45.0088 755.929 48.1015 756.456 51.1362C756.984 54.1708 758.273 57.0799 760.241 59.6756C762.209 62.2713 764.813 64.4958 767.883 66.2052C770.953 67.9147 774.421 69.071 778.064 69.5996C779.915 69.5996 780.796 67.7732 780.707 63.1707C776.977 45.6112 775.091 27.8167 775.068 9.98697C775.818 4.3265 781.012 0.771484 786.722 0.771484Z" fill="white"/>
<path d="M158.148 447.473C156.694 452.356 155.479 456.44 154.355 459.842C152.884 464.298 148.624 467.041 143.931 467.041H114.773C109.034 467.041 103.594 464.491 101.292 459.234C96.3973 448.059 91.6593 429.798 89.4935 420.045C88.0964 430.373 84.2275 451.07 78.7544 462.231C77.1746 465.452 73.7141 467.041 70.1261 467.041H38.501C34.0768 467.041 29.9806 464.622 28.0613 460.636C7.42565 417.777 4.15587 365.411 1.97656 313.738V263.919V222.764C1.97656 216.324 3.48809 209.722 8.68802 205.922C14.6435 201.571 24.6277 197.017 39.9766 195.402C49.4766 194.402 56.0095 200.764 57.9712 208.271C59.9961 235.036 65.5452 290.026 71.5422 291.311C71.9967 291.24 73.8896 284.915 75.7979 278.539L75.7984 278.538C76.9872 274.565 78.1819 270.574 79.0384 268.062C83.3458 257.04 88.3757 246.335 94.4252 246.335C100.475 246.335 111.686 261.862 116.815 292.917C117.473 288.764 117.959 282.142 118.977 275.541C120.651 264.672 121.868 253.02 122.977 246.335C125.83 229.121 128.977 211.041 133.259 195.402C134.306 189.987 139.116 186.03 144.775 186.041C155.522 186.063 166.658 186.495 178.145 187.414C180.92 187.635 183.652 188.658 185.945 190.197C189.956 192.89 194.977 197.952 194.977 217.885C194.977 217.885 191.685 259.571 181.527 328.082C171.369 396.593 167.15 416.489 159.622 442.533C159.103 444.264 158.613 445.909 158.148 447.473Z" fill="white"/>
<path fill-rule="evenodd" clip-rule="evenodd" d="M372.638 467.229C385.393 467.229 390.765 467.229 388.846 454.388C385.715 433.425 359.317 406.634 353.691 375.291C346.816 336.993 345.62 327.106 353.691 269.302C358.512 234.77 348.953 231.854 337.458 228.2C315.327 221.164 286.849 209.424 264.823 199.989C255.232 195.881 244.02 194.33 235.455 200.289C234.273 201.111 233.144 201.995 232.099 202.938C231.784 203.222 231.494 203.483 231.225 203.726C228.078 206.558 227.757 206.847 223.929 211.624C213.477 227.041 209.073 239.793 205.977 250.041C203.573 257.502 198.369 293.541 198.5 312.413C198.726 344.881 200.927 377.311 205.094 409.545C208.673 429.954 213.867 446.357 220.649 458.697C223.711 464.27 229.815 467.229 236.174 467.229H258.033C262.681 467.229 267.37 465.743 270.167 462.032C276.774 453.268 279.141 441.141 280.724 429.67C281.791 421.94 282.908 412.682 282.908 400.542V388.658C282.908 388.05 283.243 387.489 283.78 387.202C284.099 387.031 284.455 386.941 284.817 386.941H297.662L297.791 386.941C298.551 386.939 299.389 386.937 299.868 387.514C300.118 387.816 300.24 388.194 300.21 388.575L302.901 429.67C304.331 448.156 310.532 456.017 315.178 461.283C318.23 464.743 322.718 467.229 327.332 467.229H372.638ZM300.661 323.568C300.175 326.041 297.702 327.31 295.226 326.837C282.815 324.467 278.043 320.919 276.94 314.955C275.148 305.262 275.378 295.336 277.619 285.725C278.818 280.578 281.026 277.904 285.754 278.052C287.17 278.096 287.722 278.556 288.444 279.277C293.264 284.092 296.743 289.954 298.561 296.346C301.218 304.127 302.08 316.358 300.661 323.568Z" fill="white"/>
<path d="M483.217 461.404C485.436 458.262 487.69 452.243 490.11 438.151C492.189 426.041 492.215 409.561 492.189 395.161C492.189 387.779 492.189 362.429 491.456 346.171C491.248 341.534 494.901 337.612 499.451 336.696C526.809 331.187 532.961 302.477 532.412 287.541C532.412 281.939 530.63 276.869 528.452 272.859C525.345 267.14 519.01 264.509 512.539 263.81C488.762 261.241 429.152 254.324 396.653 247.251C391.989 246.236 386.886 246.39 383.076 249.264C381.986 250.086 381.014 250.996 380.245 252.025C377.209 256.089 375.167 260.691 374.256 265.526C371.922 286.261 370.751 303.713 374.843 326.041C375.93 332.407 380.477 338.041 385.977 341.541C389.271 343.638 391.977 346.041 404.26 344.563L404.261 344.563C406.528 344.385 408.939 344.195 411.476 344.041C413.471 343.92 415.095 343.796 417.011 343.649C420.995 343.344 424.366 346.523 424.333 350.519L423.894 403.865C423.894 423.49 424.771 448.838 430.008 461.245C431.83 465.563 436.544 467.229 441.23 467.229H467.889C473.495 467.229 479.983 465.984 483.217 461.404Z" fill="white"/>
<path d="M708.716 454.474C703.209 467.229 698.129 465.499 696.249 467.229H582.418C574.67 467.229 566.913 465.095 561.645 459.413C554.075 451.249 545.232 437.829 541.505 419.555C535.969 386.689 536.55 358.016 536.846 343.39L536.864 342.541C536.926 339.458 536.961 336.8 536.993 334.381C537.111 325.545 537.186 319.909 538.363 308.468C540.024 297.091 543.947 285.471 547.929 276.282C550.828 269.593 557.632 265.698 564.922 265.605C601.382 265.143 640.02 262.024 679.942 255.343C683.736 254.708 687.745 254.413 691.422 255.541C694.498 256.561 696.548 258.233 698.238 260.386C700.211 262.9 701.21 266.025 701.692 269.184C704.675 288.713 702.07 307.975 694.083 326.499C691.401 332.717 686.814 334.789 681.568 337.13C676.322 339.471 663.974 339.645 657.754 339.645C644.251 339.541 635.665 337.318 625.452 333.338C625.055 333.189 624.652 333.055 624.243 332.936C622.174 332.332 620.278 333.973 620.068 336.118L619.752 339.353C619.436 344.773 619.12 350.199 623.867 350.199H641.67C649.326 350.199 653.367 351.143 655.064 353.805C655.74 354.866 655.831 356.171 655.896 357.428C656.782 374.661 656.095 396.261 628.79 397.64C621.141 397.64 621.012 405.979 621.824 409.854C622.762 413.385 627.908 413.077 631.244 412.716C634.012 412.416 650.391 410.851 681.122 406.943C684.943 406.523 688.816 407.093 692.292 408.587C695.769 410.081 698.705 412.437 700.759 415.381C707.132 423.068 710.577 432.418 710.577 442.028C710.577 446.541 710.424 450.519 708.716 454.474Z" fill="white"/>
<path fill-rule="evenodd" clip-rule="evenodd" d="M871.02 249.837C871.02 238.644 869.411 227.163 863.617 217.587C860.749 212.848 858.767 212.054 854.027 208.896C848.137 204.972 840.577 205.884 834.055 208.631C801.664 222.272 769.34 233.054 737.501 241.4C730.453 243.247 723.327 246.487 719.959 252.948C719.175 254.451 718.604 255.925 718.243 257.365C713.882 280.569 711.42 304.071 710.882 327.652C708.551 392.461 719.881 438.645 735.165 459.521C739.204 465.038 746.06 467.229 752.898 467.229H771.123C777.851 467.229 784.947 464.589 786.491 458.041C786.993 455.915 787.245 453.59 787.245 451.082C785.773 425.749 784.987 410.225 784.987 404.51V403.748C791.458 419.566 799.101 434.908 807.857 449.654C811.543 454.619 815.029 458.952 818.353 462.618C821.121 465.671 825.12 467.229 829.242 467.229H843.429C849.328 467.229 854.981 464.667 858.677 460.07C866.981 449.739 867.761 446.202 870.446 428.648C870.828 426.15 871.02 423.613 871.02 421.086V384.39C871.02 380.111 869.751 375.697 866.052 373.547C861.862 371.111 855.84 369.369 848.001 368.319C840.841 367.188 837.957 364.632 834.402 361.483C833.943 361.076 833.472 360.659 832.98 360.234C829.043 356.836 829.85 350.866 834.197 348.008C835.773 346.972 837.346 345.99 838.904 345.018C845.059 341.176 850.976 337.483 855.902 331.176C860.056 325.456 861.236 324.128 863.753 319.054C868.826 308.831 871.02 297.425 871.02 286.012V249.837ZM778.648 321.12C780.89 326.809 788.754 327.429 794.879 327.755C808.754 328.494 811.18 322.877 805.261 304.722C804.907 303.634 804.449 302.575 803.873 301.586C795.82 287.752 789.477 290.922 782.045 301.901C782.006 301.959 781.963 302.02 781.918 302.086C781.6 302.543 781.127 303.223 780.597 304.482C780.507 304.709 780.429 304.887 780.35 305.067C780.216 305.374 780.078 305.689 779.87 306.268C779.735 306.645 779.592 307.029 779.447 307.419C778.331 310.42 777.061 313.834 777.785 317.802C778.037 319.184 778.305 320.252 778.648 321.12Z" fill="white"/>
</svg>
