<svg width="20" height="21" viewBox="0 0 20 21" fill="none" xmlns="http://www.w3.org/2000/svg">
<g clip-path="url(#clip0_94_151)">
<circle cx="9.99999" cy="10.208" r="9.9756" fill="#F9F9F9"/>
<path fill-rule="evenodd" clip-rule="evenodd" d="M9.55332 0.243144C8.13258 0.304858 6.71461 0.680266 5.45547 1.32807C5.1792 1.4702 4.93122 1.61094 4.71023 1.75103L4.64691 1.79117L5.09785 1.79376L5.54879 1.79634L5.12989 2.10095C4.88947 2.27579 4.71271 2.41068 4.71503 2.41756C4.75961 2.54952 5.03078 3.39327 5.02913 3.39487C5.02913 3.39487 4.84929 3.26785 4.63229 3.10987C4.4153 2.95188 4.22635 2.81434 4.21241 2.80424L4.18708 2.78587L3.77082 3.08834C3.54188 3.2547 3.35242 3.38866 3.34979 3.38604C3.34717 3.38341 3.40497 3.19645 3.47825 2.97057C3.55151 2.74469 3.60971 2.55812 3.60757 2.55598C3.60065 2.54906 3.25873 2.85365 3.09881 3.00919C2.66467 3.43142 2.33867 3.79922 2.01514 4.23178C1.90988 4.3725 1.74873 4.59907 1.70526 4.66746L1.68839 4.69397L1.83156 4.69668L1.97472 4.69938L1.70596 4.89422L1.4372 5.08905L1.35058 5.24005C1.30293 5.3231 1.24936 5.41785 1.23154 5.45061L1.19912 5.51017L1.23529 5.62596C1.25518 5.68964 1.31259 5.86779 1.36287 6.02182C1.41316 6.17587 1.4509 6.3019 1.4509 6.3019C1.4509 6.3019 1.34173 6.22484 1.21245 6.13067C1.08317 6.03649 0.975551 5.96128 0.973301 5.96353C0.961153 5.97567 0.800619 6.34462 0.730127 6.52238L0.648492 6.72825L0.672008 6.80002C0.684945 6.8395 0.748588 7.03505 0.813439 7.23458L0.931343 7.59739L1.4545 7.5999L1.97767 7.60242L1.55877 7.90724C1.32838 8.07489 1.13878 8.21517 1.13745 8.21898C1.13612 8.22278 1.20673 8.44618 1.29436 8.71542C1.38199 8.98465 1.45103 9.20481 1.44777 9.20467C1.44453 9.20451 1.25556 9.0687 1.02785 8.90286C0.800132 8.73702 0.609106 8.603 0.603338 8.60505C0.594103 8.60834 0.128788 8.94367 0.109422 8.961C0.0839375 8.98379 0.0247076 9.78091 0.0245128 10.1036L0.0244446 10.2083H10H19.9756L19.9755 10.1085C19.9754 10.0536 19.971 9.91 19.9656 9.78945C19.9354 9.10977 19.8462 8.48255 19.6868 7.82892L19.6328 7.60729H14.8164H10V6.30677V5.00625H14.2523C16.591 5.00625 18.5045 5.00349 18.5045 5.00013C18.5045 4.9801 18.2284 4.56396 18.0759 4.35409C17.7526 3.90934 17.4696 3.5802 17.0488 3.15975C16.7564 2.8675 16.5706 2.697 16.3293 2.49929L16.2145 2.4052H13.1072H10V1.31899V0.232788L9.86118 0.234298C9.78483 0.235126 9.6463 0.23911 9.55332 0.243144ZM7.93033 1.30438L8.08747 1.7866L8.60751 1.79147L9.12755 1.79634L8.70792 2.10084L8.2883 2.40534L8.4476 2.89479C8.53522 3.16399 8.60691 3.38732 8.60692 3.39108C8.60692 3.39484 8.43049 3.26982 8.21482 3.11324C7.99916 2.95666 7.80944 2.81917 7.79321 2.80771L7.76369 2.78686L7.34509 3.09126C7.11485 3.25867 6.92541 3.39309 6.92413 3.38995C6.92283 3.38682 6.9935 3.16386 7.08116 2.8945L7.24054 2.40474L6.82113 2.10054L6.40172 1.79634L6.92149 1.79147L7.44125 1.7866L7.60239 1.29109C7.69101 1.01856 7.7657 0.80156 7.76836 0.808876C7.77102 0.816183 7.84391 1.03916 7.93033 1.30438ZM4.3794 4.29258L4.5095 4.69434L5.03097 4.69686L5.55245 4.69938L5.14839 4.99339C4.92615 5.15509 4.73675 5.29318 4.72751 5.30025C4.71194 5.31216 4.72256 5.34956 4.8707 5.80476C4.95871 6.07516 5.02804 6.29906 5.02804 6.29906C5.02804 6.29906 4.8386 6.16588 4.61033 5.99982C4.38205 5.83377 4.1914 5.69791 4.18667 5.69791C4.18193 5.69791 3.99203 5.83331 3.76465 5.9988C3.53728 6.1643 3.34994 6.29625 3.34833 6.29204C3.34672 6.28782 3.41611 6.06706 3.50252 5.80148C3.58893 5.53588 3.65724 5.31471 3.65433 5.30998C3.65141 5.30526 3.46262 5.16594 3.2348 5.00039L2.82059 4.69938L3.34118 4.69686L3.86178 4.69434L3.97971 4.33154C4.16821 3.75174 4.17678 3.72568 4.18236 3.71601C4.18848 3.70539 4.20333 3.74883 4.3794 4.29258ZM7.92901 4.20451L8.08657 4.68964L8.60735 4.69451L9.12811 4.69938L9.07453 4.73979C9.04506 4.76202 8.85656 4.89947 8.65564 5.04522C8.45471 5.19099 8.29093 5.31308 8.29167 5.31655C8.29242 5.32002 8.36392 5.5414 8.45058 5.80852C8.53724 6.07564 8.60677 6.29552 8.6051 6.29715C8.60343 6.29877 8.41575 6.16472 8.18803 5.99925C7.96032 5.83379 7.76963 5.69847 7.76427 5.69854C7.75891 5.69861 7.56826 5.83408 7.34061 5.99958C7.11295 6.16509 6.9253 6.29909 6.92359 6.29739C6.92188 6.29568 6.9914 6.07572 7.07807 5.80857C7.16474 5.54143 7.23623 5.31998 7.23693 5.31646C7.23764 5.31295 7.06505 5.18427 6.85341 5.03051C6.64177 4.87675 6.45327 4.73934 6.43452 4.72517L6.40042 4.69938L6.9208 4.69451L7.44117 4.68964L7.49257 4.53377C7.52084 4.44804 7.59282 4.22741 7.65253 4.04347C7.71224 3.85954 7.76342 3.71136 7.76626 3.71422C7.76911 3.71706 7.84235 3.93769 7.92901 4.20451ZM4.35035 7.10803L4.50908 7.59755H5.02855C5.31426 7.59755 5.54778 7.60084 5.5475 7.60486C5.54722 7.60888 5.36639 7.7428 5.14565 7.90247C4.92493 8.06213 4.73676 8.19842 4.72753 8.20535C4.71201 8.21697 4.72287 8.25528 4.87039 8.709C4.95821 8.97909 5.02869 9.20145 5.027 9.20314C5.02532 9.20482 4.84048 9.07305 4.61624 8.91031C4.39199 8.74758 4.20301 8.61111 4.19627 8.60706C4.18843 8.60236 4.03384 8.70883 3.76764 8.90228C3.53863 9.0687 3.35009 9.20141 3.34868 9.19718C3.34726 9.19295 3.41631 8.97348 3.50211 8.70945C3.58792 8.44543 3.65812 8.22582 3.65812 8.22144C3.65812 8.21707 3.46857 8.076 3.23691 7.90795L2.8157 7.60242L3.34023 7.59755L3.86474 7.59268L4.01967 7.11534C4.19429 6.57734 4.18345 6.60955 4.18812 6.61468C4.19004 6.61678 4.26304 6.83879 4.35035 7.10803ZM7.92988 7.11429L8.08575 7.59715L8.60449 7.59735C8.88981 7.59746 9.12314 7.60084 9.12302 7.60486C9.12289 7.60888 8.93658 7.74734 8.70899 7.91257C8.48141 8.07779 8.29519 8.21845 8.29519 8.22514C8.29519 8.23185 8.36544 8.45347 8.45129 8.71766C8.53715 8.98184 8.60575 9.19962 8.60374 9.20163C8.60174 9.20364 8.41315 9.06931 8.18464 8.90311C7.95615 8.73693 7.76729 8.60095 7.76495 8.60095C7.76262 8.60095 7.57346 8.73695 7.34461 8.90315C7.11576 9.06937 6.92691 9.20375 6.92496 9.20179C6.92299 9.19984 6.99158 8.98222 7.07737 8.71819C7.16315 8.45417 7.23334 8.23232 7.23334 8.22519C7.23334 8.21806 7.04721 8.07722 6.8197 7.9122C6.59219 7.74718 6.40588 7.60888 6.40567 7.60486C6.40547 7.60084 6.63872 7.59746 6.92404 7.59734L7.44279 7.59711L7.5127 7.38058C7.72401 6.72609 7.76227 6.61227 7.76786 6.62141C7.77124 6.62692 7.84415 6.84872 7.92988 7.11429ZM0.375148 12.8223C0.375148 12.8419 0.454952 13.1154 0.512049 13.2916C0.737336 13.9868 1.08018 14.7404 1.43939 15.3301L1.48834 15.4104H10.0001H18.5119L18.5804 15.296C18.9313 14.7092 19.2328 14.0516 19.4548 13.389C19.5262 13.1759 19.6249 12.8472 19.6249 12.8224C19.6249 12.8116 18.0154 12.8094 10 12.8094C2.00179 12.8094 0.375148 12.8116 0.375148 12.8223ZM3.80505 18.0249C3.90924 18.1204 4.41446 18.4791 4.681 18.6468C6.0519 19.5096 7.56789 20.0151 9.18656 20.1493C11.4452 20.3365 13.7102 19.7435 15.582 18.4749C15.7722 18.3459 16.1323 18.0824 16.1904 18.0296C16.1956 18.0249 13.4801 18.0212 10.0003 18.0212C6.5907 18.0212 3.80282 18.0229 3.80505 18.0249Z" fill="#D80027"/>
<path fill-rule="evenodd" clip-rule="evenodd" d="M9.99999 0.232453L9.86118 0.233962C9.78483 0.23479 9.6463 0.238775 9.55332 0.242808C8.13258 0.304522 6.71461 0.67993 5.45547 1.32774C5.1792 1.46987 4.93122 1.61061 4.71023 1.75069L4.64691 1.79083L5.09785 1.79342L5.54879 1.796L5.12989 2.10062C4.88947 2.27545 4.71271 2.41035 4.71503 2.41723C4.75961 2.54919 5.03078 3.39293 5.02913 3.39454C5.02913 3.39454 4.84929 3.26751 4.63229 3.10953L4.21241 2.80391L4.18708 2.78553L3.77082 3.088C3.54188 3.25436 3.35242 3.38832 3.34979 3.3857C3.34717 3.38307 3.40497 3.19612 3.47825 2.97024C3.55151 2.74435 3.60971 2.55779 3.60757 2.55565C3.60065 2.54872 3.25873 2.85332 3.09881 3.00885C2.66467 3.43109 2.33867 3.79889 2.01514 4.23144C1.90988 4.37216 1.74873 4.59874 1.70526 4.66712L1.68839 4.69364L1.83156 4.69635L1.97472 4.69905L1.70596 4.89388L1.4372 5.08872L1.35058 5.23971C1.30293 5.32276 1.24936 5.41751 1.23154 5.45027L1.19912 5.50983L1.23529 5.62562C1.25518 5.68931 1.31259 5.86745 1.36287 6.02149C1.41316 6.17554 1.4509 6.30156 1.4509 6.30156C1.4509 6.30156 1.34173 6.22451 1.21245 6.13033C1.08317 6.03615 0.975551 5.96094 0.973301 5.96319C0.961153 5.97533 0.800619 6.34428 0.730127 6.52205L0.648492 6.72791L0.672008 6.79969L0.813439 7.23425L0.931343 7.59705L1.4545 7.59957L1.97767 7.60209L1.55877 7.90691C1.32838 8.07455 1.13878 8.21483 1.13745 8.21864C1.13612 8.22244 1.20673 8.44584 1.29436 8.71508C1.38199 8.98432 1.45103 9.20448 1.44777 9.20433C1.44453 9.20418 1.25556 9.06837 1.02785 8.90252C0.800132 8.73668 0.609106 8.60266 0.603338 8.60472C0.594103 8.608 0.128788 8.94333 0.109422 8.96066C0.0839375 8.98346 0.0247076 9.78058 0.0245128 10.1033L0.0244446 10.208H9.99999V0.232453ZM8.08747 1.78626L7.93033 1.30405C7.84391 1.03883 7.77102 0.815847 7.76836 0.808541C7.7657 0.801225 7.69101 1.01822 7.60239 1.29076L7.44125 1.78626L6.92149 1.79113L6.40172 1.796L6.82113 2.10021L7.24054 2.40441L7.08116 2.89416C6.9935 3.16352 6.92283 3.38648 6.92413 3.38962C6.92541 3.39276 7.11485 3.25834 7.34509 3.09093L7.76369 2.78653L7.79321 2.80737C7.80944 2.81884 7.99916 2.95632 8.21482 3.1129C8.43049 3.26948 8.60692 3.39451 8.60692 3.39075C8.60691 3.38699 8.53522 3.16366 8.4476 2.89445L8.2883 2.405L8.70792 2.1005L9.12755 1.796L8.60751 1.79113L8.08747 1.78626ZM4.5095 4.69401L4.3794 4.29224C4.20333 3.74849 4.18848 3.70506 4.18236 3.71567C4.17678 3.72535 4.16821 3.75141 3.97971 4.33121L3.86178 4.69401L3.34118 4.69652L2.82059 4.69905L3.2348 5.00006C3.46262 5.16561 3.65141 5.30492 3.65433 5.30965C3.65724 5.31437 3.58893 5.53554 3.50252 5.80114C3.41611 6.06673 3.34672 6.28749 3.34833 6.29171C3.34994 6.29591 3.53728 6.16396 3.76465 5.99847C3.99203 5.83298 4.18193 5.69758 4.18667 5.69758C4.1914 5.69758 4.38205 5.83343 4.61033 5.99948C4.8386 6.16554 5.02804 6.29873 5.02804 6.29873C5.02804 6.29873 4.95871 6.07482 4.8707 5.80442C4.72256 5.34922 4.71194 5.31182 4.72751 5.29992C4.73675 5.29284 4.92615 5.15476 5.14839 4.99305L5.55245 4.69905L5.03097 4.69652L4.5095 4.69401ZM8.08657 4.6893L7.92901 4.20417C7.84235 3.93736 7.76911 3.71673 7.76626 3.71388C7.76342 3.71103 7.71224 3.8592 7.65253 4.04313C7.59282 4.22708 7.52084 4.44771 7.49257 4.53344L7.44117 4.6893L6.9208 4.69418L6.40042 4.69905L6.43452 4.72483C6.45327 4.73901 6.64177 4.87641 6.85341 5.03018C7.06505 5.18393 7.23764 5.31261 7.23693 5.31613C7.23623 5.31964 7.16474 5.54109 7.07807 5.80823C6.99139 6.07538 6.92188 6.29535 6.92359 6.29705C6.9253 6.29876 7.11295 6.16475 7.34061 5.99925C7.56826 5.83375 7.75891 5.69828 7.76427 5.69821C7.76963 5.69813 7.96032 5.83345 8.18803 5.99892C8.41575 6.16438 8.60343 6.29844 8.6051 6.29681C8.60677 6.29518 8.53724 6.0753 8.45058 5.80818C8.36392 5.54106 8.29242 5.31968 8.29167 5.31622C8.29093 5.31275 8.45471 5.19065 8.65564 5.04489C8.85656 4.89913 9.04506 4.76169 9.07453 4.73945L9.12811 4.69905L8.60735 4.69418L8.08657 4.6893ZM4.50908 7.59722L4.35035 7.10769C4.26304 6.83845 4.19004 6.61645 4.18812 6.61434C4.18746 6.61362 4.18711 6.61237 4.18651 6.61224C4.18284 6.61141 4.16977 6.65254 4.01967 7.115L3.86474 7.59235L3.34023 7.59722L2.8157 7.60209L3.23691 7.90762C3.46857 8.07566 3.65812 8.21673 3.65812 8.22111C3.65812 8.22548 3.58792 8.44509 3.50211 8.70911C3.41631 8.97314 3.34726 9.19261 3.34868 9.19684C3.35009 9.20107 3.53863 9.06837 3.76764 8.90195C4.03384 8.7085 4.18843 8.60202 4.19627 8.60673C4.20301 8.61078 4.39199 8.74724 4.61624 8.90998C4.84048 9.07271 5.02532 9.20449 5.027 9.2028C5.02869 9.20112 4.95821 8.97875 4.87039 8.70866C4.72287 8.25494 4.71201 8.21664 4.72753 8.20502C4.73676 8.19809 4.92493 8.06179 5.14566 7.90213C5.36639 7.74247 5.54722 7.60855 5.5475 7.60452C5.54778 7.6005 5.31426 7.59722 5.02855 7.59722H4.50908ZM8.08574 7.59682L7.92988 7.11396C7.84415 6.84839 7.77124 6.62659 7.76786 6.62107C7.76227 6.61194 7.72401 6.72576 7.5127 7.38025L7.44279 7.59678L6.92404 7.597C6.63872 7.59712 6.40547 7.6005 6.40567 7.60452C6.40588 7.60855 6.59219 7.74684 6.8197 7.91187C7.04721 8.07688 7.23334 8.21773 7.23334 8.22486C7.23334 8.23199 7.16315 8.45384 7.07737 8.71786C6.99158 8.98188 6.92299 9.1995 6.92496 9.20146C6.92691 9.20342 7.11576 9.06903 7.34461 8.90282C7.57346 8.73661 7.76262 8.60062 7.76495 8.60062C7.76729 8.60062 7.95615 8.73659 8.18464 8.90278C8.41315 9.06897 8.60174 9.2033 8.60374 9.20129C8.60575 9.19929 8.53715 8.9815 8.45129 8.71732C8.36544 8.45314 8.29519 8.23151 8.29519 8.22481C8.29519 8.21812 8.48141 8.07746 8.70899 7.91224C8.93658 7.74701 9.12289 7.60855 9.12302 7.60452C9.12314 7.6005 8.88981 7.59713 8.60449 7.59701L8.08574 7.59682Z" fill="#0052B4"/>
<path d="M10 0.208008C15.523 0.208008 20 4.68501 20 10.208C20 15.731 15.523 20.208 10 20.208C4.477 20.208 0 15.731 0 10.208C0 4.68501 4.477 0.208008 10 0.208008ZM10 1.20801C8.81804 1.20807 7.64766 1.44094 6.5557 1.89332C5.46373 2.3457 4.47156 3.00873 3.63583 3.84455C2.8001 4.68037 2.13719 5.67261 1.68493 6.76463C1.23267 7.85664 0.999934 9.02705 1 10.209C1.00007 11.391 1.23294 12.5613 1.68531 13.6533C2.13769 14.7453 2.80072 15.7374 3.63654 16.5732C4.47236 17.4089 5.4646 18.0718 6.55662 18.5241C7.64864 18.9763 8.81904 19.2091 10.001 19.209C12.3881 19.2089 14.6773 18.2605 16.3652 16.5725C18.053 14.8845 19.0011 12.5951 19.001 10.208C19.0009 7.82093 18.0525 5.53167 16.3645 3.84384C14.6764 2.15601 12.3871 1.20788 10 1.20801V1.20801Z" fill="black" fill-opacity="0.1"/>
</g>
<defs>
<clipPath id="clip0_94_151">
<rect width="20" height="20" fill="white" transform="translate(0 0.208008)"/>
</clipPath>
</defs>
</svg>
